%TF.GenerationSoftware,KiCad,Pcbnew,9.0.3*%
%TF.CreationDate,2025-09-15T08:34:33+02:00*%
%TF.ProjectId,TEST_creat_foder,54455354-5f63-4726-9561-745f666f6465,rev?*%
%TF.SameCoordinates,Original*%
%TF.FileFunction,Copper,L4,Bot*%
%TF.FilePolarity,Positive*%
%FSLAX46Y46*%
G04 Gerber Fmt 4.6, Leading zero omitted, Abs format (unit mm)*
G04 Created by KiCad (PCBNEW 9.0.3) date 2025-09-15 08:34:33*
%MOMM*%
%LPD*%
G01*
G04 APERTURE LIST*
G04 Aperture macros list*
%AMRoundRect*
0 Rectangle with rounded corners*
0 $1 Rounding radius*
0 $2 $3 $4 $5 $6 $7 $8 $9 X,Y pos of 4 corners*
0 Add a 4 corners polygon primitive as box body*
4,1,4,$2,$3,$4,$5,$6,$7,$8,$9,$2,$3,0*
0 Add four circle primitives for the rounded corners*
1,1,$1+$1,$2,$3*
1,1,$1+$1,$4,$5*
1,1,$1+$1,$6,$7*
1,1,$1+$1,$8,$9*
0 Add four rect primitives between the rounded corners*
20,1,$1+$1,$2,$3,$4,$5,0*
20,1,$1+$1,$4,$5,$6,$7,0*
20,1,$1+$1,$6,$7,$8,$9,0*
20,1,$1+$1,$8,$9,$2,$3,0*%
G04 Aperture macros list end*
%TA.AperFunction,NonConductor*%
%ADD10C,0.450000*%
%TD*%
%TA.AperFunction,EtchedComponent*%
%ADD11C,31.500000*%
%TD*%
%TA.AperFunction,EtchedComponent*%
%ADD12C,0.450000*%
%TD*%
%TA.AperFunction,ComponentPad*%
%ADD13C,1.400000*%
%TD*%
%TA.AperFunction,ComponentPad*%
%ADD14R,2.500000X4.500000*%
%TD*%
%TA.AperFunction,ComponentPad*%
%ADD15O,2.500000X4.500000*%
%TD*%
%TA.AperFunction,ComponentPad*%
%ADD16C,2.400000*%
%TD*%
%TA.AperFunction,SMDPad,CuDef*%
%ADD17RoundRect,0.252000X-0.448000X0.748000X-0.448000X-0.748000X0.448000X-0.748000X0.448000X0.748000X0*%
%TD*%
%TA.AperFunction,SMDPad,CuDef*%
%ADD18RoundRect,0.115500X-0.519500X0.269500X-0.519500X-0.269500X0.519500X-0.269500X0.519500X0.269500X0*%
%TD*%
%TA.AperFunction,ViaPad*%
%ADD19C,0.600000*%
%TD*%
G04 APERTURE END LIST*
D10*
X336875000Y-183125000D02*
X317575000Y-183125000D01*
X317575000Y-191175000D02*
X335925000Y-191175000D01*
X315675000Y-181225000D02*
X315675000Y-193075000D01*
X314725000Y-194025000D02*
X338775000Y-194025000D01*
X316625000Y-192125000D02*
X336875000Y-192125000D01*
X339725000Y-180275000D02*
X314725000Y-180275000D01*
X338775000Y-181225000D02*
X315675000Y-181225000D01*
X316625000Y-182175000D02*
X316625000Y-192125000D01*
X337825000Y-193075000D02*
X337825000Y-182175000D01*
X335925000Y-191175000D02*
X335925000Y-186250000D01*
X336875000Y-192125000D02*
X336875000Y-183125000D01*
X337825000Y-182175000D02*
X316625000Y-182175000D01*
X338775000Y-194025000D02*
X338775000Y-181225000D01*
X317575000Y-183125000D02*
X317575000Y-191175000D01*
X314725000Y-180275000D02*
X314725000Y-194025000D01*
X315675000Y-193075000D02*
X337825000Y-193075000D01*
D11*
%TO.C,T3*%
X201000000Y-122075000D02*
X163500000Y-122075000D01*
X201000000Y-122075000D02*
X163500000Y-122075000D01*
X219000000Y-154075000D02*
X219000000Y-140075000D01*
X219000000Y-154075000D02*
X219000000Y-140075000D01*
X163500000Y-172075000D02*
X201000000Y-172075000D01*
X163500000Y-172075000D02*
X201000000Y-172075000D01*
X201000000Y-122075000D02*
G75*
G02*
X219000000Y-140075000I0J-18000000D01*
G01*
X201000000Y-122075000D02*
G75*
G02*
X219000000Y-140075000I0J-18000000D01*
G01*
X145500000Y-140075000D02*
G75*
G02*
X163500000Y-122075000I18000000J0D01*
G01*
X145500000Y-140075000D02*
G75*
G02*
X163500000Y-122075000I18000000J0D01*
G01*
X219000000Y-154075000D02*
G75*
G02*
X201000000Y-172075000I-18000000J0D01*
G01*
X219000000Y-154075000D02*
G75*
G02*
X201000000Y-172075000I-18000000J0D01*
G01*
D12*
%TO.C,T2*%
X345262500Y-95910000D02*
X319312500Y-95910000D01*
X319312500Y-95910000D02*
X319312500Y-109660000D01*
X344312500Y-96860000D02*
X320262500Y-96860000D01*
X320262500Y-96860000D02*
X320262500Y-108710000D01*
X343362500Y-97810000D02*
X321212500Y-97810000D01*
X321212500Y-97810000D02*
X321212500Y-107760000D01*
X342412500Y-98760000D02*
X322162500Y-98760000D01*
X322162500Y-98760000D02*
X322162500Y-106810000D01*
X341462500Y-106810000D02*
X341462500Y-102310000D01*
X322162500Y-106810000D02*
X341462500Y-106810000D01*
X342412500Y-107760000D02*
X342412500Y-98760000D01*
X321212500Y-107760000D02*
X342412500Y-107760000D01*
X343362500Y-108710000D02*
X343362500Y-97810000D01*
X320262500Y-108710000D02*
X343362500Y-108710000D01*
X344312500Y-109660000D02*
X344312500Y-96860000D01*
X319312500Y-109660000D02*
X344312500Y-109660000D01*
%TD*%
D13*
%TO.P,C78,1,1*%
%TO.N,Net-(T3-AB)*%
X247100000Y-171500000D03*
%TO.P,C78,2,2*%
%TO.N,HVN1*%
X247100000Y-186500000D03*
%TD*%
D14*
%TO.P,Q1,1,G*%
%TO.N,G_P_1*%
X294800000Y-130610000D03*
D15*
%TO.P,Q1,2,D*%
%TO.N,HVP1*%
X300250000Y-130610000D03*
%TO.P,Q1,3,S*%
%TO.N,S_P_1*%
X305700000Y-130610000D03*
%TD*%
D13*
%TO.P,C74,1,1*%
%TO.N,Net-(T3-AB)*%
X246500000Y-190250000D03*
%TO.P,C74,2,2*%
%TO.N,HVN1*%
X246500000Y-205250000D03*
%TD*%
%TO.P,C76,1,1*%
%TO.N,Net-(T3-AB)*%
X267200000Y-171500000D03*
%TO.P,C76,2,2*%
%TO.N,HVN1*%
X267200000Y-186500000D03*
%TD*%
D14*
%TO.P,Q3,1,G*%
%TO.N,G_S_1*%
X112550000Y-130390000D03*
D15*
%TO.P,Q3,2,D*%
%TO.N,D_S_1*%
X118000000Y-130390000D03*
%TO.P,Q3,3,S*%
%TO.N,con_gnd*%
X123450000Y-130390000D03*
%TD*%
D16*
%TO.P,Cdc1,1*%
%TO.N,HVP1*%
X323000000Y-142000000D03*
%TO.P,Cdc1,2*%
%TO.N,HVN1*%
X323000000Y-164500000D03*
%TD*%
D13*
%TO.P,C77,1,1*%
%TO.N,Net-(T3-AB)*%
X257150000Y-171500000D03*
%TO.P,C77,2,2*%
%TO.N,HVN1*%
X257150000Y-186500000D03*
%TD*%
%TO.P,C72,1,1*%
%TO.N,Net-(T3-AB)*%
X267300000Y-190250000D03*
%TO.P,C72,2,2*%
%TO.N,HVN1*%
X267300000Y-205250000D03*
%TD*%
D14*
%TO.P,Q4,1,G*%
%TO.N,G_S_2*%
X108800000Y-195110000D03*
D15*
%TO.P,Q4,2,D*%
%TO.N,D_S_2*%
X114250000Y-195110000D03*
%TO.P,Q4,3,S*%
%TO.N,con_gnd*%
X119700000Y-195110000D03*
%TD*%
D17*
%TO.P,T3,4,SC*%
%TO.N,OUT1*%
X145500000Y-154075000D03*
%TO.P,T3,5,SD*%
%TO.N,D_S_2*%
X163500000Y-172075000D03*
%TD*%
D14*
%TO.P,Q2,1,G*%
%TO.N,G_P_2*%
X304450000Y-171140000D03*
D15*
%TO.P,Q2,2,D*%
%TO.N,S_P_1*%
X299000000Y-171140000D03*
%TO.P,Q2,3,S*%
%TO.N,HVN1*%
X293550000Y-171140000D03*
%TD*%
D13*
%TO.P,C21,1,1*%
%TO.N,Net-(T3-AB)*%
X277350000Y-190250000D03*
%TO.P,C21,2,2*%
%TO.N,HVN1*%
X277350000Y-205250000D03*
%TD*%
%TO.P,C73,1,1*%
%TO.N,Net-(T3-AB)*%
X257250000Y-190250000D03*
%TO.P,C73,2,2*%
%TO.N,HVN1*%
X257250000Y-205250000D03*
%TD*%
D18*
%TO.P,T2,1,AA*%
%TO.N,unconnected-(T2-AA-Pad1)*%
X346442500Y-95660000D03*
%TO.P,T2,5,SC*%
%TO.N,unconnected-(T2-SC-Pad5)*%
X316442500Y-97160000D03*
%TO.P,T2,6,SD*%
%TO.N,unconnected-(T2-SD-Pad6)*%
X316442500Y-109160000D03*
%TD*%
D13*
%TO.P,C75,1,1*%
%TO.N,Net-(T3-AB)*%
X277250000Y-171500000D03*
%TO.P,C75,2,2*%
%TO.N,HVN1*%
X277250000Y-186500000D03*
%TD*%
D19*
%TO.N,Net-(T3-AB)*%
X237500000Y-149250000D03*
%TO.N,*%
X120250000Y-149575000D03*
X119250000Y-149575000D03*
X335925000Y-186500000D03*
X335925000Y-187250000D03*
%TD*%
M02*
