%TF.GenerationSoftware,KiCad,Pcbnew,9.0.3*%
%TF.CreationDate,2025-09-15T08:34:33+02:00*%
%TF.ProjectId,TEST_creat_foder,54455354-5f63-4726-9561-745f666f6465,rev?*%
%TF.SameCoordinates,Original*%
%TF.FileFunction,Legend,Top*%
%TF.FilePolarity,Positive*%
%FSLAX46Y46*%
G04 Gerber Fmt 4.6, Leading zero omitted, Abs format (unit mm)*
G04 Created by KiCad (PCBNEW 9.0.3) date 2025-09-15 08:34:33*
%MOMM*%
%LPD*%
G01*
G04 APERTURE LIST*
%ADD10C,0.200000*%
%ADD11C,0.150000*%
%ADD12C,0.254000*%
%ADD13C,0.100000*%
%ADD14C,0.127000*%
%ADD15C,0.120000*%
G04 APERTURE END LIST*
D10*
X335150000Y-176350000D02*
X335110000Y-176350000D01*
X334310000Y-176350000D02*
X334270000Y-176350000D01*
X333470000Y-176350000D02*
X333430000Y-176350000D01*
X332630000Y-176350000D02*
X332590000Y-176350000D01*
X331790000Y-176350000D02*
X331750000Y-176350000D01*
X330950000Y-176350000D02*
X330910000Y-176350000D01*
X330110000Y-176350000D02*
X330070000Y-176350000D01*
X329270000Y-176350000D02*
X329230000Y-176350000D01*
X328430000Y-176350000D02*
X328390000Y-176350000D01*
X327590000Y-176350000D02*
X327550000Y-176350000D01*
X326750000Y-176350000D02*
X326710000Y-176350000D01*
X325910000Y-176350000D02*
X325870000Y-176350000D01*
X325070000Y-176350000D02*
X325030000Y-176350000D01*
X324230000Y-176350000D02*
X324190000Y-176350000D01*
X323390000Y-176350000D02*
X323350000Y-176350000D01*
X322550000Y-176350000D02*
X322510000Y-176350000D01*
X321710000Y-176350000D02*
X321670000Y-176350000D01*
X320870000Y-176350000D02*
X320830000Y-176350000D01*
X320030000Y-176350000D02*
X319990000Y-176350000D01*
X319190000Y-176350000D02*
X319150000Y-176350000D01*
X318350000Y-176350000D02*
X318350000Y-176350000D01*
X318350000Y-176350000D02*
X318350000Y-176390000D01*
X318350000Y-177190000D02*
X318350000Y-177230000D01*
X318350000Y-178030000D02*
X318350000Y-178070000D01*
X318350000Y-178870000D02*
X318350000Y-178910000D01*
X318350000Y-179710000D02*
X318350000Y-179750000D01*
X318350000Y-180550000D02*
X318350000Y-180590000D01*
X318350000Y-181390000D02*
X318350000Y-181430000D01*
X318350000Y-182230000D02*
X318350000Y-182270000D01*
X318350000Y-183070000D02*
X318350000Y-183110000D01*
X318350000Y-183910000D02*
X318350000Y-183950000D01*
X318350000Y-184750000D02*
X318350000Y-184790000D01*
X318350000Y-185590000D02*
X318350000Y-185630000D01*
X318350000Y-186430000D02*
X318350000Y-186470000D01*
X318350000Y-187270000D02*
X318350000Y-187310000D01*
X318350000Y-188110000D02*
X318350000Y-188150000D01*
X318350000Y-188950000D02*
X318350000Y-188990000D01*
X318350000Y-189790000D02*
X318350000Y-189830000D01*
X318350000Y-190630000D02*
X318350000Y-190670000D01*
X318350000Y-191470000D02*
X318350000Y-191510000D01*
X318350000Y-192310000D02*
X318350000Y-192350000D01*
X318350000Y-193150000D02*
X318350000Y-193190000D01*
X318350000Y-193990000D02*
X318350000Y-194030000D01*
X318350000Y-194830000D02*
X318350000Y-194870000D01*
X318350000Y-195670000D02*
X318350000Y-195710000D01*
X318350000Y-196510000D02*
X318350000Y-196550000D01*
X318350000Y-197350000D02*
X318350000Y-197390000D01*
X318350000Y-198150000D02*
X318390000Y-198150000D01*
X319190000Y-198150000D02*
X319230000Y-198150000D01*
X320030000Y-198150000D02*
X320070000Y-198150000D01*
X320870000Y-198150000D02*
X320910000Y-198150000D01*
X321710000Y-198150000D02*
X321750000Y-198150000D01*
X322550000Y-198150000D02*
X322590000Y-198150000D01*
X323390000Y-198150000D02*
X323430000Y-198150000D01*
X324230000Y-198150000D02*
X324270000Y-198150000D01*
X325070000Y-198150000D02*
X325110000Y-198150000D01*
X325910000Y-198150000D02*
X325950000Y-198150000D01*
X326750000Y-198150000D02*
X326790000Y-198150000D01*
X327590000Y-198150000D02*
X327630000Y-198150000D01*
X328430000Y-198150000D02*
X328470000Y-198150000D01*
X329270000Y-198150000D02*
X329310000Y-198150000D01*
X330110000Y-198150000D02*
X330150000Y-198150000D01*
X330950000Y-198150000D02*
X330990000Y-198150000D01*
X331790000Y-198150000D02*
X331830000Y-198150000D01*
X332630000Y-198150000D02*
X332670000Y-198150000D01*
X333470000Y-198150000D02*
X333510000Y-198150000D01*
X334310000Y-198150000D02*
X334350000Y-198150000D01*
X335150000Y-198150000D02*
X335150000Y-198150000D01*
X335150000Y-198150000D02*
X335150000Y-198110000D01*
X335150000Y-197310000D02*
X335150000Y-197270000D01*
X335150000Y-196470000D02*
X335150000Y-196430000D01*
X335150000Y-195630000D02*
X335150000Y-195590000D01*
X335150000Y-194790000D02*
X335150000Y-194750000D01*
X335150000Y-193950000D02*
X335150000Y-193910000D01*
X335150000Y-193110000D02*
X335150000Y-193070000D01*
X335150000Y-192270000D02*
X335150000Y-192230000D01*
X335150000Y-191430000D02*
X335150000Y-191390000D01*
X335150000Y-190590000D02*
X335150000Y-190550000D01*
X335150000Y-189750000D02*
X335150000Y-189710000D01*
X335150000Y-188910000D02*
X335150000Y-188870000D01*
X335150000Y-188070000D02*
X335150000Y-188030000D01*
X335150000Y-187230000D02*
X335150000Y-187190000D01*
X335150000Y-186390000D02*
X335150000Y-186350000D01*
X335150000Y-185550000D02*
X335150000Y-185510000D01*
X335150000Y-184710000D02*
X335150000Y-184670000D01*
X335150000Y-183870000D02*
X335150000Y-183830000D01*
X335150000Y-183030000D02*
X335150000Y-182990000D01*
X335150000Y-182190000D02*
X335150000Y-182150000D01*
X335150000Y-181350000D02*
X335150000Y-181310000D01*
X335150000Y-180510000D02*
X335150000Y-180470000D01*
X335150000Y-179670000D02*
X335150000Y-179630000D01*
X335150000Y-178830000D02*
X335150000Y-178790000D01*
X335150000Y-177990000D02*
X335150000Y-177950000D01*
X335150000Y-177150000D02*
X335150000Y-177110000D01*
X335150000Y-184750000D02*
X335110000Y-184750000D01*
X334310000Y-184750000D02*
X334270000Y-184750000D01*
X333470000Y-184750000D02*
X333430000Y-184750000D01*
X332630000Y-184750000D02*
X332590000Y-184750000D01*
X331790000Y-184750000D02*
X331750000Y-184750000D01*
X330950000Y-184750000D02*
X330910000Y-184750000D01*
X330110000Y-184750000D02*
X330070000Y-184750000D01*
X329270000Y-184750000D02*
X329230000Y-184750000D01*
X328430000Y-184750000D02*
X328390000Y-184750000D01*
X327590000Y-184750000D02*
X327550000Y-184750000D01*
X326750000Y-184750000D02*
X326710000Y-184750000D01*
X325910000Y-184750000D02*
X325870000Y-184750000D01*
X325070000Y-184750000D02*
X325030000Y-184750000D01*
X324230000Y-184750000D02*
X324190000Y-184750000D01*
X323390000Y-184750000D02*
X323350000Y-184750000D01*
X322550000Y-184750000D02*
X322510000Y-184750000D01*
X321710000Y-184750000D02*
X321670000Y-184750000D01*
X320870000Y-184750000D02*
X320830000Y-184750000D01*
X320030000Y-184750000D02*
X319990000Y-184750000D01*
X319190000Y-184750000D02*
X319150000Y-184750000D01*
X318350000Y-184750000D02*
X318350000Y-184750000D01*
X318350000Y-184750000D02*
X318350000Y-184790000D01*
X318350000Y-185590000D02*
X318350000Y-185630000D01*
X318350000Y-186430000D02*
X318350000Y-186470000D01*
X318350000Y-187270000D02*
X318350000Y-187310000D01*
X318350000Y-188110000D02*
X318350000Y-188150000D01*
X318350000Y-188950000D02*
X318350000Y-188990000D01*
X318350000Y-189750000D02*
X318390000Y-189750000D01*
X319190000Y-189750000D02*
X319230000Y-189750000D01*
X320030000Y-189750000D02*
X320070000Y-189750000D01*
X320870000Y-189750000D02*
X320910000Y-189750000D01*
X321710000Y-189750000D02*
X321750000Y-189750000D01*
X322550000Y-189750000D02*
X322590000Y-189750000D01*
X323390000Y-189750000D02*
X323430000Y-189750000D01*
X324230000Y-189750000D02*
X324270000Y-189750000D01*
X325070000Y-189750000D02*
X325110000Y-189750000D01*
X325910000Y-189750000D02*
X325950000Y-189750000D01*
X326750000Y-189750000D02*
X326790000Y-189750000D01*
X327590000Y-189750000D02*
X327630000Y-189750000D01*
X328430000Y-189750000D02*
X328470000Y-189750000D01*
X329270000Y-189750000D02*
X329310000Y-189750000D01*
X330110000Y-189750000D02*
X330150000Y-189750000D01*
X330950000Y-189750000D02*
X330990000Y-189750000D01*
X331790000Y-189750000D02*
X331830000Y-189750000D01*
X332630000Y-189750000D02*
X332670000Y-189750000D01*
X333470000Y-189750000D02*
X333510000Y-189750000D01*
X334310000Y-189750000D02*
X334350000Y-189750000D01*
X335150000Y-189750000D02*
X335150000Y-189750000D01*
X335150000Y-189750000D02*
X335150000Y-189710000D01*
X335150000Y-188910000D02*
X335150000Y-188870000D01*
X335150000Y-188070000D02*
X335150000Y-188030000D01*
X335150000Y-187230000D02*
X335150000Y-187190000D01*
X335150000Y-186390000D02*
X335150000Y-186350000D01*
X335150000Y-185550000D02*
X335150000Y-185510000D01*
X62750000Y-79750000D02*
X362750000Y-79750000D01*
X362750000Y-219750000D01*
X62750000Y-219750000D01*
X62750000Y-79750000D01*
X335150000Y-177950000D02*
X335110000Y-177950000D01*
X334310000Y-177950000D02*
X334270000Y-177950000D01*
X333470000Y-177950000D02*
X333430000Y-177950000D01*
X332630000Y-177950000D02*
X332590000Y-177950000D01*
X331790000Y-177950000D02*
X331750000Y-177950000D01*
X330950000Y-177950000D02*
X330910000Y-177950000D01*
X330110000Y-177950000D02*
X330070000Y-177950000D01*
X329270000Y-177950000D02*
X329230000Y-177950000D01*
X328430000Y-177950000D02*
X328390000Y-177950000D01*
X327590000Y-177950000D02*
X327550000Y-177950000D01*
X326750000Y-177950000D02*
X326710000Y-177950000D01*
X325910000Y-177950000D02*
X325870000Y-177950000D01*
X325070000Y-177950000D02*
X325030000Y-177950000D01*
X324230000Y-177950000D02*
X324190000Y-177950000D01*
X323390000Y-177950000D02*
X323350000Y-177950000D01*
X322550000Y-177950000D02*
X322510000Y-177950000D01*
X321710000Y-177950000D02*
X321670000Y-177950000D01*
X320870000Y-177950000D02*
X320830000Y-177950000D01*
X320030000Y-177950000D02*
X319990000Y-177950000D01*
X319190000Y-177950000D02*
X319150000Y-177950000D01*
X318350000Y-177950000D02*
X318350000Y-177950000D01*
X318350000Y-177950000D02*
X318350000Y-177990000D01*
X318350000Y-178790000D02*
X318350000Y-178830000D01*
X318350000Y-179630000D02*
X318350000Y-179670000D01*
X318350000Y-180470000D02*
X318350000Y-180510000D01*
X318350000Y-181310000D02*
X318350000Y-181350000D01*
X318350000Y-182150000D02*
X318350000Y-182190000D01*
X318350000Y-182990000D02*
X318350000Y-183030000D01*
X318350000Y-183830000D02*
X318350000Y-183870000D01*
X318350000Y-184670000D02*
X318350000Y-184710000D01*
X318350000Y-185510000D02*
X318350000Y-185550000D01*
X318350000Y-186350000D02*
X318350000Y-186390000D01*
X318350000Y-187190000D02*
X318350000Y-187230000D01*
X318350000Y-188030000D02*
X318350000Y-188070000D01*
X318350000Y-188870000D02*
X318350000Y-188910000D01*
X318350000Y-189710000D02*
X318350000Y-189750000D01*
X318350000Y-190550000D02*
X318350000Y-190590000D01*
X318350000Y-191390000D02*
X318350000Y-191430000D01*
X318350000Y-192230000D02*
X318350000Y-192270000D01*
X318350000Y-193070000D02*
X318350000Y-193110000D01*
X318350000Y-193910000D02*
X318350000Y-193950000D01*
X318350000Y-194750000D02*
X318350000Y-194790000D01*
X318350000Y-195590000D02*
X318350000Y-195630000D01*
X318350000Y-196430000D02*
X318350000Y-196470000D01*
X318350000Y-196550000D02*
X318390000Y-196550000D01*
X319190000Y-196550000D02*
X319230000Y-196550000D01*
X320030000Y-196550000D02*
X320070000Y-196550000D01*
X320870000Y-196550000D02*
X320910000Y-196550000D01*
X321710000Y-196550000D02*
X321750000Y-196550000D01*
X322550000Y-196550000D02*
X322590000Y-196550000D01*
X323390000Y-196550000D02*
X323430000Y-196550000D01*
X324230000Y-196550000D02*
X324270000Y-196550000D01*
X325070000Y-196550000D02*
X325110000Y-196550000D01*
X325910000Y-196550000D02*
X325950000Y-196550000D01*
X326750000Y-196550000D02*
X326790000Y-196550000D01*
X327590000Y-196550000D02*
X327630000Y-196550000D01*
X328430000Y-196550000D02*
X328470000Y-196550000D01*
X329270000Y-196550000D02*
X329310000Y-196550000D01*
X330110000Y-196550000D02*
X330150000Y-196550000D01*
X330950000Y-196550000D02*
X330990000Y-196550000D01*
X331790000Y-196550000D02*
X331830000Y-196550000D01*
X332630000Y-196550000D02*
X332670000Y-196550000D01*
X333470000Y-196550000D02*
X333510000Y-196550000D01*
X334310000Y-196550000D02*
X334350000Y-196550000D01*
X335150000Y-196550000D02*
X335150000Y-196550000D01*
X335150000Y-196550000D02*
X335150000Y-196510000D01*
X335150000Y-195710000D02*
X335150000Y-195670000D01*
X335150000Y-194870000D02*
X335150000Y-194830000D01*
X335150000Y-194030000D02*
X335150000Y-193990000D01*
X335150000Y-193190000D02*
X335150000Y-193150000D01*
X335150000Y-192350000D02*
X335150000Y-192310000D01*
X335150000Y-191510000D02*
X335150000Y-191470000D01*
X335150000Y-190670000D02*
X335150000Y-190630000D01*
X335150000Y-189830000D02*
X335150000Y-189790000D01*
X335150000Y-188990000D02*
X335150000Y-188950000D01*
X335150000Y-188150000D02*
X335150000Y-188110000D01*
X335150000Y-187310000D02*
X335150000Y-187270000D01*
X335150000Y-186470000D02*
X335150000Y-186430000D01*
X335150000Y-185630000D02*
X335150000Y-185590000D01*
X335150000Y-184790000D02*
X335150000Y-184750000D01*
X335150000Y-183950000D02*
X335150000Y-183910000D01*
X335150000Y-183110000D02*
X335150000Y-183070000D01*
X335150000Y-182270000D02*
X335150000Y-182230000D01*
X335150000Y-181430000D02*
X335150000Y-181390000D01*
X335150000Y-180590000D02*
X335150000Y-180550000D01*
X335150000Y-179750000D02*
X335150000Y-179710000D01*
X335150000Y-178910000D02*
X335150000Y-178870000D01*
X335150000Y-178070000D02*
X335150000Y-178030000D01*
D11*
X252794580Y-173567857D02*
X252842200Y-173615476D01*
X252842200Y-173615476D02*
X252889819Y-173758333D01*
X252889819Y-173758333D02*
X252889819Y-173853571D01*
X252889819Y-173853571D02*
X252842200Y-173996428D01*
X252842200Y-173996428D02*
X252746961Y-174091666D01*
X252746961Y-174091666D02*
X252651723Y-174139285D01*
X252651723Y-174139285D02*
X252461247Y-174186904D01*
X252461247Y-174186904D02*
X252318390Y-174186904D01*
X252318390Y-174186904D02*
X252127914Y-174139285D01*
X252127914Y-174139285D02*
X252032676Y-174091666D01*
X252032676Y-174091666D02*
X251937438Y-173996428D01*
X251937438Y-173996428D02*
X251889819Y-173853571D01*
X251889819Y-173853571D02*
X251889819Y-173758333D01*
X251889819Y-173758333D02*
X251937438Y-173615476D01*
X251937438Y-173615476D02*
X251985057Y-173567857D01*
X251889819Y-173234523D02*
X251889819Y-172567857D01*
X251889819Y-172567857D02*
X252889819Y-172996428D01*
X252318390Y-172044047D02*
X252270771Y-172139285D01*
X252270771Y-172139285D02*
X252223152Y-172186904D01*
X252223152Y-172186904D02*
X252127914Y-172234523D01*
X252127914Y-172234523D02*
X252080295Y-172234523D01*
X252080295Y-172234523D02*
X251985057Y-172186904D01*
X251985057Y-172186904D02*
X251937438Y-172139285D01*
X251937438Y-172139285D02*
X251889819Y-172044047D01*
X251889819Y-172044047D02*
X251889819Y-171853571D01*
X251889819Y-171853571D02*
X251937438Y-171758333D01*
X251937438Y-171758333D02*
X251985057Y-171710714D01*
X251985057Y-171710714D02*
X252080295Y-171663095D01*
X252080295Y-171663095D02*
X252127914Y-171663095D01*
X252127914Y-171663095D02*
X252223152Y-171710714D01*
X252223152Y-171710714D02*
X252270771Y-171758333D01*
X252270771Y-171758333D02*
X252318390Y-171853571D01*
X252318390Y-171853571D02*
X252318390Y-172044047D01*
X252318390Y-172044047D02*
X252366009Y-172139285D01*
X252366009Y-172139285D02*
X252413628Y-172186904D01*
X252413628Y-172186904D02*
X252508866Y-172234523D01*
X252508866Y-172234523D02*
X252699342Y-172234523D01*
X252699342Y-172234523D02*
X252794580Y-172186904D01*
X252794580Y-172186904D02*
X252842200Y-172139285D01*
X252842200Y-172139285D02*
X252889819Y-172044047D01*
X252889819Y-172044047D02*
X252889819Y-171853571D01*
X252889819Y-171853571D02*
X252842200Y-171758333D01*
X252842200Y-171758333D02*
X252794580Y-171710714D01*
X252794580Y-171710714D02*
X252699342Y-171663095D01*
X252699342Y-171663095D02*
X252508866Y-171663095D01*
X252508866Y-171663095D02*
X252413628Y-171710714D01*
X252413628Y-171710714D02*
X252366009Y-171758333D01*
X252366009Y-171758333D02*
X252318390Y-171853571D01*
D12*
X101453365Y-146461666D02*
X101513842Y-146522142D01*
X101513842Y-146522142D02*
X101574318Y-146703571D01*
X101574318Y-146703571D02*
X101574318Y-146824523D01*
X101574318Y-146824523D02*
X101513842Y-147005952D01*
X101513842Y-147005952D02*
X101392889Y-147126904D01*
X101392889Y-147126904D02*
X101271937Y-147187381D01*
X101271937Y-147187381D02*
X101030032Y-147247857D01*
X101030032Y-147247857D02*
X100848603Y-147247857D01*
X100848603Y-147247857D02*
X100606699Y-147187381D01*
X100606699Y-147187381D02*
X100485746Y-147126904D01*
X100485746Y-147126904D02*
X100364794Y-147005952D01*
X100364794Y-147005952D02*
X100304318Y-146824523D01*
X100304318Y-146824523D02*
X100304318Y-146703571D01*
X100304318Y-146703571D02*
X100364794Y-146522142D01*
X100364794Y-146522142D02*
X100425270Y-146461666D01*
X100304318Y-146038333D02*
X100304318Y-145191666D01*
X100304318Y-145191666D02*
X101574318Y-145735952D01*
D11*
X300154761Y-104180057D02*
X300059523Y-104132438D01*
X300059523Y-104132438D02*
X299964285Y-104037200D01*
X299964285Y-104037200D02*
X299821428Y-103894342D01*
X299821428Y-103894342D02*
X299726190Y-103846723D01*
X299726190Y-103846723D02*
X299630952Y-103846723D01*
X299678571Y-104084819D02*
X299583333Y-104037200D01*
X299583333Y-104037200D02*
X299488095Y-103941961D01*
X299488095Y-103941961D02*
X299440476Y-103751485D01*
X299440476Y-103751485D02*
X299440476Y-103418152D01*
X299440476Y-103418152D02*
X299488095Y-103227676D01*
X299488095Y-103227676D02*
X299583333Y-103132438D01*
X299583333Y-103132438D02*
X299678571Y-103084819D01*
X299678571Y-103084819D02*
X299869047Y-103084819D01*
X299869047Y-103084819D02*
X299964285Y-103132438D01*
X299964285Y-103132438D02*
X300059523Y-103227676D01*
X300059523Y-103227676D02*
X300107142Y-103418152D01*
X300107142Y-103418152D02*
X300107142Y-103751485D01*
X300107142Y-103751485D02*
X300059523Y-103941961D01*
X300059523Y-103941961D02*
X299964285Y-104037200D01*
X299964285Y-104037200D02*
X299869047Y-104084819D01*
X299869047Y-104084819D02*
X299678571Y-104084819D01*
X301059523Y-104084819D02*
X300488095Y-104084819D01*
X300773809Y-104084819D02*
X300773809Y-103084819D01*
X300773809Y-103084819D02*
X300678571Y-103227676D01*
X300678571Y-103227676D02*
X300583333Y-103322914D01*
X300583333Y-103322914D02*
X300488095Y-103370533D01*
X252194580Y-192317857D02*
X252242200Y-192365476D01*
X252242200Y-192365476D02*
X252289819Y-192508333D01*
X252289819Y-192508333D02*
X252289819Y-192603571D01*
X252289819Y-192603571D02*
X252242200Y-192746428D01*
X252242200Y-192746428D02*
X252146961Y-192841666D01*
X252146961Y-192841666D02*
X252051723Y-192889285D01*
X252051723Y-192889285D02*
X251861247Y-192936904D01*
X251861247Y-192936904D02*
X251718390Y-192936904D01*
X251718390Y-192936904D02*
X251527914Y-192889285D01*
X251527914Y-192889285D02*
X251432676Y-192841666D01*
X251432676Y-192841666D02*
X251337438Y-192746428D01*
X251337438Y-192746428D02*
X251289819Y-192603571D01*
X251289819Y-192603571D02*
X251289819Y-192508333D01*
X251289819Y-192508333D02*
X251337438Y-192365476D01*
X251337438Y-192365476D02*
X251385057Y-192317857D01*
X251289819Y-191984523D02*
X251289819Y-191317857D01*
X251289819Y-191317857D02*
X252289819Y-191746428D01*
X251623152Y-190508333D02*
X252289819Y-190508333D01*
X251242200Y-190746428D02*
X251956485Y-190984523D01*
X251956485Y-190984523D02*
X251956485Y-190365476D01*
X272894580Y-173567857D02*
X272942200Y-173615476D01*
X272942200Y-173615476D02*
X272989819Y-173758333D01*
X272989819Y-173758333D02*
X272989819Y-173853571D01*
X272989819Y-173853571D02*
X272942200Y-173996428D01*
X272942200Y-173996428D02*
X272846961Y-174091666D01*
X272846961Y-174091666D02*
X272751723Y-174139285D01*
X272751723Y-174139285D02*
X272561247Y-174186904D01*
X272561247Y-174186904D02*
X272418390Y-174186904D01*
X272418390Y-174186904D02*
X272227914Y-174139285D01*
X272227914Y-174139285D02*
X272132676Y-174091666D01*
X272132676Y-174091666D02*
X272037438Y-173996428D01*
X272037438Y-173996428D02*
X271989819Y-173853571D01*
X271989819Y-173853571D02*
X271989819Y-173758333D01*
X271989819Y-173758333D02*
X272037438Y-173615476D01*
X272037438Y-173615476D02*
X272085057Y-173567857D01*
X271989819Y-173234523D02*
X271989819Y-172567857D01*
X271989819Y-172567857D02*
X272989819Y-172996428D01*
X271989819Y-171758333D02*
X271989819Y-171948809D01*
X271989819Y-171948809D02*
X272037438Y-172044047D01*
X272037438Y-172044047D02*
X272085057Y-172091666D01*
X272085057Y-172091666D02*
X272227914Y-172186904D01*
X272227914Y-172186904D02*
X272418390Y-172234523D01*
X272418390Y-172234523D02*
X272799342Y-172234523D01*
X272799342Y-172234523D02*
X272894580Y-172186904D01*
X272894580Y-172186904D02*
X272942200Y-172139285D01*
X272942200Y-172139285D02*
X272989819Y-172044047D01*
X272989819Y-172044047D02*
X272989819Y-171853571D01*
X272989819Y-171853571D02*
X272942200Y-171758333D01*
X272942200Y-171758333D02*
X272894580Y-171710714D01*
X272894580Y-171710714D02*
X272799342Y-171663095D01*
X272799342Y-171663095D02*
X272561247Y-171663095D01*
X272561247Y-171663095D02*
X272466009Y-171710714D01*
X272466009Y-171710714D02*
X272418390Y-171758333D01*
X272418390Y-171758333D02*
X272370771Y-171853571D01*
X272370771Y-171853571D02*
X272370771Y-172044047D01*
X272370771Y-172044047D02*
X272418390Y-172139285D01*
X272418390Y-172139285D02*
X272466009Y-172186904D01*
X272466009Y-172186904D02*
X272561247Y-172234523D01*
D12*
X100703365Y-109566428D02*
X100763842Y-109626904D01*
X100763842Y-109626904D02*
X100824318Y-109808333D01*
X100824318Y-109808333D02*
X100824318Y-109929285D01*
X100824318Y-109929285D02*
X100763842Y-110110714D01*
X100763842Y-110110714D02*
X100642889Y-110231666D01*
X100642889Y-110231666D02*
X100521937Y-110292143D01*
X100521937Y-110292143D02*
X100280032Y-110352619D01*
X100280032Y-110352619D02*
X100098603Y-110352619D01*
X100098603Y-110352619D02*
X99856699Y-110292143D01*
X99856699Y-110292143D02*
X99735746Y-110231666D01*
X99735746Y-110231666D02*
X99614794Y-110110714D01*
X99614794Y-110110714D02*
X99554318Y-109929285D01*
X99554318Y-109929285D02*
X99554318Y-109808333D01*
X99554318Y-109808333D02*
X99614794Y-109626904D01*
X99614794Y-109626904D02*
X99675270Y-109566428D01*
X100098603Y-108840714D02*
X100038127Y-108961666D01*
X100038127Y-108961666D02*
X99977651Y-109022143D01*
X99977651Y-109022143D02*
X99856699Y-109082619D01*
X99856699Y-109082619D02*
X99796222Y-109082619D01*
X99796222Y-109082619D02*
X99675270Y-109022143D01*
X99675270Y-109022143D02*
X99614794Y-108961666D01*
X99614794Y-108961666D02*
X99554318Y-108840714D01*
X99554318Y-108840714D02*
X99554318Y-108598809D01*
X99554318Y-108598809D02*
X99614794Y-108477857D01*
X99614794Y-108477857D02*
X99675270Y-108417381D01*
X99675270Y-108417381D02*
X99796222Y-108356904D01*
X99796222Y-108356904D02*
X99856699Y-108356904D01*
X99856699Y-108356904D02*
X99977651Y-108417381D01*
X99977651Y-108417381D02*
X100038127Y-108477857D01*
X100038127Y-108477857D02*
X100098603Y-108598809D01*
X100098603Y-108598809D02*
X100098603Y-108840714D01*
X100098603Y-108840714D02*
X100159080Y-108961666D01*
X100159080Y-108961666D02*
X100219556Y-109022143D01*
X100219556Y-109022143D02*
X100340508Y-109082619D01*
X100340508Y-109082619D02*
X100582413Y-109082619D01*
X100582413Y-109082619D02*
X100703365Y-109022143D01*
X100703365Y-109022143D02*
X100763842Y-108961666D01*
X100763842Y-108961666D02*
X100824318Y-108840714D01*
X100824318Y-108840714D02*
X100824318Y-108598809D01*
X100824318Y-108598809D02*
X100763842Y-108477857D01*
X100763842Y-108477857D02*
X100703365Y-108417381D01*
X100703365Y-108417381D02*
X100582413Y-108356904D01*
X100582413Y-108356904D02*
X100340508Y-108356904D01*
X100340508Y-108356904D02*
X100219556Y-108417381D01*
X100219556Y-108417381D02*
X100159080Y-108477857D01*
X100159080Y-108477857D02*
X100098603Y-108598809D01*
X100824318Y-107147380D02*
X100824318Y-107873095D01*
X100824318Y-107510238D02*
X99554318Y-107510238D01*
X99554318Y-107510238D02*
X99735746Y-107631190D01*
X99735746Y-107631190D02*
X99856699Y-107752142D01*
X99856699Y-107752142D02*
X99917175Y-107873095D01*
X100703365Y-124416428D02*
X100763842Y-124476904D01*
X100763842Y-124476904D02*
X100824318Y-124658333D01*
X100824318Y-124658333D02*
X100824318Y-124779285D01*
X100824318Y-124779285D02*
X100763842Y-124960714D01*
X100763842Y-124960714D02*
X100642889Y-125081666D01*
X100642889Y-125081666D02*
X100521937Y-125142143D01*
X100521937Y-125142143D02*
X100280032Y-125202619D01*
X100280032Y-125202619D02*
X100098603Y-125202619D01*
X100098603Y-125202619D02*
X99856699Y-125142143D01*
X99856699Y-125142143D02*
X99735746Y-125081666D01*
X99735746Y-125081666D02*
X99614794Y-124960714D01*
X99614794Y-124960714D02*
X99554318Y-124779285D01*
X99554318Y-124779285D02*
X99554318Y-124658333D01*
X99554318Y-124658333D02*
X99614794Y-124476904D01*
X99614794Y-124476904D02*
X99675270Y-124416428D01*
X99554318Y-123993095D02*
X99554318Y-123146428D01*
X99554318Y-123146428D02*
X100824318Y-123690714D01*
X100824318Y-122602142D02*
X100824318Y-122360238D01*
X100824318Y-122360238D02*
X100763842Y-122239285D01*
X100763842Y-122239285D02*
X100703365Y-122178809D01*
X100703365Y-122178809D02*
X100521937Y-122057857D01*
X100521937Y-122057857D02*
X100280032Y-121997380D01*
X100280032Y-121997380D02*
X99796222Y-121997380D01*
X99796222Y-121997380D02*
X99675270Y-122057857D01*
X99675270Y-122057857D02*
X99614794Y-122118333D01*
X99614794Y-122118333D02*
X99554318Y-122239285D01*
X99554318Y-122239285D02*
X99554318Y-122481190D01*
X99554318Y-122481190D02*
X99614794Y-122602142D01*
X99614794Y-122602142D02*
X99675270Y-122662619D01*
X99675270Y-122662619D02*
X99796222Y-122723095D01*
X99796222Y-122723095D02*
X100098603Y-122723095D01*
X100098603Y-122723095D02*
X100219556Y-122662619D01*
X100219556Y-122662619D02*
X100280032Y-122602142D01*
X100280032Y-122602142D02*
X100340508Y-122481190D01*
X100340508Y-122481190D02*
X100340508Y-122239285D01*
X100340508Y-122239285D02*
X100280032Y-122118333D01*
X100280032Y-122118333D02*
X100219556Y-122057857D01*
X100219556Y-122057857D02*
X100098603Y-121997380D01*
D11*
X148449819Y-90501189D02*
X147449819Y-90501189D01*
X148354580Y-89453571D02*
X148402200Y-89501190D01*
X148402200Y-89501190D02*
X148449819Y-89644047D01*
X148449819Y-89644047D02*
X148449819Y-89739285D01*
X148449819Y-89739285D02*
X148402200Y-89882142D01*
X148402200Y-89882142D02*
X148306961Y-89977380D01*
X148306961Y-89977380D02*
X148211723Y-90024999D01*
X148211723Y-90024999D02*
X148021247Y-90072618D01*
X148021247Y-90072618D02*
X147878390Y-90072618D01*
X147878390Y-90072618D02*
X147687914Y-90024999D01*
X147687914Y-90024999D02*
X147592676Y-89977380D01*
X147592676Y-89977380D02*
X147497438Y-89882142D01*
X147497438Y-89882142D02*
X147449819Y-89739285D01*
X147449819Y-89739285D02*
X147449819Y-89644047D01*
X147449819Y-89644047D02*
X147497438Y-89501190D01*
X147497438Y-89501190D02*
X147545057Y-89453571D01*
X148449819Y-88501190D02*
X148449819Y-89072618D01*
X148449819Y-88786904D02*
X147449819Y-88786904D01*
X147449819Y-88786904D02*
X147592676Y-88882142D01*
X147592676Y-88882142D02*
X147687914Y-88977380D01*
X147687914Y-88977380D02*
X147735533Y-89072618D01*
X117904761Y-103960057D02*
X117809523Y-103912438D01*
X117809523Y-103912438D02*
X117714285Y-103817200D01*
X117714285Y-103817200D02*
X117571428Y-103674342D01*
X117571428Y-103674342D02*
X117476190Y-103626723D01*
X117476190Y-103626723D02*
X117380952Y-103626723D01*
X117428571Y-103864819D02*
X117333333Y-103817200D01*
X117333333Y-103817200D02*
X117238095Y-103721961D01*
X117238095Y-103721961D02*
X117190476Y-103531485D01*
X117190476Y-103531485D02*
X117190476Y-103198152D01*
X117190476Y-103198152D02*
X117238095Y-103007676D01*
X117238095Y-103007676D02*
X117333333Y-102912438D01*
X117333333Y-102912438D02*
X117428571Y-102864819D01*
X117428571Y-102864819D02*
X117619047Y-102864819D01*
X117619047Y-102864819D02*
X117714285Y-102912438D01*
X117714285Y-102912438D02*
X117809523Y-103007676D01*
X117809523Y-103007676D02*
X117857142Y-103198152D01*
X117857142Y-103198152D02*
X117857142Y-103531485D01*
X117857142Y-103531485D02*
X117809523Y-103721961D01*
X117809523Y-103721961D02*
X117714285Y-103817200D01*
X117714285Y-103817200D02*
X117619047Y-103864819D01*
X117619047Y-103864819D02*
X117428571Y-103864819D01*
X118190476Y-102864819D02*
X118809523Y-102864819D01*
X118809523Y-102864819D02*
X118476190Y-103245771D01*
X118476190Y-103245771D02*
X118619047Y-103245771D01*
X118619047Y-103245771D02*
X118714285Y-103293390D01*
X118714285Y-103293390D02*
X118761904Y-103341009D01*
X118761904Y-103341009D02*
X118809523Y-103436247D01*
X118809523Y-103436247D02*
X118809523Y-103674342D01*
X118809523Y-103674342D02*
X118761904Y-103769580D01*
X118761904Y-103769580D02*
X118714285Y-103817200D01*
X118714285Y-103817200D02*
X118619047Y-103864819D01*
X118619047Y-103864819D02*
X118333333Y-103864819D01*
X118333333Y-103864819D02*
X118238095Y-103817200D01*
X118238095Y-103817200D02*
X118190476Y-103769580D01*
D12*
X88453365Y-124416428D02*
X88513842Y-124476904D01*
X88513842Y-124476904D02*
X88574318Y-124658333D01*
X88574318Y-124658333D02*
X88574318Y-124779285D01*
X88574318Y-124779285D02*
X88513842Y-124960714D01*
X88513842Y-124960714D02*
X88392889Y-125081666D01*
X88392889Y-125081666D02*
X88271937Y-125142143D01*
X88271937Y-125142143D02*
X88030032Y-125202619D01*
X88030032Y-125202619D02*
X87848603Y-125202619D01*
X87848603Y-125202619D02*
X87606699Y-125142143D01*
X87606699Y-125142143D02*
X87485746Y-125081666D01*
X87485746Y-125081666D02*
X87364794Y-124960714D01*
X87364794Y-124960714D02*
X87304318Y-124779285D01*
X87304318Y-124779285D02*
X87304318Y-124658333D01*
X87304318Y-124658333D02*
X87364794Y-124476904D01*
X87364794Y-124476904D02*
X87425270Y-124416428D01*
X87848603Y-123690714D02*
X87788127Y-123811666D01*
X87788127Y-123811666D02*
X87727651Y-123872143D01*
X87727651Y-123872143D02*
X87606699Y-123932619D01*
X87606699Y-123932619D02*
X87546222Y-123932619D01*
X87546222Y-123932619D02*
X87425270Y-123872143D01*
X87425270Y-123872143D02*
X87364794Y-123811666D01*
X87364794Y-123811666D02*
X87304318Y-123690714D01*
X87304318Y-123690714D02*
X87304318Y-123448809D01*
X87304318Y-123448809D02*
X87364794Y-123327857D01*
X87364794Y-123327857D02*
X87425270Y-123267381D01*
X87425270Y-123267381D02*
X87546222Y-123206904D01*
X87546222Y-123206904D02*
X87606699Y-123206904D01*
X87606699Y-123206904D02*
X87727651Y-123267381D01*
X87727651Y-123267381D02*
X87788127Y-123327857D01*
X87788127Y-123327857D02*
X87848603Y-123448809D01*
X87848603Y-123448809D02*
X87848603Y-123690714D01*
X87848603Y-123690714D02*
X87909080Y-123811666D01*
X87909080Y-123811666D02*
X87969556Y-123872143D01*
X87969556Y-123872143D02*
X88090508Y-123932619D01*
X88090508Y-123932619D02*
X88332413Y-123932619D01*
X88332413Y-123932619D02*
X88453365Y-123872143D01*
X88453365Y-123872143D02*
X88513842Y-123811666D01*
X88513842Y-123811666D02*
X88574318Y-123690714D01*
X88574318Y-123690714D02*
X88574318Y-123448809D01*
X88574318Y-123448809D02*
X88513842Y-123327857D01*
X88513842Y-123327857D02*
X88453365Y-123267381D01*
X88453365Y-123267381D02*
X88332413Y-123206904D01*
X88332413Y-123206904D02*
X88090508Y-123206904D01*
X88090508Y-123206904D02*
X87969556Y-123267381D01*
X87969556Y-123267381D02*
X87909080Y-123327857D01*
X87909080Y-123327857D02*
X87848603Y-123448809D01*
X87304318Y-122420714D02*
X87304318Y-122299761D01*
X87304318Y-122299761D02*
X87364794Y-122178809D01*
X87364794Y-122178809D02*
X87425270Y-122118333D01*
X87425270Y-122118333D02*
X87546222Y-122057857D01*
X87546222Y-122057857D02*
X87788127Y-121997380D01*
X87788127Y-121997380D02*
X88090508Y-121997380D01*
X88090508Y-121997380D02*
X88332413Y-122057857D01*
X88332413Y-122057857D02*
X88453365Y-122118333D01*
X88453365Y-122118333D02*
X88513842Y-122178809D01*
X88513842Y-122178809D02*
X88574318Y-122299761D01*
X88574318Y-122299761D02*
X88574318Y-122420714D01*
X88574318Y-122420714D02*
X88513842Y-122541666D01*
X88513842Y-122541666D02*
X88453365Y-122602142D01*
X88453365Y-122602142D02*
X88332413Y-122662619D01*
X88332413Y-122662619D02*
X88090508Y-122723095D01*
X88090508Y-122723095D02*
X87788127Y-122723095D01*
X87788127Y-122723095D02*
X87546222Y-122662619D01*
X87546222Y-122662619D02*
X87425270Y-122602142D01*
X87425270Y-122602142D02*
X87364794Y-122541666D01*
X87364794Y-122541666D02*
X87304318Y-122420714D01*
D11*
X330359580Y-154297619D02*
X330407200Y-154345238D01*
X330407200Y-154345238D02*
X330454819Y-154488095D01*
X330454819Y-154488095D02*
X330454819Y-154583333D01*
X330454819Y-154583333D02*
X330407200Y-154726190D01*
X330407200Y-154726190D02*
X330311961Y-154821428D01*
X330311961Y-154821428D02*
X330216723Y-154869047D01*
X330216723Y-154869047D02*
X330026247Y-154916666D01*
X330026247Y-154916666D02*
X329883390Y-154916666D01*
X329883390Y-154916666D02*
X329692914Y-154869047D01*
X329692914Y-154869047D02*
X329597676Y-154821428D01*
X329597676Y-154821428D02*
X329502438Y-154726190D01*
X329502438Y-154726190D02*
X329454819Y-154583333D01*
X329454819Y-154583333D02*
X329454819Y-154488095D01*
X329454819Y-154488095D02*
X329502438Y-154345238D01*
X329502438Y-154345238D02*
X329550057Y-154297619D01*
X330454819Y-153440476D02*
X329454819Y-153440476D01*
X330407200Y-153440476D02*
X330454819Y-153535714D01*
X330454819Y-153535714D02*
X330454819Y-153726190D01*
X330454819Y-153726190D02*
X330407200Y-153821428D01*
X330407200Y-153821428D02*
X330359580Y-153869047D01*
X330359580Y-153869047D02*
X330264342Y-153916666D01*
X330264342Y-153916666D02*
X329978628Y-153916666D01*
X329978628Y-153916666D02*
X329883390Y-153869047D01*
X329883390Y-153869047D02*
X329835771Y-153821428D01*
X329835771Y-153821428D02*
X329788152Y-153726190D01*
X329788152Y-153726190D02*
X329788152Y-153535714D01*
X329788152Y-153535714D02*
X329835771Y-153440476D01*
X330407200Y-152535714D02*
X330454819Y-152630952D01*
X330454819Y-152630952D02*
X330454819Y-152821428D01*
X330454819Y-152821428D02*
X330407200Y-152916666D01*
X330407200Y-152916666D02*
X330359580Y-152964285D01*
X330359580Y-152964285D02*
X330264342Y-153011904D01*
X330264342Y-153011904D02*
X329978628Y-153011904D01*
X329978628Y-153011904D02*
X329883390Y-152964285D01*
X329883390Y-152964285D02*
X329835771Y-152916666D01*
X329835771Y-152916666D02*
X329788152Y-152821428D01*
X329788152Y-152821428D02*
X329788152Y-152630952D01*
X329788152Y-152630952D02*
X329835771Y-152535714D01*
X330454819Y-151583333D02*
X330454819Y-152154761D01*
X330454819Y-151869047D02*
X329454819Y-151869047D01*
X329454819Y-151869047D02*
X329597676Y-151964285D01*
X329597676Y-151964285D02*
X329692914Y-152059523D01*
X329692914Y-152059523D02*
X329740533Y-152154761D01*
X262844580Y-173567857D02*
X262892200Y-173615476D01*
X262892200Y-173615476D02*
X262939819Y-173758333D01*
X262939819Y-173758333D02*
X262939819Y-173853571D01*
X262939819Y-173853571D02*
X262892200Y-173996428D01*
X262892200Y-173996428D02*
X262796961Y-174091666D01*
X262796961Y-174091666D02*
X262701723Y-174139285D01*
X262701723Y-174139285D02*
X262511247Y-174186904D01*
X262511247Y-174186904D02*
X262368390Y-174186904D01*
X262368390Y-174186904D02*
X262177914Y-174139285D01*
X262177914Y-174139285D02*
X262082676Y-174091666D01*
X262082676Y-174091666D02*
X261987438Y-173996428D01*
X261987438Y-173996428D02*
X261939819Y-173853571D01*
X261939819Y-173853571D02*
X261939819Y-173758333D01*
X261939819Y-173758333D02*
X261987438Y-173615476D01*
X261987438Y-173615476D02*
X262035057Y-173567857D01*
X261939819Y-173234523D02*
X261939819Y-172567857D01*
X261939819Y-172567857D02*
X262939819Y-172996428D01*
X261939819Y-172282142D02*
X261939819Y-171615476D01*
X261939819Y-171615476D02*
X262939819Y-172044047D01*
X272994580Y-192317857D02*
X273042200Y-192365476D01*
X273042200Y-192365476D02*
X273089819Y-192508333D01*
X273089819Y-192508333D02*
X273089819Y-192603571D01*
X273089819Y-192603571D02*
X273042200Y-192746428D01*
X273042200Y-192746428D02*
X272946961Y-192841666D01*
X272946961Y-192841666D02*
X272851723Y-192889285D01*
X272851723Y-192889285D02*
X272661247Y-192936904D01*
X272661247Y-192936904D02*
X272518390Y-192936904D01*
X272518390Y-192936904D02*
X272327914Y-192889285D01*
X272327914Y-192889285D02*
X272232676Y-192841666D01*
X272232676Y-192841666D02*
X272137438Y-192746428D01*
X272137438Y-192746428D02*
X272089819Y-192603571D01*
X272089819Y-192603571D02*
X272089819Y-192508333D01*
X272089819Y-192508333D02*
X272137438Y-192365476D01*
X272137438Y-192365476D02*
X272185057Y-192317857D01*
X272089819Y-191984523D02*
X272089819Y-191317857D01*
X272089819Y-191317857D02*
X273089819Y-191746428D01*
X272185057Y-190984523D02*
X272137438Y-190936904D01*
X272137438Y-190936904D02*
X272089819Y-190841666D01*
X272089819Y-190841666D02*
X272089819Y-190603571D01*
X272089819Y-190603571D02*
X272137438Y-190508333D01*
X272137438Y-190508333D02*
X272185057Y-190460714D01*
X272185057Y-190460714D02*
X272280295Y-190413095D01*
X272280295Y-190413095D02*
X272375533Y-190413095D01*
X272375533Y-190413095D02*
X272518390Y-190460714D01*
X272518390Y-190460714D02*
X273089819Y-191032142D01*
X273089819Y-191032142D02*
X273089819Y-190413095D01*
X114154761Y-168680057D02*
X114059523Y-168632438D01*
X114059523Y-168632438D02*
X113964285Y-168537200D01*
X113964285Y-168537200D02*
X113821428Y-168394342D01*
X113821428Y-168394342D02*
X113726190Y-168346723D01*
X113726190Y-168346723D02*
X113630952Y-168346723D01*
X113678571Y-168584819D02*
X113583333Y-168537200D01*
X113583333Y-168537200D02*
X113488095Y-168441961D01*
X113488095Y-168441961D02*
X113440476Y-168251485D01*
X113440476Y-168251485D02*
X113440476Y-167918152D01*
X113440476Y-167918152D02*
X113488095Y-167727676D01*
X113488095Y-167727676D02*
X113583333Y-167632438D01*
X113583333Y-167632438D02*
X113678571Y-167584819D01*
X113678571Y-167584819D02*
X113869047Y-167584819D01*
X113869047Y-167584819D02*
X113964285Y-167632438D01*
X113964285Y-167632438D02*
X114059523Y-167727676D01*
X114059523Y-167727676D02*
X114107142Y-167918152D01*
X114107142Y-167918152D02*
X114107142Y-168251485D01*
X114107142Y-168251485D02*
X114059523Y-168441961D01*
X114059523Y-168441961D02*
X113964285Y-168537200D01*
X113964285Y-168537200D02*
X113869047Y-168584819D01*
X113869047Y-168584819D02*
X113678571Y-168584819D01*
X114964285Y-167918152D02*
X114964285Y-168584819D01*
X114726190Y-167537200D02*
X114488095Y-168251485D01*
X114488095Y-168251485D02*
X115107142Y-168251485D01*
X200309726Y-97042618D02*
X200309726Y-96316904D01*
X201579726Y-96679761D02*
X200309726Y-96679761D01*
X200309726Y-96014523D02*
X200309726Y-95228332D01*
X200309726Y-95228332D02*
X200793535Y-95651666D01*
X200793535Y-95651666D02*
X200793535Y-95470237D01*
X200793535Y-95470237D02*
X200854011Y-95349285D01*
X200854011Y-95349285D02*
X200914488Y-95288809D01*
X200914488Y-95288809D02*
X201035440Y-95228332D01*
X201035440Y-95228332D02*
X201337821Y-95228332D01*
X201337821Y-95228332D02*
X201458773Y-95288809D01*
X201458773Y-95288809D02*
X201519250Y-95349285D01*
X201519250Y-95349285D02*
X201579726Y-95470237D01*
X201579726Y-95470237D02*
X201579726Y-95833094D01*
X201579726Y-95833094D02*
X201519250Y-95954047D01*
X201519250Y-95954047D02*
X201458773Y-96014523D01*
D12*
X88703365Y-108811666D02*
X88763842Y-108872142D01*
X88763842Y-108872142D02*
X88824318Y-109053571D01*
X88824318Y-109053571D02*
X88824318Y-109174523D01*
X88824318Y-109174523D02*
X88763842Y-109355952D01*
X88763842Y-109355952D02*
X88642889Y-109476904D01*
X88642889Y-109476904D02*
X88521937Y-109537381D01*
X88521937Y-109537381D02*
X88280032Y-109597857D01*
X88280032Y-109597857D02*
X88098603Y-109597857D01*
X88098603Y-109597857D02*
X87856699Y-109537381D01*
X87856699Y-109537381D02*
X87735746Y-109476904D01*
X87735746Y-109476904D02*
X87614794Y-109355952D01*
X87614794Y-109355952D02*
X87554318Y-109174523D01*
X87554318Y-109174523D02*
X87554318Y-109053571D01*
X87554318Y-109053571D02*
X87614794Y-108872142D01*
X87614794Y-108872142D02*
X87675270Y-108811666D01*
X87554318Y-107723095D02*
X87554318Y-107965000D01*
X87554318Y-107965000D02*
X87614794Y-108085952D01*
X87614794Y-108085952D02*
X87675270Y-108146428D01*
X87675270Y-108146428D02*
X87856699Y-108267381D01*
X87856699Y-108267381D02*
X88098603Y-108327857D01*
X88098603Y-108327857D02*
X88582413Y-108327857D01*
X88582413Y-108327857D02*
X88703365Y-108267381D01*
X88703365Y-108267381D02*
X88763842Y-108206904D01*
X88763842Y-108206904D02*
X88824318Y-108085952D01*
X88824318Y-108085952D02*
X88824318Y-107844047D01*
X88824318Y-107844047D02*
X88763842Y-107723095D01*
X88763842Y-107723095D02*
X88703365Y-107662619D01*
X88703365Y-107662619D02*
X88582413Y-107602142D01*
X88582413Y-107602142D02*
X88280032Y-107602142D01*
X88280032Y-107602142D02*
X88159080Y-107662619D01*
X88159080Y-107662619D02*
X88098603Y-107723095D01*
X88098603Y-107723095D02*
X88038127Y-107844047D01*
X88038127Y-107844047D02*
X88038127Y-108085952D01*
X88038127Y-108085952D02*
X88098603Y-108206904D01*
X88098603Y-108206904D02*
X88159080Y-108267381D01*
X88159080Y-108267381D02*
X88280032Y-108327857D01*
D13*
X271242580Y-87258333D02*
X271242580Y-86782143D01*
X271242580Y-86782143D02*
X272242580Y-86782143D01*
X272147342Y-87544048D02*
X272194961Y-87591667D01*
X272194961Y-87591667D02*
X272242580Y-87686905D01*
X272242580Y-87686905D02*
X272242580Y-87925000D01*
X272242580Y-87925000D02*
X272194961Y-88020238D01*
X272194961Y-88020238D02*
X272147342Y-88067857D01*
X272147342Y-88067857D02*
X272052104Y-88115476D01*
X272052104Y-88115476D02*
X271956866Y-88115476D01*
X271956866Y-88115476D02*
X271814009Y-88067857D01*
X271814009Y-88067857D02*
X271242580Y-87496429D01*
X271242580Y-87496429D02*
X271242580Y-88115476D01*
D12*
X87453365Y-147711666D02*
X87513842Y-147772142D01*
X87513842Y-147772142D02*
X87574318Y-147953571D01*
X87574318Y-147953571D02*
X87574318Y-148074523D01*
X87574318Y-148074523D02*
X87513842Y-148255952D01*
X87513842Y-148255952D02*
X87392889Y-148376904D01*
X87392889Y-148376904D02*
X87271937Y-148437381D01*
X87271937Y-148437381D02*
X87030032Y-148497857D01*
X87030032Y-148497857D02*
X86848603Y-148497857D01*
X86848603Y-148497857D02*
X86606699Y-148437381D01*
X86606699Y-148437381D02*
X86485746Y-148376904D01*
X86485746Y-148376904D02*
X86364794Y-148255952D01*
X86364794Y-148255952D02*
X86304318Y-148074523D01*
X86304318Y-148074523D02*
X86304318Y-147953571D01*
X86304318Y-147953571D02*
X86364794Y-147772142D01*
X86364794Y-147772142D02*
X86425270Y-147711666D01*
X86848603Y-146985952D02*
X86788127Y-147106904D01*
X86788127Y-147106904D02*
X86727651Y-147167381D01*
X86727651Y-147167381D02*
X86606699Y-147227857D01*
X86606699Y-147227857D02*
X86546222Y-147227857D01*
X86546222Y-147227857D02*
X86425270Y-147167381D01*
X86425270Y-147167381D02*
X86364794Y-147106904D01*
X86364794Y-147106904D02*
X86304318Y-146985952D01*
X86304318Y-146985952D02*
X86304318Y-146744047D01*
X86304318Y-146744047D02*
X86364794Y-146623095D01*
X86364794Y-146623095D02*
X86425270Y-146562619D01*
X86425270Y-146562619D02*
X86546222Y-146502142D01*
X86546222Y-146502142D02*
X86606699Y-146502142D01*
X86606699Y-146502142D02*
X86727651Y-146562619D01*
X86727651Y-146562619D02*
X86788127Y-146623095D01*
X86788127Y-146623095D02*
X86848603Y-146744047D01*
X86848603Y-146744047D02*
X86848603Y-146985952D01*
X86848603Y-146985952D02*
X86909080Y-147106904D01*
X86909080Y-147106904D02*
X86969556Y-147167381D01*
X86969556Y-147167381D02*
X87090508Y-147227857D01*
X87090508Y-147227857D02*
X87332413Y-147227857D01*
X87332413Y-147227857D02*
X87453365Y-147167381D01*
X87453365Y-147167381D02*
X87513842Y-147106904D01*
X87513842Y-147106904D02*
X87574318Y-146985952D01*
X87574318Y-146985952D02*
X87574318Y-146744047D01*
X87574318Y-146744047D02*
X87513842Y-146623095D01*
X87513842Y-146623095D02*
X87453365Y-146562619D01*
X87453365Y-146562619D02*
X87332413Y-146502142D01*
X87332413Y-146502142D02*
X87090508Y-146502142D01*
X87090508Y-146502142D02*
X86969556Y-146562619D01*
X86969556Y-146562619D02*
X86909080Y-146623095D01*
X86909080Y-146623095D02*
X86848603Y-146744047D01*
D11*
X298904761Y-198670057D02*
X298809523Y-198622438D01*
X298809523Y-198622438D02*
X298714285Y-198527200D01*
X298714285Y-198527200D02*
X298571428Y-198384342D01*
X298571428Y-198384342D02*
X298476190Y-198336723D01*
X298476190Y-198336723D02*
X298380952Y-198336723D01*
X298428571Y-198574819D02*
X298333333Y-198527200D01*
X298333333Y-198527200D02*
X298238095Y-198431961D01*
X298238095Y-198431961D02*
X298190476Y-198241485D01*
X298190476Y-198241485D02*
X298190476Y-197908152D01*
X298190476Y-197908152D02*
X298238095Y-197717676D01*
X298238095Y-197717676D02*
X298333333Y-197622438D01*
X298333333Y-197622438D02*
X298428571Y-197574819D01*
X298428571Y-197574819D02*
X298619047Y-197574819D01*
X298619047Y-197574819D02*
X298714285Y-197622438D01*
X298714285Y-197622438D02*
X298809523Y-197717676D01*
X298809523Y-197717676D02*
X298857142Y-197908152D01*
X298857142Y-197908152D02*
X298857142Y-198241485D01*
X298857142Y-198241485D02*
X298809523Y-198431961D01*
X298809523Y-198431961D02*
X298714285Y-198527200D01*
X298714285Y-198527200D02*
X298619047Y-198574819D01*
X298619047Y-198574819D02*
X298428571Y-198574819D01*
X299238095Y-197670057D02*
X299285714Y-197622438D01*
X299285714Y-197622438D02*
X299380952Y-197574819D01*
X299380952Y-197574819D02*
X299619047Y-197574819D01*
X299619047Y-197574819D02*
X299714285Y-197622438D01*
X299714285Y-197622438D02*
X299761904Y-197670057D01*
X299761904Y-197670057D02*
X299809523Y-197765295D01*
X299809523Y-197765295D02*
X299809523Y-197860533D01*
X299809523Y-197860533D02*
X299761904Y-198003390D01*
X299761904Y-198003390D02*
X299190476Y-198574819D01*
X299190476Y-198574819D02*
X299809523Y-198574819D01*
X283044580Y-192317857D02*
X283092200Y-192365476D01*
X283092200Y-192365476D02*
X283139819Y-192508333D01*
X283139819Y-192508333D02*
X283139819Y-192603571D01*
X283139819Y-192603571D02*
X283092200Y-192746428D01*
X283092200Y-192746428D02*
X282996961Y-192841666D01*
X282996961Y-192841666D02*
X282901723Y-192889285D01*
X282901723Y-192889285D02*
X282711247Y-192936904D01*
X282711247Y-192936904D02*
X282568390Y-192936904D01*
X282568390Y-192936904D02*
X282377914Y-192889285D01*
X282377914Y-192889285D02*
X282282676Y-192841666D01*
X282282676Y-192841666D02*
X282187438Y-192746428D01*
X282187438Y-192746428D02*
X282139819Y-192603571D01*
X282139819Y-192603571D02*
X282139819Y-192508333D01*
X282139819Y-192508333D02*
X282187438Y-192365476D01*
X282187438Y-192365476D02*
X282235057Y-192317857D01*
X282235057Y-191936904D02*
X282187438Y-191889285D01*
X282187438Y-191889285D02*
X282139819Y-191794047D01*
X282139819Y-191794047D02*
X282139819Y-191555952D01*
X282139819Y-191555952D02*
X282187438Y-191460714D01*
X282187438Y-191460714D02*
X282235057Y-191413095D01*
X282235057Y-191413095D02*
X282330295Y-191365476D01*
X282330295Y-191365476D02*
X282425533Y-191365476D01*
X282425533Y-191365476D02*
X282568390Y-191413095D01*
X282568390Y-191413095D02*
X283139819Y-191984523D01*
X283139819Y-191984523D02*
X283139819Y-191365476D01*
X283139819Y-190413095D02*
X283139819Y-190984523D01*
X283139819Y-190698809D02*
X282139819Y-190698809D01*
X282139819Y-190698809D02*
X282282676Y-190794047D01*
X282282676Y-190794047D02*
X282377914Y-190889285D01*
X282377914Y-190889285D02*
X282425533Y-190984523D01*
X262944580Y-192317857D02*
X262992200Y-192365476D01*
X262992200Y-192365476D02*
X263039819Y-192508333D01*
X263039819Y-192508333D02*
X263039819Y-192603571D01*
X263039819Y-192603571D02*
X262992200Y-192746428D01*
X262992200Y-192746428D02*
X262896961Y-192841666D01*
X262896961Y-192841666D02*
X262801723Y-192889285D01*
X262801723Y-192889285D02*
X262611247Y-192936904D01*
X262611247Y-192936904D02*
X262468390Y-192936904D01*
X262468390Y-192936904D02*
X262277914Y-192889285D01*
X262277914Y-192889285D02*
X262182676Y-192841666D01*
X262182676Y-192841666D02*
X262087438Y-192746428D01*
X262087438Y-192746428D02*
X262039819Y-192603571D01*
X262039819Y-192603571D02*
X262039819Y-192508333D01*
X262039819Y-192508333D02*
X262087438Y-192365476D01*
X262087438Y-192365476D02*
X262135057Y-192317857D01*
X262039819Y-191984523D02*
X262039819Y-191317857D01*
X262039819Y-191317857D02*
X263039819Y-191746428D01*
X262039819Y-191032142D02*
X262039819Y-190413095D01*
X262039819Y-190413095D02*
X262420771Y-190746428D01*
X262420771Y-190746428D02*
X262420771Y-190603571D01*
X262420771Y-190603571D02*
X262468390Y-190508333D01*
X262468390Y-190508333D02*
X262516009Y-190460714D01*
X262516009Y-190460714D02*
X262611247Y-190413095D01*
X262611247Y-190413095D02*
X262849342Y-190413095D01*
X262849342Y-190413095D02*
X262944580Y-190460714D01*
X262944580Y-190460714D02*
X262992200Y-190508333D01*
X262992200Y-190508333D02*
X263039819Y-190603571D01*
X263039819Y-190603571D02*
X263039819Y-190889285D01*
X263039819Y-190889285D02*
X262992200Y-190984523D01*
X262992200Y-190984523D02*
X262944580Y-191032142D01*
D13*
X351985080Y-101898095D02*
X351985080Y-102469523D01*
X350985080Y-102183809D02*
X351985080Y-102183809D01*
X351889842Y-102755238D02*
X351937461Y-102802857D01*
X351937461Y-102802857D02*
X351985080Y-102898095D01*
X351985080Y-102898095D02*
X351985080Y-103136190D01*
X351985080Y-103136190D02*
X351937461Y-103231428D01*
X351937461Y-103231428D02*
X351889842Y-103279047D01*
X351889842Y-103279047D02*
X351794604Y-103326666D01*
X351794604Y-103326666D02*
X351699366Y-103326666D01*
X351699366Y-103326666D02*
X351556509Y-103279047D01*
X351556509Y-103279047D02*
X350985080Y-102707619D01*
X350985080Y-102707619D02*
X350985080Y-103326666D01*
D11*
X242844580Y-192317857D02*
X242892200Y-192365476D01*
X242892200Y-192365476D02*
X242939819Y-192508333D01*
X242939819Y-192508333D02*
X242939819Y-192603571D01*
X242939819Y-192603571D02*
X242892200Y-192746428D01*
X242892200Y-192746428D02*
X242796961Y-192841666D01*
X242796961Y-192841666D02*
X242701723Y-192889285D01*
X242701723Y-192889285D02*
X242511247Y-192936904D01*
X242511247Y-192936904D02*
X242368390Y-192936904D01*
X242368390Y-192936904D02*
X242177914Y-192889285D01*
X242177914Y-192889285D02*
X242082676Y-192841666D01*
X242082676Y-192841666D02*
X241987438Y-192746428D01*
X241987438Y-192746428D02*
X241939819Y-192603571D01*
X241939819Y-192603571D02*
X241939819Y-192508333D01*
X241939819Y-192508333D02*
X241987438Y-192365476D01*
X241987438Y-192365476D02*
X242035057Y-192317857D01*
X241939819Y-191984523D02*
X241939819Y-191317857D01*
X241939819Y-191317857D02*
X242939819Y-191746428D01*
X241939819Y-190460714D02*
X241939819Y-190936904D01*
X241939819Y-190936904D02*
X242416009Y-190984523D01*
X242416009Y-190984523D02*
X242368390Y-190936904D01*
X242368390Y-190936904D02*
X242320771Y-190841666D01*
X242320771Y-190841666D02*
X242320771Y-190603571D01*
X242320771Y-190603571D02*
X242368390Y-190508333D01*
X242368390Y-190508333D02*
X242416009Y-190460714D01*
X242416009Y-190460714D02*
X242511247Y-190413095D01*
X242511247Y-190413095D02*
X242749342Y-190413095D01*
X242749342Y-190413095D02*
X242844580Y-190460714D01*
X242844580Y-190460714D02*
X242892200Y-190508333D01*
X242892200Y-190508333D02*
X242939819Y-190603571D01*
X242939819Y-190603571D02*
X242939819Y-190841666D01*
X242939819Y-190841666D02*
X242892200Y-190936904D01*
X242892200Y-190936904D02*
X242844580Y-190984523D01*
D14*
%TO.C,C78*%
X251350000Y-170000000D02*
X242850000Y-170000000D01*
X251350000Y-170000000D02*
X251350000Y-188000000D01*
X242850000Y-170000000D02*
X242850000Y-188000000D01*
X251350000Y-188000000D02*
X242850000Y-188000000D01*
D13*
%TO.C,C7*%
X101000000Y-139150000D02*
X101000000Y-139150000D01*
X101000000Y-139250000D02*
X101000000Y-139250000D01*
D10*
X103575000Y-141100000D02*
X106150000Y-143675000D01*
X106150000Y-143675000D02*
X106150000Y-151400000D01*
X95850000Y-143675000D02*
X98425000Y-141100000D01*
X106150000Y-151400000D02*
X102450000Y-151400000D01*
X99450000Y-151400000D02*
X95850000Y-151400000D01*
X95850000Y-151400000D02*
X95850000Y-143675000D01*
X95850000Y-151400000D02*
X95850000Y-151050000D01*
D13*
X101000000Y-139150000D02*
G75*
G02*
X101000000Y-139250000I0J-50000D01*
G01*
X101000000Y-139250000D02*
G75*
G02*
X101000000Y-139150000I0J50000D01*
G01*
D15*
%TO.C,Q1*%
X292190000Y-104470000D02*
X308310000Y-104470000D01*
X308310000Y-125640000D02*
X308310000Y-104470000D01*
X306410000Y-125640000D02*
X306410000Y-128100000D01*
X304990000Y-125640000D02*
X304990000Y-128100000D01*
X300960000Y-125640000D02*
X300960000Y-128100000D01*
X299540000Y-125640000D02*
X299540000Y-128100000D01*
X295510000Y-125640000D02*
X295510000Y-128100000D01*
X294090000Y-125640000D02*
X294090000Y-128100000D01*
X292190000Y-125640000D02*
X292190000Y-104470000D01*
X292190000Y-125640000D02*
X308310000Y-125640000D01*
D14*
%TO.C,C74*%
X250750000Y-188750000D02*
X242250000Y-188750000D01*
X250750000Y-188750000D02*
X250750000Y-206750000D01*
X242250000Y-188750000D02*
X242250000Y-206750000D01*
X250750000Y-206750000D02*
X242250000Y-206750000D01*
%TO.C,C76*%
X271450000Y-170000000D02*
X262950000Y-170000000D01*
X271450000Y-170000000D02*
X271450000Y-188000000D01*
X262950000Y-170000000D02*
X262950000Y-188000000D01*
X271450000Y-188000000D02*
X262950000Y-188000000D01*
D13*
%TO.C,C81*%
X100250000Y-101650000D02*
X100250000Y-101650000D01*
X100250000Y-101750000D02*
X100250000Y-101750000D01*
D10*
X102825000Y-103600000D02*
X105400000Y-106175000D01*
X105400000Y-106175000D02*
X105400000Y-113900000D01*
X95100000Y-106175000D02*
X97675000Y-103600000D01*
X105400000Y-113900000D02*
X101700000Y-113900000D01*
X98700000Y-113900000D02*
X95100000Y-113900000D01*
X95100000Y-113900000D02*
X95100000Y-106175000D01*
X95100000Y-113900000D02*
X95100000Y-113550000D01*
D13*
X100250000Y-101650000D02*
G75*
G02*
X100250000Y-101750000I0J-50000D01*
G01*
X100250000Y-101750000D02*
G75*
G02*
X100250000Y-101650000I0J50000D01*
G01*
%TO.C,C79*%
X100250000Y-116500000D02*
X100250000Y-116500000D01*
X100250000Y-116600000D02*
X100250000Y-116600000D01*
D10*
X102825000Y-118450000D02*
X105400000Y-121025000D01*
X105400000Y-121025000D02*
X105400000Y-128750000D01*
X95100000Y-121025000D02*
X97675000Y-118450000D01*
X105400000Y-128750000D02*
X101700000Y-128750000D01*
X98700000Y-128750000D02*
X95100000Y-128750000D01*
X95100000Y-128750000D02*
X95100000Y-121025000D01*
X95100000Y-128750000D02*
X95100000Y-128400000D01*
D13*
X100250000Y-116500000D02*
G75*
G02*
X100250000Y-116600000I0J-50000D01*
G01*
X100250000Y-116600000D02*
G75*
G02*
X100250000Y-116500000I0J50000D01*
G01*
D15*
%TO.C,IC1*%
X147155000Y-89525000D02*
X147155000Y-87575000D01*
X147155000Y-89525000D02*
X147155000Y-91475000D01*
X142035000Y-89525000D02*
X142035000Y-87575000D01*
X142035000Y-89525000D02*
X142035000Y-91475000D01*
X147390000Y-87065000D02*
X147060000Y-86825000D01*
X147390000Y-86585000D01*
X147390000Y-87065000D01*
G36*
X147390000Y-87065000D02*
G01*
X147060000Y-86825000D01*
X147390000Y-86585000D01*
X147390000Y-87065000D01*
G37*
%TO.C,Q3*%
X109940000Y-104250000D02*
X126060000Y-104250000D01*
X126060000Y-125420000D02*
X126060000Y-104250000D01*
X124160000Y-125420000D02*
X124160000Y-127880000D01*
X122740000Y-125420000D02*
X122740000Y-127880000D01*
X118710000Y-125420000D02*
X118710000Y-127880000D01*
X117290000Y-125420000D02*
X117290000Y-127880000D01*
X113260000Y-125420000D02*
X113260000Y-127880000D01*
X111840000Y-125420000D02*
X111840000Y-127880000D01*
X109940000Y-125420000D02*
X109940000Y-104250000D01*
X109940000Y-125420000D02*
X126060000Y-125420000D01*
D13*
%TO.C,C80*%
X88000000Y-116500000D02*
X88000000Y-116500000D01*
X88000000Y-116600000D02*
X88000000Y-116600000D01*
D10*
X90575000Y-118450000D02*
X93150000Y-121025000D01*
X93150000Y-121025000D02*
X93150000Y-128750000D01*
X82850000Y-121025000D02*
X85425000Y-118450000D01*
X93150000Y-128750000D02*
X89450000Y-128750000D01*
X86450000Y-128750000D02*
X82850000Y-128750000D01*
X82850000Y-128750000D02*
X82850000Y-121025000D01*
X82850000Y-128750000D02*
X82850000Y-128400000D01*
D13*
X88000000Y-116500000D02*
G75*
G02*
X88000000Y-116600000I0J-50000D01*
G01*
X88000000Y-116600000D02*
G75*
G02*
X88000000Y-116500000I0J50000D01*
G01*
D15*
%TO.C,Cdc1*%
X328870000Y-139880000D02*
X328870000Y-166620000D01*
X317130000Y-139880000D02*
X328870000Y-139880000D01*
X328870000Y-166620000D02*
X317130000Y-166620000D01*
X317130000Y-166620000D02*
X317130000Y-139880000D01*
D14*
%TO.C,C77*%
X261400000Y-170000000D02*
X252900000Y-170000000D01*
X261400000Y-170000000D02*
X261400000Y-188000000D01*
X252900000Y-170000000D02*
X252900000Y-188000000D01*
X261400000Y-188000000D02*
X252900000Y-188000000D01*
%TO.C,C72*%
X271550000Y-188750000D02*
X263050000Y-188750000D01*
X271550000Y-188750000D02*
X271550000Y-206750000D01*
X263050000Y-188750000D02*
X263050000Y-206750000D01*
X271550000Y-206750000D02*
X263050000Y-206750000D01*
D15*
%TO.C,Q4*%
X106190000Y-168970000D02*
X122310000Y-168970000D01*
X122310000Y-190140000D02*
X122310000Y-168970000D01*
X120410000Y-190140000D02*
X120410000Y-192600000D01*
X118990000Y-190140000D02*
X118990000Y-192600000D01*
X114960000Y-190140000D02*
X114960000Y-192600000D01*
X113540000Y-190140000D02*
X113540000Y-192600000D01*
X109510000Y-190140000D02*
X109510000Y-192600000D01*
X108090000Y-190140000D02*
X108090000Y-192600000D01*
X106190000Y-190140000D02*
X106190000Y-168970000D01*
X106190000Y-190140000D02*
X122310000Y-190140000D01*
D13*
%TO.C,C6*%
X88250000Y-101500000D02*
X88250000Y-101500000D01*
X88250000Y-101600000D02*
X88250000Y-101600000D01*
D10*
X90825000Y-103450000D02*
X93400000Y-106025000D01*
X93400000Y-106025000D02*
X93400000Y-113750000D01*
X83100000Y-106025000D02*
X85675000Y-103450000D01*
X93400000Y-113750000D02*
X89700000Y-113750000D01*
X86700000Y-113750000D02*
X83100000Y-113750000D01*
X83100000Y-113750000D02*
X83100000Y-106025000D01*
X83100000Y-113750000D02*
X83100000Y-113400000D01*
D13*
X88250000Y-101500000D02*
G75*
G02*
X88250000Y-101600000I0J-50000D01*
G01*
X88250000Y-101600000D02*
G75*
G02*
X88250000Y-101500000I0J50000D01*
G01*
%TO.C,C8*%
X87000000Y-140400000D02*
X87000000Y-140400000D01*
X87000000Y-140500000D02*
X87000000Y-140500000D01*
D10*
X89575000Y-142350000D02*
X92150000Y-144925000D01*
X92150000Y-144925000D02*
X92150000Y-152650000D01*
X81850000Y-144925000D02*
X84425000Y-142350000D01*
X92150000Y-152650000D02*
X88450000Y-152650000D01*
X85450000Y-152650000D02*
X81850000Y-152650000D01*
X81850000Y-152650000D02*
X81850000Y-144925000D01*
X81850000Y-152650000D02*
X81850000Y-152300000D01*
D13*
X87000000Y-140400000D02*
G75*
G02*
X87000000Y-140500000I0J-50000D01*
G01*
X87000000Y-140500000D02*
G75*
G02*
X87000000Y-140400000I0J50000D01*
G01*
D15*
%TO.C,Q2*%
X307060000Y-176110000D02*
X290940000Y-176110000D01*
X307060000Y-176110000D02*
X307060000Y-197280000D01*
X305160000Y-176110000D02*
X305160000Y-173650000D01*
X303740000Y-176110000D02*
X303740000Y-173650000D01*
X299710000Y-176110000D02*
X299710000Y-173650000D01*
X298290000Y-176110000D02*
X298290000Y-173650000D01*
X294260000Y-176110000D02*
X294260000Y-173650000D01*
X292840000Y-176110000D02*
X292840000Y-173650000D01*
X290940000Y-176110000D02*
X290940000Y-197280000D01*
X307060000Y-197280000D02*
X290940000Y-197280000D01*
D14*
%TO.C,C21*%
X281600000Y-188750000D02*
X273100000Y-188750000D01*
X281600000Y-188750000D02*
X281600000Y-206750000D01*
X273100000Y-188750000D02*
X273100000Y-206750000D01*
X281600000Y-206750000D02*
X273100000Y-206750000D01*
%TO.C,C73*%
X261500000Y-188750000D02*
X253000000Y-188750000D01*
X261500000Y-188750000D02*
X261500000Y-206750000D01*
X253000000Y-188750000D02*
X253000000Y-206750000D01*
X261500000Y-206750000D02*
X253000000Y-206750000D01*
%TO.C,T2*%
D13*
X339602500Y-91850000D02*
X323802500Y-91850000D01*
X323802500Y-113650000D01*
X339602500Y-113650000D01*
X339602500Y-91850000D01*
X339602500Y-94450000D02*
X323802500Y-94450000D01*
X323802500Y-111050000D01*
X339602500Y-111050000D01*
X339602500Y-94450000D01*
X339602500Y-100250000D02*
X323802500Y-100250000D01*
X323802500Y-105250000D01*
X339602500Y-105250000D01*
X339602500Y-100250000D01*
D14*
%TO.C,C75*%
X281500000Y-170000000D02*
X273000000Y-170000000D01*
X281500000Y-170000000D02*
X281500000Y-188000000D01*
X273000000Y-170000000D02*
X273000000Y-188000000D01*
X281500000Y-188000000D02*
X273000000Y-188000000D01*
%TD*%
M02*
