%TF.GenerationSoftware,KiCad,Pcbnew,9.0.3*%
%TF.CreationDate,2025-09-15T08:34:33+02:00*%
%TF.ProjectId,TEST_creat_foder,54455354-5f63-4726-9561-745f666f6465,rev?*%
%TF.SameCoordinates,Original*%
%TF.FileFunction,Copper,L2,Inr*%
%TF.FilePolarity,Positive*%
%FSLAX46Y46*%
G04 Gerber Fmt 4.6, Leading zero omitted, Abs format (unit mm)*
G04 Created by KiCad (PCBNEW 9.0.3) date 2025-09-15 08:34:33*
%MOMM*%
%LPD*%
G01*
G04 APERTURE LIST*
G04 Aperture macros list*
%AMRoundRect*
0 Rectangle with rounded corners*
0 $1 Rounding radius*
0 $2 $3 $4 $5 $6 $7 $8 $9 X,Y pos of 4 corners*
0 Add a 4 corners polygon primitive as box body*
4,1,4,$2,$3,$4,$5,$6,$7,$8,$9,$2,$3,0*
0 Add four circle primitives for the rounded corners*
1,1,$1+$1,$2,$3*
1,1,$1+$1,$4,$5*
1,1,$1+$1,$6,$7*
1,1,$1+$1,$8,$9*
0 Add four rect primitives between the rounded corners*
20,1,$1+$1,$2,$3,$4,$5,0*
20,1,$1+$1,$4,$5,$6,$7,0*
20,1,$1+$1,$6,$7,$8,$9,0*
20,1,$1+$1,$8,$9,$2,$3,0*%
G04 Aperture macros list end*
%TA.AperFunction,EtchedComponent*%
%ADD10C,7.125000*%
%TD*%
%TA.AperFunction,EtchedComponent*%
%ADD11C,1.000000*%
%TD*%
%TA.AperFunction,ComponentPad*%
%ADD12C,1.400000*%
%TD*%
%TA.AperFunction,ComponentPad*%
%ADD13R,2.500000X4.500000*%
%TD*%
%TA.AperFunction,ComponentPad*%
%ADD14O,2.500000X4.500000*%
%TD*%
%TA.AperFunction,ComponentPad*%
%ADD15C,2.400000*%
%TD*%
%TA.AperFunction,Conductor*%
%ADD16RoundRect,0.252000X-0.448000X0.748000X-0.448000X-0.748000X0.448000X-0.748000X0.448000X0.748000X0*%
%TD*%
%TA.AperFunction,ViaPad*%
%ADD17C,0.600000*%
%TD*%
%TA.AperFunction,Conductor*%
%ADD18C,0.200000*%
%TD*%
G04 APERTURE END LIST*
D10*
%TO.C,T3*%
X201000000Y-110637500D02*
X163500000Y-110637500D01*
X201000000Y-118262500D02*
X163500000Y-118262500D01*
X201000000Y-125887500D02*
X163500000Y-125887500D01*
X201000000Y-133512500D02*
X163500000Y-133512500D01*
X156937500Y-140075000D02*
X156937500Y-154075000D01*
X149312500Y-140075000D02*
X149312500Y-154075000D01*
X141687500Y-140075000D02*
X141687500Y-154075000D01*
X134062500Y-140075000D02*
X134062500Y-154075000D01*
X230437500Y-154075000D02*
X230437500Y-147700000D01*
X222812500Y-154075000D02*
X222812500Y-147700000D01*
X215187500Y-154075000D02*
X215187500Y-147700000D01*
X163500000Y-160637500D02*
X201000000Y-160637500D01*
X163500000Y-168262500D02*
X201000000Y-168262500D01*
X163500000Y-175887500D02*
X201000000Y-175887500D01*
X163500000Y-183512500D02*
X201000000Y-183512500D01*
X201000000Y-118262500D02*
G75*
G02*
X230437500Y-147700000I0J-29437500D01*
G01*
X201000000Y-125887500D02*
G75*
G02*
X222812500Y-147700000I0J-21812500D01*
G01*
X201000000Y-133512500D02*
G75*
G02*
X215187500Y-147700000I0J-14187500D01*
G01*
X156937500Y-140075000D02*
G75*
G02*
X163500000Y-133512500I6562500J0D01*
G01*
X149312500Y-140075000D02*
G75*
G02*
X163500000Y-125887500I14187500J0D01*
G01*
X141687500Y-140075000D02*
G75*
G02*
X163500000Y-118262500I21812500J0D01*
G01*
X134062500Y-140075000D02*
G75*
G02*
X163500000Y-110637500I29437500J0D01*
G01*
X230437500Y-154075000D02*
G75*
G02*
X201000000Y-183512500I-29437500J0D01*
G01*
X222812500Y-154075000D02*
G75*
G02*
X201000000Y-175887500I-21812500J0D01*
G01*
X215187500Y-154075000D02*
G75*
G02*
X201000000Y-168262500I-14187500J0D01*
G01*
X207562500Y-154075000D02*
G75*
G02*
X201000000Y-160637500I-6562500J0D01*
G01*
X163500000Y-160637500D02*
G75*
G02*
X156937500Y-154075000I0J6562500D01*
G01*
X163500000Y-168262500D02*
G75*
G02*
X149312500Y-154075000I0J14187500D01*
G01*
X163500000Y-175887500D02*
G75*
G02*
X141687500Y-154075000I0J21812500D01*
G01*
X163500000Y-183512500D02*
G75*
G02*
X134062500Y-154075000I0J29437500D01*
G01*
D11*
%TO.C,T2*%
X343887500Y-96810000D02*
X343887500Y-108660000D01*
X318012500Y-96810000D02*
X343887500Y-96810000D01*
X343887500Y-108660000D02*
X317942500Y-108660000D01*
%TD*%
D12*
%TO.N,Net-(T3-AB)*%
%TO.C,C78*%
X247100000Y-171500000D03*
%TO.N,HVN1*%
X247100000Y-186500000D03*
%TD*%
D13*
%TO.N,G_P_1*%
%TO.C,Q1*%
X294800000Y-130610000D03*
D14*
%TO.N,HVP1*%
X300250000Y-130610000D03*
%TO.N,S_P_1*%
X305700000Y-130610000D03*
%TD*%
D12*
%TO.N,Net-(T3-AB)*%
%TO.C,C74*%
X246500000Y-190250000D03*
%TO.N,HVN1*%
X246500000Y-205250000D03*
%TD*%
%TO.N,Net-(T3-AB)*%
%TO.C,C76*%
X267200000Y-171500000D03*
%TO.N,HVN1*%
X267200000Y-186500000D03*
%TD*%
D13*
%TO.N,G_S_1*%
%TO.C,Q3*%
X112550000Y-130390000D03*
D14*
%TO.N,D_S_1*%
X118000000Y-130390000D03*
%TO.N,con_gnd*%
X123450000Y-130390000D03*
%TD*%
D15*
%TO.N,HVP1*%
%TO.C,Cdc1*%
X323000000Y-142000000D03*
%TO.N,HVN1*%
X323000000Y-164500000D03*
%TD*%
D12*
%TO.N,Net-(T3-AB)*%
%TO.C,C77*%
X257150000Y-171500000D03*
%TO.N,HVN1*%
X257150000Y-186500000D03*
%TD*%
%TO.N,Net-(T3-AB)*%
%TO.C,C72*%
X267300000Y-190250000D03*
%TO.N,HVN1*%
X267300000Y-205250000D03*
%TD*%
D13*
%TO.N,G_S_2*%
%TO.C,Q4*%
X108800000Y-195110000D03*
D14*
%TO.N,D_S_2*%
X114250000Y-195110000D03*
%TO.N,con_gnd*%
X119700000Y-195110000D03*
%TD*%
D16*
%TO.N,Net-(T3-AA)*%
%TO.C,T3*%
X207562500Y-154075000D03*
%TO.N,Net-(T3-AB)*%
X201000000Y-110637500D03*
%TD*%
D13*
%TO.N,G_P_2*%
%TO.C,Q2*%
X304450000Y-171140000D03*
D14*
%TO.N,S_P_1*%
X299000000Y-171140000D03*
%TO.N,HVN1*%
X293550000Y-171140000D03*
%TD*%
D12*
%TO.N,Net-(T3-AB)*%
%TO.C,C21*%
X277350000Y-190250000D03*
%TO.N,HVN1*%
X277350000Y-205250000D03*
%TD*%
%TO.N,Net-(T3-AB)*%
%TO.C,C73*%
X257250000Y-190250000D03*
%TO.N,HVN1*%
X257250000Y-205250000D03*
%TD*%
%TO.N,Net-(T3-AB)*%
%TO.C,C75*%
X277250000Y-171500000D03*
%TO.N,HVN1*%
X277250000Y-186500000D03*
%TD*%
D17*
%TO.N,Net-(T3-AB)*%
X237500000Y-149250000D03*
%TO.N,*%
X120250000Y-149575000D03*
X119250000Y-149575000D03*
X335925000Y-186500000D03*
X335925000Y-187250000D03*
%TD*%
D18*
%TO.N,Net-(T3-AB)*%
X235750000Y-118250000D02*
X228137500Y-110637500D01*
X235750000Y-147500000D02*
X235750000Y-118250000D01*
X237500000Y-149250000D02*
X235750000Y-147500000D01*
X228137500Y-110637500D02*
X204863500Y-110637500D01*
%TD*%
M02*
