G04 #@! TF.GenerationSoftware,KiCad,Pcbnew,9.0.3*
G04 #@! TF.CreationDate,2025-10-12T10:39:54+02:00*
G04 #@! TF.ProjectId,LLC_DCDC_V5,4c4c435f-4443-4444-935f-56352e6b6963,rev?*
G04 #@! TF.SameCoordinates,Original*
G04 #@! TF.FileFunction,Profile,NP*
%FSLAX46Y46*%
G04 Gerber Fmt 4.6, Leading zero omitted, Abs format (unit mm)*
G04 Created by KiCad (PCBNEW 9.0.3) date 2025-10-12 10:39:54*
%MOMM*%
%LPD*%
G01*
G04 APERTURE LIST*
G04 #@! TA.AperFunction,Profile*
%ADD10C,0.100000*%
G04 #@! TD*
G04 #@! TA.AperFunction,Profile*
%ADD11C,0.050000*%
G04 #@! TD*
G04 APERTURE END LIST*
D10*
X194010013Y-131315000D02*
G75*
G02*
X186049987Y-131315000I-3980013J0D01*
G01*
X186049987Y-131315000D02*
G75*
G02*
X194010013Y-131315000I3980013J0D01*
G01*
X186335012Y-322820000D02*
G75*
G02*
X178314988Y-322820000I-4010012J0D01*
G01*
X178314988Y-322820000D02*
G75*
G02*
X186335012Y-322820000I4010012J0D01*
G01*
X92990000Y-326770000D02*
G75*
G02*
X84990000Y-326770000I-4000000J0D01*
G01*
X84990000Y-326770000D02*
G75*
G02*
X92990000Y-326770000I4000000J0D01*
G01*
D11*
X77330000Y-52115000D02*
X217330000Y-52115000D01*
X217330000Y-352115000D01*
X77330000Y-352115000D01*
X77330000Y-52115000D01*
D10*
X139860000Y-130615000D02*
G75*
G02*
X131860000Y-130615000I-4000000J0D01*
G01*
X131860000Y-130615000D02*
G75*
G02*
X139860000Y-130615000I4000000J0D01*
G01*
D11*
X83989850Y-274899897D02*
X83969849Y-237035852D01*
X84659966Y-236345735D02*
X93304011Y-236355736D01*
X93283966Y-275609969D02*
X84679921Y-275589968D01*
X93994083Y-237045807D02*
X93974082Y-274919897D01*
X128369849Y-274919897D02*
X128349849Y-237055806D01*
X129039921Y-236365735D02*
X143709011Y-236330735D01*
X143718781Y-275614969D02*
X129059921Y-275609969D01*
X144399083Y-237020620D02*
X144409082Y-274924720D01*
X178834850Y-274914897D02*
X178814849Y-237050852D01*
X179504966Y-236360735D02*
X188149011Y-236370736D01*
X188128966Y-275624969D02*
X179524921Y-275604968D01*
X188839083Y-237060807D02*
X188819082Y-274934897D01*
X83969849Y-237035807D02*
G75*
G02*
X84659921Y-236345735I690071J1D01*
G01*
X84679921Y-275589969D02*
G75*
G02*
X83989849Y-274899897I-1J690071D01*
G01*
X93304011Y-236355735D02*
G75*
G02*
X93994083Y-237045807I1J-690071D01*
G01*
X93974083Y-274919897D02*
G75*
G02*
X93284011Y-275609969I-690071J-1D01*
G01*
X128349849Y-237055807D02*
G75*
G02*
X129039921Y-236365735I690071J1D01*
G01*
X129059921Y-275609969D02*
G75*
G02*
X128369849Y-274919897I-1J690071D01*
G01*
X143709011Y-236330735D02*
G75*
G02*
X144399083Y-237020807I5J-690067D01*
G01*
X144409083Y-274924897D02*
G75*
G02*
X143719011Y-275614969I-690067J-5D01*
G01*
X178814849Y-237050807D02*
G75*
G02*
X179504921Y-236360735I690117J-45D01*
G01*
X179524921Y-275604969D02*
G75*
G02*
X178834849Y-274914897I45J690117D01*
G01*
X188149011Y-236370735D02*
G75*
G02*
X188839083Y-237060807I-45J-690117D01*
G01*
X188819083Y-274934897D02*
G75*
G02*
X188129011Y-275624969I-690117J45D01*
G01*
X141574440Y-86409967D02*
X157367096Y-86402691D01*
X157877298Y-85899896D02*
X157880063Y-83309580D01*
X141077314Y-83309238D02*
X141074541Y-85899766D01*
X157380158Y-82799824D02*
X141587495Y-82805000D01*
X141634642Y-78025071D02*
X157427298Y-78017795D01*
X157937500Y-77515000D02*
X157942826Y-72525130D01*
X141140090Y-72520000D02*
X141134743Y-77514870D01*
X157440360Y-72014928D02*
X141647697Y-72020104D01*
X141654642Y-67145071D02*
X157447298Y-67137795D01*
X157957500Y-66635000D02*
X157960265Y-64044684D01*
X141157516Y-64044342D02*
X141154743Y-66634870D01*
X157460360Y-63534928D02*
X141667697Y-63540104D01*
X141574440Y-86409968D02*
G75*
G02*
X141074544Y-85899766I0J500000D01*
G01*
X157877298Y-85902754D02*
G75*
G02*
X157367096Y-86402650I-500000J0D01*
G01*
X141077298Y-83304896D02*
G75*
G02*
X141587500Y-82805000I500000J0D01*
G01*
X157380156Y-82799824D02*
G75*
G02*
X157880052Y-83310026I0J-500000D01*
G01*
X141634642Y-78025072D02*
G75*
G02*
X141134746Y-77514870I0J500000D01*
G01*
X157937500Y-77517858D02*
G75*
G02*
X157427298Y-78017754I-500000J0D01*
G01*
X141137500Y-72520000D02*
G75*
G02*
X141647702Y-72020104I500000J0D01*
G01*
X157440358Y-72014928D02*
G75*
G02*
X157940258Y-72525130I2J-500002D01*
G01*
X141654642Y-67145072D02*
G75*
G02*
X141154742Y-66634870I-2J500002D01*
G01*
X157957500Y-66637858D02*
G75*
G02*
X157447297Y-67137796I-500000J-42D01*
G01*
X141157500Y-64040000D02*
G75*
G02*
X141667702Y-63540104I500000J0D01*
G01*
X157460358Y-63534928D02*
G75*
G02*
X157960258Y-64045130I2J-500002D01*
G01*
X91350072Y-154406331D02*
X118969928Y-154406331D01*
X119660000Y-155096403D02*
X119660000Y-158716259D01*
X90660000Y-158716231D02*
X90660000Y-155096403D01*
X118969928Y-159406331D02*
X91350100Y-159406330D01*
X91350072Y-172206331D02*
X118969928Y-172206331D01*
X119660000Y-172896403D02*
X119660000Y-180616230D01*
X90660000Y-180616259D02*
X90660000Y-172896403D01*
X118969928Y-181306330D02*
X91350100Y-181306330D01*
X91610072Y-194106331D02*
X119229928Y-194106331D01*
X119920000Y-194796403D02*
X119920000Y-198416259D01*
X90920000Y-198416231D02*
X90920000Y-194796403D01*
X119229928Y-199106330D02*
X91610100Y-199106330D01*
X118969928Y-154406331D02*
G75*
G02*
X119660000Y-155096403I1J-690071D01*
G01*
X90660000Y-155096403D02*
G75*
G02*
X91350072Y-154406331I690071J1D01*
G01*
X119660000Y-158716259D02*
G75*
G02*
X118969928Y-159406331I-690071J-1D01*
G01*
X91350072Y-159406331D02*
G75*
G02*
X90660000Y-158716259I-1J690071D01*
G01*
X118969928Y-172206331D02*
G75*
G02*
X119660000Y-172896403I1J-690071D01*
G01*
X90660000Y-172896403D02*
G75*
G02*
X91350072Y-172206331I690069J3D01*
G01*
X119660000Y-180616259D02*
G75*
G02*
X118969928Y-181306331I-690100J28D01*
G01*
X91350072Y-181306331D02*
G75*
G02*
X90660000Y-180616259I-92J689980D01*
G01*
X119229928Y-194106331D02*
G75*
G02*
X119920000Y-194796403I22J-690050D01*
G01*
X90920000Y-194796403D02*
G75*
G02*
X91610072Y-194106331I690200J-128D01*
G01*
X119920000Y-198416259D02*
G75*
G02*
X119229928Y-199106331I-690100J28D01*
G01*
X91610072Y-199106331D02*
G75*
G02*
X90920000Y-198416259I-72J690000D01*
G01*
M02*
