M48
; DRILL file {KiCad 9.0.3} date 2025-10-12T10:40:02+0200
; FORMAT={-:-/ absolute / metric / decimal}
; #@! TF.CreationDate,2025-10-12T10:40:02+02:00
; #@! TF.GenerationSoftware,Kicad,Pcbnew,9.0.3
; #@! TF.FileFunction,Plated,1,4,PTH
FMAT,2
METRIC
; #@! TA.AperFunction,Plated,PTH,ViaDrill
T1C0.300
; #@! TA.AperFunction,Plated,PTH,ComponentDrill
T2C0.500
; #@! TA.AperFunction,Plated,PTH,ComponentDrill
T3C0.600
; #@! TA.AperFunction,Plated,PTH,ComponentDrill
T4C0.800
; #@! TA.AperFunction,Plated,PTH,ComponentDrill
T5C1.000
; #@! TA.AperFunction,Plated,PTH,ComponentDrill
T6C1.050
; #@! TA.AperFunction,Plated,PTH,ComponentDrill
T7C1.200
; #@! TA.AperFunction,Plated,PTH,ComponentDrill
T8C1.500
; #@! TA.AperFunction,Plated,PTH,ComponentDrill
T9C2.700
; #@! TA.AperFunction,Plated,PTH,ComponentDrill
T10C4.500
%
G90
G05
T1
X78.53Y-62.565
X78.53Y-64.065
X78.53Y-65.565
X78.53Y-67.065
X78.53Y-68.565
X78.53Y-70.065
X78.53Y-71.565
X78.53Y-73.065
X78.53Y-74.565
X78.53Y-76.065
X78.53Y-77.565
X78.53Y-79.065
X78.53Y-80.565
X78.53Y-82.065
X78.53Y-83.565
X78.53Y-85.065
X78.53Y-86.565
X78.53Y-88.065
X78.53Y-89.565
X78.53Y-91.065
X78.53Y-92.565
X78.53Y-94.065
X78.84Y-311.98
X78.84Y-313.48
X78.84Y-314.98
X78.84Y-316.48
X78.84Y-317.98
X78.84Y-319.48
X78.84Y-320.98
X78.84Y-322.48
X78.84Y-323.98
X78.84Y-325.48
X78.84Y-326.98
X78.84Y-328.48
X78.84Y-329.98
X78.84Y-331.48
X78.84Y-332.98
X78.84Y-334.48
X78.84Y-335.98
X78.84Y-337.48
X78.84Y-338.98
X78.84Y-340.48
X78.84Y-341.98
X78.84Y-343.48
X78.84Y-344.98
X78.84Y-346.48
X78.84Y-347.98
X78.84Y-349.48
X79.17Y-281.46
X79.17Y-282.96
X79.17Y-284.46
X79.17Y-285.96
X79.17Y-287.46
X79.17Y-288.96
X79.17Y-290.46
X79.17Y-291.96
X79.17Y-293.46
X79.17Y-294.96
X79.17Y-296.46
X79.17Y-297.96
X79.17Y-299.46
X79.17Y-300.96
X79.17Y-302.46
X80.03Y-62.565
X80.03Y-64.065
X80.03Y-65.565
X80.03Y-67.065
X80.03Y-68.565
X80.03Y-70.065
X80.03Y-71.565
X80.03Y-73.065
X80.03Y-74.565
X80.03Y-76.065
X80.03Y-77.565
X80.03Y-79.065
X80.03Y-80.565
X80.03Y-82.065
X80.03Y-83.565
X80.03Y-85.065
X80.03Y-86.565
X80.03Y-88.065
X80.03Y-89.565
X80.03Y-91.065
X80.03Y-92.565
X80.03Y-94.065
X80.34Y-311.98
X80.34Y-313.48
X80.34Y-314.98
X80.34Y-316.48
X80.34Y-317.98
X80.34Y-319.48
X80.34Y-320.98
X80.34Y-322.48
X80.34Y-323.98
X80.34Y-325.48
X80.34Y-326.98
X80.34Y-328.48
X80.34Y-329.98
X80.34Y-331.48
X80.34Y-332.98
X80.34Y-334.48
X80.34Y-335.98
X80.34Y-337.48
X80.34Y-338.98
X80.34Y-340.48
X80.34Y-341.98
X80.34Y-343.48
X80.34Y-344.98
X80.34Y-346.48
X80.34Y-347.98
X80.34Y-349.48
X80.67Y-281.46
X80.67Y-282.96
X80.67Y-284.46
X80.67Y-285.96
X80.67Y-287.46
X80.67Y-288.96
X80.67Y-290.46
X80.67Y-291.96
X80.67Y-293.46
X80.67Y-294.96
X80.67Y-296.46
X80.67Y-297.96
X80.67Y-299.46
X80.67Y-300.96
X80.67Y-302.46
X81.53Y-70.065
X81.53Y-71.565
X81.53Y-73.065
X81.53Y-74.565
X81.53Y-76.065
X81.53Y-77.565
X81.53Y-79.065
X81.53Y-80.565
X81.53Y-82.065
X81.53Y-83.565
X81.53Y-85.065
X81.53Y-86.565
X81.53Y-88.065
X81.53Y-89.565
X81.53Y-91.065
X81.53Y-92.565
X81.53Y-94.065
X81.84Y-311.98
X81.84Y-313.48
X81.84Y-314.98
X81.84Y-316.48
X81.84Y-317.98
X81.84Y-319.48
X81.84Y-320.98
X81.84Y-322.48
X81.84Y-323.98
X81.84Y-325.48
X81.84Y-326.98
X81.84Y-328.48
X81.84Y-329.98
X81.84Y-331.48
X81.84Y-332.98
X81.84Y-334.48
X81.84Y-335.98
X81.84Y-337.48
X81.84Y-338.98
X81.84Y-340.48
X81.84Y-341.98
X81.84Y-343.48
X81.84Y-344.98
X81.84Y-346.48
X81.84Y-347.98
X81.84Y-349.48
X82.17Y-278.46
X82.17Y-279.96
X82.17Y-281.46
X82.17Y-282.96
X82.17Y-284.46
X82.17Y-285.96
X82.17Y-287.46
X82.17Y-288.96
X82.17Y-290.46
X82.17Y-291.96
X82.17Y-293.46
X82.17Y-294.96
X82.17Y-296.46
X82.17Y-297.96
X82.17Y-299.46
X82.17Y-300.96
X82.17Y-302.46
X83.03Y-71.565
X83.03Y-73.065
X83.03Y-74.565
X83.03Y-76.065
X83.03Y-77.565
X83.03Y-79.065
X83.03Y-80.565
X83.03Y-82.065
X83.03Y-83.565
X83.03Y-85.065
X83.03Y-86.565
X83.03Y-88.065
X83.03Y-89.565
X83.03Y-91.065
X83.03Y-92.565
X83.03Y-94.065
X83.34Y-311.98
X83.34Y-313.48
X83.34Y-314.98
X83.34Y-316.48
X83.34Y-317.98
X83.34Y-319.48
X83.34Y-320.98
X83.34Y-322.48
X83.34Y-323.98
X83.34Y-325.48
X83.34Y-326.98
X83.34Y-328.48
X83.34Y-329.98
X83.34Y-331.48
X83.34Y-332.98
X83.34Y-334.48
X83.34Y-335.98
X83.34Y-337.48
X83.34Y-338.98
X83.34Y-340.48
X83.34Y-341.98
X83.34Y-343.48
X83.34Y-344.98
X83.34Y-346.48
X83.34Y-347.98
X83.34Y-349.48
X83.67Y-278.46
X83.67Y-279.96
X83.67Y-281.46
X83.67Y-282.96
X83.67Y-284.46
X83.67Y-285.96
X83.67Y-287.46
X83.67Y-288.96
X83.67Y-290.46
X83.67Y-291.96
X83.67Y-293.46
X83.67Y-294.96
X83.67Y-296.46
X83.67Y-297.96
X83.67Y-299.46
X83.67Y-300.96
X83.67Y-302.46
X84.53Y-73.065
X84.53Y-74.565
X84.53Y-76.065
X84.53Y-77.565
X84.53Y-79.065
X84.53Y-80.565
X84.53Y-82.065
X84.53Y-83.565
X84.53Y-85.065
X84.53Y-86.565
X84.84Y-311.98
X84.84Y-313.48
X84.84Y-314.98
X84.84Y-316.48
X84.84Y-317.98
X84.84Y-319.48
X85.01Y-88.535
X85.01Y-90.035
X85.01Y-91.535
X85.17Y-278.46
X85.17Y-279.96
X85.17Y-281.46
X85.17Y-282.96
X85.17Y-284.46
X85.17Y-285.96
X85.17Y-287.46
X85.17Y-288.96
X85.17Y-290.46
X85.17Y-291.96
X85.17Y-293.46
X85.17Y-294.96
X85.17Y-296.46
X85.17Y-297.96
X85.17Y-299.46
X85.17Y-300.96
X85.17Y-302.46
X86.03Y-74.565
X86.03Y-76.065
X86.03Y-77.565
X86.03Y-83.565
X86.34Y-311.98
X86.34Y-313.48
X86.34Y-314.98
X86.34Y-316.48
X86.34Y-317.98
X86.34Y-319.48
X86.51Y-88.535
X86.51Y-90.035
X86.51Y-91.535
X86.67Y-278.46
X86.67Y-279.96
X86.67Y-281.46
X86.67Y-282.96
X86.67Y-284.46
X86.67Y-285.96
X86.67Y-287.46
X86.67Y-288.96
X86.67Y-290.46
X86.67Y-291.96
X86.67Y-293.46
X86.67Y-294.96
X86.67Y-296.46
X86.67Y-297.96
X86.67Y-299.46
X86.67Y-300.96
X86.67Y-302.46
X87.41Y-103.325
X87.53Y-77.565
X87.53Y-82.065
X87.53Y-83.565
X87.84Y-311.98
X87.84Y-313.48
X87.84Y-314.98
X87.84Y-316.48
X87.84Y-317.98
X87.84Y-319.48
X88.01Y-88.535
X88.01Y-90.035
X88.01Y-91.535
X88.17Y-278.46
X88.17Y-279.96
X88.17Y-281.46
X88.17Y-282.96
X88.17Y-284.46
X88.17Y-285.96
X88.17Y-287.46
X88.17Y-288.96
X88.17Y-290.46
X88.17Y-291.96
X88.17Y-293.46
X88.17Y-294.96
X88.17Y-296.46
X88.17Y-297.96
X88.17Y-299.46
X88.17Y-300.96
X88.17Y-302.46
X88.91Y-101.825
X88.91Y-103.325
X88.91Y-104.825
X89.51Y-88.535
X89.51Y-90.035
X89.51Y-91.535
X89.67Y-278.46
X89.67Y-279.96
X89.67Y-281.46
X89.67Y-282.96
X89.67Y-284.46
X89.67Y-285.96
X89.67Y-287.46
X89.67Y-288.96
X89.67Y-290.46
X89.67Y-291.96
X89.67Y-293.46
X89.67Y-294.96
X89.67Y-296.46
X89.67Y-297.96
X89.67Y-299.46
X89.67Y-300.96
X89.67Y-302.46
X90.41Y-101.825
X90.41Y-103.325
X90.41Y-104.825
X90.66Y-63.035
X90.91Y-64.535
X91.01Y-88.535
X91.01Y-90.035
X91.01Y-91.535
X91.16Y-66.035
X91.17Y-278.46
X91.17Y-279.96
X91.17Y-281.46
X91.17Y-282.96
X91.17Y-284.46
X91.17Y-285.96
X91.17Y-287.46
X91.17Y-288.96
X91.17Y-290.46
X91.17Y-291.96
X91.17Y-293.46
X91.17Y-294.96
X91.17Y-296.46
X91.17Y-297.96
X91.17Y-299.46
X91.17Y-300.96
X91.17Y-302.46
X91.41Y-67.535
X91.66Y-69.035
X91.91Y-70.535
X91.91Y-101.825
X91.91Y-103.325
X91.91Y-104.825
X91.91Y-106.325
X91.91Y-107.825
X92.16Y-72.035
X92.41Y-64.535
X92.41Y-73.535
X92.51Y-88.535
X92.51Y-90.035
X92.51Y-91.535
X92.67Y-287.46
X92.67Y-288.96
X92.67Y-290.46
X92.67Y-291.96
X92.67Y-293.46
X92.67Y-294.96
X92.67Y-296.46
X92.67Y-297.96
X92.67Y-299.46
X92.67Y-300.96
X92.67Y-302.46
X93.16Y-78.035
X93.41Y-70.535
X93.41Y-79.535
X93.41Y-101.825
X93.41Y-106.325
X93.41Y-107.825
X93.41Y-109.325
X93.66Y-72.035
X93.91Y-64.535
X93.91Y-73.535
X94.01Y-88.535
X94.01Y-90.035
X94.01Y-91.535
X94.17Y-293.46
X94.17Y-294.96
X94.17Y-296.46
X94.17Y-297.96
X94.17Y-299.46
X94.17Y-300.96
X94.17Y-302.46
X94.66Y-78.035
X94.91Y-70.535
X94.91Y-79.535
X94.91Y-101.825
X94.91Y-106.325
X94.91Y-107.825
X94.91Y-109.325
X94.91Y-112.325
X94.91Y-113.825
X94.91Y-115.325
X94.91Y-116.825
X94.91Y-118.325
X94.91Y-119.825
X94.91Y-121.325
X94.91Y-122.825
X94.91Y-124.325
X94.91Y-125.825
X95.16Y-72.035
X95.41Y-64.535
X95.41Y-73.535
X95.51Y-88.535
X95.51Y-90.035
X95.51Y-91.535
X95.66Y-66.035
X95.66Y-75.035
X95.67Y-293.46
X95.67Y-294.96
X95.67Y-296.46
X95.67Y-297.96
X95.67Y-299.46
X95.67Y-300.96
X95.67Y-302.46
X95.91Y-67.535
X95.91Y-76.535
X96.16Y-69.035
X96.16Y-78.035
X96.41Y-70.535
X96.41Y-79.535
X96.41Y-101.825
X96.41Y-103.325
X96.41Y-104.825
X96.41Y-106.325
X96.41Y-107.825
X96.41Y-109.325
X96.41Y-112.325
X96.41Y-113.825
X96.41Y-115.325
X96.41Y-116.825
X96.41Y-118.325
X96.41Y-119.825
X96.41Y-121.325
X96.41Y-122.825
X96.41Y-124.325
X96.41Y-125.825
X96.41Y-127.325
X96.66Y-63.035
X96.66Y-72.035
X96.91Y-64.535
X96.91Y-73.535
X97.01Y-88.535
X97.01Y-90.035
X97.01Y-91.535
X97.16Y-66.035
X97.16Y-75.035
X97.17Y-296.46
X97.17Y-297.96
X97.17Y-299.46
X97.17Y-300.96
X97.17Y-302.46
X97.41Y-67.535
X97.41Y-76.535
X97.66Y-69.035
X97.66Y-78.035
X97.91Y-70.535
X97.91Y-79.535
X97.91Y-101.825
X97.91Y-103.325
X97.91Y-104.825
X97.91Y-106.325
X97.91Y-107.825
X97.91Y-109.325
X97.91Y-112.325
X97.91Y-113.825
X97.91Y-115.325
X97.91Y-116.825
X97.91Y-118.325
X97.91Y-119.825
X97.91Y-121.325
X97.91Y-122.825
X97.91Y-124.325
X97.91Y-125.825
X97.91Y-127.325
X98.51Y-88.535
X98.51Y-90.035
X98.51Y-91.535
X98.67Y-297.96
X98.67Y-299.46
X98.67Y-300.96
X98.67Y-302.46
X99.24Y-310.08
X99.41Y-113.825
X99.41Y-115.325
X99.41Y-116.825
X99.41Y-118.325
X99.41Y-119.825
X99.41Y-121.325
X99.41Y-122.825
X99.41Y-124.325
X99.41Y-125.825
X99.41Y-127.325
X100.01Y-88.535
X100.01Y-90.035
X100.01Y-91.535
X100.43Y-347.99
X100.43Y-349.49
X100.43Y-350.99
X100.83Y-310.04
X101.51Y-88.535
X101.51Y-90.035
X101.51Y-91.535
X101.93Y-347.99
X101.93Y-349.49
X101.93Y-350.99
X102.12Y-63.035
X102.27Y-64.535
X102.42Y-66.035
X102.57Y-67.535
X102.72Y-69.035
X102.87Y-70.535
X103.01Y-88.535
X103.01Y-90.035
X103.01Y-91.535
X103.02Y-72.035
X103.17Y-73.535
X103.32Y-75.035
X103.43Y-347.99
X103.43Y-349.49
X103.43Y-350.99
X103.47Y-76.535
X103.62Y-78.035
X103.77Y-64.535
X103.77Y-79.535
X103.8Y-102.43
X103.8Y-103.93
X103.8Y-105.43
X103.8Y-106.93
X103.92Y-66.035
X104.07Y-67.535
X104.22Y-69.035
X104.37Y-70.535
X104.51Y-88.535
X104.51Y-90.035
X104.51Y-91.535
X104.52Y-72.035
X104.67Y-73.535
X104.82Y-75.035
X104.93Y-347.99
X104.93Y-349.49
X104.93Y-350.99
X104.97Y-76.535
X105.12Y-78.035
X105.27Y-64.535
X105.27Y-79.535
X105.3Y-102.43
X105.3Y-103.93
X105.3Y-105.43
X105.3Y-106.93
X105.42Y-66.035
X105.57Y-67.535
X105.72Y-69.035
X105.87Y-70.535
X106.01Y-88.535
X106.01Y-90.035
X106.01Y-91.535
X106.02Y-72.035
X106.17Y-73.535
X106.32Y-75.035
X106.43Y-347.99
X106.43Y-349.49
X106.43Y-350.99
X106.47Y-76.535
X106.62Y-78.035
X106.69Y-109.955
X106.75Y-108.67
X106.77Y-64.535
X106.77Y-79.535
X106.8Y-102.43
X106.8Y-103.93
X106.8Y-105.43
X106.8Y-106.93
X107.51Y-88.535
X107.51Y-90.035
X107.51Y-91.535
X107.93Y-347.99
X107.93Y-349.49
X107.93Y-350.99
X108.12Y-78.035
X108.27Y-79.535
X108.3Y-105.43
X108.3Y-106.93
X109.01Y-88.535
X109.01Y-90.035
X109.01Y-91.535
X109.43Y-347.99
X109.43Y-349.49
X109.43Y-350.99
X109.8Y-102.43
X109.8Y-105.43
X109.8Y-106.93
X110.51Y-88.535
X110.51Y-90.035
X110.51Y-91.535
X110.93Y-347.99
X110.93Y-349.49
X110.93Y-350.99
X111.3Y-102.43
X111.3Y-103.93
X111.3Y-105.43
X111.3Y-106.93
X112.01Y-88.535
X112.01Y-90.035
X112.01Y-91.535
X112.05Y-143.67
X112.05Y-145.17
X112.43Y-347.99
X112.43Y-349.49
X112.43Y-350.99
X112.8Y-102.43
X112.8Y-103.93
X113.51Y-88.535
X113.51Y-90.035
X113.55Y-143.67
X113.55Y-145.17
X113.55Y-146.67
X113.93Y-347.99
X113.93Y-349.49
X113.93Y-350.99
X113.97Y-83.375
X113.97Y-84.875
X113.97Y-86.375
X114.3Y-102.43
X115.01Y-88.535
X115.05Y-143.67
X115.05Y-145.17
X115.05Y-146.67
X115.47Y-78.875
X115.47Y-80.375
X115.47Y-81.875
X115.47Y-83.375
X115.52Y-132.295
X115.53Y-122.817
X116.55Y-143.67
X116.55Y-145.17
X116.55Y-146.67
X116.71Y-334.91
X116.72Y-336.07
X116.72Y-337.13
X116.97Y-77.375
X116.97Y-78.875
X116.97Y-80.375
X116.97Y-81.875
X116.97Y-83.375
X117.02Y-132.295
X118.05Y-143.67
X118.05Y-145.17
X118.05Y-146.67
X118.28Y-332.84
X118.47Y-77.375
X118.47Y-78.875
X118.47Y-80.375
X118.47Y-81.875
X118.47Y-83.375
X118.47Y-84.875
X118.52Y-132.295
X118.52Y-133.795
X119.01Y-109.99
X119.32Y-332.84
X119.55Y-143.67
X119.55Y-145.17
X119.55Y-146.67
X119.67Y-115.67
X119.71Y-74.355
X119.71Y-75.855
X119.71Y-77.355
X119.71Y-78.855
X119.71Y-81.855
X119.71Y-83.355
X120.02Y-132.295
X120.02Y-133.795
X120.02Y-135.295
X121.05Y-143.67
X121.05Y-145.17
X121.05Y-146.67
X121.08Y-174.39
X121.08Y-175.39
X121.08Y-176.39
X121.08Y-177.39
X121.08Y-178.39
X121.21Y-72.855
X121.21Y-74.355
X121.21Y-75.855
X121.21Y-77.355
X121.52Y-132.295
X121.52Y-133.795
X121.52Y-135.295
X121.52Y-136.795
X122.08Y-173.39
X122.08Y-174.39
X122.08Y-175.39
X122.08Y-176.39
X122.08Y-177.39
X122.08Y-178.39
X122.08Y-179.39
X122.55Y-143.67
X122.55Y-145.17
X122.55Y-146.67
X122.71Y-72.855
X122.71Y-74.355
X122.71Y-75.855
X122.71Y-77.355
X122.71Y-78.855
X123.02Y-132.295
X123.02Y-133.795
X123.02Y-135.295
X123.02Y-136.795
X123.08Y-173.39
X123.08Y-174.39
X123.08Y-175.39
X123.08Y-176.39
X123.08Y-177.39
X123.08Y-178.39
X123.08Y-179.39
X123.3Y-105.43
X123.3Y-109.93
X123.3Y-111.43
X123.3Y-117.43
X123.3Y-118.93
X123.3Y-120.43
X123.58Y-90.25
X124.05Y-143.67
X124.05Y-145.17
X124.05Y-146.67
X124.08Y-173.39
X124.08Y-174.39
X124.08Y-175.39
X124.08Y-176.39
X124.08Y-177.39
X124.08Y-178.39
X124.08Y-179.39
X124.52Y-132.295
X124.52Y-133.795
X124.52Y-135.295
X124.52Y-136.795
X124.72Y-331.1
X124.73Y-89.45
X124.8Y-105.43
X124.8Y-109.93
X124.8Y-115.93
X124.8Y-117.43
X124.8Y-118.93
X124.8Y-120.43
X125.08Y-174.39
X125.08Y-175.39
X125.08Y-176.39
X125.08Y-177.39
X125.08Y-178.39
X125.55Y-143.67
X125.55Y-145.17
X125.62Y-88.76
X126.02Y-133.795
X126.02Y-135.295
X126.02Y-136.795
X126.3Y-108.43
X126.3Y-114.43
X126.3Y-115.93
X126.3Y-117.43
X126.3Y-118.93
X126.3Y-120.43
X126.32Y-88.16
X126.41Y-331.16
X126.73Y-103.805
X127.05Y-143.67
X127.16Y-87.41
X127.52Y-135.295
X127.52Y-136.795
X127.8Y-112.93
X127.8Y-114.43
X127.8Y-115.93
X127.8Y-117.43
X127.8Y-118.93
X127.8Y-120.43
X128.21Y-86.67
X128.79Y-174.34
X128.79Y-175.34
X128.79Y-176.34
X128.79Y-177.34
X128.79Y-178.34
X129.3Y-111.43
X129.3Y-112.93
X129.3Y-114.43
X129.3Y-115.93
X129.3Y-117.43
X129.64Y-103.115
X129.79Y-173.34
X129.79Y-174.34
X129.79Y-175.34
X129.79Y-176.34
X129.79Y-177.34
X129.79Y-178.34
X129.79Y-179.34
X130.15Y-331.185
X130.15Y-332.685
X130.25Y-319.005
X130.25Y-320.505
X130.26Y-343.01
X130.26Y-344.51
X130.26Y-346.01
X130.26Y-347.51
X130.26Y-349.01
X130.26Y-350.51
X130.79Y-173.34
X130.79Y-174.34
X130.79Y-175.34
X130.79Y-176.34
X130.79Y-177.34
X130.79Y-178.34
X130.79Y-179.34
X130.8Y-109.93
X130.8Y-111.43
X130.8Y-112.93
X130.89Y-62.055
X131.65Y-331.185
X131.65Y-332.685
X131.75Y-319.005
X131.75Y-320.505
X131.76Y-343.01
X131.76Y-344.51
X131.76Y-346.01
X131.76Y-347.51
X131.76Y-349.01
X131.76Y-350.51
X131.79Y-173.34
X131.79Y-174.34
X131.79Y-175.34
X131.79Y-176.34
X131.79Y-177.34
X131.79Y-178.34
X131.79Y-179.34
X132.12Y-96.535
X132.3Y-108.43
X132.3Y-109.93
X132.3Y-111.43
X132.79Y-174.34
X132.79Y-175.34
X132.79Y-176.34
X132.79Y-177.34
X132.79Y-178.34
X133.15Y-331.185
X133.15Y-332.685
X133.25Y-319.005
X133.25Y-320.505
X133.26Y-343.01
X133.26Y-344.51
X133.26Y-346.01
X133.26Y-347.51
X133.26Y-349.01
X133.26Y-350.51
X133.9Y-229.95
X133.9Y-231.45
X133.95Y-86.765
X133.95Y-87.835
X134.65Y-331.185
X134.65Y-332.685
X134.75Y-319.005
X134.75Y-320.505
X134.76Y-343.01
X134.76Y-344.51
X134.76Y-346.01
X134.76Y-347.51
X134.76Y-349.01
X134.76Y-350.51
X135.32Y-95.265
X135.4Y-228.45
X135.4Y-229.95
X135.4Y-231.45
X135.4Y-232.95
X136.06Y-97.805
X136.15Y-331.185
X136.15Y-332.685
X136.25Y-319.005
X136.25Y-320.505
X136.26Y-343.01
X136.26Y-344.51
X136.26Y-346.01
X136.26Y-347.51
X136.26Y-349.01
X136.26Y-350.51
X136.74Y-96.465
X136.74Y-113.26
X136.74Y-113.96
X136.9Y-228.45
X136.9Y-229.95
X136.9Y-231.45
X136.9Y-232.95
X137.65Y-331.185
X137.65Y-332.685
X137.75Y-319.005
X137.75Y-320.505
X137.76Y-343.01
X137.76Y-344.51
X137.76Y-346.01
X137.76Y-347.51
X137.76Y-349.01
X137.76Y-350.51
X138.37Y-54.525
X138.4Y-228.45
X138.4Y-229.95
X138.4Y-231.45
X138.4Y-232.95
X139.15Y-331.185
X139.15Y-332.685
X139.25Y-319.005
X139.25Y-320.505
X139.26Y-343.01
X139.26Y-344.51
X139.26Y-346.01
X139.26Y-347.51
X139.26Y-349.01
X139.26Y-350.51
X139.29Y-103.555
X139.87Y-74.595
X139.87Y-75.535
X139.9Y-228.45
X139.9Y-229.95
X139.9Y-231.45
X140.65Y-331.185
X140.65Y-332.685
X140.75Y-319.005
X140.75Y-320.505
X140.76Y-343.01
X140.76Y-344.51
X140.76Y-346.01
X140.76Y-347.51
X140.76Y-349.01
X140.76Y-350.51
X141.13Y-172.65
X141.13Y-173.65
X141.13Y-174.65
X141.13Y-175.65
X141.13Y-176.65
X141.13Y-177.65
X141.13Y-178.65
X141.13Y-179.65
X141.13Y-180.65
X141.13Y-181.65
X141.13Y-182.65
X141.13Y-183.65
X141.13Y-184.65
X141.4Y-228.45
X141.4Y-229.95
X141.4Y-231.45
X141.4Y-232.95
X142.13Y-171.65
X142.13Y-172.65
X142.13Y-173.65
X142.13Y-174.65
X142.13Y-175.65
X142.13Y-176.65
X142.13Y-177.65
X142.13Y-178.65
X142.13Y-179.65
X142.13Y-180.65
X142.13Y-181.65
X142.13Y-182.65
X142.13Y-183.65
X142.13Y-184.65
X142.13Y-185.65
X142.15Y-331.185
X142.15Y-332.685
X142.25Y-319.005
X142.25Y-320.505
X142.26Y-343.01
X142.26Y-344.51
X142.26Y-346.01
X142.26Y-347.51
X142.26Y-349.01
X142.26Y-350.51
X142.9Y-228.45
X142.9Y-229.95
X142.9Y-231.45
X142.9Y-232.95
X143.13Y-171.65
X143.13Y-172.65
X143.13Y-173.65
X143.13Y-174.65
X143.13Y-175.65
X143.13Y-176.65
X143.13Y-177.65
X143.13Y-178.65
X143.13Y-179.65
X143.13Y-180.65
X143.13Y-181.65
X143.13Y-182.65
X143.13Y-183.65
X143.13Y-184.65
X143.13Y-185.65
X143.76Y-343.01
X143.76Y-344.51
X143.76Y-346.01
X143.76Y-347.51
X143.76Y-349.01
X143.76Y-350.51
X144.13Y-171.65
X144.13Y-172.65
X144.13Y-173.65
X144.13Y-174.65
X144.13Y-175.65
X144.13Y-176.65
X144.13Y-177.65
X144.13Y-178.65
X144.13Y-179.65
X144.13Y-180.65
X144.13Y-181.65
X144.13Y-182.65
X144.13Y-183.65
X144.13Y-184.65
X144.13Y-185.65
X144.4Y-228.45
X144.4Y-229.95
X144.4Y-231.45
X144.4Y-232.95
X144.65Y-98.322
X144.93Y-59.11
X145.13Y-172.65
X145.13Y-173.65
X145.13Y-174.65
X145.13Y-175.65
X145.13Y-176.65
X145.13Y-177.65
X145.13Y-178.65
X145.13Y-179.65
X145.13Y-180.65
X145.13Y-181.65
X145.13Y-182.65
X145.13Y-183.65
X145.13Y-184.65
X145.26Y-343.01
X145.26Y-344.51
X145.26Y-346.01
X145.26Y-347.51
X145.26Y-349.01
X145.26Y-350.51
X145.6Y-123.445
X145.64Y-122.085
X145.9Y-229.95
X145.9Y-231.45
X146.23Y-59.14
X146.76Y-343.01
X146.76Y-344.51
X146.76Y-346.01
X146.76Y-347.51
X146.76Y-349.01
X146.76Y-350.51
X148.26Y-343.01
X148.26Y-344.51
X148.26Y-346.01
X148.26Y-347.51
X148.26Y-349.01
X148.26Y-350.51
X148.36Y-136.155
X149.76Y-343.01
X149.76Y-344.51
X149.76Y-346.01
X149.76Y-347.51
X149.76Y-349.01
X149.76Y-350.51
X150.22Y-164.77
X150.22Y-166.27
X150.22Y-167.77
X150.22Y-169.27
X150.22Y-170.77
X150.22Y-172.27
X151.26Y-343.01
X151.26Y-344.51
X151.26Y-346.01
X151.26Y-347.51
X151.26Y-349.01
X151.26Y-350.51
X151.72Y-164.77
X151.72Y-166.27
X151.72Y-167.77
X151.72Y-169.27
X151.72Y-170.77
X151.72Y-172.27
X152.586Y-103.699
X152.76Y-343.01
X152.76Y-344.51
X152.76Y-346.01
X152.76Y-347.51
X152.76Y-349.01
X152.76Y-350.51
X153.22Y-164.77
X153.22Y-166.27
X153.22Y-167.77
X153.22Y-169.27
X153.22Y-170.77
X153.22Y-172.27
X153.41Y-105.545
X153.63Y-152.96
X153.63Y-161.96
X154.26Y-346.01
X154.26Y-347.51
X154.26Y-349.01
X154.26Y-350.51
X154.72Y-164.77
X154.72Y-166.27
X154.72Y-167.77
X154.72Y-169.27
X154.72Y-170.77
X154.72Y-172.27
X155.13Y-152.96
X155.13Y-154.46
X155.13Y-155.96
X155.13Y-157.46
X155.13Y-158.96
X155.13Y-160.46
X155.13Y-161.96
X155.5Y-149.495
X155.76Y-346.01
X155.76Y-347.51
X155.76Y-349.01
X155.76Y-350.51
X155.87Y-136.155
X156.56Y-335.33
X156.57Y-103.845
X156.63Y-154.46
X156.63Y-155.96
X156.63Y-157.46
X156.63Y-158.96
X156.63Y-160.46
X156.63Y-161.96
X157.26Y-346.01
X157.26Y-347.51
X157.26Y-349.01
X157.26Y-350.51
X157.75Y-335.32
X158.13Y-155.96
X158.13Y-157.46
X158.13Y-158.96
X158.13Y-160.46
X158.13Y-161.96
X158.18Y-53.51
X159.65Y-344.9
X159.65Y-345.9
X159.65Y-346.9
X159.65Y-347.9
X159.65Y-348.9
X159.65Y-349.9
X159.68Y-53.51
X160.15Y-125.945
X160.29Y-121.63
X160.29Y-124.995
X160.31Y-335.33
X160.65Y-344.9
X160.65Y-345.9
X160.65Y-346.9
X160.65Y-347.9
X160.65Y-348.9
X160.65Y-349.9
X160.65Y-350.9
X161.18Y-53.51
X161.65Y-344.9
X161.65Y-345.9
X161.65Y-346.9
X161.65Y-347.9
X161.65Y-348.9
X161.65Y-349.9
X161.65Y-350.9
X162.47Y-132.31
X162.65Y-344.9
X162.65Y-345.9
X162.65Y-346.9
X162.65Y-347.9
X162.65Y-348.9
X162.65Y-349.9
X162.65Y-350.9
X162.68Y-53.51
X163.59Y-132.33
X163.65Y-346.9
X163.65Y-347.9
X163.65Y-348.9
X163.65Y-349.9
X163.65Y-350.9
X164.05Y-150.69
X164.18Y-53.51
X164.65Y-348.9
X164.65Y-349.9
X164.65Y-350.9
X165.55Y-147.69
X165.55Y-149.19
X165.55Y-150.69
X165.65Y-166.27
X165.65Y-167.77
X165.65Y-169.27
X165.65Y-170.77
X165.65Y-172.27
X165.65Y-349.9
X165.65Y-350.9
X165.68Y-53.51
X166.65Y-349.9
X166.65Y-350.9
X167.05Y-147.69
X167.05Y-149.19
X167.05Y-150.69
X167.05Y-152.19
X167.15Y-166.27
X167.15Y-167.77
X167.15Y-169.27
X167.15Y-170.77
X167.15Y-172.27
X167.18Y-53.51
X167.39Y-125.695
X167.65Y-350.9
X167.757Y-77.625
X168.36Y-69.12
X168.36Y-70.62
X168.36Y-72.12
X168.36Y-73.62
X168.36Y-75.12
X168.53Y-308.81
X168.53Y-310.31
X168.53Y-311.81
X168.53Y-313.31
X168.53Y-314.81
X168.53Y-316.31
X168.53Y-317.81
X168.53Y-319.31
X168.53Y-320.81
X168.53Y-322.31
X168.55Y-147.69
X168.55Y-149.19
X168.55Y-150.69
X168.55Y-152.19
X168.55Y-153.69
X168.643Y-77.625
X168.65Y-166.27
X168.65Y-167.77
X168.65Y-169.27
X168.65Y-170.77
X168.65Y-172.27
X168.65Y-350.9
X168.68Y-53.51
X169.265Y-137.55
X169.4Y-126.535
X169.53Y-77.625
X169.65Y-350.9
X169.86Y-69.12
X169.86Y-70.62
X169.86Y-72.12
X169.86Y-73.62
X169.86Y-75.12
X169.97Y-198.1
X169.97Y-199.6
X169.97Y-201.1
X170.03Y-308.81
X170.03Y-310.31
X170.03Y-311.81
X170.03Y-313.31
X170.03Y-314.81
X170.03Y-316.31
X170.03Y-317.81
X170.03Y-319.31
X170.03Y-320.81
X170.03Y-322.31
X170.05Y-147.69
X170.05Y-149.19
X170.05Y-150.69
X170.05Y-152.19
X170.05Y-153.69
X170.05Y-155.19
X170.15Y-166.27
X170.15Y-167.77
X170.15Y-169.27
X170.15Y-170.77
X170.15Y-172.27
X170.18Y-53.51
X170.417Y-77.625
X170.49Y-137.55
X170.65Y-349.9
X170.65Y-350.9
X171.36Y-69.12
X171.36Y-70.62
X171.36Y-72.12
X171.36Y-73.62
X171.36Y-75.12
X171.47Y-198.1
X171.47Y-199.6
X171.47Y-201.1
X171.47Y-202.6
X171.53Y-308.81
X171.53Y-310.31
X171.53Y-311.81
X171.53Y-313.31
X171.53Y-314.81
X171.53Y-316.31
X171.53Y-317.81
X171.53Y-319.31
X171.53Y-320.81
X171.53Y-322.31
X171.55Y-147.69
X171.55Y-149.19
X171.55Y-150.69
X171.55Y-152.19
X171.55Y-153.69
X171.55Y-155.19
X171.55Y-156.69
X171.65Y-166.27
X171.65Y-167.77
X171.65Y-169.27
X171.65Y-170.77
X171.65Y-172.27
X171.65Y-349.9
X171.65Y-350.9
X171.68Y-53.51
X172.65Y-348.9
X172.65Y-349.9
X172.65Y-350.9
X172.86Y-69.12
X172.86Y-70.62
X172.86Y-72.12
X172.86Y-73.62
X172.96Y-107.66
X172.97Y-196.6
X172.97Y-198.1
X172.97Y-199.6
X172.97Y-201.1
X172.97Y-202.6
X172.97Y-204.1
X173.03Y-308.81
X173.03Y-310.31
X173.03Y-311.81
X173.03Y-313.31
X173.03Y-314.81
X173.03Y-316.31
X173.03Y-317.81
X173.03Y-319.31
X173.03Y-320.81
X173.03Y-322.31
X173.05Y-147.69
X173.05Y-149.19
X173.05Y-150.69
X173.05Y-152.19
X173.05Y-153.69
X173.05Y-155.19
X173.05Y-156.69
X173.06Y-114.365
X173.15Y-166.27
X173.15Y-167.77
X173.15Y-169.27
X173.15Y-170.77
X173.15Y-172.27
X173.18Y-53.51
X173.65Y-347.9
X173.65Y-348.9
X173.65Y-349.9
X173.65Y-350.9
X173.87Y-124.865
X174.36Y-69.12
X174.36Y-70.62
X174.36Y-72.12
X174.36Y-73.62
X174.42Y-93.055
X174.47Y-195.1
X174.47Y-196.6
X174.47Y-198.1
X174.47Y-199.6
X174.47Y-201.1
X174.47Y-202.6
X174.47Y-204.1
X174.47Y-205.6
X174.48Y-95.26
X174.53Y-308.81
X174.53Y-310.31
X174.53Y-311.81
X174.53Y-313.31
X174.53Y-314.81
X174.53Y-316.31
X174.53Y-317.81
X174.53Y-319.31
X174.53Y-320.81
X174.53Y-322.31
X174.55Y-147.69
X174.55Y-149.19
X174.55Y-150.69
X174.55Y-152.19
X174.55Y-153.69
X174.55Y-155.19
X174.65Y-166.27
X174.65Y-167.77
X174.65Y-169.27
X174.65Y-170.77
X174.65Y-172.27
X174.68Y-53.51
X175.97Y-193.6
X175.97Y-195.1
X175.97Y-196.6
X175.97Y-198.1
X175.97Y-199.6
X175.97Y-201.1
X175.97Y-202.6
X175.97Y-204.1
X175.97Y-205.6
X176.03Y-308.81
X176.03Y-310.31
X176.03Y-311.81
X176.03Y-313.31
X176.03Y-314.81
X176.03Y-316.31
X176.03Y-317.81
X176.03Y-319.31
X176.03Y-320.81
X176.03Y-322.31
X176.05Y-147.69
X176.05Y-149.19
X176.05Y-150.69
X176.05Y-152.19
X176.05Y-153.69
X176.05Y-155.19
X176.06Y-115.92
X176.15Y-166.27
X176.15Y-167.77
X176.15Y-169.27
X176.15Y-170.77
X176.15Y-172.27
X176.18Y-53.51
X176.19Y-107.66
X176.29Y-95.28
X176.32Y-100.58
X177.47Y-192.1
X177.47Y-193.6
X177.47Y-195.1
X177.47Y-196.6
X177.47Y-198.1
X177.47Y-199.6
X177.47Y-201.1
X177.47Y-202.6
X177.47Y-204.1
X177.47Y-205.6
X177.47Y-207.1
X177.53Y-308.81
X177.53Y-310.31
X177.53Y-311.81
X177.53Y-313.31
X177.53Y-314.81
X177.53Y-316.31
X177.55Y-147.69
X177.55Y-149.19
X177.55Y-150.69
X177.55Y-152.19
X177.55Y-153.69
X177.55Y-155.19
X177.65Y-166.27
X177.65Y-167.77
X177.65Y-169.27
X177.65Y-170.77
X177.65Y-172.27
X177.68Y-53.51
X178.97Y-190.6
X178.97Y-192.1
X178.97Y-193.6
X178.97Y-195.1
X178.97Y-196.6
X178.97Y-198.1
X178.97Y-199.6
X178.97Y-201.1
X178.97Y-202.6
X178.97Y-204.1
X178.97Y-205.6
X178.97Y-207.1
X179.03Y-308.81
X179.03Y-310.31
X179.03Y-311.81
X179.03Y-313.31
X179.03Y-314.81
X179.03Y-316.31
X179.15Y-166.27
X179.15Y-167.77
X179.15Y-169.27
X179.15Y-170.77
X179.15Y-172.27
X179.18Y-53.51
X180.47Y-190.6
X180.47Y-192.1
X180.47Y-193.6
X180.47Y-195.1
X180.47Y-196.6
X180.47Y-198.1
X180.47Y-199.6
X180.47Y-201.1
X180.47Y-202.6
X180.47Y-204.1
X180.47Y-205.6
X180.47Y-207.1
X180.47Y-208.6
X180.53Y-308.81
X180.53Y-310.31
X180.53Y-311.81
X180.53Y-313.31
X180.53Y-314.81
X180.53Y-316.31
X180.61Y-72.03
X180.61Y-73.1
X180.65Y-166.27
X180.65Y-167.77
X180.65Y-169.27
X180.65Y-170.77
X180.65Y-172.27
X180.68Y-53.51
X181.51Y-278.88
X181.51Y-280.38
X181.51Y-281.88
X181.51Y-283.38
X181.51Y-284.88
X181.51Y-286.38
X181.51Y-287.88
X181.51Y-289.38
X181.51Y-290.88
X181.51Y-292.38
X181.51Y-293.88
X181.51Y-295.38
X181.51Y-296.88
X181.97Y-189.1
X181.97Y-190.6
X181.97Y-192.1
X181.97Y-193.6
X181.97Y-195.1
X181.97Y-196.6
X181.97Y-198.1
X181.97Y-199.6
X181.97Y-201.1
X181.97Y-202.6
X181.97Y-204.1
X181.97Y-205.6
X181.97Y-207.1
X181.97Y-208.6
X181.97Y-210.1
X182.03Y-308.81
X182.03Y-310.31
X182.03Y-311.81
X182.03Y-313.31
X182.03Y-314.81
X182.03Y-316.31
X182.15Y-166.27
X182.15Y-167.77
X182.15Y-169.27
X182.15Y-170.77
X182.15Y-172.27
X182.18Y-53.51
X183.01Y-278.88
X183.01Y-280.38
X183.01Y-281.88
X183.01Y-283.38
X183.01Y-284.88
X183.01Y-286.38
X183.01Y-287.88
X183.01Y-289.38
X183.01Y-290.88
X183.01Y-292.38
X183.01Y-293.88
X183.01Y-295.38
X183.01Y-296.88
X183.47Y-189.1
X183.47Y-190.6
X183.47Y-192.1
X183.47Y-193.6
X183.47Y-195.1
X183.47Y-196.6
X183.47Y-198.1
X183.47Y-199.6
X183.47Y-201.1
X183.47Y-202.6
X183.47Y-204.1
X183.47Y-205.6
X183.47Y-207.1
X183.47Y-208.6
X183.47Y-210.1
X183.47Y-211.6
X183.65Y-166.27
X183.65Y-167.77
X183.65Y-169.27
X183.65Y-170.77
X183.65Y-172.27
X183.68Y-53.51
X184.51Y-278.88
X184.51Y-280.38
X184.51Y-281.88
X184.51Y-283.38
X184.51Y-284.88
X184.51Y-286.38
X184.51Y-287.88
X184.51Y-289.38
X184.51Y-290.88
X184.51Y-292.38
X184.51Y-293.88
X184.51Y-295.38
X184.51Y-296.88
X184.77Y-135.94
X184.77Y-137.44
X184.77Y-138.94
X184.77Y-140.44
X184.77Y-141.94
X184.77Y-143.44
X184.77Y-144.94
X184.97Y-186.1
X184.97Y-187.6
X184.97Y-189.1
X184.97Y-190.6
X184.97Y-192.1
X184.97Y-193.6
X184.97Y-195.1
X184.97Y-196.6
X184.97Y-198.1
X184.97Y-202.6
X184.97Y-204.1
X184.97Y-205.6
X184.97Y-207.1
X184.97Y-208.6
X184.97Y-210.1
X184.97Y-211.6
X185.15Y-166.27
X185.15Y-167.77
X185.15Y-169.27
X185.15Y-170.77
X185.15Y-172.27
X185.18Y-53.51
X185.77Y-77.69
X186.01Y-278.88
X186.01Y-280.38
X186.01Y-281.88
X186.01Y-283.38
X186.01Y-284.88
X186.01Y-286.38
X186.01Y-287.88
X186.01Y-289.38
X186.01Y-290.88
X186.01Y-292.38
X186.01Y-293.88
X186.01Y-295.38
X186.01Y-296.88
X186.27Y-135.94
X186.27Y-137.44
X186.27Y-138.94
X186.27Y-140.44
X186.27Y-141.94
X186.27Y-143.44
X186.27Y-144.94
X186.47Y-184.6
X186.47Y-186.1
X186.47Y-187.6
X186.47Y-189.1
X186.47Y-190.6
X186.47Y-192.1
X186.47Y-193.6
X186.47Y-195.1
X186.47Y-196.6
X186.47Y-198.1
X186.47Y-202.6
X186.47Y-204.1
X186.47Y-205.6
X186.47Y-207.1
X186.47Y-208.6
X186.47Y-210.1
X186.47Y-211.6
X186.65Y-166.27
X186.65Y-167.77
X186.65Y-169.27
X186.65Y-170.77
X186.65Y-172.27
X186.68Y-53.51
X186.75Y-107.365
X186.75Y-117.671
X187.32Y-118.941
X187.51Y-278.88
X187.51Y-280.38
X187.51Y-281.88
X187.51Y-283.38
X187.51Y-284.88
X187.51Y-286.38
X187.51Y-287.88
X187.51Y-289.38
X187.51Y-290.88
X187.51Y-292.38
X187.51Y-293.88
X187.51Y-295.38
X187.51Y-296.88
X187.58Y-104.845
X187.77Y-135.94
X187.77Y-137.44
X187.77Y-138.94
X187.77Y-140.44
X187.77Y-141.94
X187.77Y-143.44
X187.77Y-144.94
X187.97Y-183.1
X187.97Y-184.6
X187.97Y-186.1
X187.97Y-187.6
X187.97Y-189.1
X187.97Y-190.6
X187.97Y-192.1
X187.97Y-193.6
X187.97Y-195.1
X187.97Y-196.6
X187.97Y-198.1
X187.97Y-199.6
X187.97Y-201.1
X187.97Y-202.6
X187.97Y-204.1
X187.97Y-205.6
X187.97Y-207.1
X187.97Y-208.6
X187.97Y-210.1
X187.97Y-211.6
X188.15Y-166.27
X188.15Y-167.77
X188.15Y-169.27
X188.18Y-53.51
X188.41Y-71.61
X188.91Y-102.955
X188.97Y-110.86
X189.01Y-278.88
X189.01Y-280.38
X189.01Y-281.88
X189.01Y-283.38
X189.01Y-284.88
X189.01Y-286.38
X189.01Y-287.88
X189.01Y-289.38
X189.01Y-290.88
X189.01Y-292.38
X189.01Y-293.88
X189.01Y-295.38
X189.01Y-296.88
X189.27Y-137.44
X189.27Y-138.94
X189.27Y-140.44
X189.27Y-141.94
X189.27Y-143.44
X189.27Y-144.94
X189.47Y-183.1
X189.47Y-184.6
X189.47Y-186.1
X189.47Y-187.6
X189.47Y-189.1
X189.47Y-190.6
X189.47Y-192.1
X189.47Y-193.6
X189.47Y-195.1
X189.47Y-196.6
X189.47Y-198.1
X189.47Y-199.6
X189.47Y-201.1
X189.47Y-202.6
X189.47Y-204.1
X189.47Y-205.6
X189.47Y-207.1
X189.47Y-208.6
X189.47Y-210.1
X189.47Y-211.6
X189.65Y-166.27
X189.68Y-53.51
X189.9Y-106.575
X190.51Y-278.88
X190.51Y-280.38
X190.51Y-281.88
X190.51Y-283.38
X190.51Y-284.88
X190.51Y-286.38
X190.51Y-287.88
X190.51Y-289.38
X190.51Y-290.88
X190.51Y-292.38
X190.51Y-293.88
X190.51Y-295.38
X190.51Y-296.88
X190.77Y-137.44
X190.77Y-138.94
X190.77Y-140.44
X190.77Y-141.94
X190.77Y-143.44
X190.77Y-144.94
X190.97Y-183.1
X190.97Y-184.6
X190.97Y-186.1
X190.97Y-187.6
X190.97Y-189.1
X190.97Y-190.6
X190.97Y-192.1
X190.97Y-193.6
X190.97Y-195.1
X190.97Y-196.6
X190.97Y-198.1
X190.97Y-199.6
X190.97Y-201.1
X190.97Y-202.6
X190.97Y-204.1
X190.97Y-205.6
X190.97Y-207.1
X190.97Y-208.6
X190.97Y-210.1
X190.97Y-211.6
X191.18Y-53.51
X191.47Y-306.18
X191.47Y-307.68
X192.01Y-278.88
X192.01Y-280.38
X192.01Y-281.88
X192.01Y-283.38
X192.01Y-284.88
X192.01Y-286.38
X192.01Y-287.88
X192.01Y-289.38
X192.01Y-290.88
X192.01Y-292.38
X192.01Y-293.88
X192.01Y-295.38
X192.01Y-296.88
X192.16Y-341.77
X192.16Y-343.27
X192.16Y-344.77
X192.16Y-346.27
X192.16Y-347.77
X192.16Y-349.27
X192.16Y-350.77
X192.27Y-135.94
X192.27Y-137.44
X192.27Y-138.94
X192.27Y-140.44
X192.27Y-141.94
X192.27Y-143.44
X192.27Y-144.94
X192.32Y-121.485
X192.62Y-95.945
X192.68Y-53.51
X192.97Y-306.18
X192.97Y-307.68
X193.51Y-278.88
X193.51Y-280.38
X193.51Y-281.88
X193.51Y-283.38
X193.51Y-284.88
X193.51Y-286.38
X193.51Y-287.88
X193.51Y-289.38
X193.51Y-290.88
X193.51Y-292.38
X193.51Y-293.88
X193.51Y-295.38
X193.51Y-296.88
X193.66Y-341.77
X193.66Y-343.27
X193.66Y-344.77
X193.66Y-346.27
X193.66Y-347.77
X193.66Y-349.27
X193.66Y-350.77
X193.77Y-135.94
X193.77Y-137.44
X193.77Y-138.94
X193.77Y-140.44
X193.77Y-141.94
X193.77Y-143.44
X193.77Y-144.94
X194.18Y-53.51
X194.47Y-306.18
X194.47Y-307.68
X195.01Y-278.88
X195.01Y-280.38
X195.01Y-281.88
X195.01Y-283.38
X195.01Y-284.88
X195.01Y-286.38
X195.01Y-287.88
X195.01Y-289.38
X195.01Y-290.88
X195.01Y-292.38
X195.01Y-293.88
X195.01Y-295.38
X195.01Y-296.88
X195.16Y-341.77
X195.16Y-343.27
X195.16Y-344.77
X195.16Y-346.27
X195.16Y-347.77
X195.16Y-349.27
X195.16Y-350.77
X195.27Y-135.94
X195.27Y-137.44
X195.27Y-138.94
X195.27Y-140.44
X195.27Y-141.94
X195.27Y-143.44
X195.27Y-144.94
X195.68Y-53.51
X195.97Y-306.18
X195.97Y-307.68
X196.51Y-278.88
X196.51Y-280.38
X196.51Y-281.88
X196.51Y-283.38
X196.51Y-284.88
X196.51Y-286.38
X196.51Y-287.88
X196.51Y-289.38
X196.51Y-290.88
X196.51Y-292.38
X196.51Y-293.88
X196.51Y-295.38
X196.51Y-296.88
X196.66Y-341.77
X196.66Y-343.27
X196.66Y-344.77
X196.66Y-346.27
X196.66Y-347.77
X196.66Y-349.27
X196.66Y-350.77
X196.68Y-93.74
X197.18Y-53.51
X197.47Y-306.18
X197.47Y-307.68
X198.01Y-278.88
X198.01Y-280.38
X198.01Y-281.88
X198.01Y-283.38
X198.01Y-284.88
X198.01Y-286.38
X198.01Y-287.88
X198.01Y-289.38
X198.01Y-290.88
X198.01Y-292.38
X198.01Y-293.88
X198.16Y-341.77
X198.16Y-343.27
X198.16Y-344.77
X198.16Y-346.27
X198.16Y-347.77
X198.16Y-349.27
X198.16Y-350.77
X198.21Y-327.26
X198.68Y-53.51
X199.22Y-314.22
X199.33Y-90.79
X199.51Y-278.88
X199.51Y-280.38
X199.51Y-281.88
X199.51Y-283.38
X199.51Y-284.88
X199.51Y-286.38
X199.51Y-287.88
X199.51Y-289.38
X199.51Y-290.88
X199.51Y-292.38
X199.51Y-293.88
X199.66Y-341.77
X199.66Y-343.27
X199.66Y-344.77
X199.66Y-346.27
X199.66Y-347.77
X199.66Y-349.27
X199.66Y-350.77
X199.825Y-108.64
X200.18Y-53.51
X200.685Y-107.78
X200.88Y-315.81
X201.01Y-281.88
X201.01Y-283.38
X201.01Y-284.88
X201.01Y-286.38
X201.01Y-287.88
X201.01Y-289.38
X201.01Y-290.88
X201.01Y-292.38
X201.01Y-293.88
X201.16Y-341.77
X201.16Y-343.27
X201.16Y-344.77
X201.16Y-346.27
X201.16Y-347.77
X201.16Y-349.27
X201.16Y-350.77
X201.53Y-315.2
X201.68Y-53.51
X202.36Y-332.395
X202.51Y-281.88
X202.51Y-283.38
X202.51Y-284.88
X202.51Y-286.38
X202.51Y-287.88
X202.51Y-289.38
X202.51Y-290.88
X202.51Y-292.38
X202.51Y-293.88
X202.66Y-341.77
X202.66Y-343.27
X202.66Y-344.77
X202.66Y-346.27
X202.66Y-347.77
X202.66Y-349.27
X202.66Y-350.77
X203.03Y-80.3
X203.18Y-53.51
X203.61Y-333.24
X203.83Y-315.34
X204.16Y-341.77
X204.16Y-343.27
X204.16Y-344.77
X204.16Y-346.27
X204.16Y-347.77
X204.16Y-349.27
X204.16Y-350.77
X204.68Y-53.51
X205.66Y-341.77
X205.66Y-343.27
X205.66Y-344.77
X205.66Y-346.27
X205.66Y-347.77
X205.66Y-349.27
X205.66Y-350.77
X206.12Y-334.925
X207.16Y-341.77
X207.16Y-343.27
X207.16Y-349.27
X207.16Y-350.77
X207.9Y-148.49
X207.9Y-149.99
X207.9Y-151.49
X207.9Y-152.99
X207.9Y-154.49
X207.9Y-155.99
X207.9Y-157.49
X207.9Y-158.99
X207.9Y-160.49
X207.9Y-161.99
X207.9Y-163.49
X207.9Y-164.99
X207.9Y-166.49
X207.9Y-167.99
X207.9Y-169.49
X207.9Y-170.99
X207.9Y-172.49
X207.9Y-173.99
X207.9Y-175.49
X207.9Y-176.99
X207.9Y-178.49
X207.9Y-179.99
X207.9Y-181.49
X207.9Y-182.99
X207.9Y-184.49
X207.9Y-185.99
X207.9Y-187.49
X207.9Y-188.99
X207.9Y-190.49
X207.9Y-191.99
X207.9Y-193.49
X207.9Y-194.99
X207.9Y-196.49
X207.9Y-197.99
X207.9Y-199.49
X207.9Y-200.99
X207.9Y-202.49
X207.9Y-203.99
X207.9Y-205.49
X207.9Y-206.99
X207.9Y-208.49
X207.9Y-209.99
X207.9Y-211.49
X207.9Y-212.99
X207.9Y-214.49
X207.9Y-215.99
X207.9Y-217.49
X207.9Y-218.99
X207.9Y-220.49
X207.9Y-221.99
X207.9Y-223.49
X207.9Y-224.99
X207.9Y-226.49
X207.9Y-227.99
X207.9Y-229.49
X207.9Y-230.99
X207.9Y-232.49
X207.9Y-233.99
X207.9Y-241.49
X207.9Y-242.99
X207.9Y-244.49
X207.9Y-245.99
X207.9Y-247.49
X207.9Y-248.99
X207.9Y-250.49
X207.9Y-251.99
X207.9Y-253.49
X207.9Y-254.99
X207.9Y-256.49
X207.9Y-260.99
X207.9Y-262.49
X207.96Y-67.41
X208.05Y-69.12
X208.32Y-324.95
X208.66Y-341.77
X208.66Y-343.27
X208.66Y-349.27
X208.66Y-350.77
X209.07Y-318.52
X209.4Y-148.49
X209.4Y-149.99
X209.4Y-151.49
X209.4Y-152.99
X209.4Y-154.49
X209.4Y-155.99
X209.4Y-157.49
X209.4Y-158.99
X209.4Y-160.49
X209.4Y-161.99
X209.4Y-163.49
X209.4Y-164.99
X209.4Y-166.49
X209.4Y-167.99
X209.4Y-169.49
X209.4Y-170.99
X209.4Y-172.49
X209.4Y-173.99
X209.4Y-175.49
X209.4Y-176.99
X209.4Y-178.49
X209.4Y-179.99
X209.4Y-181.49
X209.4Y-182.99
X209.4Y-184.49
X209.4Y-185.99
X209.4Y-187.49
X209.4Y-188.99
X209.4Y-190.49
X209.4Y-191.99
X209.4Y-193.49
X209.4Y-194.99
X209.4Y-196.49
X209.4Y-197.99
X209.4Y-199.49
X209.4Y-200.99
X209.4Y-202.49
X209.4Y-203.99
X209.4Y-205.49
X209.4Y-206.99
X209.4Y-208.49
X209.4Y-209.99
X209.4Y-211.49
X209.4Y-212.99
X209.4Y-214.49
X209.4Y-215.99
X209.4Y-217.49
X209.4Y-218.99
X209.4Y-220.49
X209.4Y-221.99
X209.4Y-223.49
X209.4Y-224.99
X209.4Y-226.49
X209.4Y-227.99
X209.4Y-229.49
X209.4Y-230.99
X209.4Y-232.49
X209.4Y-233.99
X209.4Y-235.49
X209.4Y-242.99
X209.4Y-244.49
X209.4Y-245.99
X209.4Y-247.49
X209.4Y-248.99
X209.4Y-250.49
X209.4Y-251.99
X209.4Y-253.49
X209.4Y-254.99
X209.4Y-256.49
X209.4Y-260.99
X209.4Y-262.49
X209.79Y-69.14
X210.9Y-148.49
X210.9Y-149.99
X210.9Y-154.49
X210.9Y-155.99
X210.9Y-157.49
X210.9Y-158.99
X210.9Y-160.49
X210.9Y-164.99
X210.9Y-166.49
X210.9Y-167.99
X210.9Y-175.49
X210.9Y-176.99
X210.9Y-178.49
X210.9Y-182.99
X210.9Y-184.49
X210.9Y-185.99
X210.9Y-187.49
X210.9Y-193.49
X210.9Y-194.99
X210.9Y-196.49
X210.9Y-197.99
X210.9Y-202.49
X210.9Y-203.99
X210.9Y-205.49
X210.9Y-206.99
X210.9Y-212.99
X210.9Y-214.49
X210.9Y-215.99
X210.9Y-220.49
X210.9Y-221.99
X210.9Y-223.49
X210.9Y-224.99
X210.9Y-229.49
X210.9Y-230.99
X210.9Y-232.49
X210.9Y-233.99
X210.9Y-235.49
X210.9Y-236.99
X210.9Y-244.49
X210.9Y-245.99
X210.9Y-247.49
X210.9Y-248.99
X210.9Y-250.49
X210.9Y-251.99
X210.9Y-253.49
X210.9Y-254.99
X210.9Y-256.49
X210.9Y-257.99
X210.9Y-259.49
X210.9Y-260.99
X210.9Y-262.49
X212.4Y-148.49
X212.4Y-149.99
X212.4Y-154.49
X212.4Y-155.99
X212.4Y-157.49
X212.4Y-158.99
X212.4Y-160.49
X212.4Y-164.99
X212.4Y-166.49
X212.4Y-167.99
X212.4Y-175.49
X212.4Y-176.99
X212.4Y-178.49
X212.4Y-182.99
X212.4Y-184.49
X212.4Y-185.99
X212.4Y-187.49
X212.4Y-193.49
X212.4Y-194.99
X212.4Y-196.49
X212.4Y-197.99
X212.4Y-202.49
X212.4Y-203.99
X212.4Y-205.49
X212.4Y-206.99
X212.4Y-212.99
X212.4Y-214.49
X212.4Y-215.99
X212.4Y-220.49
X212.4Y-221.99
X212.4Y-223.49
X212.4Y-224.99
X212.4Y-229.49
X212.4Y-230.99
X212.4Y-232.49
X212.4Y-233.99
X212.4Y-235.49
X212.4Y-236.99
X212.4Y-238.49
X213.029Y-282.635
X213.9Y-148.49
X213.9Y-149.99
X213.9Y-151.49
X213.9Y-152.99
X213.9Y-154.49
X213.9Y-155.99
X213.9Y-157.49
X213.9Y-158.99
X213.9Y-160.49
X213.9Y-161.99
X213.9Y-163.49
X213.9Y-164.99
X213.9Y-166.49
X213.9Y-167.99
X213.9Y-169.49
X213.9Y-170.99
X213.9Y-172.49
X213.9Y-173.99
X213.9Y-175.49
X213.9Y-176.99
X213.9Y-178.49
X213.9Y-179.99
X213.9Y-181.49
X213.9Y-182.99
X213.9Y-184.49
X213.9Y-185.99
X213.9Y-187.49
X213.9Y-188.99
X213.9Y-190.49
X213.9Y-191.99
X213.9Y-193.49
X213.9Y-194.99
X213.9Y-196.49
X213.9Y-197.99
X213.9Y-199.49
X213.9Y-200.99
X213.9Y-202.49
X213.9Y-203.99
X213.9Y-205.49
X213.9Y-206.99
X213.9Y-208.49
X213.9Y-209.99
X213.9Y-211.49
X213.9Y-212.99
X213.9Y-214.49
X213.9Y-215.99
X213.9Y-217.49
X213.9Y-218.99
X213.9Y-220.49
X213.9Y-221.99
X213.9Y-223.49
X213.9Y-224.99
X213.9Y-226.49
X213.9Y-227.99
X213.9Y-229.49
X213.9Y-230.99
X213.9Y-232.49
X213.9Y-233.99
X213.9Y-235.49
X213.9Y-236.99
X213.9Y-238.49
X213.9Y-239.99
X215.4Y-148.49
X215.4Y-149.99
X215.4Y-151.49
X215.4Y-152.99
X215.4Y-154.49
X215.4Y-155.99
X215.4Y-157.49
X215.4Y-158.99
X215.4Y-160.49
X215.4Y-161.99
X215.4Y-163.49
X215.4Y-164.99
X215.4Y-166.49
X215.4Y-167.99
X215.4Y-169.49
X215.4Y-170.99
X215.4Y-172.49
X215.4Y-173.99
X215.4Y-175.49
X215.4Y-176.99
X215.4Y-178.49
X215.4Y-179.99
X215.4Y-181.49
X215.4Y-182.99
X215.4Y-184.49
X215.4Y-185.99
X215.4Y-187.49
X215.4Y-188.99
X215.4Y-190.49
X215.4Y-191.99
X215.4Y-193.49
X215.4Y-194.99
X215.4Y-196.49
X215.4Y-197.99
X215.4Y-199.49
X215.4Y-200.99
X215.4Y-202.49
X215.4Y-203.99
X215.4Y-205.49
X215.4Y-206.99
X215.4Y-208.49
X215.4Y-209.99
X215.4Y-211.49
X215.4Y-212.99
X215.4Y-214.49
X215.4Y-215.99
X215.4Y-217.49
X215.4Y-218.99
X215.4Y-220.49
X215.4Y-221.99
X215.4Y-223.49
X215.4Y-224.99
X215.4Y-226.49
X215.4Y-227.99
X215.4Y-229.49
X215.4Y-230.99
X215.4Y-232.49
X215.4Y-233.99
X215.4Y-235.49
X215.4Y-236.99
X215.4Y-238.49
X215.4Y-239.99
X215.4Y-241.49
X215.558Y-287.69
X215.559Y-285.805
X215.7Y-74.65
X215.7Y-76.15
X215.7Y-77.65
X215.7Y-79.15
X215.7Y-80.65
X215.7Y-82.15
X215.7Y-83.65
X215.7Y-85.15
X215.7Y-86.65
X215.7Y-88.15
X215.7Y-89.65
X215.7Y-91.15
X215.7Y-92.65
X215.7Y-94.15
X215.7Y-95.65
X215.7Y-97.15
X215.7Y-98.65
X215.7Y-100.15
X215.7Y-101.65
X215.7Y-103.15
X215.7Y-104.65
X215.7Y-106.15
X215.7Y-107.65
X215.7Y-109.15
X215.7Y-110.65
X215.7Y-112.15
X215.7Y-113.65
X215.7Y-115.15
X215.7Y-116.65
X215.7Y-118.15
X215.7Y-119.65
X215.7Y-121.15
X215.7Y-122.65
X215.7Y-124.15
X215.7Y-125.65
X215.7Y-127.15
X215.7Y-128.65
T2
X79.605Y-58.66
X79.935Y-116.88
X80.198Y-57.228
X80.198Y-60.092
X80.528Y-115.448
X80.528Y-118.312
X81.63Y-56.635
X81.63Y-60.685
X81.96Y-114.855
X81.96Y-118.905
X83.062Y-57.228
X83.062Y-60.092
X83.392Y-115.448
X83.392Y-118.312
X83.655Y-58.66
X83.985Y-116.88
X102.485Y-328.54
X103.078Y-327.108
X103.078Y-329.972
X104.51Y-326.515
X104.51Y-330.565
X105.942Y-327.108
X105.942Y-329.972
X106.535Y-328.54
X117.425Y-56.465
X118.018Y-55.033
X118.018Y-57.897
X119.45Y-54.44
X119.45Y-58.49
X120.882Y-55.033
X120.882Y-57.897
X121.475Y-56.465
X190.495Y-256.79
X191.088Y-255.358
X191.088Y-258.222
X192.52Y-254.765
X192.52Y-258.815
X193.952Y-255.358
X193.952Y-258.222
X194.545Y-256.79
X210.485Y-57.645
X210.485Y-136.775
X211.078Y-56.213
X211.078Y-59.077
X211.078Y-135.343
X211.078Y-138.207
X211.237Y-346.412
X211.83Y-344.98
X211.83Y-347.844
X212.51Y-55.62
X212.51Y-59.67
X212.51Y-134.75
X212.51Y-138.8
X213.262Y-344.387
X213.262Y-348.437
X213.942Y-56.213
X213.942Y-59.077
X213.942Y-135.343
X213.942Y-138.207
X214.535Y-57.645
X214.535Y-136.775
X214.694Y-344.98
X214.694Y-347.844
X215.287Y-346.412
T3
X89.903Y-57.66
X90.892Y-55.274
X90.892Y-60.046
X93.278Y-54.285
X93.278Y-61.035
X95.664Y-55.274
X95.664Y-60.046
X96.653Y-57.66
X102.149Y-57.66
X103.138Y-55.274
X103.138Y-60.046
X105.524Y-54.285
X105.524Y-61.035
X107.91Y-55.274
X107.91Y-60.046
X108.899Y-57.66
X165.411Y-344.586
X166.4Y-342.2
X166.4Y-346.973
X168.786Y-341.211
X168.786Y-347.961
X171.173Y-342.2
X171.173Y-346.973
X172.161Y-344.586
X181.845Y-344.2
X182.834Y-341.814
X182.834Y-346.586
X185.22Y-340.825
X185.22Y-347.575
X187.606Y-341.814
X187.606Y-346.586
X188.595Y-344.2
T4
X93.8Y-75.785
X93.89Y-103.785
X108.8Y-75.785
X108.89Y-103.785
T5
X79.67Y-108.31
X81.45Y-123.12
X81.45Y-133.12
X86.474Y-65.4
X86.474Y-80.4
X86.474Y-85.727
X86.474Y-100.727
X89.67Y-108.31
X93.67Y-67.345
X108.67Y-67.345
X116.17Y-86.075
X116.17Y-101.075
X121.2Y-65.515
X121.2Y-80.515
X139.19Y-95.712
X139.19Y-98.252
X139.19Y-100.792
X142.83Y-95.712
X142.83Y-98.252
X142.83Y-100.792
X154.71Y-94.492
X154.71Y-97.032
X154.71Y-99.572
X158.46Y-94.492
X158.46Y-97.032
X158.46Y-99.572
X162.15Y-94.635
X162.15Y-97.175
X162.15Y-99.715
X162.15Y-102.255
X162.15Y-104.795
X162.15Y-107.335
X162.15Y-109.875
X162.15Y-112.415
X162.15Y-114.955
X162.15Y-117.495
X164.69Y-94.635
X164.69Y-97.175
X164.69Y-99.715
X164.69Y-102.255
X164.69Y-104.795
X164.69Y-107.335
X164.69Y-109.875
X164.69Y-112.415
X164.69Y-114.955
X164.69Y-117.495
X179.93Y-94.635
X179.93Y-97.175
X179.93Y-99.715
X179.93Y-102.255
X179.93Y-104.795
X179.93Y-107.335
X179.93Y-109.875
X179.93Y-112.415
X179.93Y-114.955
X179.93Y-117.495
X182.47Y-94.635
X182.47Y-97.175
X182.47Y-99.715
X182.47Y-102.255
X182.47Y-104.795
X182.47Y-107.335
X182.47Y-109.875
X182.47Y-112.415
X182.47Y-114.955
X182.47Y-117.495
X194.18Y-247.76
X204.18Y-247.76
X212.21Y-142.455
X212.21Y-152.455
X213.77Y-62.495
X213.77Y-72.495
T6
X196.67Y-162.385
X196.67Y-171.688
X196.67Y-180.991
X196.67Y-190.294
X196.67Y-199.596
X196.67Y-208.899
X196.67Y-218.202
X196.67Y-227.505
X211.67Y-162.385
X211.67Y-171.688
X211.67Y-180.991
X211.67Y-190.294
X211.67Y-199.596
X211.67Y-208.899
X211.67Y-218.202
X211.67Y-227.505
T7
X148.53Y-158.795
X176.03Y-158.795
T8
X83.54Y-306.91
X88.99Y-306.91
X94.44Y-306.91
X130.41Y-150.475
X135.86Y-150.475
X141.31Y-150.475
X176.86Y-302.95
X182.31Y-302.95
X184.54Y-151.165
X187.76Y-302.95
X189.99Y-151.165
X195.44Y-151.165
T9
X81.63Y-58.66
X81.96Y-116.88
X104.51Y-328.54
X119.45Y-56.465
X192.52Y-256.79
X212.51Y-57.645
X212.51Y-136.775
X213.262Y-346.412
T10
X93.278Y-57.66
X105.524Y-57.66
X168.786Y-344.586
X185.22Y-344.2
M30
