G04 #@! TF.GenerationSoftware,KiCad,Pcbnew,9.0.3*
G04 #@! TF.CreationDate,2025-10-12T10:39:54+02:00*
G04 #@! TF.ProjectId,LLC_DCDC_V5,4c4c435f-4443-4444-935f-56352e6b6963,rev?*
G04 #@! TF.SameCoordinates,Original*
G04 #@! TF.FileFunction,Legend,Bot*
G04 #@! TF.FilePolarity,Positive*
%FSLAX46Y46*%
G04 Gerber Fmt 4.6, Leading zero omitted, Abs format (unit mm)*
G04 Created by KiCad (PCBNEW 9.0.3) date 2025-10-12 10:39:54*
%MOMM*%
%LPD*%
G01*
G04 APERTURE LIST*
%ADD10C,0.300000*%
G04 APERTURE END LIST*
D10*
X202723082Y-147989400D02*
X202937368Y-148060828D01*
X202937368Y-148060828D02*
X203294510Y-148060828D01*
X203294510Y-148060828D02*
X203437368Y-147989400D01*
X203437368Y-147989400D02*
X203508796Y-147917971D01*
X203508796Y-147917971D02*
X203580225Y-147775114D01*
X203580225Y-147775114D02*
X203580225Y-147632257D01*
X203580225Y-147632257D02*
X203508796Y-147489400D01*
X203508796Y-147489400D02*
X203437368Y-147417971D01*
X203437368Y-147417971D02*
X203294510Y-147346542D01*
X203294510Y-147346542D02*
X203008796Y-147275114D01*
X203008796Y-147275114D02*
X202865939Y-147203685D01*
X202865939Y-147203685D02*
X202794510Y-147132257D01*
X202794510Y-147132257D02*
X202723082Y-146989400D01*
X202723082Y-146989400D02*
X202723082Y-146846542D01*
X202723082Y-146846542D02*
X202794510Y-146703685D01*
X202794510Y-146703685D02*
X202865939Y-146632257D01*
X202865939Y-146632257D02*
X203008796Y-146560828D01*
X203008796Y-146560828D02*
X203365939Y-146560828D01*
X203365939Y-146560828D02*
X203580225Y-146632257D01*
X181500225Y-146582257D02*
X181357368Y-146510828D01*
X181357368Y-146510828D02*
X181143082Y-146510828D01*
X181143082Y-146510828D02*
X180928796Y-146582257D01*
X180928796Y-146582257D02*
X180785939Y-146725114D01*
X180785939Y-146725114D02*
X180714510Y-146867971D01*
X180714510Y-146867971D02*
X180643082Y-147153685D01*
X180643082Y-147153685D02*
X180643082Y-147367971D01*
X180643082Y-147367971D02*
X180714510Y-147653685D01*
X180714510Y-147653685D02*
X180785939Y-147796542D01*
X180785939Y-147796542D02*
X180928796Y-147939400D01*
X180928796Y-147939400D02*
X181143082Y-148010828D01*
X181143082Y-148010828D02*
X181285939Y-148010828D01*
X181285939Y-148010828D02*
X181500225Y-147939400D01*
X181500225Y-147939400D02*
X181571653Y-147867971D01*
X181571653Y-147867971D02*
X181571653Y-147367971D01*
X181571653Y-147367971D02*
X181285939Y-147367971D01*
X199444510Y-148080828D02*
X199444510Y-146580828D01*
X199444510Y-146580828D02*
X199801653Y-146580828D01*
X199801653Y-146580828D02*
X200015939Y-146652257D01*
X200015939Y-146652257D02*
X200158796Y-146795114D01*
X200158796Y-146795114D02*
X200230225Y-146937971D01*
X200230225Y-146937971D02*
X200301653Y-147223685D01*
X200301653Y-147223685D02*
X200301653Y-147437971D01*
X200301653Y-147437971D02*
X200230225Y-147723685D01*
X200230225Y-147723685D02*
X200158796Y-147866542D01*
X200158796Y-147866542D02*
X200015939Y-148009400D01*
X200015939Y-148009400D02*
X199801653Y-148080828D01*
X199801653Y-148080828D02*
X199444510Y-148080828D01*
X135714510Y-144760828D02*
X135714510Y-143260828D01*
X135714510Y-143260828D02*
X136071653Y-143260828D01*
X136071653Y-143260828D02*
X136285939Y-143332257D01*
X136285939Y-143332257D02*
X136428796Y-143475114D01*
X136428796Y-143475114D02*
X136500225Y-143617971D01*
X136500225Y-143617971D02*
X136571653Y-143903685D01*
X136571653Y-143903685D02*
X136571653Y-144117971D01*
X136571653Y-144117971D02*
X136500225Y-144403685D01*
X136500225Y-144403685D02*
X136428796Y-144546542D01*
X136428796Y-144546542D02*
X136285939Y-144689400D01*
X136285939Y-144689400D02*
X136071653Y-144760828D01*
X136071653Y-144760828D02*
X135714510Y-144760828D01*
X129870225Y-143062257D02*
X129727368Y-142990828D01*
X129727368Y-142990828D02*
X129513082Y-142990828D01*
X129513082Y-142990828D02*
X129298796Y-143062257D01*
X129298796Y-143062257D02*
X129155939Y-143205114D01*
X129155939Y-143205114D02*
X129084510Y-143347971D01*
X129084510Y-143347971D02*
X129013082Y-143633685D01*
X129013082Y-143633685D02*
X129013082Y-143847971D01*
X129013082Y-143847971D02*
X129084510Y-144133685D01*
X129084510Y-144133685D02*
X129155939Y-144276542D01*
X129155939Y-144276542D02*
X129298796Y-144419400D01*
X129298796Y-144419400D02*
X129513082Y-144490828D01*
X129513082Y-144490828D02*
X129655939Y-144490828D01*
X129655939Y-144490828D02*
X129870225Y-144419400D01*
X129870225Y-144419400D02*
X129941653Y-144347971D01*
X129941653Y-144347971D02*
X129941653Y-143847971D01*
X129941653Y-143847971D02*
X129655939Y-143847971D01*
X141523082Y-143679400D02*
X141737368Y-143750828D01*
X141737368Y-143750828D02*
X142094510Y-143750828D01*
X142094510Y-143750828D02*
X142237368Y-143679400D01*
X142237368Y-143679400D02*
X142308796Y-143607971D01*
X142308796Y-143607971D02*
X142380225Y-143465114D01*
X142380225Y-143465114D02*
X142380225Y-143322257D01*
X142380225Y-143322257D02*
X142308796Y-143179400D01*
X142308796Y-143179400D02*
X142237368Y-143107971D01*
X142237368Y-143107971D02*
X142094510Y-143036542D01*
X142094510Y-143036542D02*
X141808796Y-142965114D01*
X141808796Y-142965114D02*
X141665939Y-142893685D01*
X141665939Y-142893685D02*
X141594510Y-142822257D01*
X141594510Y-142822257D02*
X141523082Y-142679400D01*
X141523082Y-142679400D02*
X141523082Y-142536542D01*
X141523082Y-142536542D02*
X141594510Y-142393685D01*
X141594510Y-142393685D02*
X141665939Y-142322257D01*
X141665939Y-142322257D02*
X141808796Y-142250828D01*
X141808796Y-142250828D02*
X142165939Y-142250828D01*
X142165939Y-142250828D02*
X142380225Y-142322257D01*
X192060225Y-298682257D02*
X191917368Y-298610828D01*
X191917368Y-298610828D02*
X191703082Y-298610828D01*
X191703082Y-298610828D02*
X191488796Y-298682257D01*
X191488796Y-298682257D02*
X191345939Y-298825114D01*
X191345939Y-298825114D02*
X191274510Y-298967971D01*
X191274510Y-298967971D02*
X191203082Y-299253685D01*
X191203082Y-299253685D02*
X191203082Y-299467971D01*
X191203082Y-299467971D02*
X191274510Y-299753685D01*
X191274510Y-299753685D02*
X191345939Y-299896542D01*
X191345939Y-299896542D02*
X191488796Y-300039400D01*
X191488796Y-300039400D02*
X191703082Y-300110828D01*
X191703082Y-300110828D02*
X191845939Y-300110828D01*
X191845939Y-300110828D02*
X192060225Y-300039400D01*
X192060225Y-300039400D02*
X192131653Y-299967971D01*
X192131653Y-299967971D02*
X192131653Y-299467971D01*
X192131653Y-299467971D02*
X191845939Y-299467971D01*
X184294510Y-309960828D02*
X184294510Y-308460828D01*
X184294510Y-308460828D02*
X184651653Y-308460828D01*
X184651653Y-308460828D02*
X184865939Y-308532257D01*
X184865939Y-308532257D02*
X185008796Y-308675114D01*
X185008796Y-308675114D02*
X185080225Y-308817971D01*
X185080225Y-308817971D02*
X185151653Y-309103685D01*
X185151653Y-309103685D02*
X185151653Y-309317971D01*
X185151653Y-309317971D02*
X185080225Y-309603685D01*
X185080225Y-309603685D02*
X185008796Y-309746542D01*
X185008796Y-309746542D02*
X184865939Y-309889400D01*
X184865939Y-309889400D02*
X184651653Y-309960828D01*
X184651653Y-309960828D02*
X184294510Y-309960828D01*
X172783082Y-307189400D02*
X172997368Y-307260828D01*
X172997368Y-307260828D02*
X173354510Y-307260828D01*
X173354510Y-307260828D02*
X173497368Y-307189400D01*
X173497368Y-307189400D02*
X173568796Y-307117971D01*
X173568796Y-307117971D02*
X173640225Y-306975114D01*
X173640225Y-306975114D02*
X173640225Y-306832257D01*
X173640225Y-306832257D02*
X173568796Y-306689400D01*
X173568796Y-306689400D02*
X173497368Y-306617971D01*
X173497368Y-306617971D02*
X173354510Y-306546542D01*
X173354510Y-306546542D02*
X173068796Y-306475114D01*
X173068796Y-306475114D02*
X172925939Y-306403685D01*
X172925939Y-306403685D02*
X172854510Y-306332257D01*
X172854510Y-306332257D02*
X172783082Y-306189400D01*
X172783082Y-306189400D02*
X172783082Y-306046542D01*
X172783082Y-306046542D02*
X172854510Y-305903685D01*
X172854510Y-305903685D02*
X172925939Y-305832257D01*
X172925939Y-305832257D02*
X173068796Y-305760828D01*
X173068796Y-305760828D02*
X173425939Y-305760828D01*
X173425939Y-305760828D02*
X173640225Y-305832257D01*
X99360225Y-307352257D02*
X99217368Y-307280828D01*
X99217368Y-307280828D02*
X99003082Y-307280828D01*
X99003082Y-307280828D02*
X98788796Y-307352257D01*
X98788796Y-307352257D02*
X98645939Y-307495114D01*
X98645939Y-307495114D02*
X98574510Y-307637971D01*
X98574510Y-307637971D02*
X98503082Y-307923685D01*
X98503082Y-307923685D02*
X98503082Y-308137971D01*
X98503082Y-308137971D02*
X98574510Y-308423685D01*
X98574510Y-308423685D02*
X98645939Y-308566542D01*
X98645939Y-308566542D02*
X98788796Y-308709400D01*
X98788796Y-308709400D02*
X99003082Y-308780828D01*
X99003082Y-308780828D02*
X99145939Y-308780828D01*
X99145939Y-308780828D02*
X99360225Y-308709400D01*
X99360225Y-308709400D02*
X99431653Y-308637971D01*
X99431653Y-308637971D02*
X99431653Y-308137971D01*
X99431653Y-308137971D02*
X99145939Y-308137971D01*
X90714510Y-312520828D02*
X90714510Y-311020828D01*
X90714510Y-311020828D02*
X91071653Y-311020828D01*
X91071653Y-311020828D02*
X91285939Y-311092257D01*
X91285939Y-311092257D02*
X91428796Y-311235114D01*
X91428796Y-311235114D02*
X91500225Y-311377971D01*
X91500225Y-311377971D02*
X91571653Y-311663685D01*
X91571653Y-311663685D02*
X91571653Y-311877971D01*
X91571653Y-311877971D02*
X91500225Y-312163685D01*
X91500225Y-312163685D02*
X91428796Y-312306542D01*
X91428796Y-312306542D02*
X91285939Y-312449400D01*
X91285939Y-312449400D02*
X91071653Y-312520828D01*
X91071653Y-312520828D02*
X90714510Y-312520828D01*
X79613082Y-310749400D02*
X79827368Y-310820828D01*
X79827368Y-310820828D02*
X80184510Y-310820828D01*
X80184510Y-310820828D02*
X80327368Y-310749400D01*
X80327368Y-310749400D02*
X80398796Y-310677971D01*
X80398796Y-310677971D02*
X80470225Y-310535114D01*
X80470225Y-310535114D02*
X80470225Y-310392257D01*
X80470225Y-310392257D02*
X80398796Y-310249400D01*
X80398796Y-310249400D02*
X80327368Y-310177971D01*
X80327368Y-310177971D02*
X80184510Y-310106542D01*
X80184510Y-310106542D02*
X79898796Y-310035114D01*
X79898796Y-310035114D02*
X79755939Y-309963685D01*
X79755939Y-309963685D02*
X79684510Y-309892257D01*
X79684510Y-309892257D02*
X79613082Y-309749400D01*
X79613082Y-309749400D02*
X79613082Y-309606542D01*
X79613082Y-309606542D02*
X79684510Y-309463685D01*
X79684510Y-309463685D02*
X79755939Y-309392257D01*
X79755939Y-309392257D02*
X79898796Y-309320828D01*
X79898796Y-309320828D02*
X80255939Y-309320828D01*
X80255939Y-309320828D02*
X80470225Y-309392257D01*
M02*
