G04 #@! TF.GenerationSoftware,KiCad,Pcbnew,9.0.3*
G04 #@! TF.CreationDate,2025-10-06T17:39:24+02:00*
G04 #@! TF.ProjectId,LLC_DCDC_V3,4c4c435f-4443-4444-935f-56332e6b6963,rev?*
G04 #@! TF.SameCoordinates,Original*
G04 #@! TF.FileFunction,Soldermask,Bot*
G04 #@! TF.FilePolarity,Negative*
%FSLAX46Y46*%
G04 Gerber Fmt 4.6, Leading zero omitted, Abs format (unit mm)*
G04 Created by KiCad (PCBNEW 9.0.3) date 2025-10-06 17:39:24*
%MOMM*%
%LPD*%
G01*
G04 APERTURE LIST*
%ADD10C,0.800000*%
%ADD11C,5.400000*%
%ADD12R,2.500000X4.500000*%
%ADD13O,2.500000X4.500000*%
%ADD14C,1.604000*%
%ADD15R,1.700000X1.700000*%
%ADD16C,1.700000*%
%ADD17C,1.500000*%
%ADD18R,1.300000X1.300000*%
%ADD19C,1.300000*%
%ADD20C,0.900000*%
%ADD21C,9.000000*%
%ADD22C,2.400000*%
%ADD23C,2.000000*%
%ADD24C,1.712000*%
G04 APERTURE END LIST*
D10*
X80598109Y-56443109D03*
X80598109Y-59306891D03*
X82030000Y-55850000D03*
D11*
X82030000Y-57875000D03*
X82030000Y-57875000D03*
D10*
X82030000Y-59900000D03*
X83461891Y-56443109D03*
X83461891Y-59306891D03*
X84055000Y-57875000D03*
X117425000Y-56465000D03*
X118018109Y-55033109D03*
X118018109Y-57896891D03*
X119450000Y-54440000D03*
D11*
X119450000Y-56465000D03*
D10*
X119450000Y-58490000D03*
X120881891Y-55033109D03*
X120881891Y-57896891D03*
X121475000Y-56465000D03*
D12*
X184540000Y-151165000D03*
D13*
X189990000Y-151165000D03*
X195440000Y-151165000D03*
D14*
X196670000Y-210655000D03*
X211670000Y-210655000D03*
D15*
X139190000Y-95712500D03*
D16*
X139190000Y-98252500D03*
X139190000Y-100792500D03*
D17*
X116170000Y-101075000D03*
X116170000Y-86075000D03*
D10*
X210485000Y-57645000D03*
X211078109Y-56213109D03*
X211078109Y-59076891D03*
X212510000Y-55620000D03*
D11*
X212510000Y-57645000D03*
D10*
X212510000Y-59670000D03*
X213941891Y-56213109D03*
X213941891Y-59076891D03*
X214535000Y-57645000D03*
D14*
X196670000Y-170845000D03*
X211670000Y-170845000D03*
X196670000Y-190555000D03*
X211670000Y-190555000D03*
D12*
X195675000Y-285335000D03*
D13*
X190225000Y-285335000D03*
X184775000Y-285335000D03*
D14*
X196670000Y-200605000D03*
X211670000Y-200605000D03*
D18*
X93800000Y-75785000D03*
D19*
X108800000Y-75785000D03*
D10*
X195975000Y-247460000D03*
X196568109Y-246028109D03*
X196568109Y-248891891D03*
X198000000Y-245435000D03*
D11*
X198000000Y-247460000D03*
D10*
X198000000Y-249485000D03*
X199431891Y-246028109D03*
X199431891Y-248891891D03*
X200025000Y-247460000D03*
D17*
X93670000Y-67345000D03*
X108670000Y-67345000D03*
D15*
X154710000Y-94492500D03*
D16*
X154710000Y-97032500D03*
X154710000Y-99572500D03*
D20*
X89903000Y-57660000D03*
X90891515Y-55273515D03*
X90891515Y-60046485D03*
X93278000Y-54285000D03*
D21*
X93278000Y-57660000D03*
D20*
X93278000Y-61035000D03*
X95664485Y-55273515D03*
X95664485Y-60046485D03*
X96653000Y-57660000D03*
D14*
X196670000Y-227505000D03*
X211670000Y-227505000D03*
X196670000Y-162385000D03*
X211670000Y-162385000D03*
D22*
X148530000Y-158795000D03*
X176030000Y-158795000D03*
D23*
X212210000Y-142455000D03*
X212210000Y-152455000D03*
D10*
X79990000Y-346615000D03*
X80583109Y-345183109D03*
X80583109Y-348046891D03*
X82015000Y-344590000D03*
D11*
X82015000Y-346615000D03*
D10*
X82015000Y-348640000D03*
X83446891Y-345183109D03*
X83446891Y-348046891D03*
X84040000Y-346615000D03*
X102065000Y-144250000D03*
X102658109Y-142818109D03*
X102658109Y-145681891D03*
X104090000Y-142225000D03*
D11*
X104090000Y-144250000D03*
D10*
X104090000Y-146275000D03*
X105521891Y-142818109D03*
X105521891Y-145681891D03*
X106115000Y-144250000D03*
D12*
X126610000Y-150475000D03*
D13*
X132060000Y-150475000D03*
X137510000Y-150475000D03*
D23*
X213770000Y-62495000D03*
X213770000Y-72495000D03*
D17*
X121200000Y-65515000D03*
X121200000Y-80515000D03*
D20*
X180241485Y-344791485D03*
X181230000Y-342405000D03*
X181230000Y-347177970D03*
X183616485Y-341416485D03*
D21*
X183616485Y-344791485D03*
D20*
X183616485Y-348166485D03*
X186002970Y-342405000D03*
X186002970Y-347177970D03*
X186991485Y-344791485D03*
D12*
X94370000Y-278265000D03*
D13*
X88920000Y-278265000D03*
X83470000Y-278265000D03*
D10*
X210485000Y-136775000D03*
X211078109Y-135343109D03*
X211078109Y-138206891D03*
X212510000Y-134750000D03*
D11*
X212510000Y-136775000D03*
D10*
X212510000Y-138800000D03*
X213941891Y-135343109D03*
X213941891Y-138206891D03*
X214535000Y-136775000D03*
D17*
X86474000Y-85727000D03*
X86474000Y-100727000D03*
D10*
X78845000Y-247460000D03*
X79438109Y-246028109D03*
X79438109Y-248891891D03*
X80870000Y-245435000D03*
D11*
X80870000Y-247460000D03*
D10*
X80870000Y-249485000D03*
X82301891Y-246028109D03*
X82301891Y-248891891D03*
X82895000Y-247460000D03*
D18*
X93890000Y-103785000D03*
D19*
X108890000Y-103785000D03*
D24*
X162150000Y-94635000D03*
X162150000Y-97175000D03*
X162150000Y-99715000D03*
X162150000Y-102255000D03*
X162150000Y-104795000D03*
X162150000Y-107335000D03*
X162150000Y-109875000D03*
X162150000Y-112415000D03*
X162150000Y-114955000D03*
X162150000Y-117495000D03*
X164690000Y-94635000D03*
X164690000Y-97175000D03*
X164690000Y-99715000D03*
X164690000Y-102255000D03*
X164690000Y-104795000D03*
X164690000Y-107335000D03*
X164690000Y-109875000D03*
X164690000Y-112415000D03*
X164690000Y-114955000D03*
X164690000Y-117495000D03*
X179930000Y-94635000D03*
X179930000Y-97175000D03*
X179930000Y-99715000D03*
X179930000Y-102255000D03*
X179930000Y-104795000D03*
X179930000Y-107335000D03*
X179930000Y-109875000D03*
X179930000Y-112415000D03*
X179930000Y-114955000D03*
X179930000Y-117495000D03*
X182470000Y-94635000D03*
X182470000Y-97175000D03*
X182470000Y-99715000D03*
X182470000Y-102255000D03*
X182470000Y-104795000D03*
X182470000Y-107335000D03*
X182470000Y-109875000D03*
X182470000Y-112415000D03*
X182470000Y-114955000D03*
X182470000Y-117495000D03*
D14*
X196670000Y-180505000D03*
X211670000Y-180505000D03*
D10*
X99256891Y-195635000D03*
X99850000Y-194203109D03*
X99850000Y-197066891D03*
X101281891Y-193610000D03*
D11*
X101281891Y-195635000D03*
D10*
X101281891Y-197660000D03*
X102713782Y-194203109D03*
X102713782Y-197066891D03*
X103306891Y-195635000D03*
D20*
X102149000Y-57660000D03*
X103137515Y-55273515D03*
X103137515Y-60046485D03*
X105524000Y-54285000D03*
D21*
X105524000Y-57660000D03*
D20*
X105524000Y-61035000D03*
X107910485Y-55273515D03*
X107910485Y-60046485D03*
X108899000Y-57660000D03*
D17*
X86474000Y-80400000D03*
X86474000Y-65400000D03*
D20*
X162791485Y-344791485D03*
X163780000Y-342405000D03*
X163780000Y-347177970D03*
X166166485Y-341416485D03*
D21*
X166166485Y-344791485D03*
D20*
X166166485Y-348166485D03*
X168552970Y-342405000D03*
X168552970Y-347177970D03*
X169541485Y-344791485D03*
D10*
X210476891Y-346536891D03*
X211070000Y-345105000D03*
X211070000Y-347968782D03*
X212501891Y-344511891D03*
D11*
X212501891Y-346536891D03*
D10*
X212501891Y-348561891D03*
X213933782Y-345105000D03*
X213933782Y-347968782D03*
X214526891Y-346536891D03*
D15*
X158460000Y-94492500D03*
D16*
X158460000Y-97032500D03*
X158460000Y-99572500D03*
D15*
X142830000Y-95712500D03*
D16*
X142830000Y-98252500D03*
X142830000Y-100792500D03*
D14*
X196670000Y-218305000D03*
X211670000Y-218305000D03*
D23*
X198030000Y-258600000D03*
X208030000Y-258600000D03*
M02*
