G04 #@! TF.GenerationSoftware,KiCad,Pcbnew,9.0.3*
G04 #@! TF.CreationDate,2025-10-06T17:39:24+02:00*
G04 #@! TF.ProjectId,LLC_DCDC_V3,4c4c435f-4443-4444-935f-56332e6b6963,rev?*
G04 #@! TF.SameCoordinates,Original*
G04 #@! TF.FileFunction,Soldermask,Top*
G04 #@! TF.FilePolarity,Negative*
%FSLAX46Y46*%
G04 Gerber Fmt 4.6, Leading zero omitted, Abs format (unit mm)*
G04 Created by KiCad (PCBNEW 9.0.3) date 2025-10-06 17:39:24*
%MOMM*%
%LPD*%
G01*
G04 APERTURE LIST*
G04 Aperture macros list*
%AMRoundRect*
0 Rectangle with rounded corners*
0 $1 Rounding radius*
0 $2 $3 $4 $5 $6 $7 $8 $9 X,Y pos of 4 corners*
0 Add a 4 corners polygon primitive as box body*
4,1,4,$2,$3,$4,$5,$6,$7,$8,$9,$2,$3,0*
0 Add four circle primitives for the rounded corners*
1,1,$1+$1,$2,$3*
1,1,$1+$1,$4,$5*
1,1,$1+$1,$6,$7*
1,1,$1+$1,$8,$9*
0 Add four rect primitives between the rounded corners*
20,1,$1+$1,$2,$3,$4,$5,0*
20,1,$1+$1,$4,$5,$6,$7,0*
20,1,$1+$1,$6,$7,$8,$9,0*
20,1,$1+$1,$8,$9,$2,$3,0*%
G04 Aperture macros list end*
%ADD10C,0.800000*%
%ADD11C,5.400000*%
%ADD12RoundRect,0.250000X-0.625000X0.312500X-0.625000X-0.312500X0.625000X-0.312500X0.625000X0.312500X0*%
%ADD13R,1.150000X1.450000*%
%ADD14R,2.500000X4.500000*%
%ADD15O,2.500000X4.500000*%
%ADD16C,1.000000*%
%ADD17R,2.050000X4.000000*%
%ADD18RoundRect,0.250000X-0.250000X-0.475000X0.250000X-0.475000X0.250000X0.475000X-0.250000X0.475000X0*%
%ADD19R,4.100000X2.000000*%
%ADD20C,1.604000*%
%ADD21RoundRect,0.250000X-0.262500X-0.450000X0.262500X-0.450000X0.262500X0.450000X-0.262500X0.450000X0*%
%ADD22R,0.650000X1.500000*%
%ADD23RoundRect,0.250000X-0.312500X-0.625000X0.312500X-0.625000X0.312500X0.625000X-0.312500X0.625000X0*%
%ADD24R,1.700000X1.700000*%
%ADD25C,1.700000*%
%ADD26C,1.500000*%
%ADD27RoundRect,0.250000X-0.450000X0.262500X-0.450000X-0.262500X0.450000X-0.262500X0.450000X0.262500X0*%
%ADD28R,5.700000X2.000000*%
%ADD29RoundRect,0.250000X0.625000X-0.312500X0.625000X0.312500X-0.625000X0.312500X-0.625000X-0.312500X0*%
%ADD30R,2.900000X3.000000*%
%ADD31R,3.150000X1.000000*%
%ADD32RoundRect,0.250000X0.475000X-0.250000X0.475000X0.250000X-0.475000X0.250000X-0.475000X-0.250000X0*%
%ADD33RoundRect,0.250000X0.312500X0.625000X-0.312500X0.625000X-0.312500X-0.625000X0.312500X-0.625000X0*%
%ADD34RoundRect,0.250000X-0.475000X0.250000X-0.475000X-0.250000X0.475000X-0.250000X0.475000X0.250000X0*%
%ADD35R,1.800000X1.050000*%
%ADD36R,1.050000X1.600000*%
%ADD37R,2.000000X5.700000*%
%ADD38R,1.500000X0.650000*%
%ADD39R,2.250000X3.150000*%
%ADD40RoundRect,0.150000X0.150000X-0.825000X0.150000X0.825000X-0.150000X0.825000X-0.150000X-0.825000X0*%
%ADD41R,1.300000X1.300000*%
%ADD42C,1.300000*%
%ADD43R,1.050000X1.800000*%
%ADD44RoundRect,0.250000X0.250000X0.475000X-0.250000X0.475000X-0.250000X-0.475000X0.250000X-0.475000X0*%
%ADD45R,1.600000X1.500000*%
%ADD46RoundRect,0.250000X0.650000X-1.000000X0.650000X1.000000X-0.650000X1.000000X-0.650000X-1.000000X0*%
%ADD47R,0.650000X1.528000*%
%ADD48R,1.600000X1.050000*%
%ADD49R,1.168000X2.032000*%
%ADD50R,1.524000X2.032000*%
%ADD51C,0.900000*%
%ADD52C,9.000000*%
%ADD53RoundRect,0.250000X0.650000X-0.325000X0.650000X0.325000X-0.650000X0.325000X-0.650000X-0.325000X0*%
%ADD54R,1.850000X3.550000*%
%ADD55RoundRect,0.250000X0.262500X0.450000X-0.262500X0.450000X-0.262500X-0.450000X0.262500X-0.450000X0*%
%ADD56RoundRect,0.150000X-0.825000X-0.150000X0.825000X-0.150000X0.825000X0.150000X-0.825000X0.150000X0*%
%ADD57C,2.400000*%
%ADD58C,2.000000*%
%ADD59R,1.200000X0.750000*%
%ADD60R,1.000000X3.150000*%
%ADD61R,4.450000X1.520000*%
%ADD62R,3.250000X3.400000*%
%ADD63R,0.650000X1.850000*%
%ADD64R,1.950000X0.650000*%
%ADD65R,1.020000X4.320000*%
%ADD66R,11.180000X9.910000*%
%ADD67R,3.150000X2.250000*%
%ADD68C,1.712000*%
%ADD69R,1.500000X0.900000*%
%ADD70R,1.500000X3.200000*%
%ADD71R,1.750000X6.600000*%
%ADD72R,1.070000X2.160000*%
%ADD73R,10.800000X1.910000*%
%ADD74R,8.330000X5.080000*%
%ADD75R,1.050000X1.820000*%
%ADD76RoundRect,0.250000X1.425000X-0.362500X1.425000X0.362500X-1.425000X0.362500X-1.425000X-0.362500X0*%
%ADD77R,1.250000X0.600000*%
%ADD78R,1.525000X0.650000*%
%ADD79R,1.850000X0.900000*%
%ADD80R,1.850000X3.200000*%
G04 APERTURE END LIST*
D10*
X80598109Y-56443109D03*
X80598109Y-59306891D03*
X82030000Y-55850000D03*
D11*
X82030000Y-57875000D03*
X82030000Y-57875000D03*
D10*
X82030000Y-59900000D03*
X83461891Y-56443109D03*
X83461891Y-59306891D03*
X84055000Y-57875000D03*
D12*
X175650000Y-82315000D03*
X175650000Y-85240000D03*
D10*
X117425000Y-56465000D03*
X118018109Y-55033109D03*
X118018109Y-57896891D03*
X119450000Y-54440000D03*
D11*
X119450000Y-56465000D03*
D10*
X119450000Y-58490000D03*
X120881891Y-55033109D03*
X120881891Y-57896891D03*
X121475000Y-56465000D03*
D13*
X170510000Y-99355000D03*
X168710000Y-99355000D03*
D14*
X184540000Y-151165000D03*
D15*
X189990000Y-151165000D03*
X195440000Y-151165000D03*
D16*
X139530000Y-63315000D03*
D17*
X206290000Y-82125000D03*
X206290000Y-88825000D03*
D18*
X184550000Y-323015000D03*
X186450000Y-323015000D03*
D19*
X132160000Y-326765000D03*
X123460000Y-326765000D03*
D20*
X196670000Y-210655000D03*
X211670000Y-210655000D03*
D21*
X204207500Y-281476674D03*
X206032500Y-281476674D03*
D22*
X183815000Y-332185000D03*
X185085000Y-332185000D03*
X186355000Y-332185000D03*
X187625000Y-332185000D03*
X187625000Y-326785000D03*
X186355000Y-326785000D03*
X185085000Y-326785000D03*
X183815000Y-326785000D03*
D23*
X200310000Y-295665000D03*
X203235000Y-295665000D03*
D24*
X139190000Y-95712500D03*
D25*
X139190000Y-98252500D03*
X139190000Y-100792500D03*
D12*
X106880000Y-120867500D03*
X106880000Y-123792500D03*
D19*
X140150000Y-313815000D03*
X148850000Y-313815000D03*
D23*
X178020000Y-335805000D03*
X180945000Y-335805000D03*
D26*
X116170000Y-101075000D03*
X116170000Y-86075000D03*
D16*
X185920000Y-200245000D03*
X196520000Y-337655000D03*
D27*
X153810000Y-59862500D03*
X153810000Y-61687500D03*
D28*
X146440000Y-116275000D03*
X136740000Y-116275000D03*
D10*
X210485000Y-57645000D03*
X211078109Y-56213109D03*
X211078109Y-59076891D03*
X212510000Y-55620000D03*
D11*
X212510000Y-57645000D03*
D10*
X212510000Y-59670000D03*
X213941891Y-56213109D03*
X213941891Y-59076891D03*
X214535000Y-57645000D03*
D16*
X125020000Y-119935000D03*
D29*
X98670000Y-308445000D03*
X98670000Y-305520000D03*
D19*
X140150000Y-301105000D03*
X148850000Y-301105000D03*
D29*
X147600000Y-149495000D03*
X147600000Y-146570000D03*
D30*
X104910000Y-332155000D03*
X104910000Y-347855000D03*
D16*
X80060000Y-264175000D03*
X177460000Y-145225000D03*
D13*
X170510000Y-106025000D03*
X168710000Y-106025000D03*
D23*
X200310000Y-287525000D03*
X203235000Y-287525000D03*
D12*
X174150000Y-139920000D03*
X174150000Y-142845000D03*
D31*
X212942500Y-294575000D03*
X207892500Y-294575000D03*
X212942500Y-292035000D03*
X207892500Y-292035000D03*
X212942500Y-289495000D03*
X207892500Y-289495000D03*
D29*
X103570000Y-123792500D03*
X103570000Y-120867500D03*
D12*
X208910000Y-306712500D03*
X208910000Y-309637500D03*
D29*
X152410000Y-149495000D03*
X152410000Y-146570000D03*
D20*
X196670000Y-170845000D03*
X211670000Y-170845000D03*
X196670000Y-190555000D03*
X211670000Y-190555000D03*
D12*
X106880000Y-116017500D03*
X106880000Y-118942500D03*
D32*
X202780000Y-124605000D03*
X202780000Y-122705000D03*
D31*
X203760000Y-114815000D03*
X208810000Y-114815000D03*
X203760000Y-117355000D03*
X208810000Y-117355000D03*
X203760000Y-119895000D03*
X208810000Y-119895000D03*
D13*
X158560000Y-90982500D03*
X156760000Y-90982500D03*
X178620000Y-332135000D03*
X180420000Y-332135000D03*
X158460000Y-115780000D03*
X156660000Y-115780000D03*
D31*
X191190000Y-102945000D03*
X196240000Y-102945000D03*
X191190000Y-105485000D03*
X196240000Y-105485000D03*
X191190000Y-108025000D03*
X196240000Y-108025000D03*
D16*
X90830000Y-117855000D03*
X135880000Y-293495000D03*
D31*
X82290000Y-307465000D03*
X87340000Y-307465000D03*
X82290000Y-310005000D03*
X87340000Y-310005000D03*
X82290000Y-312545000D03*
X87340000Y-312545000D03*
D13*
X168670000Y-112540000D03*
X170470000Y-112540000D03*
D33*
X203235000Y-290065000D03*
X200310000Y-290065000D03*
D34*
X90850000Y-319165000D03*
X90850000Y-321065000D03*
D35*
X204590000Y-272715000D03*
X204590000Y-275815000D03*
D36*
X200850000Y-309205000D03*
X203800000Y-309205000D03*
D37*
X88670000Y-339705000D03*
X88670000Y-330005000D03*
D38*
X99550000Y-108670000D03*
X99550000Y-109940000D03*
X99550000Y-111210000D03*
X99550000Y-112480000D03*
X104950000Y-112480000D03*
X104950000Y-111210000D03*
X104950000Y-109940000D03*
X104950000Y-108670000D03*
D39*
X180610000Y-77625000D03*
X173710000Y-77625000D03*
D14*
X195675000Y-285335000D03*
D15*
X190225000Y-285335000D03*
X184775000Y-285335000D03*
D20*
X196670000Y-200605000D03*
X211670000Y-200605000D03*
D40*
X93200000Y-319205000D03*
X94470000Y-319205000D03*
X95740000Y-319205000D03*
X97010000Y-319205000D03*
X97010000Y-314255000D03*
X95740000Y-314255000D03*
X94470000Y-314255000D03*
X93200000Y-314255000D03*
D23*
X144335000Y-90052500D03*
X147260000Y-90052500D03*
D41*
X93800000Y-75785000D03*
D42*
X108800000Y-75785000D03*
D29*
X179850000Y-142845000D03*
X179850000Y-139920000D03*
D39*
X202410000Y-75985000D03*
X209310000Y-75985000D03*
D43*
X173830000Y-122855000D03*
X176930000Y-122855000D03*
D44*
X166639000Y-143874000D03*
X164739000Y-143874000D03*
D36*
X165385000Y-124885000D03*
X162435000Y-124885000D03*
D12*
X178910000Y-82165000D03*
X178910000Y-85090000D03*
X95640000Y-305525000D03*
X95640000Y-308450000D03*
D45*
X150140000Y-60245000D03*
X150140000Y-57705000D03*
X140920000Y-57705000D03*
X140920000Y-60245000D03*
D44*
X181190000Y-121025000D03*
X179290000Y-121025000D03*
D16*
X133060000Y-70515000D03*
D46*
X129170000Y-72032500D03*
X129170000Y-68032500D03*
D16*
X160360000Y-63255000D03*
D12*
X113610000Y-126295000D03*
X113610000Y-129220000D03*
D16*
X93860000Y-347865000D03*
D44*
X160160000Y-143815000D03*
X158260000Y-143815000D03*
D13*
X158460000Y-110270000D03*
X156660000Y-110270000D03*
D47*
X156445000Y-338325000D03*
X157715000Y-338325000D03*
X158985000Y-338325000D03*
X160255000Y-338325000D03*
X160255000Y-332903000D03*
X158985000Y-332903000D03*
X157715000Y-332903000D03*
X156445000Y-332903000D03*
D34*
X109040000Y-108835000D03*
X109040000Y-110735000D03*
D10*
X195975000Y-247460000D03*
X196568109Y-246028109D03*
X196568109Y-248891891D03*
X198000000Y-245435000D03*
D11*
X198000000Y-247460000D03*
D10*
X198000000Y-249485000D03*
X199431891Y-246028109D03*
X199431891Y-248891891D03*
X200025000Y-247460000D03*
D23*
X172767500Y-335715000D03*
X175692500Y-335715000D03*
D13*
X170510000Y-102695000D03*
X168710000Y-102695000D03*
D48*
X213570000Y-85125000D03*
X213570000Y-88075000D03*
D26*
X93670000Y-67345000D03*
X108670000Y-67345000D03*
D48*
X196520000Y-334655000D03*
X196520000Y-331705000D03*
D49*
X128428000Y-63991000D03*
D50*
X130790000Y-63991000D03*
D49*
X135692000Y-63991000D03*
X135692000Y-55355000D03*
D50*
X133330000Y-55355000D03*
X130790000Y-55355000D03*
D49*
X128428000Y-55355000D03*
D24*
X154710000Y-94492500D03*
D25*
X154710000Y-97032500D03*
X154710000Y-99572500D03*
D51*
X89903000Y-57660000D03*
X90891515Y-55273515D03*
X90891515Y-60046485D03*
X93278000Y-54285000D03*
D52*
X93278000Y-57660000D03*
D51*
X93278000Y-61035000D03*
X95664485Y-55273515D03*
X95664485Y-60046485D03*
X96653000Y-57660000D03*
D36*
X160685000Y-140725000D03*
X157735000Y-140725000D03*
D16*
X169540000Y-64960000D03*
D53*
X133950000Y-75700000D03*
X133950000Y-72750000D03*
D16*
X158470000Y-149135000D03*
D20*
X196670000Y-227505000D03*
X211670000Y-227505000D03*
D16*
X201150000Y-301925000D03*
D32*
X213350000Y-82875000D03*
X213350000Y-80975000D03*
D54*
X173310000Y-61685000D03*
X173310000Y-56285000D03*
D13*
X139260000Y-90875000D03*
X137460000Y-90875000D03*
D55*
X203474500Y-92830000D03*
X201649500Y-92830000D03*
D18*
X201510000Y-306215000D03*
X203410000Y-306215000D03*
D56*
X146355000Y-93242500D03*
X146355000Y-94512500D03*
X146355000Y-95782500D03*
X146355000Y-97052500D03*
X146355000Y-98322500D03*
X146355000Y-99592500D03*
X146355000Y-100862500D03*
X151305000Y-100862500D03*
X151305000Y-99592500D03*
X151305000Y-98322500D03*
X151305000Y-97052500D03*
X151305000Y-95782500D03*
X151305000Y-94512500D03*
X151305000Y-93242500D03*
D13*
X174760000Y-97960000D03*
X176560000Y-97960000D03*
D36*
X212610000Y-123755000D03*
X209660000Y-123755000D03*
D20*
X196670000Y-162385000D03*
X211670000Y-162385000D03*
D57*
X148530000Y-158795000D03*
X176030000Y-158795000D03*
D36*
X154565000Y-133225000D03*
X151615000Y-133225000D03*
D40*
X204197500Y-303457500D03*
X205467500Y-303457500D03*
X206737500Y-303457500D03*
X208007500Y-303457500D03*
X208007500Y-298507500D03*
X206737500Y-298507500D03*
X205467500Y-298507500D03*
X204197500Y-298507500D03*
D58*
X212210000Y-142455000D03*
X212210000Y-152455000D03*
D29*
X103570000Y-118942500D03*
X103570000Y-116017500D03*
D48*
X166490000Y-59350000D03*
X166490000Y-56400000D03*
D16*
X100100000Y-302165000D03*
D48*
X162500000Y-59350000D03*
X162500000Y-56400000D03*
D10*
X79990000Y-346615000D03*
X80583109Y-345183109D03*
X80583109Y-348046891D03*
X82015000Y-344590000D03*
D11*
X82015000Y-346615000D03*
D10*
X82015000Y-348640000D03*
X83446891Y-345183109D03*
X83446891Y-348046891D03*
X84040000Y-346615000D03*
D59*
X159750000Y-56671000D03*
X156350000Y-56671000D03*
D55*
X181085000Y-123005000D03*
X179260000Y-123005000D03*
D12*
X206470000Y-306712500D03*
X206470000Y-309637500D03*
D16*
X141840000Y-129160000D03*
D13*
X174760000Y-103120000D03*
X176560000Y-103120000D03*
D36*
X98195000Y-326345000D03*
X101145000Y-326345000D03*
D10*
X102065000Y-144250000D03*
X102658109Y-142818109D03*
X102658109Y-145681891D03*
X104090000Y-142225000D03*
D11*
X104090000Y-144250000D03*
D10*
X104090000Y-146275000D03*
X105521891Y-142818109D03*
X105521891Y-145681891D03*
X106115000Y-144250000D03*
D16*
X151680000Y-179075000D03*
D14*
X126610000Y-150475000D03*
D15*
X132060000Y-150475000D03*
X137510000Y-150475000D03*
D58*
X213770000Y-62495000D03*
X213770000Y-72495000D03*
D13*
X168670000Y-119360000D03*
X170470000Y-119360000D03*
D60*
X150890000Y-138535000D03*
X150890000Y-143585000D03*
X148350000Y-138535000D03*
X148350000Y-143585000D03*
X145810000Y-138535000D03*
X145810000Y-143585000D03*
D61*
X96380000Y-82555000D03*
X96380000Y-98045000D03*
X105780000Y-82555000D03*
X105780000Y-98045000D03*
D13*
X168680000Y-109335000D03*
X170480000Y-109335000D03*
D16*
X153750000Y-56825000D03*
D19*
X132160000Y-313815000D03*
X123460000Y-313815000D03*
D62*
X157660000Y-169815000D03*
X161760000Y-169815000D03*
D26*
X121200000Y-65515000D03*
X121200000Y-80515000D03*
D63*
X166905000Y-128200000D03*
X165635000Y-128200000D03*
X164365000Y-128200000D03*
X163095000Y-128200000D03*
X161825000Y-128200000D03*
X160555000Y-128200000D03*
X159285000Y-128200000D03*
X158015000Y-128200000D03*
X158015000Y-137550000D03*
X159285000Y-137550000D03*
X160555000Y-137550000D03*
X161825000Y-137550000D03*
X163095000Y-137550000D03*
X164365000Y-137550000D03*
X165635000Y-137550000D03*
X166905000Y-137550000D03*
D51*
X180241485Y-344791485D03*
X181230000Y-342405000D03*
X181230000Y-347177970D03*
X183616485Y-341416485D03*
D52*
X183616485Y-344791485D03*
D51*
X183616485Y-348166485D03*
X186002970Y-342405000D03*
X186002970Y-347177970D03*
X186991485Y-344791485D03*
D29*
X150000000Y-149495000D03*
X150000000Y-146570000D03*
X110190000Y-118942500D03*
X110190000Y-116017500D03*
D36*
X167040000Y-140955000D03*
X164090000Y-140955000D03*
D29*
X110190000Y-123792500D03*
X110190000Y-120867500D03*
D14*
X94370000Y-278265000D03*
D15*
X88920000Y-278265000D03*
X83470000Y-278265000D03*
D64*
X198416000Y-121481000D03*
X198416000Y-120211000D03*
X198416000Y-118941000D03*
X198416000Y-117671000D03*
X198416000Y-116401000D03*
X198416000Y-115131000D03*
X198416000Y-113861000D03*
X198416000Y-112591000D03*
X188966000Y-112591000D03*
X188966000Y-113861000D03*
X188966000Y-115131000D03*
X188966000Y-116401000D03*
X188966000Y-117671000D03*
X188966000Y-118941000D03*
X188966000Y-120211000D03*
X188966000Y-121481000D03*
D12*
X113610000Y-116017500D03*
X113610000Y-118942500D03*
D16*
X153300000Y-122705000D03*
D60*
X210930000Y-107560000D03*
X210930000Y-102510000D03*
X213470000Y-107560000D03*
X213470000Y-102510000D03*
D65*
X196250000Y-68725000D03*
X197950000Y-68725000D03*
X199650000Y-68725000D03*
X201350000Y-68725000D03*
X203050000Y-68725000D03*
D66*
X199650000Y-59580000D03*
D29*
X102430000Y-320077500D03*
X102430000Y-317152500D03*
D33*
X159462500Y-60445000D03*
X156537500Y-60445000D03*
D44*
X170210000Y-92615000D03*
X168310000Y-92615000D03*
D16*
X138990000Y-65765000D03*
D48*
X87710000Y-319080000D03*
X87710000Y-322030000D03*
D16*
X170120000Y-80525000D03*
D10*
X210485000Y-136775000D03*
X211078109Y-135343109D03*
X211078109Y-138206891D03*
X212510000Y-134750000D03*
D11*
X212510000Y-136775000D03*
D10*
X212510000Y-138800000D03*
X213941891Y-135343109D03*
X213941891Y-138206891D03*
X214535000Y-136775000D03*
D32*
X126290000Y-101565000D03*
X126290000Y-99665000D03*
D67*
X205630000Y-107575000D03*
X205630000Y-100675000D03*
D16*
X108820000Y-327105000D03*
D26*
X86474000Y-85727000D03*
X86474000Y-100727000D03*
D29*
X158190000Y-125840000D03*
X158190000Y-122915000D03*
D10*
X78845000Y-247460000D03*
X79438109Y-246028109D03*
X79438109Y-248891891D03*
X80870000Y-245435000D03*
D11*
X80870000Y-247460000D03*
D10*
X80870000Y-249485000D03*
X82301891Y-246028109D03*
X82301891Y-248891891D03*
X82895000Y-247460000D03*
D41*
X93890000Y-103785000D03*
D42*
X108890000Y-103785000D03*
D68*
X162150000Y-94635000D03*
X162150000Y-97175000D03*
X162150000Y-99715000D03*
X162150000Y-102255000D03*
X162150000Y-104795000D03*
X162150000Y-107335000D03*
X162150000Y-109875000D03*
X162150000Y-112415000D03*
X162150000Y-114955000D03*
X162150000Y-117495000D03*
X164690000Y-94635000D03*
X164690000Y-97175000D03*
X164690000Y-99715000D03*
X164690000Y-102255000D03*
X164690000Y-104795000D03*
X164690000Y-107335000D03*
X164690000Y-109875000D03*
X164690000Y-112415000D03*
X164690000Y-114955000D03*
X164690000Y-117495000D03*
X179930000Y-94635000D03*
X179930000Y-97175000D03*
X179930000Y-99715000D03*
X179930000Y-102255000D03*
X179930000Y-104795000D03*
X179930000Y-107335000D03*
X179930000Y-109875000D03*
X179930000Y-112415000D03*
X179930000Y-114955000D03*
X179930000Y-117495000D03*
X182470000Y-94635000D03*
X182470000Y-97175000D03*
X182470000Y-99715000D03*
X182470000Y-102255000D03*
X182470000Y-104795000D03*
X182470000Y-107335000D03*
X182470000Y-109875000D03*
X182470000Y-112415000D03*
X182470000Y-114955000D03*
X182470000Y-117495000D03*
D19*
X132160000Y-301105000D03*
X123460000Y-301105000D03*
D48*
X181710000Y-88175000D03*
X181710000Y-91125000D03*
D69*
X205340000Y-93175000D03*
X205340000Y-95475000D03*
X205340000Y-97775000D03*
D70*
X211840000Y-95475000D03*
D19*
X140150000Y-326765000D03*
X148850000Y-326765000D03*
D48*
X196495000Y-325905000D03*
X196495000Y-328855000D03*
D12*
X145170000Y-146570000D03*
X145170000Y-149495000D03*
D44*
X164530000Y-121935000D03*
X162630000Y-121935000D03*
D30*
X192500000Y-77895000D03*
X192500000Y-93595000D03*
D13*
X176560000Y-110570000D03*
X174760000Y-110570000D03*
X156660000Y-106970000D03*
X158460000Y-106970000D03*
D20*
X196670000Y-180505000D03*
X211670000Y-180505000D03*
D29*
X99980000Y-320157500D03*
X99980000Y-317232500D03*
D67*
X116810000Y-330955000D03*
X116810000Y-324055000D03*
D12*
X101560000Y-305422500D03*
X101560000Y-308347500D03*
X92810000Y-305640000D03*
X92810000Y-308565000D03*
D10*
X99256891Y-195635000D03*
X99850000Y-194203109D03*
X99850000Y-197066891D03*
X101281891Y-193610000D03*
D11*
X101281891Y-195635000D03*
D10*
X101281891Y-197660000D03*
X102713782Y-194203109D03*
X102713782Y-197066891D03*
X103306891Y-195635000D03*
D48*
X171900000Y-85485000D03*
X171900000Y-88435000D03*
D32*
X186601000Y-122326000D03*
X186601000Y-120426000D03*
D16*
X191770000Y-73215000D03*
D13*
X158460000Y-119200000D03*
X156660000Y-119200000D03*
D51*
X102149000Y-57660000D03*
X103137515Y-55273515D03*
X103137515Y-60046485D03*
X105524000Y-54285000D03*
D52*
X105524000Y-57660000D03*
D51*
X105524000Y-61035000D03*
X107910485Y-55273515D03*
X107910485Y-60046485D03*
X108899000Y-57660000D03*
D18*
X204190000Y-278696674D03*
X206090000Y-278696674D03*
D44*
X159085000Y-113020000D03*
X157185000Y-113020000D03*
D19*
X117120000Y-307505000D03*
X108420000Y-307505000D03*
D18*
X185920000Y-335865000D03*
X187820000Y-335865000D03*
D39*
X152540000Y-127765000D03*
X145640000Y-127765000D03*
D71*
X112770000Y-67455000D03*
X115070000Y-67455000D03*
D60*
X179140000Y-130595000D03*
X179140000Y-135645000D03*
X176600000Y-130595000D03*
X176600000Y-135645000D03*
X174060000Y-130595000D03*
X174060000Y-135645000D03*
D13*
X168710000Y-115980000D03*
X170510000Y-115980000D03*
D48*
X199570000Y-100955000D03*
X199570000Y-98005000D03*
D36*
X170930000Y-95565000D03*
X167980000Y-95565000D03*
D26*
X86474000Y-80400000D03*
X86474000Y-65400000D03*
D72*
X124700000Y-336176000D03*
X123000000Y-336176000D03*
X121300000Y-336176000D03*
X119600000Y-336176000D03*
X117900000Y-336176000D03*
D73*
X121300000Y-349391000D03*
D74*
X121300000Y-345895000D03*
D51*
X162791485Y-344791485D03*
X163780000Y-342405000D03*
X163780000Y-347177970D03*
X166166485Y-341416485D03*
D52*
X166166485Y-344791485D03*
D51*
X166166485Y-348166485D03*
X168552970Y-342405000D03*
X168552970Y-347177970D03*
X169541485Y-344791485D03*
D75*
X139770000Y-54505000D03*
X142550000Y-54505000D03*
D29*
X171280000Y-142845000D03*
X171280000Y-139920000D03*
D10*
X210476891Y-346536891D03*
X211070000Y-345105000D03*
X211070000Y-347968782D03*
X212501891Y-344511891D03*
D11*
X212501891Y-346536891D03*
D10*
X212501891Y-348561891D03*
X213933782Y-345105000D03*
X213933782Y-347968782D03*
X214526891Y-346536891D03*
D76*
X128990000Y-81015000D03*
X128990000Y-75090000D03*
D77*
X175970000Y-88095000D03*
X175970000Y-89995000D03*
X178070000Y-89045000D03*
D18*
X149410000Y-89942500D03*
X151310000Y-89942500D03*
X157250000Y-328755000D03*
X159150000Y-328755000D03*
D24*
X158460000Y-94492500D03*
D25*
X158460000Y-97032500D03*
X158460000Y-99572500D03*
D29*
X177040000Y-142845000D03*
X177040000Y-139920000D03*
D24*
X142830000Y-95712500D03*
D25*
X142830000Y-98252500D03*
X142830000Y-100792500D03*
D20*
X196670000Y-218305000D03*
X211670000Y-218305000D03*
D58*
X198030000Y-258600000D03*
X208030000Y-258600000D03*
D78*
X133844000Y-101615000D03*
X133844000Y-100345000D03*
X133844000Y-99075000D03*
X133844000Y-97805000D03*
X133844000Y-96535000D03*
X133844000Y-95265000D03*
X133844000Y-93995000D03*
X128420000Y-93995000D03*
X128420000Y-95265000D03*
X128420000Y-96535000D03*
X128420000Y-97805000D03*
X128420000Y-99075000D03*
X128420000Y-100345000D03*
X128420000Y-101615000D03*
D16*
X192610000Y-97535000D03*
D37*
X185180000Y-67005000D03*
X185180000Y-57305000D03*
D79*
X201040000Y-327365000D03*
X201040000Y-329665000D03*
X201040000Y-331965000D03*
D80*
X207240000Y-329665000D03*
D23*
X200310000Y-292935000D03*
X203235000Y-292935000D03*
M02*
