G04 #@! TF.GenerationSoftware,KiCad,Pcbnew,9.0.3*
G04 #@! TF.CreationDate,2025-10-06T17:39:24+02:00*
G04 #@! TF.ProjectId,LLC_DCDC_V3,4c4c435f-4443-4444-935f-56332e6b6963,rev?*
G04 #@! TF.SameCoordinates,Original*
G04 #@! TF.FileFunction,Profile,NP*
%FSLAX46Y46*%
G04 Gerber Fmt 4.6, Leading zero omitted, Abs format (unit mm)*
G04 Created by KiCad (PCBNEW 9.0.3) date 2025-10-06 17:39:24*
%MOMM*%
%LPD*%
G01*
G04 APERTURE LIST*
G04 #@! TA.AperFunction,Profile*
%ADD10C,0.100000*%
G04 #@! TD*
G04 #@! TA.AperFunction,Profile*
%ADD11C,0.050000*%
G04 #@! TD*
G04 APERTURE END LIST*
D10*
X194010013Y-131315000D02*
G75*
G02*
X186049987Y-131315000I-3980013J0D01*
G01*
X186049987Y-131315000D02*
G75*
G02*
X194010013Y-131315000I3980013J0D01*
G01*
X194230012Y-305195000D02*
G75*
G02*
X186209988Y-305195000I-4010012J0D01*
G01*
X186209988Y-305195000D02*
G75*
G02*
X194230012Y-305195000I4010012J0D01*
G01*
X92920000Y-298125000D02*
G75*
G02*
X84920000Y-298125000I-4000000J0D01*
G01*
X84920000Y-298125000D02*
G75*
G02*
X92920000Y-298125000I4000000J0D01*
G01*
D11*
X77330000Y-52115000D02*
X217330000Y-52115000D01*
X217330000Y-352115000D01*
X77330000Y-352115000D01*
X77330000Y-52115000D01*
D10*
X136060000Y-130615000D02*
G75*
G02*
X128060000Y-130615000I-4000000J0D01*
G01*
X128060000Y-130615000D02*
G75*
G02*
X136060000Y-130615000I4000000J0D01*
G01*
D11*
X120343367Y-148471734D02*
X92443367Y-148471734D01*
X92443367Y-152381734D01*
X120343367Y-152381734D01*
X120343367Y-148471734D01*
X120353367Y-166011734D02*
X92463367Y-166011734D01*
X92463367Y-174131734D01*
X120353367Y-174131734D01*
X120353367Y-166011734D01*
X120363367Y-187761734D02*
X92463367Y-187761734D01*
X92463367Y-191671734D01*
X120363367Y-191671734D01*
X120363367Y-187761734D01*
X141657500Y-66715000D02*
X157447500Y-66715000D01*
X157447500Y-64115000D01*
X141657500Y-64115000D01*
X141657500Y-66715000D01*
X141657500Y-77515000D02*
X157457500Y-77515000D01*
X157457500Y-72505000D01*
X141657500Y-72505000D01*
X141657500Y-77515000D01*
X141657500Y-85905000D02*
X157457500Y-85905000D01*
X157457500Y-83315000D01*
X141657500Y-83315000D01*
X141657500Y-85905000D01*
M02*
