M48
; DRILL file {KiCad 9.0.3} date 2025-10-06T17:39:42+0200
; FORMAT={-:-/ absolute / metric / decimal}
; #@! TF.CreationDate,2025-10-06T17:39:42+02:00
; #@! TF.GenerationSoftware,Kicad,Pcbnew,9.0.3
; #@! TF.FileFunction,Plated,1,4,PTH
FMAT,2
METRIC
; #@! TA.AperFunction,Plated,PTH,ViaDrill
T1C0.300
; #@! TA.AperFunction,Plated,PTH,ComponentDrill
T2C0.500
; #@! TA.AperFunction,Plated,PTH,ComponentDrill
T3C0.600
; #@! TA.AperFunction,Plated,PTH,ComponentDrill
T4C0.800
; #@! TA.AperFunction,Plated,PTH,ComponentDrill
T5C1.000
; #@! TA.AperFunction,Plated,PTH,ComponentDrill
T6C1.050
; #@! TA.AperFunction,Plated,PTH,ComponentDrill
T7C1.200
; #@! TA.AperFunction,Plated,PTH,ComponentDrill
T8C1.500
; #@! TA.AperFunction,Plated,PTH,ComponentDrill
T9C2.700
; #@! TA.AperFunction,Plated,PTH,ComponentDrill
T10C4.500
%
G90
G05
T1
X78.53Y-62.565
X78.53Y-64.065
X78.53Y-65.565
X78.53Y-67.065
X78.53Y-68.565
X78.53Y-70.065
X78.53Y-71.565
X78.53Y-73.065
X78.53Y-74.565
X78.53Y-76.065
X78.53Y-77.565
X78.53Y-79.065
X78.53Y-80.565
X78.53Y-82.065
X78.53Y-83.565
X78.53Y-85.065
X78.53Y-86.565
X78.53Y-88.065
X78.53Y-89.565
X78.53Y-91.065
X78.53Y-92.565
X78.53Y-94.065
X78.67Y-317.165
X78.67Y-318.665
X78.67Y-320.165
X78.67Y-321.665
X78.67Y-323.165
X78.67Y-324.665
X78.67Y-326.165
X78.67Y-327.665
X78.67Y-329.165
X78.67Y-330.665
X78.67Y-332.165
X78.67Y-333.665
X78.67Y-335.165
X78.67Y-336.665
X78.67Y-338.165
X78.67Y-339.665
X78.67Y-341.165
X78.67Y-342.665
X78.71Y-268.035
X78.71Y-269.535
X78.71Y-271.035
X78.71Y-272.535
X78.71Y-274.035
X78.71Y-275.535
X80.02Y-284.055
X80.02Y-285.555
X80.02Y-287.055
X80.02Y-288.555
X80.02Y-290.055
X80.02Y-291.555
X80.02Y-293.055
X80.02Y-294.555
X80.02Y-296.055
X80.02Y-297.555
X80.02Y-299.055
X80.02Y-300.555
X80.03Y-62.565
X80.03Y-64.065
X80.03Y-65.565
X80.03Y-67.065
X80.03Y-68.565
X80.03Y-70.065
X80.03Y-71.565
X80.03Y-73.065
X80.03Y-74.565
X80.03Y-76.065
X80.03Y-77.565
X80.03Y-79.065
X80.03Y-80.565
X80.03Y-82.065
X80.03Y-83.565
X80.03Y-85.065
X80.03Y-86.565
X80.03Y-88.065
X80.03Y-89.565
X80.03Y-91.065
X80.03Y-92.565
X80.03Y-94.065
X80.17Y-317.165
X80.17Y-318.665
X80.17Y-320.165
X80.17Y-321.665
X80.17Y-323.165
X80.17Y-324.665
X80.17Y-326.165
X80.17Y-327.665
X80.17Y-329.165
X80.17Y-330.665
X80.17Y-332.165
X80.17Y-333.665
X80.17Y-335.165
X80.17Y-336.665
X80.17Y-338.165
X80.17Y-339.665
X80.17Y-341.165
X80.21Y-268.035
X80.21Y-269.535
X80.21Y-271.035
X80.21Y-272.535
X80.21Y-274.035
X80.21Y-275.535
X81.52Y-284.055
X81.52Y-285.555
X81.52Y-287.055
X81.52Y-288.555
X81.52Y-290.055
X81.52Y-291.555
X81.52Y-293.055
X81.52Y-294.555
X81.52Y-296.055
X81.52Y-297.555
X81.52Y-299.055
X81.52Y-300.555
X81.52Y-302.055
X81.53Y-70.065
X81.53Y-71.565
X81.53Y-73.065
X81.53Y-74.565
X81.53Y-76.065
X81.53Y-77.565
X81.53Y-79.065
X81.53Y-80.565
X81.53Y-82.065
X81.53Y-83.565
X81.53Y-85.065
X81.53Y-86.565
X81.53Y-88.065
X81.53Y-89.565
X81.53Y-91.065
X81.53Y-92.565
X81.53Y-94.065
X81.67Y-317.165
X81.67Y-318.665
X81.67Y-320.165
X81.67Y-321.665
X81.67Y-323.165
X81.67Y-324.665
X81.67Y-326.165
X81.67Y-327.665
X81.67Y-329.165
X81.67Y-330.665
X81.67Y-332.165
X81.67Y-333.665
X81.67Y-335.165
X81.67Y-336.665
X81.67Y-338.165
X81.67Y-339.665
X81.67Y-341.165
X81.71Y-268.035
X81.71Y-269.535
X81.71Y-271.035
X81.71Y-272.535
X81.71Y-274.035
X83.02Y-284.055
X83.02Y-285.555
X83.02Y-287.055
X83.02Y-288.555
X83.02Y-290.055
X83.02Y-291.555
X83.02Y-293.055
X83.02Y-294.555
X83.02Y-296.055
X83.02Y-297.555
X83.02Y-299.055
X83.02Y-300.555
X83.02Y-302.055
X83.02Y-303.555
X83.03Y-71.565
X83.03Y-73.065
X83.03Y-74.565
X83.03Y-76.065
X83.03Y-77.565
X83.03Y-79.065
X83.03Y-80.565
X83.03Y-82.065
X83.03Y-83.565
X83.03Y-85.065
X83.03Y-86.565
X83.03Y-88.065
X83.03Y-88.065
X83.03Y-89.565
X83.03Y-91.065
X83.03Y-92.565
X83.03Y-94.065
X83.17Y-317.165
X83.17Y-318.665
X83.17Y-320.165
X83.17Y-321.665
X83.17Y-323.165
X83.17Y-324.665
X83.17Y-326.165
X83.17Y-327.665
X83.17Y-329.165
X83.17Y-330.665
X83.17Y-332.165
X83.17Y-333.665
X83.17Y-335.165
X83.17Y-336.665
X83.17Y-338.165
X83.17Y-339.665
X83.17Y-341.165
X83.21Y-268.035
X83.21Y-269.535
X83.21Y-271.035
X83.21Y-272.535
X83.21Y-274.035
X84.52Y-284.055
X84.52Y-285.555
X84.52Y-287.055
X84.52Y-288.555
X84.52Y-290.055
X84.52Y-291.555
X84.52Y-293.055
X84.52Y-294.555
X84.52Y-300.555
X84.52Y-302.055
X84.52Y-303.555
X84.53Y-73.065
X84.53Y-74.565
X84.53Y-76.065
X84.53Y-77.565
X84.53Y-79.065
X84.53Y-80.565
X84.53Y-82.065
X84.53Y-83.565
X84.53Y-85.065
X84.53Y-86.565
X84.67Y-317.165
X84.67Y-318.665
X84.67Y-320.165
X84.67Y-321.665
X84.67Y-323.165
X84.67Y-324.665
X84.67Y-326.165
X84.67Y-327.665
X84.67Y-329.165
X84.67Y-330.665
X84.67Y-332.165
X84.67Y-333.665
X84.67Y-335.165
X84.67Y-336.665
X84.67Y-338.165
X84.67Y-339.665
X84.67Y-341.165
X84.67Y-342.665
X84.71Y-268.035
X84.71Y-269.535
X84.71Y-271.035
X84.71Y-272.535
X84.71Y-274.035
X85.01Y-88.535
X85.01Y-90.035
X85.01Y-91.535
X86.02Y-284.055
X86.02Y-285.555
X86.02Y-287.055
X86.02Y-288.555
X86.02Y-290.055
X86.02Y-291.555
X86.02Y-293.055
X86.02Y-303.555
X86.03Y-74.565
X86.03Y-76.065
X86.03Y-77.565
X86.03Y-83.565
X86.21Y-268.035
X86.21Y-269.535
X86.21Y-271.035
X86.21Y-272.535
X86.21Y-274.035
X86.21Y-275.535
X86.51Y-88.535
X86.51Y-90.035
X86.51Y-91.535
X87.41Y-103.325
X87.43Y-165.425
X87.43Y-166.925
X87.43Y-168.425
X87.43Y-169.925
X87.43Y-171.425
X87.43Y-172.925
X87.43Y-174.425
X87.52Y-284.055
X87.52Y-285.555
X87.52Y-287.055
X87.52Y-288.555
X87.52Y-290.055
X87.52Y-291.555
X87.52Y-293.055
X87.52Y-303.555
X87.53Y-77.565
X87.53Y-82.065
X87.53Y-83.565
X87.71Y-268.035
X87.71Y-269.535
X87.71Y-271.035
X87.71Y-272.535
X87.71Y-274.035
X88.01Y-88.535
X88.01Y-90.035
X88.01Y-91.535
X88.35Y-166.205
X88.35Y-167.705
X88.35Y-169.205
X88.35Y-170.705
X88.35Y-172.205
X88.35Y-173.705
X88.91Y-101.825
X88.91Y-103.325
X88.91Y-104.825
X89.02Y-284.055
X89.02Y-285.555
X89.02Y-287.055
X89.02Y-288.555
X89.02Y-290.055
X89.02Y-291.555
X89.02Y-293.055
X89.02Y-303.555
X89.21Y-268.035
X89.21Y-269.535
X89.21Y-271.035
X89.21Y-272.535
X89.21Y-274.035
X89.247Y-165.46
X89.247Y-166.96
X89.247Y-168.46
X89.247Y-169.96
X89.247Y-171.46
X89.247Y-172.96
X89.247Y-174.46
X89.51Y-88.535
X89.51Y-90.035
X89.51Y-91.535
X90.41Y-101.825
X90.41Y-103.325
X90.41Y-104.825
X90.41Y-106.325
X90.52Y-284.055
X90.52Y-285.555
X90.52Y-287.055
X90.52Y-288.555
X90.52Y-290.055
X90.52Y-291.555
X90.52Y-293.055
X90.52Y-303.555
X90.66Y-63.035
X90.71Y-268.035
X90.71Y-269.535
X90.71Y-271.035
X90.71Y-272.535
X90.71Y-274.035
X90.71Y-275.535
X90.91Y-64.535
X91.01Y-88.535
X91.01Y-90.035
X91.01Y-91.535
X91.16Y-66.035
X91.41Y-67.535
X91.66Y-69.035
X91.91Y-70.535
X91.91Y-101.825
X91.91Y-103.325
X91.91Y-104.825
X91.91Y-106.325
X91.91Y-107.825
X92.02Y-284.055
X92.02Y-285.555
X92.02Y-287.055
X92.02Y-288.555
X92.02Y-290.055
X92.02Y-291.555
X92.02Y-293.055
X92.02Y-303.555
X92.16Y-72.035
X92.21Y-271.035
X92.21Y-272.535
X92.21Y-274.035
X92.41Y-64.535
X92.41Y-73.535
X92.51Y-88.535
X92.51Y-90.035
X92.51Y-91.535
X93.16Y-78.035
X93.41Y-70.535
X93.41Y-79.535
X93.41Y-101.825
X93.41Y-106.325
X93.41Y-107.825
X93.41Y-109.325
X93.52Y-284.055
X93.52Y-285.555
X93.52Y-287.055
X93.52Y-288.555
X93.52Y-290.055
X93.52Y-291.555
X93.52Y-293.055
X93.52Y-294.555
X93.52Y-300.555
X93.52Y-302.055
X93.52Y-303.555
X93.66Y-72.035
X93.91Y-64.535
X93.91Y-73.535
X94.01Y-88.535
X94.01Y-90.035
X94.01Y-91.535
X94.66Y-78.035
X94.91Y-70.535
X94.91Y-79.535
X94.91Y-101.825
X94.91Y-106.325
X94.91Y-107.825
X94.91Y-109.325
X94.91Y-112.325
X94.91Y-113.825
X94.91Y-115.325
X94.91Y-116.825
X94.91Y-118.325
X94.91Y-119.825
X94.91Y-121.325
X94.91Y-122.825
X94.91Y-124.325
X94.91Y-125.825
X95.02Y-284.055
X95.02Y-285.555
X95.02Y-287.055
X95.02Y-288.555
X95.02Y-290.055
X95.02Y-291.555
X95.02Y-293.055
X95.02Y-294.555
X95.02Y-296.055
X95.02Y-297.555
X95.02Y-299.055
X95.02Y-300.555
X95.02Y-302.055
X95.16Y-72.035
X95.41Y-64.535
X95.41Y-73.535
X95.51Y-88.535
X95.51Y-90.035
X95.51Y-91.535
X95.66Y-66.035
X95.66Y-75.035
X95.81Y-312.025
X95.91Y-67.535
X95.91Y-76.535
X96.16Y-69.035
X96.16Y-78.035
X96.41Y-70.535
X96.41Y-79.535
X96.41Y-101.825
X96.41Y-103.325
X96.41Y-104.825
X96.41Y-106.325
X96.41Y-107.825
X96.41Y-109.325
X96.41Y-112.325
X96.41Y-113.825
X96.41Y-115.325
X96.41Y-116.825
X96.41Y-118.325
X96.41Y-119.825
X96.41Y-121.325
X96.41Y-122.825
X96.41Y-124.325
X96.41Y-125.825
X96.41Y-127.325
X96.52Y-284.055
X96.52Y-285.555
X96.52Y-287.055
X96.52Y-288.555
X96.52Y-290.055
X96.52Y-291.555
X96.52Y-293.055
X96.52Y-294.555
X96.52Y-296.055
X96.52Y-297.555
X96.52Y-299.055
X96.52Y-300.555
X96.66Y-63.035
X96.66Y-72.035
X96.91Y-64.535
X96.91Y-73.535
X97.01Y-88.535
X97.01Y-90.035
X97.01Y-91.535
X97.16Y-66.035
X97.16Y-75.035
X97.41Y-67.535
X97.41Y-76.535
X97.66Y-69.035
X97.66Y-78.035
X97.91Y-70.535
X97.91Y-79.535
X97.91Y-101.825
X97.91Y-103.325
X97.91Y-104.825
X97.91Y-106.325
X97.91Y-107.825
X97.91Y-109.325
X97.91Y-112.325
X97.91Y-113.825
X97.91Y-115.325
X97.91Y-116.825
X97.91Y-118.325
X97.91Y-119.825
X97.91Y-121.325
X97.91Y-122.825
X97.91Y-124.325
X97.91Y-125.825
X97.91Y-127.325
X98.51Y-88.535
X98.51Y-90.035
X98.51Y-91.535
X99.41Y-113.825
X99.41Y-115.325
X99.41Y-116.825
X99.41Y-118.325
X99.41Y-119.825
X99.41Y-121.325
X99.41Y-122.825
X99.41Y-124.325
X99.41Y-125.825
X99.41Y-127.325
X100.01Y-88.535
X100.01Y-90.035
X100.01Y-91.535
X100.2Y-328.965
X100.2Y-330.465
X100.2Y-331.965
X100.2Y-333.465
X100.2Y-334.965
X100.2Y-336.465
X100.2Y-337.965
X100.43Y-341.655
X100.43Y-343.155
X100.43Y-349.155
X100.43Y-350.655
X100.83Y-293.065
X100.83Y-294.565
X100.83Y-296.065
X100.83Y-297.565
X100.83Y-299.065
X100.83Y-300.565
X100.83Y-311.065
X100.83Y-312.565
X100.83Y-314.065
X100.83Y-315.565
X100.83Y-323.065
X101.51Y-88.535
X101.51Y-90.035
X101.51Y-91.535
X101.7Y-328.965
X101.7Y-330.465
X101.7Y-331.965
X101.7Y-333.465
X101.7Y-334.965
X101.7Y-336.465
X101.7Y-337.965
X102.12Y-63.035
X102.27Y-64.535
X102.33Y-293.065
X102.33Y-294.565
X102.33Y-296.065
X102.33Y-297.565
X102.33Y-299.065
X102.33Y-300.565
X102.33Y-302.065
X102.33Y-303.565
X102.33Y-311.065
X102.33Y-312.565
X102.33Y-314.065
X102.33Y-315.565
X102.33Y-323.065
X102.42Y-66.035
X102.57Y-67.535
X102.72Y-69.035
X102.87Y-70.535
X103.01Y-88.535
X103.01Y-90.035
X103.01Y-91.535
X103.02Y-72.035
X103.17Y-73.535
X103.2Y-328.965
X103.2Y-336.465
X103.2Y-337.965
X103.32Y-75.035
X103.47Y-76.535
X103.62Y-78.035
X103.77Y-64.535
X103.77Y-79.535
X103.8Y-102.43
X103.8Y-103.93
X103.8Y-105.43
X103.8Y-106.93
X103.83Y-293.065
X103.83Y-294.565
X103.83Y-296.065
X103.83Y-297.565
X103.83Y-299.065
X103.83Y-300.565
X103.83Y-302.065
X103.83Y-303.565
X103.83Y-305.065
X103.83Y-306.565
X103.83Y-308.065
X103.83Y-309.565
X103.83Y-311.065
X103.83Y-312.565
X103.83Y-314.065
X103.83Y-315.565
X103.83Y-321.565
X103.83Y-323.065
X103.83Y-324.565
X103.83Y-326.065
X103.92Y-66.035
X104.07Y-67.535
X104.22Y-69.035
X104.37Y-70.535
X104.51Y-88.535
X104.51Y-90.035
X104.51Y-91.535
X104.52Y-72.035
X104.67Y-73.535
X104.7Y-328.965
X104.7Y-336.465
X104.7Y-337.965
X104.82Y-75.035
X104.97Y-76.535
X105.12Y-78.035
X105.27Y-64.535
X105.27Y-79.535
X105.3Y-102.43
X105.3Y-103.93
X105.3Y-105.43
X105.3Y-106.93
X105.33Y-294.565
X105.33Y-296.065
X105.33Y-297.565
X105.33Y-299.065
X105.33Y-300.565
X105.33Y-302.065
X105.33Y-303.565
X105.33Y-305.065
X105.33Y-306.565
X105.33Y-308.065
X105.33Y-309.565
X105.33Y-311.065
X105.33Y-312.565
X105.33Y-314.065
X105.33Y-315.565
X105.33Y-317.065
X105.33Y-318.565
X105.33Y-320.065
X105.33Y-321.565
X105.33Y-323.065
X105.33Y-324.565
X105.33Y-326.065
X105.42Y-66.035
X105.57Y-67.535
X105.72Y-69.035
X105.87Y-70.535
X106.01Y-88.535
X106.01Y-90.035
X106.01Y-91.535
X106.02Y-72.035
X106.17Y-73.535
X106.2Y-336.465
X106.2Y-337.965
X106.32Y-75.035
X106.47Y-76.535
X106.62Y-78.035
X106.69Y-109.955
X106.75Y-108.67
X106.77Y-64.535
X106.77Y-79.535
X106.8Y-102.43
X106.8Y-103.93
X106.8Y-105.43
X106.8Y-106.93
X106.83Y-296.065
X106.83Y-297.565
X106.83Y-299.065
X106.83Y-300.565
X106.83Y-302.065
X106.83Y-303.565
X106.83Y-305.065
X106.83Y-311.065
X106.83Y-312.565
X106.83Y-314.065
X106.83Y-315.565
X106.83Y-317.065
X106.83Y-318.565
X106.83Y-320.065
X106.83Y-321.565
X106.83Y-323.065
X106.83Y-324.565
X107.51Y-88.535
X107.51Y-90.035
X107.51Y-91.535
X107.7Y-334.965
X107.7Y-336.465
X107.7Y-337.965
X108.12Y-78.035
X108.27Y-79.535
X108.3Y-105.43
X108.3Y-106.93
X108.33Y-296.065
X108.33Y-297.565
X108.33Y-299.065
X108.33Y-300.565
X108.33Y-302.065
X108.33Y-303.565
X108.33Y-305.065
X108.33Y-311.065
X108.33Y-312.565
X108.33Y-314.065
X108.33Y-315.565
X108.33Y-317.065
X108.33Y-318.565
X108.33Y-320.065
X108.33Y-321.565
X108.33Y-323.065
X108.33Y-324.565
X109.01Y-88.535
X109.01Y-90.035
X109.01Y-91.535
X109.2Y-334.965
X109.2Y-336.465
X109.2Y-337.965
X109.8Y-102.43
X109.8Y-105.43
X109.8Y-106.93
X109.83Y-297.565
X109.83Y-299.065
X109.83Y-300.565
X109.83Y-302.065
X109.83Y-303.565
X109.83Y-305.065
X109.83Y-311.065
X109.83Y-312.565
X109.83Y-314.065
X109.83Y-315.565
X109.83Y-317.065
X109.83Y-318.565
X109.83Y-320.065
X109.83Y-321.565
X109.83Y-323.065
X109.83Y-324.565
X110.06Y-128.295
X110.51Y-88.535
X110.51Y-90.035
X110.51Y-91.535
X110.7Y-334.965
X110.7Y-336.465
X110.7Y-337.965
X111.3Y-102.43
X111.3Y-103.93
X111.3Y-105.43
X111.3Y-106.93
X111.33Y-299.065
X111.33Y-300.565
X111.33Y-302.065
X111.33Y-303.565
X111.33Y-305.065
X111.33Y-309.565
X111.33Y-311.065
X111.33Y-312.565
X111.33Y-314.065
X111.33Y-315.565
X111.33Y-317.065
X111.33Y-318.565
X111.33Y-320.065
X111.33Y-321.565
X111.33Y-323.065
X111.33Y-324.565
X111.33Y-326.065
X112.01Y-88.535
X112.01Y-90.035
X112.01Y-91.535
X112.05Y-143.67
X112.05Y-145.17
X112.05Y-146.67
X112.2Y-328.965
X112.2Y-333.465
X112.2Y-334.965
X112.2Y-336.465
X112.2Y-337.965
X112.8Y-102.43
X112.8Y-103.93
X112.83Y-299.065
X112.83Y-300.565
X112.83Y-302.065
X112.83Y-303.565
X112.83Y-305.065
X112.83Y-306.565
X112.83Y-308.065
X112.83Y-309.565
X112.83Y-311.065
X112.83Y-312.565
X112.83Y-314.065
X112.83Y-315.565
X112.83Y-317.065
X112.83Y-318.565
X112.83Y-320.065
X112.83Y-321.565
X112.83Y-323.065
X112.83Y-324.565
X112.83Y-326.065
X113.51Y-88.535
X113.51Y-90.035
X113.55Y-143.67
X113.55Y-145.17
X113.55Y-146.67
X113.7Y-328.965
X113.7Y-333.465
X113.7Y-334.965
X113.7Y-336.465
X113.7Y-337.965
X113.97Y-83.375
X113.97Y-84.875
X113.97Y-86.375
X114.05Y-341.165
X114.05Y-342.665
X114.05Y-344.165
X114.05Y-345.665
X114.05Y-347.165
X114.05Y-348.665
X114.05Y-350.165
X114.3Y-102.43
X114.33Y-300.565
X114.33Y-302.065
X114.33Y-303.565
X114.33Y-305.065
X114.33Y-311.065
X114.33Y-312.565
X114.33Y-314.065
X114.33Y-315.565
X114.33Y-317.065
X114.33Y-318.565
X114.33Y-320.065
X114.33Y-321.565
X115.01Y-88.535
X115.05Y-143.67
X115.05Y-145.17
X115.05Y-146.67
X115.2Y-334.965
X115.2Y-336.465
X115.2Y-337.965
X115.47Y-78.875
X115.47Y-80.375
X115.47Y-81.875
X115.47Y-83.375
X115.52Y-132.295
X115.83Y-300.565
X115.83Y-302.065
X115.83Y-303.565
X115.83Y-305.065
X115.83Y-311.065
X115.83Y-312.565
X115.83Y-314.065
X115.83Y-315.565
X115.83Y-317.065
X115.83Y-318.565
X115.83Y-320.065
X115.83Y-321.565
X116.55Y-143.67
X116.55Y-145.17
X116.55Y-146.67
X116.97Y-77.375
X116.97Y-78.875
X116.97Y-80.375
X116.97Y-81.875
X116.97Y-83.375
X117.02Y-132.295
X117.02Y-339.705
X117.33Y-300.565
X117.33Y-302.065
X117.33Y-303.565
X117.33Y-305.065
X117.33Y-311.065
X117.33Y-312.565
X117.33Y-314.065
X117.33Y-315.565
X117.33Y-317.065
X117.33Y-318.565
X117.33Y-320.065
X117.33Y-321.565
X118.05Y-143.67
X118.05Y-145.17
X118.05Y-146.67
X118.47Y-77.375
X118.47Y-78.875
X118.47Y-80.375
X118.47Y-81.875
X118.47Y-83.375
X118.47Y-84.875
X118.52Y-132.295
X118.52Y-133.795
X118.83Y-302.065
X118.83Y-303.565
X118.83Y-305.065
X118.83Y-311.065
X118.83Y-312.565
X118.83Y-314.065
X118.83Y-315.565
X118.83Y-317.065
X118.83Y-318.565
X118.83Y-320.065
X118.83Y-321.565
X119.55Y-143.67
X119.55Y-145.17
X119.55Y-146.67
X119.7Y-328.965
X119.71Y-74.355
X119.71Y-75.855
X119.71Y-77.355
X119.71Y-78.855
X119.71Y-81.855
X119.71Y-83.355
X120.02Y-132.295
X120.02Y-133.795
X120.02Y-135.295
X120.33Y-303.565
X120.33Y-305.065
X120.33Y-311.065
X120.33Y-312.565
X120.33Y-314.065
X120.33Y-315.565
X120.33Y-317.065
X120.33Y-318.565
X120.33Y-320.065
X120.33Y-321.565
X120.33Y-323.065
X120.33Y-324.565
X120.33Y-326.065
X121.05Y-143.67
X121.05Y-145.17
X121.05Y-146.67
X121.2Y-328.965
X121.2Y-331.965
X121.21Y-72.855
X121.21Y-74.355
X121.21Y-75.855
X121.21Y-77.355
X121.52Y-132.295
X121.52Y-133.795
X121.52Y-135.295
X121.52Y-136.795
X121.83Y-303.565
X121.83Y-305.065
X121.83Y-311.065
X121.83Y-317.065
X121.83Y-318.565
X121.83Y-320.065
X121.83Y-321.565
X121.83Y-323.065
X121.83Y-324.565
X122.55Y-143.67
X122.55Y-145.17
X122.55Y-146.67
X122.7Y-328.965
X122.7Y-330.465
X122.71Y-72.855
X122.71Y-74.355
X122.71Y-75.855
X122.71Y-77.355
X122.71Y-78.855
X123.02Y-132.295
X123.02Y-133.795
X123.02Y-135.295
X123.02Y-136.795
X123.3Y-105.43
X123.3Y-109.93
X123.3Y-111.43
X123.3Y-117.43
X123.3Y-118.93
X123.3Y-120.43
X123.33Y-303.565
X123.33Y-305.065
X123.33Y-311.065
X123.33Y-317.065
X123.33Y-318.565
X123.33Y-320.065
X123.33Y-321.565
X123.33Y-323.065
X123.33Y-324.565
X123.58Y-90.25
X124.05Y-143.67
X124.05Y-145.17
X124.05Y-146.67
X124.2Y-328.965
X124.2Y-330.465
X124.2Y-331.965
X124.52Y-132.295
X124.52Y-133.795
X124.52Y-135.295
X124.52Y-136.795
X124.73Y-89.45
X124.8Y-105.43
X124.8Y-109.93
X124.8Y-115.93
X124.8Y-117.43
X124.8Y-118.93
X124.8Y-120.43
X124.83Y-303.565
X124.83Y-305.065
X124.83Y-311.065
X124.83Y-317.065
X124.83Y-318.565
X124.83Y-320.065
X124.83Y-321.565
X124.83Y-323.065
X124.83Y-324.565
X124.85Y-165.165
X124.85Y-166.665
X124.85Y-168.165
X124.85Y-169.665
X124.85Y-171.165
X124.85Y-172.665
X124.85Y-174.165
X125.55Y-143.67
X125.55Y-145.17
X125.62Y-88.76
X125.7Y-328.965
X125.7Y-330.465
X125.7Y-331.965
X125.85Y-165.165
X125.85Y-166.665
X125.85Y-168.165
X125.85Y-169.665
X125.85Y-171.165
X125.85Y-172.665
X125.85Y-174.165
X126.02Y-133.795
X126.02Y-135.295
X126.02Y-136.795
X126.3Y-108.43
X126.3Y-114.43
X126.3Y-115.93
X126.3Y-117.43
X126.3Y-118.93
X126.3Y-120.43
X126.32Y-88.16
X126.33Y-303.565
X126.33Y-305.065
X126.33Y-311.065
X126.33Y-312.565
X126.33Y-314.065
X126.33Y-315.565
X126.33Y-317.065
X126.33Y-318.565
X126.33Y-320.065
X126.33Y-321.565
X126.33Y-323.065
X126.33Y-324.565
X126.33Y-326.065
X126.73Y-103.805
X126.85Y-165.165
X126.85Y-166.665
X126.85Y-168.165
X126.85Y-169.665
X126.85Y-171.165
X126.85Y-172.665
X126.85Y-174.165
X127.05Y-143.67
X127.16Y-87.41
X127.52Y-135.295
X127.52Y-136.795
X127.8Y-112.93
X127.8Y-114.43
X127.8Y-115.93
X127.8Y-117.43
X127.8Y-118.93
X127.8Y-120.43
X128.21Y-86.67
X129.3Y-111.43
X129.3Y-112.93
X129.3Y-114.43
X129.3Y-115.93
X129.3Y-117.43
X129.3Y-118.93
X129.3Y-120.43
X129.64Y-103.115
X130.15Y-319.685
X130.15Y-321.185
X130.15Y-322.685
X130.25Y-307.505
X130.25Y-309.005
X130.25Y-310.505
X130.25Y-330.305
X130.25Y-331.805
X130.25Y-333.305
X130.25Y-334.805
X130.25Y-342.585
X130.25Y-344.085
X130.25Y-345.585
X130.25Y-347.085
X130.25Y-348.585
X130.25Y-350.085
X130.8Y-109.93
X130.8Y-111.43
X130.8Y-112.93
X130.8Y-120.43
X130.89Y-62.055
X131.65Y-319.685
X131.65Y-321.185
X131.65Y-322.685
X131.75Y-307.505
X131.75Y-309.005
X131.75Y-310.505
X131.75Y-330.305
X131.75Y-331.805
X131.75Y-333.305
X131.75Y-334.805
X131.75Y-342.585
X131.75Y-344.085
X131.75Y-345.585
X131.75Y-347.085
X131.75Y-348.585
X131.75Y-350.085
X132.12Y-96.535
X132.3Y-108.43
X132.3Y-109.93
X132.3Y-111.43
X132.3Y-120.43
X133.15Y-319.685
X133.15Y-321.185
X133.15Y-322.685
X133.25Y-307.505
X133.25Y-309.005
X133.25Y-310.505
X133.25Y-330.305
X133.25Y-331.805
X133.25Y-333.305
X133.25Y-334.805
X133.25Y-342.585
X133.25Y-344.085
X133.25Y-345.585
X133.25Y-347.085
X133.25Y-348.585
X133.25Y-350.085
X133.88Y-219.975
X133.88Y-221.475
X133.95Y-86.765
X133.95Y-87.835
X134.65Y-319.685
X134.65Y-321.185
X134.65Y-322.685
X134.75Y-307.505
X134.75Y-309.005
X134.75Y-310.505
X134.75Y-330.305
X134.75Y-331.805
X134.75Y-333.305
X134.75Y-334.805
X134.75Y-342.585
X134.75Y-344.085
X134.75Y-345.585
X134.75Y-347.085
X134.75Y-348.585
X134.75Y-350.085
X135.32Y-95.265
X135.38Y-218.475
X135.38Y-219.975
X135.38Y-221.475
X135.38Y-222.975
X136.06Y-97.805
X136.15Y-319.685
X136.15Y-321.185
X136.15Y-322.685
X136.25Y-307.505
X136.25Y-309.005
X136.25Y-310.505
X136.25Y-330.305
X136.25Y-331.805
X136.25Y-333.305
X136.25Y-334.805
X136.25Y-342.585
X136.25Y-344.085
X136.25Y-345.585
X136.25Y-347.085
X136.25Y-348.585
X136.25Y-350.085
X136.74Y-96.465
X136.74Y-113.26
X136.74Y-113.96
X136.88Y-218.475
X136.88Y-219.975
X136.88Y-221.475
X136.88Y-222.975
X137.65Y-319.685
X137.65Y-321.185
X137.65Y-322.685
X137.75Y-307.505
X137.75Y-309.005
X137.75Y-310.505
X137.75Y-330.305
X137.75Y-331.805
X137.75Y-333.305
X137.75Y-334.805
X137.75Y-342.585
X137.75Y-344.085
X137.75Y-345.585
X137.75Y-347.085
X137.75Y-348.585
X137.75Y-350.085
X138.37Y-54.525
X138.38Y-218.475
X138.38Y-219.975
X138.38Y-221.475
X138.38Y-222.975
X139.13Y-169.495
X139.13Y-170.995
X139.13Y-172.495
X139.13Y-173.995
X139.13Y-175.495
X139.13Y-176.995
X139.13Y-178.495
X139.13Y-179.995
X139.15Y-319.685
X139.15Y-321.185
X139.15Y-322.685
X139.25Y-307.505
X139.25Y-309.005
X139.25Y-310.505
X139.25Y-330.305
X139.25Y-331.805
X139.25Y-333.305
X139.25Y-334.805
X139.25Y-342.585
X139.25Y-344.085
X139.25Y-345.585
X139.25Y-347.085
X139.25Y-348.585
X139.25Y-350.085
X139.29Y-103.555
X139.87Y-74.595
X139.87Y-75.535
X139.88Y-218.475
X139.88Y-219.975
X139.88Y-221.475
X139.88Y-222.975
X140.63Y-169.495
X140.63Y-170.995
X140.63Y-172.495
X140.63Y-173.995
X140.63Y-175.495
X140.63Y-176.995
X140.63Y-178.495
X140.63Y-179.995
X140.65Y-319.685
X140.65Y-321.185
X140.65Y-322.685
X140.75Y-307.505
X140.75Y-309.005
X140.75Y-310.505
X140.75Y-330.305
X140.75Y-331.805
X140.75Y-333.305
X140.75Y-334.805
X140.75Y-342.585
X140.75Y-344.085
X140.75Y-345.585
X140.75Y-347.085
X140.75Y-348.585
X140.75Y-350.085
X141.38Y-218.475
X141.38Y-219.975
X141.38Y-221.475
X141.38Y-222.975
X142.13Y-169.495
X142.13Y-170.995
X142.13Y-172.495
X142.13Y-173.995
X142.13Y-175.495
X142.13Y-176.995
X142.13Y-178.495
X142.13Y-179.995
X142.15Y-319.685
X142.15Y-321.185
X142.15Y-322.685
X142.25Y-307.505
X142.25Y-309.005
X142.25Y-310.505
X142.25Y-330.305
X142.25Y-331.805
X142.25Y-333.305
X142.25Y-334.805
X142.25Y-342.585
X142.25Y-344.085
X142.25Y-345.585
X142.25Y-347.085
X142.25Y-348.585
X142.25Y-350.085
X142.88Y-218.475
X142.88Y-219.975
X142.88Y-221.475
X142.88Y-222.975
X143.75Y-342.585
X143.75Y-344.085
X143.75Y-345.585
X143.75Y-347.085
X143.75Y-348.585
X143.75Y-350.085
X144.38Y-218.475
X144.38Y-219.975
X144.38Y-221.475
X144.38Y-222.975
X144.65Y-98.322
X145.25Y-342.585
X145.25Y-344.085
X145.25Y-345.585
X145.25Y-347.085
X145.25Y-348.585
X145.25Y-350.085
X145.6Y-123.445
X145.64Y-122.085
X145.88Y-219.975
X145.88Y-221.475
X146.053Y-164.878
X146.67Y-164.155
X146.75Y-342.585
X146.75Y-344.085
X146.75Y-345.585
X146.75Y-347.085
X146.75Y-348.585
X146.75Y-350.085
X146.863Y-165.718
X147.48Y-164.995
X147.493Y-166.318
X148.11Y-165.595
X148.153Y-166.898
X148.25Y-342.585
X148.25Y-344.085
X148.25Y-345.585
X148.25Y-347.085
X148.25Y-348.585
X148.25Y-350.085
X148.36Y-136.155
X148.77Y-166.175
X148.833Y-167.578
X149.45Y-166.855
X149.483Y-168.368
X149.75Y-342.585
X149.75Y-344.085
X149.75Y-345.585
X149.75Y-347.085
X149.75Y-348.585
X149.75Y-350.085
X150.1Y-167.645
X150.323Y-169.098
X150.94Y-168.375
X151.25Y-342.585
X151.25Y-344.085
X151.25Y-345.585
X151.25Y-347.085
X151.25Y-348.585
X151.25Y-350.085
X152.3Y-169.245
X152.3Y-170.245
X152.586Y-103.699
X152.75Y-342.585
X152.75Y-344.085
X152.75Y-345.585
X152.75Y-347.085
X152.75Y-348.585
X152.75Y-350.085
X153.41Y-105.545
X153.8Y-169.245
X153.8Y-170.245
X154.25Y-342.585
X154.25Y-344.085
X154.25Y-345.585
X154.25Y-347.085
X154.25Y-348.585
X154.25Y-350.085
X155.3Y-169.245
X155.3Y-170.245
X155.5Y-149.495
X155.75Y-342.585
X155.75Y-344.085
X155.75Y-345.585
X155.75Y-347.085
X155.75Y-348.585
X155.75Y-350.085
X155.87Y-136.155
X156.28Y-303.415
X156.28Y-304.915
X156.28Y-306.415
X156.28Y-307.915
X156.28Y-309.415
X156.28Y-310.915
X156.28Y-312.415
X156.28Y-313.915
X156.28Y-315.415
X156.28Y-316.915
X156.28Y-318.415
X156.28Y-319.915
X156.28Y-321.415
X156.28Y-322.915
X156.28Y-324.415
X156.44Y-330.76
X156.57Y-103.845
X157.25Y-342.585
X157.25Y-344.085
X157.25Y-345.585
X157.25Y-347.085
X157.25Y-348.585
X157.25Y-350.085
X157.715Y-330.76
X157.78Y-303.415
X157.78Y-304.915
X157.78Y-306.415
X157.78Y-307.915
X157.78Y-309.415
X157.78Y-310.915
X157.78Y-312.415
X157.78Y-313.915
X157.78Y-315.415
X157.78Y-316.915
X157.78Y-318.415
X157.78Y-319.915
X157.78Y-321.415
X157.78Y-322.915
X158.18Y-53.51
X159.09Y-339.937
X159.09Y-341.437
X159.09Y-342.937
X159.09Y-344.437
X159.09Y-345.937
X159.09Y-347.437
X159.09Y-348.937
X159.09Y-350.437
X159.28Y-303.415
X159.28Y-304.915
X159.28Y-306.415
X159.28Y-307.915
X159.28Y-309.415
X159.28Y-310.915
X159.28Y-312.415
X159.28Y-313.915
X159.28Y-315.415
X159.28Y-316.915
X159.28Y-318.415
X159.28Y-319.915
X159.28Y-321.415
X159.68Y-53.51
X160.15Y-125.945
X160.166Y-344.791
X160.255Y-330.76
X160.29Y-124.995
X160.46Y-342.937
X160.46Y-346.646
X160.59Y-339.937
X160.59Y-350.437
X160.78Y-303.415
X160.78Y-304.915
X160.78Y-306.415
X160.78Y-307.915
X160.78Y-309.415
X160.78Y-310.915
X160.78Y-312.415
X160.78Y-313.915
X160.78Y-315.415
X160.78Y-316.915
X160.78Y-318.415
X160.78Y-319.915
X161.18Y-53.51
X161.296Y-345.3
X161.312Y-341.265
X161.312Y-348.318
X161.511Y-343.275
X161.924Y-347.237
X162.28Y-303.415
X162.28Y-304.915
X162.28Y-306.415
X162.28Y-307.915
X162.28Y-309.415
X162.28Y-310.915
X162.28Y-312.415
X162.28Y-313.915
X162.28Y-315.415
X162.28Y-316.915
X162.28Y-318.415
X162.28Y-319.915
X162.53Y-341.512
X162.64Y-338.355
X162.64Y-339.937
X162.64Y-349.646
X162.68Y-53.51
X163.286Y-348.751
X163.78Y-303.415
X163.78Y-304.915
X163.78Y-306.415
X163.78Y-307.915
X163.78Y-309.415
X163.78Y-310.915
X163.78Y-312.415
X163.78Y-313.915
X163.78Y-315.415
X163.78Y-316.915
X163.78Y-318.415
X163.78Y-319.915
X164.178Y-340.317
X164.18Y-53.51
X164.3Y-169.245
X164.3Y-170.245
X164.312Y-339.085
X164.312Y-350.498
X165.145Y-349.58
X165.28Y-303.415
X165.28Y-304.915
X165.28Y-306.415
X165.28Y-307.915
X165.28Y-309.415
X165.28Y-310.915
X165.28Y-312.415
X165.28Y-313.915
X165.28Y-315.415
X165.28Y-316.915
X165.28Y-318.415
X165.28Y-319.915
X165.68Y-53.51
X165.8Y-169.245
X165.8Y-170.245
X166.166Y-338.791
X166.166Y-350.791
X166.17Y-339.895
X166.78Y-303.415
X166.78Y-304.915
X166.78Y-306.415
X166.78Y-307.915
X166.78Y-309.415
X166.78Y-310.915
X166.78Y-312.415
X166.78Y-313.915
X166.78Y-315.415
X166.78Y-316.915
X166.78Y-318.415
X166.78Y-319.915
X167.18Y-53.51
X167.181Y-349.582
X167.3Y-169.245
X167.3Y-170.245
X167.39Y-125.695
X167.757Y-77.625
X168.021Y-339.085
X168.021Y-350.498
X168.161Y-340.32
X168.28Y-303.415
X168.28Y-304.915
X168.28Y-306.415
X168.28Y-307.915
X168.28Y-309.415
X168.28Y-310.915
X168.28Y-312.415
X168.28Y-313.915
X168.28Y-315.415
X168.28Y-316.915
X168.28Y-318.415
X168.28Y-319.915
X168.36Y-69.12
X168.36Y-70.62
X168.36Y-72.12
X168.36Y-73.62
X168.36Y-75.12
X168.643Y-77.625
X168.68Y-53.51
X168.8Y-169.245
X168.8Y-170.245
X169.042Y-348.755
X169.265Y-137.55
X169.4Y-126.535
X169.53Y-77.625
X169.693Y-339.937
X169.693Y-349.646
X169.78Y-303.415
X169.78Y-304.915
X169.78Y-306.415
X169.78Y-307.915
X169.78Y-309.415
X169.78Y-310.915
X169.78Y-312.415
X169.78Y-313.915
X169.78Y-315.415
X169.78Y-316.915
X169.78Y-318.415
X169.78Y-319.915
X169.808Y-341.518
X169.86Y-69.12
X169.86Y-70.62
X169.86Y-72.12
X169.86Y-73.62
X169.86Y-75.12
X170.18Y-53.51
X170.3Y-169.245
X170.3Y-170.245
X170.405Y-347.243
X170.417Y-77.625
X170.49Y-137.55
X170.824Y-343.282
X171.021Y-341.265
X171.021Y-348.318
X171.036Y-345.307
X171.28Y-303.415
X171.28Y-304.915
X171.28Y-306.415
X171.28Y-307.915
X171.28Y-309.415
X171.28Y-310.915
X171.28Y-312.415
X171.28Y-313.915
X171.28Y-315.415
X171.28Y-316.915
X171.28Y-318.415
X171.28Y-319.915
X171.36Y-69.12
X171.36Y-70.62
X171.36Y-72.12
X171.36Y-73.62
X171.36Y-75.12
X171.68Y-53.51
X171.8Y-169.245
X171.8Y-170.245
X171.873Y-342.937
X171.873Y-346.646
X172.166Y-344.791
X172.78Y-303.415
X172.78Y-304.915
X172.78Y-306.415
X172.78Y-307.915
X172.78Y-309.415
X172.78Y-310.915
X172.78Y-312.415
X172.78Y-313.915
X172.78Y-315.415
X172.78Y-316.915
X172.78Y-318.415
X172.78Y-319.915
X172.86Y-69.12
X172.86Y-70.62
X172.86Y-72.12
X172.86Y-73.62
X173.06Y-114.365
X173.18Y-53.51
X173.3Y-169.245
X173.3Y-170.245
X173.87Y-124.865
X174.28Y-303.415
X174.28Y-304.915
X174.28Y-306.415
X174.28Y-307.915
X174.28Y-309.415
X174.28Y-310.915
X174.28Y-312.415
X174.28Y-313.915
X174.28Y-315.415
X174.28Y-316.915
X174.28Y-318.415
X174.28Y-319.915
X174.36Y-69.12
X174.36Y-70.62
X174.36Y-72.12
X174.36Y-73.62
X174.42Y-93.055
X174.48Y-95.26
X174.68Y-53.51
X175.78Y-303.415
X175.78Y-304.915
X175.78Y-306.415
X175.78Y-307.915
X175.78Y-309.415
X175.78Y-310.915
X175.78Y-312.415
X175.78Y-313.915
X175.78Y-315.415
X175.78Y-316.915
X175.78Y-318.415
X175.78Y-319.915
X176.18Y-53.51
X176.29Y-95.28
X177.03Y-187.795
X177.03Y-189.295
X177.03Y-190.795
X177.03Y-192.295
X177.07Y-281.965
X177.07Y-283.465
X177.28Y-303.415
X177.28Y-304.915
X177.28Y-306.415
X177.28Y-307.915
X177.28Y-309.415
X177.28Y-310.915
X177.28Y-312.415
X177.28Y-313.915
X177.28Y-315.415
X177.28Y-316.915
X177.28Y-318.415
X177.28Y-319.915
X177.582Y-344.815
X177.68Y-53.51
X177.876Y-342.961
X177.876Y-346.669
X178.53Y-187.795
X178.53Y-189.295
X178.53Y-190.795
X178.53Y-192.295
X178.57Y-278.965
X178.57Y-280.465
X178.57Y-281.965
X178.57Y-283.465
X178.712Y-345.323
X178.728Y-341.288
X178.728Y-348.341
X178.78Y-303.415
X178.78Y-304.915
X178.78Y-306.415
X178.78Y-307.915
X178.78Y-309.415
X178.78Y-310.915
X178.78Y-312.415
X178.78Y-313.915
X178.78Y-315.415
X178.78Y-316.915
X178.78Y-318.415
X178.78Y-319.915
X178.926Y-343.298
X179.18Y-53.51
X179.34Y-347.26
X179.946Y-341.536
X180.03Y-187.795
X180.03Y-189.295
X180.03Y-190.795
X180.03Y-192.295
X180.055Y-339.961
X180.055Y-349.669
X180.07Y-277.465
X180.07Y-278.965
X180.07Y-280.465
X180.07Y-281.965
X180.07Y-283.465
X180.28Y-303.415
X180.28Y-304.915
X180.28Y-306.415
X180.28Y-307.915
X180.28Y-309.415
X180.28Y-310.915
X180.28Y-312.415
X180.28Y-313.915
X180.28Y-315.415
X180.28Y-316.915
X180.28Y-318.415
X180.28Y-319.915
X180.61Y-72.03
X180.61Y-73.1
X180.68Y-53.51
X180.701Y-348.774
X181.53Y-187.795
X181.53Y-189.295
X181.53Y-190.795
X181.53Y-192.295
X181.57Y-268.465
X181.57Y-269.965
X181.57Y-271.465
X181.57Y-272.965
X181.57Y-274.465
X181.57Y-275.965
X181.57Y-277.465
X181.57Y-278.965
X181.57Y-280.465
X181.57Y-280.465
X181.57Y-281.965
X181.57Y-281.965
X181.57Y-283.465
X181.594Y-340.34
X181.728Y-339.108
X181.728Y-350.521
X181.78Y-303.415
X181.78Y-304.915
X181.78Y-306.415
X181.78Y-307.915
X181.78Y-309.415
X181.78Y-310.915
X181.78Y-312.415
X181.78Y-313.915
X181.78Y-315.415
X181.78Y-316.915
X181.78Y-318.415
X182.18Y-53.51
X182.561Y-349.604
X183.03Y-187.795
X183.03Y-189.295
X183.03Y-190.795
X183.03Y-192.295
X183.07Y-268.465
X183.07Y-269.965
X183.07Y-271.465
X183.07Y-272.965
X183.07Y-274.465
X183.07Y-275.965
X183.07Y-277.465
X183.07Y-278.965
X183.07Y-280.465
X183.582Y-338.815
X183.582Y-350.815
X183.586Y-339.918
X183.68Y-53.51
X183.815Y-324.995
X183.915Y-335.64
X184.53Y-187.795
X184.53Y-189.295
X184.53Y-190.795
X184.53Y-192.295
X184.57Y-268.465
X184.57Y-269.965
X184.57Y-271.465
X184.57Y-272.965
X184.57Y-274.465
X184.57Y-275.965
X184.57Y-277.465
X184.57Y-278.965
X184.57Y-280.465
X184.597Y-349.605
X184.77Y-135.94
X184.77Y-137.44
X184.77Y-138.94
X184.77Y-140.44
X184.77Y-141.94
X184.77Y-143.44
X184.77Y-144.94
X185.07Y-334.105
X185.085Y-324.995
X185.18Y-53.51
X185.436Y-339.108
X185.436Y-350.521
X185.577Y-340.343
X186.03Y-187.795
X186.03Y-189.295
X186.03Y-190.795
X186.03Y-192.295
X186.07Y-268.465
X186.07Y-269.965
X186.07Y-271.465
X186.07Y-272.965
X186.07Y-274.465
X186.07Y-275.965
X186.07Y-277.465
X186.07Y-278.965
X186.07Y-280.465
X186.27Y-135.94
X186.27Y-137.44
X186.27Y-138.94
X186.27Y-140.44
X186.27Y-141.94
X186.27Y-143.44
X186.27Y-144.94
X186.457Y-348.778
X186.68Y-53.51
X186.75Y-107.365
X186.75Y-117.671
X187.109Y-339.961
X187.109Y-349.669
X187.223Y-341.541
X187.32Y-118.941
X187.53Y-187.795
X187.53Y-189.295
X187.53Y-190.795
X187.53Y-192.295
X187.57Y-268.465
X187.57Y-269.965
X187.57Y-271.465
X187.57Y-272.965
X187.57Y-274.465
X187.57Y-275.965
X187.57Y-277.465
X187.57Y-278.965
X187.57Y-280.465
X187.57Y-281.965
X187.58Y-104.845
X187.625Y-324.995
X187.77Y-135.94
X187.77Y-137.44
X187.77Y-138.94
X187.77Y-140.44
X187.77Y-141.94
X187.77Y-143.44
X187.77Y-144.94
X187.821Y-347.266
X188.18Y-53.51
X188.24Y-343.305
X188.436Y-341.288
X188.436Y-348.341
X188.451Y-345.33
X188.91Y-102.955
X189.03Y-187.795
X189.03Y-189.295
X189.03Y-190.795
X189.03Y-192.295
X189.07Y-268.465
X189.07Y-269.965
X189.07Y-271.465
X189.07Y-272.965
X189.07Y-274.465
X189.07Y-275.965
X189.07Y-277.465
X189.07Y-278.965
X189.07Y-280.465
X189.07Y-281.965
X189.27Y-137.44
X189.27Y-138.94
X189.27Y-140.44
X189.27Y-141.94
X189.27Y-143.44
X189.27Y-144.94
X189.288Y-342.961
X189.288Y-346.669
X189.582Y-344.815
X189.68Y-53.51
X189.9Y-106.575
X190.53Y-187.795
X190.53Y-189.295
X190.53Y-190.795
X190.53Y-192.295
X190.57Y-268.465
X190.57Y-269.965
X190.57Y-271.465
X190.57Y-272.965
X190.57Y-274.465
X190.57Y-275.965
X190.57Y-277.465
X190.57Y-278.965
X190.57Y-280.465
X190.57Y-281.965
X190.77Y-137.44
X190.77Y-138.94
X190.77Y-140.44
X190.77Y-141.94
X190.77Y-143.44
X190.77Y-144.94
X191.18Y-53.51
X192.07Y-268.465
X192.07Y-269.965
X192.07Y-271.465
X192.07Y-272.965
X192.07Y-274.465
X192.07Y-275.965
X192.07Y-277.465
X192.07Y-278.965
X192.07Y-280.465
X192.07Y-281.965
X192.27Y-135.94
X192.27Y-137.44
X192.27Y-138.94
X192.27Y-140.44
X192.27Y-141.94
X192.27Y-143.44
X192.27Y-144.94
X192.32Y-121.485
X192.62Y-95.945
X192.68Y-53.51
X193.57Y-268.465
X193.57Y-269.965
X193.57Y-271.465
X193.57Y-272.965
X193.57Y-274.465
X193.57Y-275.965
X193.57Y-277.465
X193.57Y-278.965
X193.57Y-280.465
X193.77Y-135.94
X193.77Y-137.44
X193.77Y-138.94
X193.77Y-140.44
X193.77Y-141.94
X193.77Y-143.44
X193.77Y-144.94
X194.18Y-53.51
X195.07Y-268.465
X195.07Y-269.965
X195.07Y-271.465
X195.07Y-272.965
X195.07Y-274.465
X195.07Y-275.965
X195.07Y-277.465
X195.07Y-278.965
X195.07Y-280.465
X195.27Y-135.94
X195.27Y-137.44
X195.27Y-138.94
X195.27Y-140.44
X195.27Y-141.94
X195.27Y-143.44
X195.27Y-144.94
X195.68Y-53.51
X196.57Y-268.465
X196.57Y-269.965
X196.57Y-271.465
X196.57Y-272.965
X196.57Y-274.465
X196.57Y-275.965
X196.57Y-277.465
X196.57Y-278.965
X196.57Y-280.465
X197.18Y-53.51
X198.07Y-268.465
X198.07Y-269.965
X198.07Y-271.465
X198.07Y-272.965
X198.07Y-274.465
X198.07Y-275.965
X198.07Y-277.465
X198.07Y-278.965
X198.07Y-280.465
X198.68Y-53.51
X199.07Y-327.365
X199.825Y-108.64
X200.18Y-53.51
X200.685Y-107.78
X201.68Y-53.51
X203.18Y-53.51
X204.68Y-53.51
X213.029Y-272.635
X215.559Y-275.805
X216.46Y-278.695
T2
X78.845Y-247.46
X79.438Y-246.028
X79.438Y-248.892
X79.99Y-346.615
X80.583Y-345.183
X80.583Y-348.047
X80.598Y-56.443
X80.598Y-59.307
X80.87Y-245.435
X80.87Y-249.485
X82.015Y-344.59
X82.015Y-348.64
X82.03Y-55.85
X82.03Y-59.9
X82.302Y-246.028
X82.302Y-248.892
X82.895Y-247.46
X83.447Y-345.183
X83.447Y-348.047
X83.462Y-56.443
X83.462Y-59.307
X84.04Y-346.615
X84.055Y-57.875
X99.257Y-195.635
X99.85Y-194.203
X99.85Y-197.067
X101.282Y-193.61
X101.282Y-197.66
X102.065Y-144.25
X102.658Y-142.818
X102.658Y-145.682
X102.714Y-194.203
X102.714Y-197.067
X103.307Y-195.635
X104.09Y-142.225
X104.09Y-146.275
X105.522Y-142.818
X105.522Y-145.682
X106.115Y-144.25
X117.425Y-56.465
X118.018Y-55.033
X118.018Y-57.897
X119.45Y-54.44
X119.45Y-58.49
X120.882Y-55.033
X120.882Y-57.897
X121.475Y-56.465
X195.975Y-247.46
X196.568Y-246.028
X196.568Y-248.892
X198.0Y-245.435
X198.0Y-249.485
X199.432Y-246.028
X199.432Y-248.892
X200.025Y-247.46
X210.477Y-346.537
X210.485Y-57.645
X210.485Y-136.775
X211.07Y-345.105
X211.07Y-347.969
X211.078Y-56.213
X211.078Y-59.077
X211.078Y-135.343
X211.078Y-138.207
X212.502Y-344.512
X212.502Y-348.562
X212.51Y-55.62
X212.51Y-59.67
X212.51Y-134.75
X212.51Y-138.8
X213.934Y-345.105
X213.934Y-347.969
X213.942Y-56.213
X213.942Y-59.077
X213.942Y-135.343
X213.942Y-138.207
X214.527Y-346.537
X214.535Y-57.645
X214.535Y-136.775
T3
X89.903Y-57.66
X90.892Y-55.274
X90.892Y-60.046
X93.278Y-54.285
X93.278Y-61.035
X95.664Y-55.274
X95.664Y-60.046
X96.653Y-57.66
X102.149Y-57.66
X103.138Y-55.274
X103.138Y-60.046
X105.524Y-54.285
X105.524Y-61.035
X107.91Y-55.274
X107.91Y-60.046
X108.899Y-57.66
X162.791Y-344.791
X163.78Y-342.405
X163.78Y-347.178
X166.166Y-341.416
X166.166Y-348.166
X168.553Y-342.405
X168.553Y-347.178
X169.541Y-344.791
X180.241Y-344.791
X181.23Y-342.405
X181.23Y-347.178
X183.616Y-341.416
X183.616Y-348.166
X186.003Y-342.405
X186.003Y-347.178
X186.991Y-344.791
T4
X93.8Y-75.785
X93.89Y-103.785
X108.8Y-75.785
X108.89Y-103.785
T5
X86.474Y-65.4
X86.474Y-80.4
X86.474Y-85.727
X86.474Y-100.727
X93.67Y-67.345
X108.67Y-67.345
X116.17Y-86.075
X116.17Y-101.075
X121.2Y-65.515
X121.2Y-80.515
X139.19Y-95.712
X139.19Y-98.252
X139.19Y-100.792
X142.83Y-95.712
X142.83Y-98.252
X142.83Y-100.792
X154.71Y-94.492
X154.71Y-97.032
X154.71Y-99.572
X158.46Y-94.492
X158.46Y-97.032
X158.46Y-99.572
X162.15Y-94.635
X162.15Y-97.175
X162.15Y-99.715
X162.15Y-102.255
X162.15Y-104.795
X162.15Y-107.335
X162.15Y-109.875
X162.15Y-112.415
X162.15Y-114.955
X162.15Y-117.495
X164.69Y-94.635
X164.69Y-97.175
X164.69Y-99.715
X164.69Y-102.255
X164.69Y-104.795
X164.69Y-107.335
X164.69Y-109.875
X164.69Y-112.415
X164.69Y-114.955
X164.69Y-117.495
X179.93Y-94.635
X179.93Y-97.175
X179.93Y-99.715
X179.93Y-102.255
X179.93Y-104.795
X179.93Y-107.335
X179.93Y-109.875
X179.93Y-112.415
X179.93Y-114.955
X179.93Y-117.495
X182.47Y-94.635
X182.47Y-97.175
X182.47Y-99.715
X182.47Y-102.255
X182.47Y-104.795
X182.47Y-107.335
X182.47Y-109.875
X182.47Y-112.415
X182.47Y-114.955
X182.47Y-117.495
X198.03Y-258.6
X208.03Y-258.6
X212.21Y-142.455
X212.21Y-152.455
X213.77Y-62.495
X213.77Y-72.495
T6
X196.67Y-162.385
X196.67Y-170.845
X196.67Y-180.505
X196.67Y-190.555
X196.67Y-200.605
X196.67Y-210.655
X196.67Y-218.305
X196.67Y-227.505
X211.67Y-162.385
X211.67Y-170.845
X211.67Y-180.505
X211.67Y-190.555
X211.67Y-200.605
X211.67Y-210.655
X211.67Y-218.305
X211.67Y-227.505
T7
X148.53Y-158.795
X176.03Y-158.795
T8
X83.47Y-278.265
X88.92Y-278.265
X94.37Y-278.265
X126.61Y-150.475
X132.06Y-150.475
X137.51Y-150.475
X184.54Y-151.165
X184.775Y-285.335
X189.99Y-151.165
X190.225Y-285.335
X195.44Y-151.165
X195.675Y-285.335
T9
X80.87Y-247.46
X82.015Y-346.615
X82.03Y-57.875
X82.03Y-57.875
X101.282Y-195.635
X104.09Y-144.25
X119.45Y-56.465
X198.0Y-247.46
X212.502Y-346.537
X212.51Y-57.645
X212.51Y-136.775
T10
X93.278Y-57.66
X105.524Y-57.66
X166.166Y-344.791
X183.616Y-344.791
M30
