%TF.GenerationSoftware,KiCad,Pcbnew,9.0.3*%
%TF.CreationDate,2025-10-14T12:27:29+02:00*%
%TF.ProjectId,TEST_JLC_PCB,54455354-5f4a-44c4-935f-5043422e6b69,rev?*%
%TF.SameCoordinates,Original*%
%TF.FileFunction,Copper,L1,Top*%
%TF.FilePolarity,Positive*%
%FSLAX46Y46*%
G04 Gerber Fmt 4.6, Leading zero omitted, Abs format (unit mm)*
G04 Created by KiCad (PCBNEW 9.0.3) date 2025-10-14 12:27:29*
%MOMM*%
%LPD*%
G01*
G04 APERTURE LIST*
G04 Aperture macros list*
%AMRoundRect*
0 Rectangle with rounded corners*
0 $1 Rounding radius*
0 $2 $3 $4 $5 $6 $7 $8 $9 X,Y pos of 4 corners*
0 Add a 4 corners polygon primitive as box body*
4,1,4,$2,$3,$4,$5,$6,$7,$8,$9,$2,$3,0*
0 Add four circle primitives for the rounded corners*
1,1,$1+$1,$2,$3*
1,1,$1+$1,$4,$5*
1,1,$1+$1,$6,$7*
1,1,$1+$1,$8,$9*
0 Add four rect primitives between the rounded corners*
20,1,$1+$1,$2,$3,$4,$5,0*
20,1,$1+$1,$4,$5,$6,$7,0*
20,1,$1+$1,$6,$7,$8,$9,0*
20,1,$1+$1,$8,$9,$2,$3,0*%
G04 Aperture macros list end*
%TA.AperFunction,SMDPad,CuDef*%
%ADD10RoundRect,0.250000X0.325000X0.650000X-0.325000X0.650000X-0.325000X-0.650000X0.325000X-0.650000X0*%
%TD*%
%TA.AperFunction,ComponentPad*%
%ADD11R,1.600000X1.500000*%
%TD*%
%TA.AperFunction,ComponentPad*%
%ADD12C,1.600000*%
%TD*%
%TA.AperFunction,ComponentPad*%
%ADD13C,3.000000*%
%TD*%
%TA.AperFunction,SMDPad,CuDef*%
%ADD14RoundRect,0.250000X-0.550000X1.500000X-0.550000X-1.500000X0.550000X-1.500000X0.550000X1.500000X0*%
%TD*%
%TA.AperFunction,ComponentPad*%
%ADD15R,4.000000X2.000000*%
%TD*%
%TA.AperFunction,ComponentPad*%
%ADD16O,3.300000X2.000000*%
%TD*%
%TA.AperFunction,ComponentPad*%
%ADD17O,2.000000X3.500000*%
%TD*%
%TA.AperFunction,SMDPad,CuDef*%
%ADD18RoundRect,0.250000X-0.650000X0.325000X-0.650000X-0.325000X0.650000X-0.325000X0.650000X0.325000X0*%
%TD*%
%TA.AperFunction,SMDPad,CuDef*%
%ADD19RoundRect,0.250002X1.799998X1.799998X-1.799998X1.799998X-1.799998X-1.799998X1.799998X-1.799998X0*%
%TD*%
%TA.AperFunction,SMDPad,CuDef*%
%ADD20RoundRect,0.250000X0.300000X-2.050000X0.300000X2.050000X-0.300000X2.050000X-0.300000X-2.050000X0*%
%TD*%
%TA.AperFunction,SMDPad,CuDef*%
%ADD21RoundRect,0.250002X5.149998X-4.449998X5.149998X4.449998X-5.149998X4.449998X-5.149998X-4.449998X0*%
%TD*%
%TA.AperFunction,SMDPad,CuDef*%
%ADD22RoundRect,0.250000X-0.650000X1.000000X-0.650000X-1.000000X0.650000X-1.000000X0.650000X1.000000X0*%
%TD*%
%TA.AperFunction,SMDPad,CuDef*%
%ADD23RoundRect,0.250000X-0.325000X-0.650000X0.325000X-0.650000X0.325000X0.650000X-0.325000X0.650000X0*%
%TD*%
%TA.AperFunction,Conductor*%
%ADD24C,1.000000*%
%TD*%
G04 APERTURE END LIST*
D10*
%TO.P,C5,1*%
%TO.N,VIN*%
X99135000Y-68170000D03*
%TO.P,C5,2*%
%TO.N,Net-(C1-Pad2)*%
X96185000Y-68170000D03*
%TD*%
D11*
%TO.P,J1,1,VBUS*%
%TO.N,VOUT*%
X131630000Y-64800000D03*
D12*
%TO.P,J1,2,D-*%
%TO.N,unconnected-(J1-D--Pad2)*%
X129130000Y-64800000D03*
%TO.P,J1,3,D+*%
%TO.N,unconnected-(J1-D+-Pad3)*%
X127130000Y-64800000D03*
%TO.P,J1,4,GND*%
%TO.N,GND*%
X124630000Y-64800000D03*
D13*
%TO.P,J1,5,Shield*%
X134700000Y-62090000D03*
X121560000Y-62090000D03*
%TD*%
D14*
%TO.P,C1,1*%
%TO.N,VIN*%
X97060000Y-71570000D03*
%TO.P,C1,2*%
%TO.N,Net-(C1-Pad2)*%
X97060000Y-76970000D03*
%TD*%
D15*
%TO.P,J2,1*%
%TO.N,GND*%
X99230000Y-63900000D03*
D16*
%TO.P,J2,2*%
%TO.N,VIN*%
X99230000Y-57900000D03*
D17*
%TO.P,J2,MP*%
%TO.N,N/C*%
X103730000Y-56900000D03*
X94730000Y-56900000D03*
%TD*%
D18*
%TO.P,C3,1*%
%TO.N,VOUT*%
X134360000Y-74020000D03*
%TO.P,C3,2*%
%TO.N,GND*%
X134360000Y-76970000D03*
%TD*%
D19*
%TO.P,L1,1,1*%
%TO.N,VOUT*%
X120025000Y-74060000D03*
%TO.P,L1,2,2*%
%TO.N,Net-(D1-K)*%
X110525000Y-74060000D03*
%TD*%
D20*
%TO.P,U2,1,VIN*%
%TO.N,VIN*%
X107920000Y-66080000D03*
%TO.P,U2,2,OUT*%
%TO.N,Net-(D1-K)*%
X109620000Y-66080000D03*
%TO.P,U2,3,GND*%
%TO.N,GND*%
X111320000Y-66080000D03*
D21*
X111320000Y-56930000D03*
D20*
%TO.P,U2,4,FB*%
%TO.N,VOUT*%
X113020000Y-66080000D03*
%TO.P,U2,5,~{ON}/OFF*%
%TO.N,GND*%
X114720000Y-66080000D03*
%TD*%
D14*
%TO.P,C2,1*%
%TO.N,VOUT*%
X127780000Y-71320000D03*
%TO.P,C2,2*%
%TO.N,GND*%
X127780000Y-76720000D03*
%TD*%
D22*
%TO.P,D1,1,K*%
%TO.N,Net-(D1-K)*%
X104582500Y-72560000D03*
%TO.P,D1,2,A*%
%TO.N,GND*%
X104582500Y-76560000D03*
%TD*%
D23*
%TO.P,C4,1*%
%TO.N,VOUT*%
X132490000Y-69860000D03*
%TO.P,C4,2*%
%TO.N,GND*%
X135440000Y-69860000D03*
%TD*%
D24*
%TO.N,VOUT*%
X131630000Y-69000000D02*
X132490000Y-69860000D01*
X127780000Y-71320000D02*
X131030000Y-71320000D01*
X122765000Y-71320000D02*
X120025000Y-74060000D01*
X127780000Y-71320000D02*
X122765000Y-71320000D01*
X131630000Y-64800000D02*
X131630000Y-69000000D01*
X131030000Y-71320000D02*
X132490000Y-69860000D01*
X118700000Y-74060000D02*
X120025000Y-74060000D01*
X134360000Y-74020000D02*
X134360000Y-71730000D01*
X113020000Y-68380000D02*
X118700000Y-74060000D01*
X134360000Y-71730000D02*
X132490000Y-69860000D01*
X113020000Y-66080000D02*
X113020000Y-68380000D01*
%TO.N,VIN*%
X97060000Y-71570000D02*
X98920000Y-71570000D01*
X103255000Y-61415000D02*
X103255000Y-66080000D01*
X103255000Y-66080000D02*
X107920000Y-66080000D01*
X98920000Y-71570000D02*
X103255000Y-67235000D01*
X99740000Y-57900000D02*
X103255000Y-61415000D01*
X99135000Y-68170000D02*
X102320000Y-68170000D01*
X99230000Y-57900000D02*
X99740000Y-57900000D01*
X102320000Y-68170000D02*
X103255000Y-67235000D01*
X103255000Y-67235000D02*
X103255000Y-61415000D01*
%TO.N,Net-(D1-K)*%
X109025000Y-72560000D02*
X110525000Y-74060000D01*
X109620000Y-73155000D02*
X109620000Y-66080000D01*
X104582500Y-72560000D02*
X109025000Y-72560000D01*
X110525000Y-74060000D02*
X109620000Y-73155000D01*
%TD*%
%TA.AperFunction,Conductor*%
%TO.N,GND*%
G36*
X136562539Y-51120185D02*
G01*
X136608294Y-51172989D01*
X136619500Y-51224500D01*
X136619500Y-60951898D01*
X136599815Y-61018937D01*
X136547011Y-61064692D01*
X136477853Y-61074636D01*
X136414297Y-61045611D01*
X136388113Y-61013899D01*
X136366506Y-60976476D01*
X136366505Y-60976475D01*
X136279918Y-60863633D01*
X136279917Y-60863633D01*
X135672085Y-61471465D01*
X135577171Y-61340825D01*
X135449175Y-61212829D01*
X135318532Y-61117912D01*
X135926365Y-60510080D01*
X135813524Y-60423494D01*
X135813516Y-60423488D01*
X135586482Y-60292409D01*
X135586471Y-60292404D01*
X135344255Y-60192075D01*
X135091020Y-60124222D01*
X135091009Y-60124220D01*
X134831094Y-60090000D01*
X134568905Y-60090000D01*
X134308990Y-60124220D01*
X134308979Y-60124222D01*
X134055744Y-60192075D01*
X133813528Y-60292404D01*
X133813517Y-60292409D01*
X133586471Y-60423496D01*
X133473633Y-60510079D01*
X133473633Y-60510080D01*
X134081466Y-61117913D01*
X133950825Y-61212829D01*
X133822829Y-61340825D01*
X133727913Y-61471466D01*
X133120080Y-60863633D01*
X133120079Y-60863633D01*
X133033496Y-60976471D01*
X132902409Y-61203517D01*
X132902404Y-61203528D01*
X132802075Y-61445744D01*
X132734222Y-61698979D01*
X132734220Y-61698990D01*
X132700000Y-61958905D01*
X132700000Y-62221094D01*
X132734220Y-62481009D01*
X132734222Y-62481020D01*
X132802075Y-62734255D01*
X132902404Y-62976471D01*
X132902409Y-62976482D01*
X133033488Y-63203516D01*
X133033494Y-63203524D01*
X133120080Y-63316365D01*
X133727912Y-62708532D01*
X133822829Y-62839175D01*
X133950825Y-62967171D01*
X134081465Y-63062086D01*
X133473633Y-63669917D01*
X133473633Y-63669918D01*
X133586475Y-63756505D01*
X133586483Y-63756511D01*
X133813517Y-63887590D01*
X133813528Y-63887595D01*
X134055744Y-63987924D01*
X134308979Y-64055777D01*
X134308990Y-64055779D01*
X134568905Y-64089999D01*
X134568920Y-64090000D01*
X134831080Y-64090000D01*
X134831094Y-64089999D01*
X135091009Y-64055779D01*
X135091020Y-64055777D01*
X135344255Y-63987924D01*
X135586471Y-63887595D01*
X135586482Y-63887590D01*
X135813516Y-63756511D01*
X135813534Y-63756499D01*
X135926365Y-63669919D01*
X135926365Y-63669917D01*
X135318534Y-63062086D01*
X135449175Y-62967171D01*
X135577171Y-62839175D01*
X135672086Y-62708534D01*
X136279917Y-63316365D01*
X136279919Y-63316365D01*
X136366499Y-63203534D01*
X136366510Y-63203517D01*
X136388113Y-63166101D01*
X136438680Y-63117886D01*
X136507287Y-63104662D01*
X136572151Y-63130630D01*
X136612680Y-63187544D01*
X136619500Y-63228101D01*
X136619500Y-68729484D01*
X136599815Y-68796523D01*
X136547011Y-68842278D01*
X136477853Y-68852222D01*
X136414297Y-68823197D01*
X136389961Y-68794581D01*
X136357315Y-68741654D01*
X136233345Y-68617684D01*
X136084124Y-68525643D01*
X136084119Y-68525641D01*
X135917697Y-68470494D01*
X135917690Y-68470493D01*
X135814986Y-68460000D01*
X135690000Y-68460000D01*
X135690000Y-71259999D01*
X135814972Y-71259999D01*
X135814986Y-71259998D01*
X135917697Y-71249505D01*
X136084119Y-71194358D01*
X136084124Y-71194356D01*
X136233345Y-71102315D01*
X136357317Y-70978343D01*
X136389961Y-70925419D01*
X136441908Y-70878694D01*
X136510871Y-70867471D01*
X136574953Y-70895314D01*
X136613810Y-70953383D01*
X136619500Y-70990515D01*
X136619500Y-79495500D01*
X136599815Y-79562539D01*
X136547011Y-79608294D01*
X136495500Y-79619500D01*
X92984500Y-79619500D01*
X92917461Y-79599815D01*
X92871706Y-79547011D01*
X92860500Y-79495500D01*
X92860500Y-75419983D01*
X95759500Y-75419983D01*
X95759500Y-78520001D01*
X95759501Y-78520018D01*
X95770000Y-78622796D01*
X95770001Y-78622799D01*
X95791721Y-78688345D01*
X95825186Y-78789334D01*
X95917288Y-78938656D01*
X96041344Y-79062712D01*
X96190666Y-79154814D01*
X96357203Y-79209999D01*
X96459991Y-79220500D01*
X97660008Y-79220499D01*
X97762797Y-79209999D01*
X97929334Y-79154814D01*
X98078656Y-79062712D01*
X98202712Y-78938656D01*
X98294814Y-78789334D01*
X98349999Y-78622797D01*
X98360500Y-78520009D01*
X98360500Y-77609986D01*
X103182501Y-77609986D01*
X103192994Y-77712697D01*
X103248141Y-77879119D01*
X103248143Y-77879124D01*
X103340184Y-78028345D01*
X103464154Y-78152315D01*
X103613375Y-78244356D01*
X103613380Y-78244358D01*
X103779802Y-78299505D01*
X103779809Y-78299506D01*
X103882519Y-78309999D01*
X104332499Y-78309999D01*
X104832500Y-78309999D01*
X105282472Y-78309999D01*
X105282486Y-78309998D01*
X105385197Y-78299505D01*
X105474279Y-78269986D01*
X126480001Y-78269986D01*
X126490494Y-78372697D01*
X126545641Y-78539119D01*
X126545643Y-78539124D01*
X126637684Y-78688345D01*
X126761654Y-78812315D01*
X126910875Y-78904356D01*
X126910880Y-78904358D01*
X127077302Y-78959505D01*
X127077309Y-78959506D01*
X127180019Y-78969999D01*
X127529999Y-78969999D01*
X128030000Y-78969999D01*
X128379972Y-78969999D01*
X128379986Y-78969998D01*
X128482697Y-78959505D01*
X128649119Y-78904358D01*
X128649124Y-78904356D01*
X128798345Y-78812315D01*
X128922315Y-78688345D01*
X129014356Y-78539124D01*
X129014358Y-78539119D01*
X129069505Y-78372697D01*
X129069506Y-78372690D01*
X129079999Y-78269986D01*
X129080000Y-78269973D01*
X129080000Y-77344986D01*
X132960001Y-77344986D01*
X132970494Y-77447697D01*
X133025641Y-77614119D01*
X133025643Y-77614124D01*
X133117684Y-77763345D01*
X133241654Y-77887315D01*
X133390875Y-77979356D01*
X133390880Y-77979358D01*
X133557302Y-78034505D01*
X133557309Y-78034506D01*
X133660019Y-78044999D01*
X134109999Y-78044999D01*
X134610000Y-78044999D01*
X135059972Y-78044999D01*
X135059986Y-78044998D01*
X135162697Y-78034505D01*
X135329119Y-77979358D01*
X135329124Y-77979356D01*
X135478345Y-77887315D01*
X135602315Y-77763345D01*
X135694356Y-77614124D01*
X135694358Y-77614119D01*
X135749505Y-77447697D01*
X135749506Y-77447690D01*
X135759999Y-77344986D01*
X135760000Y-77344973D01*
X135760000Y-77220000D01*
X134610000Y-77220000D01*
X134610000Y-78044999D01*
X134109999Y-78044999D01*
X134110000Y-78044998D01*
X134110000Y-77220000D01*
X132960001Y-77220000D01*
X132960001Y-77344986D01*
X129080000Y-77344986D01*
X129080000Y-76970000D01*
X128030000Y-76970000D01*
X128030000Y-78969999D01*
X127529999Y-78969999D01*
X127530000Y-78969998D01*
X127530000Y-76970000D01*
X126480001Y-76970000D01*
X126480001Y-78269986D01*
X105474279Y-78269986D01*
X105551619Y-78244358D01*
X105551624Y-78244356D01*
X105700845Y-78152315D01*
X105824815Y-78028345D01*
X105916856Y-77879124D01*
X105916858Y-77879119D01*
X105972005Y-77712697D01*
X105972006Y-77712690D01*
X105982499Y-77609986D01*
X105982500Y-77609973D01*
X105982500Y-76810000D01*
X104832500Y-76810000D01*
X104832500Y-78309999D01*
X104332499Y-78309999D01*
X104332500Y-78309998D01*
X104332500Y-76810000D01*
X103182501Y-76810000D01*
X103182501Y-77609986D01*
X98360500Y-77609986D01*
X98360499Y-75510013D01*
X103182500Y-75510013D01*
X103182500Y-76310000D01*
X104332500Y-76310000D01*
X104832500Y-76310000D01*
X105982499Y-76310000D01*
X105982499Y-75510028D01*
X105982498Y-75510013D01*
X105972005Y-75407302D01*
X105916858Y-75240880D01*
X105916856Y-75240875D01*
X105824815Y-75091654D01*
X105700845Y-74967684D01*
X105551624Y-74875643D01*
X105551619Y-74875641D01*
X105385197Y-74820494D01*
X105385190Y-74820493D01*
X105282486Y-74810000D01*
X104832500Y-74810000D01*
X104832500Y-76310000D01*
X104332500Y-76310000D01*
X104332500Y-74810000D01*
X103882528Y-74810000D01*
X103882512Y-74810001D01*
X103779802Y-74820494D01*
X103613380Y-74875641D01*
X103613375Y-74875643D01*
X103464154Y-74967684D01*
X103340184Y-75091654D01*
X103248143Y-75240875D01*
X103248141Y-75240880D01*
X103192994Y-75407302D01*
X103192993Y-75407309D01*
X103182500Y-75510013D01*
X98360499Y-75510013D01*
X98360499Y-75419992D01*
X98359203Y-75407309D01*
X98349999Y-75317203D01*
X98349998Y-75317200D01*
X98324706Y-75240875D01*
X98294814Y-75150666D01*
X98202712Y-75001344D01*
X98078656Y-74877288D01*
X97975493Y-74813657D01*
X97929336Y-74785187D01*
X97929331Y-74785185D01*
X97927862Y-74784698D01*
X97762797Y-74730001D01*
X97762795Y-74730000D01*
X97660010Y-74719500D01*
X96459998Y-74719500D01*
X96459981Y-74719501D01*
X96357203Y-74730000D01*
X96357200Y-74730001D01*
X96190668Y-74785185D01*
X96190663Y-74785187D01*
X96041342Y-74877289D01*
X95917289Y-75001342D01*
X95825187Y-75150663D01*
X95825185Y-75150668D01*
X95818775Y-75170013D01*
X95770001Y-75317203D01*
X95770001Y-75317204D01*
X95770000Y-75317204D01*
X95759500Y-75419983D01*
X92860500Y-75419983D01*
X92860500Y-67469983D01*
X95109500Y-67469983D01*
X95109500Y-68870001D01*
X95109501Y-68870018D01*
X95120000Y-68972796D01*
X95120001Y-68972799D01*
X95175185Y-69139331D01*
X95175187Y-69139336D01*
X95210069Y-69195888D01*
X95267288Y-69288656D01*
X95391344Y-69412712D01*
X95540666Y-69504814D01*
X95707203Y-69559999D01*
X95732047Y-69562537D01*
X95796739Y-69588932D01*
X95836891Y-69646113D01*
X95839755Y-69715924D01*
X95827939Y-69743977D01*
X95828240Y-69744118D01*
X95825185Y-69750668D01*
X95816413Y-69777140D01*
X95770001Y-69917203D01*
X95770001Y-69917204D01*
X95770000Y-69917204D01*
X95759500Y-70019983D01*
X95759500Y-73120001D01*
X95759501Y-73120018D01*
X95770000Y-73222796D01*
X95770001Y-73222799D01*
X95825185Y-73389331D01*
X95825187Y-73389336D01*
X95860069Y-73445888D01*
X95917288Y-73538656D01*
X96041344Y-73662712D01*
X96190666Y-73754814D01*
X96357203Y-73809999D01*
X96459991Y-73820500D01*
X97660008Y-73820499D01*
X97762797Y-73809999D01*
X97929334Y-73754814D01*
X98078656Y-73662712D01*
X98202712Y-73538656D01*
X98294814Y-73389334D01*
X98349999Y-73222797D01*
X98360500Y-73120009D01*
X98360500Y-72694500D01*
X98380185Y-72627461D01*
X98432989Y-72581706D01*
X98484500Y-72570500D01*
X99018542Y-72570500D01*
X99032832Y-72567657D01*
X99115188Y-72551275D01*
X99211836Y-72532051D01*
X99271978Y-72507139D01*
X99393914Y-72456632D01*
X99557782Y-72347139D01*
X99697139Y-72207782D01*
X99697140Y-72207779D01*
X99704206Y-72200714D01*
X99704209Y-72200710D01*
X102957778Y-68947141D01*
X102957782Y-68947139D01*
X103097139Y-68807782D01*
X103097141Y-68807778D01*
X103455586Y-68449334D01*
X104032140Y-67872781D01*
X104141632Y-67708914D01*
X104217052Y-67526835D01*
X104255500Y-67333540D01*
X104255500Y-67204500D01*
X104275185Y-67137461D01*
X104327989Y-67091706D01*
X104379500Y-67080500D01*
X106745501Y-67080500D01*
X106812540Y-67100185D01*
X106858295Y-67152989D01*
X106869501Y-67204500D01*
X106869501Y-68180018D01*
X106880000Y-68282796D01*
X106880001Y-68282799D01*
X106935185Y-68449331D01*
X106935187Y-68449336D01*
X106953201Y-68478541D01*
X107027288Y-68598656D01*
X107151344Y-68722712D01*
X107300666Y-68814814D01*
X107467203Y-68869999D01*
X107569991Y-68880500D01*
X108270008Y-68880499D01*
X108270016Y-68880498D01*
X108270019Y-68880498D01*
X108326302Y-68874748D01*
X108372797Y-68869999D01*
X108456498Y-68842262D01*
X108526323Y-68839861D01*
X108586365Y-68875592D01*
X108617558Y-68938112D01*
X108619500Y-68959969D01*
X108619500Y-71414787D01*
X108612635Y-71438163D01*
X108609999Y-71462390D01*
X108602966Y-71471093D01*
X108599815Y-71481826D01*
X108581402Y-71497780D01*
X108566086Y-71516736D01*
X108550623Y-71524450D01*
X108547011Y-71527581D01*
X108534505Y-71532493D01*
X108512409Y-71539815D01*
X108471997Y-71553206D01*
X108432994Y-71559500D01*
X106100035Y-71559500D01*
X106032996Y-71539815D01*
X105987241Y-71487011D01*
X105976677Y-71448102D01*
X105975662Y-71438164D01*
X105972499Y-71407203D01*
X105917314Y-71240666D01*
X105825212Y-71091344D01*
X105701156Y-70967288D01*
X105584467Y-70895314D01*
X105551836Y-70875187D01*
X105551831Y-70875185D01*
X105550362Y-70874698D01*
X105385297Y-70820001D01*
X105385295Y-70820000D01*
X105282510Y-70809500D01*
X103882498Y-70809500D01*
X103882481Y-70809501D01*
X103779703Y-70820000D01*
X103779700Y-70820001D01*
X103613168Y-70875185D01*
X103613163Y-70875187D01*
X103463842Y-70967289D01*
X103339789Y-71091342D01*
X103247687Y-71240663D01*
X103247685Y-71240668D01*
X103236335Y-71274920D01*
X103192501Y-71407203D01*
X103192501Y-71407204D01*
X103192500Y-71407204D01*
X103182000Y-71509983D01*
X103182000Y-73610001D01*
X103182001Y-73610018D01*
X103192500Y-73712796D01*
X103192501Y-73712799D01*
X103228190Y-73820499D01*
X103247686Y-73879334D01*
X103339788Y-74028656D01*
X103463844Y-74152712D01*
X103613166Y-74244814D01*
X103779703Y-74299999D01*
X103882491Y-74310500D01*
X105282508Y-74310499D01*
X105385297Y-74299999D01*
X105551834Y-74244814D01*
X105701156Y-74152712D01*
X105825212Y-74028656D01*
X105917314Y-73879334D01*
X105972499Y-73712797D01*
X105976677Y-73671896D01*
X106003073Y-73607207D01*
X106060253Y-73567055D01*
X106100035Y-73560500D01*
X107850500Y-73560500D01*
X107917539Y-73580185D01*
X107963294Y-73632989D01*
X107974500Y-73684500D01*
X107974500Y-75909999D01*
X107974501Y-75910016D01*
X107985000Y-76012795D01*
X107985001Y-76012798D01*
X108039298Y-76176654D01*
X108040186Y-76179333D01*
X108132289Y-76328655D01*
X108256345Y-76452711D01*
X108405667Y-76544814D01*
X108572204Y-76599999D01*
X108674993Y-76610500D01*
X112375006Y-76610499D01*
X112477796Y-76599999D01*
X112644333Y-76544814D01*
X112793655Y-76452711D01*
X112917711Y-76328655D01*
X113009814Y-76179333D01*
X113064999Y-76012796D01*
X113075500Y-75910007D01*
X113075499Y-72209994D01*
X113064999Y-72107204D01*
X113009814Y-71940667D01*
X112917711Y-71791345D01*
X112793655Y-71667289D01*
X112644333Y-71575186D01*
X112477796Y-71520001D01*
X112477794Y-71520000D01*
X112375014Y-71509500D01*
X112375007Y-71509500D01*
X110744500Y-71509500D01*
X110677461Y-71489815D01*
X110631706Y-71437011D01*
X110620500Y-71385500D01*
X110620500Y-68959443D01*
X110640185Y-68892404D01*
X110692989Y-68846649D01*
X110762147Y-68836705D01*
X110783504Y-68841737D01*
X110867302Y-68869505D01*
X110867309Y-68869506D01*
X110970019Y-68879999D01*
X111070000Y-68879998D01*
X111070000Y-63280000D01*
X111570000Y-63280000D01*
X111570000Y-68879999D01*
X111669972Y-68879999D01*
X111669986Y-68879998D01*
X111772697Y-68869505D01*
X111939119Y-68814358D01*
X111939125Y-68814355D01*
X111957031Y-68803311D01*
X112024423Y-68784870D01*
X112091087Y-68805791D01*
X112131489Y-68850399D01*
X112133369Y-68853916D01*
X112242860Y-69017781D01*
X112242863Y-69017785D01*
X112386537Y-69161459D01*
X112386559Y-69161479D01*
X117438181Y-74213101D01*
X117471666Y-74274424D01*
X117474500Y-74300782D01*
X117474500Y-75909999D01*
X117474501Y-75910016D01*
X117485000Y-76012795D01*
X117485001Y-76012798D01*
X117539298Y-76176654D01*
X117540186Y-76179333D01*
X117632289Y-76328655D01*
X117756345Y-76452711D01*
X117905667Y-76544814D01*
X118072204Y-76599999D01*
X118174993Y-76610500D01*
X121875006Y-76610499D01*
X121977796Y-76599999D01*
X121992843Y-76595013D01*
X132960000Y-76595013D01*
X132960000Y-76720000D01*
X134110000Y-76720000D01*
X134610000Y-76720000D01*
X135759999Y-76720000D01*
X135759999Y-76595028D01*
X135759998Y-76595013D01*
X135749505Y-76492302D01*
X135694358Y-76325880D01*
X135694356Y-76325875D01*
X135602315Y-76176654D01*
X135478345Y-76052684D01*
X135329124Y-75960643D01*
X135329119Y-75960641D01*
X135162697Y-75905494D01*
X135162690Y-75905493D01*
X135059986Y-75895000D01*
X134610000Y-75895000D01*
X134610000Y-76720000D01*
X134110000Y-76720000D01*
X134110000Y-75895000D01*
X133660028Y-75895000D01*
X133660012Y-75895001D01*
X133557302Y-75905494D01*
X133390880Y-75960641D01*
X133390875Y-75960643D01*
X133241654Y-76052684D01*
X133117684Y-76176654D01*
X133025643Y-76325875D01*
X133025641Y-76325880D01*
X132970494Y-76492302D01*
X132970493Y-76492309D01*
X132960000Y-76595013D01*
X121992843Y-76595013D01*
X122144333Y-76544814D01*
X122293655Y-76452711D01*
X122417711Y-76328655D01*
X122509814Y-76179333D01*
X122564999Y-76012796D01*
X122575500Y-75910007D01*
X122575500Y-75170013D01*
X126480000Y-75170013D01*
X126480000Y-76470000D01*
X127530000Y-76470000D01*
X128030000Y-76470000D01*
X129079999Y-76470000D01*
X129079999Y-75170028D01*
X129079998Y-75170013D01*
X129069505Y-75067302D01*
X129014358Y-74900880D01*
X129014356Y-74900875D01*
X128922315Y-74751654D01*
X128798345Y-74627684D01*
X128649124Y-74535643D01*
X128649119Y-74535641D01*
X128482697Y-74480494D01*
X128482690Y-74480493D01*
X128379986Y-74470000D01*
X128030000Y-74470000D01*
X128030000Y-76470000D01*
X127530000Y-76470000D01*
X127530000Y-74470000D01*
X127180028Y-74470000D01*
X127180012Y-74470001D01*
X127077302Y-74480494D01*
X126910880Y-74535641D01*
X126910875Y-74535643D01*
X126761654Y-74627684D01*
X126637684Y-74751654D01*
X126545643Y-74900875D01*
X126545641Y-74900880D01*
X126490494Y-75067302D01*
X126490493Y-75067309D01*
X126480000Y-75170013D01*
X122575500Y-75170013D01*
X122575499Y-74395019D01*
X122575499Y-72975782D01*
X122595184Y-72908743D01*
X122611818Y-72888101D01*
X123143101Y-72356819D01*
X123204424Y-72323334D01*
X123230782Y-72320500D01*
X126355501Y-72320500D01*
X126422540Y-72340185D01*
X126468295Y-72392989D01*
X126479501Y-72444500D01*
X126479501Y-72870018D01*
X126490000Y-72972796D01*
X126490001Y-72972799D01*
X126508760Y-73029409D01*
X126545186Y-73139334D01*
X126637288Y-73288656D01*
X126761344Y-73412712D01*
X126910666Y-73504814D01*
X127077203Y-73559999D01*
X127179991Y-73570500D01*
X128380008Y-73570499D01*
X128482797Y-73559999D01*
X128649334Y-73504814D01*
X128798656Y-73412712D01*
X128922712Y-73288656D01*
X129014814Y-73139334D01*
X129069999Y-72972797D01*
X129080500Y-72870009D01*
X129080500Y-72444500D01*
X129100185Y-72377461D01*
X129152989Y-72331706D01*
X129204500Y-72320500D01*
X131128542Y-72320500D01*
X131159566Y-72314328D01*
X131225188Y-72301275D01*
X131321836Y-72282051D01*
X131375165Y-72259961D01*
X131503914Y-72206632D01*
X131667782Y-72097139D01*
X131807139Y-71957782D01*
X131807140Y-71957779D01*
X131814206Y-71950714D01*
X131814209Y-71950710D01*
X132402320Y-71362598D01*
X132463641Y-71329115D01*
X132533333Y-71334099D01*
X132577677Y-71362598D01*
X133006423Y-71791343D01*
X133323181Y-72108101D01*
X133356666Y-72169424D01*
X133359500Y-72195782D01*
X133359500Y-72960201D01*
X133339815Y-73027240D01*
X133300598Y-73065739D01*
X133241344Y-73102287D01*
X133117289Y-73226342D01*
X133025187Y-73375663D01*
X133025186Y-73375666D01*
X132970001Y-73542203D01*
X132970001Y-73542204D01*
X132970000Y-73542204D01*
X132959500Y-73644983D01*
X132959500Y-74395001D01*
X132959501Y-74395019D01*
X132970000Y-74497796D01*
X132970001Y-74497799D01*
X133013041Y-74627684D01*
X133025186Y-74664334D01*
X133117288Y-74813656D01*
X133241344Y-74937712D01*
X133390666Y-75029814D01*
X133557203Y-75084999D01*
X133659991Y-75095500D01*
X135060008Y-75095499D01*
X135162797Y-75084999D01*
X135329334Y-75029814D01*
X135478656Y-74937712D01*
X135602712Y-74813656D01*
X135694814Y-74664334D01*
X135749999Y-74497797D01*
X135760500Y-74395009D01*
X135760499Y-73644992D01*
X135756926Y-73610018D01*
X135749999Y-73542203D01*
X135749998Y-73542200D01*
X135737609Y-73504812D01*
X135694814Y-73375666D01*
X135602712Y-73226344D01*
X135478656Y-73102288D01*
X135478655Y-73102287D01*
X135419402Y-73065739D01*
X135372678Y-73013791D01*
X135360500Y-72960201D01*
X135360500Y-71631459D01*
X135360499Y-71631456D01*
X135356597Y-71611836D01*
X135349307Y-71575186D01*
X135322051Y-71438164D01*
X135255777Y-71278165D01*
X135246632Y-71256086D01*
X135208729Y-71199361D01*
X135206774Y-71195994D01*
X135199339Y-71165691D01*
X135190020Y-71135928D01*
X135190000Y-71133715D01*
X135190000Y-70110000D01*
X134365000Y-70110000D01*
X134347640Y-70127360D01*
X134286317Y-70160844D01*
X134216625Y-70155859D01*
X134172279Y-70127359D01*
X133601818Y-69556898D01*
X133568333Y-69495575D01*
X133565499Y-69469217D01*
X133565499Y-69160013D01*
X134365000Y-69160013D01*
X134365000Y-69610000D01*
X135190000Y-69610000D01*
X135190000Y-68460000D01*
X135065027Y-68460000D01*
X135065012Y-68460001D01*
X134962302Y-68470494D01*
X134795880Y-68525641D01*
X134795875Y-68525643D01*
X134646654Y-68617684D01*
X134522684Y-68741654D01*
X134430643Y-68890875D01*
X134430641Y-68890880D01*
X134375494Y-69057302D01*
X134375493Y-69057309D01*
X134365000Y-69160013D01*
X133565499Y-69160013D01*
X133565499Y-69159998D01*
X133565498Y-69159981D01*
X133554999Y-69057203D01*
X133554998Y-69057200D01*
X133541936Y-69017781D01*
X133499814Y-68890666D01*
X133407712Y-68741344D01*
X133283656Y-68617288D01*
X133134334Y-68525186D01*
X132967797Y-68470001D01*
X132967795Y-68470000D01*
X132865016Y-68459500D01*
X132865009Y-68459500D01*
X132754500Y-68459500D01*
X132687461Y-68439815D01*
X132641706Y-68387011D01*
X132630500Y-68335500D01*
X132630500Y-66087180D01*
X132650185Y-66020141D01*
X132680187Y-65987914D01*
X132787546Y-65907546D01*
X132873796Y-65792331D01*
X132924091Y-65657483D01*
X132930500Y-65597873D01*
X132930499Y-64002128D01*
X132924091Y-63942517D01*
X132903606Y-63887595D01*
X132873797Y-63807671D01*
X132873796Y-63807669D01*
X132801181Y-63710668D01*
X132790406Y-63696275D01*
X132790406Y-63696273D01*
X132787547Y-63692455D01*
X132787544Y-63692452D01*
X132672335Y-63606206D01*
X132672328Y-63606202D01*
X132537482Y-63555908D01*
X132537483Y-63555908D01*
X132477883Y-63549501D01*
X132477881Y-63549500D01*
X132477873Y-63549500D01*
X132477864Y-63549500D01*
X130782129Y-63549500D01*
X130782123Y-63549501D01*
X130722516Y-63555908D01*
X130587671Y-63606202D01*
X130587664Y-63606206D01*
X130472455Y-63692452D01*
X130472452Y-63692455D01*
X130386206Y-63807664D01*
X130386202Y-63807671D01*
X130341530Y-63927445D01*
X130299659Y-63983379D01*
X130234195Y-64007796D01*
X130165922Y-63992944D01*
X130125029Y-63956996D01*
X130121969Y-63952784D01*
X129977213Y-63808028D01*
X129811613Y-63687715D01*
X129811612Y-63687714D01*
X129811610Y-63687713D01*
X129737594Y-63650000D01*
X129629223Y-63594781D01*
X129434534Y-63531522D01*
X129259995Y-63503878D01*
X129232352Y-63499500D01*
X129027648Y-63499500D01*
X129003329Y-63503351D01*
X128825465Y-63531522D01*
X128630776Y-63594781D01*
X128448386Y-63687715D01*
X128282786Y-63808028D01*
X128282782Y-63808032D01*
X128217681Y-63873134D01*
X128156358Y-63906619D01*
X128086666Y-63901635D01*
X128042319Y-63873134D01*
X127977213Y-63808028D01*
X127811613Y-63687715D01*
X127811612Y-63687714D01*
X127811610Y-63687713D01*
X127737594Y-63650000D01*
X127629223Y-63594781D01*
X127434534Y-63531522D01*
X127259995Y-63503878D01*
X127232352Y-63499500D01*
X127027648Y-63499500D01*
X127003329Y-63503351D01*
X126825465Y-63531522D01*
X126630776Y-63594781D01*
X126448386Y-63687715D01*
X126282786Y-63808028D01*
X126138028Y-63952786D01*
X126017714Y-64118386D01*
X125990203Y-64172379D01*
X125942227Y-64223174D01*
X125874406Y-64239968D01*
X125808272Y-64217429D01*
X125769234Y-64172376D01*
X125741861Y-64118652D01*
X125709474Y-64074077D01*
X125709474Y-64074076D01*
X125092550Y-64691001D01*
X125072630Y-64616657D01*
X125010095Y-64508343D01*
X124921657Y-64419905D01*
X124813343Y-64357370D01*
X124738996Y-64337449D01*
X125355922Y-63720524D01*
X125355921Y-63720523D01*
X125311359Y-63688147D01*
X125311350Y-63688141D01*
X125129031Y-63595244D01*
X124934417Y-63532009D01*
X124732317Y-63500000D01*
X124527683Y-63500000D01*
X124325582Y-63532009D01*
X124130968Y-63595244D01*
X123948644Y-63688143D01*
X123904077Y-63720523D01*
X123904077Y-63720524D01*
X124521003Y-64337449D01*
X124446657Y-64357370D01*
X124338343Y-64419905D01*
X124249905Y-64508343D01*
X124187370Y-64616657D01*
X124167449Y-64691002D01*
X123550524Y-64074077D01*
X123550523Y-64074077D01*
X123518143Y-64118644D01*
X123425244Y-64300968D01*
X123362009Y-64495582D01*
X123330000Y-64697682D01*
X123330000Y-64902317D01*
X123362009Y-65104417D01*
X123425244Y-65299031D01*
X123518141Y-65481350D01*
X123518147Y-65481359D01*
X123550523Y-65525921D01*
X123550524Y-65525922D01*
X124167449Y-64908997D01*
X124187370Y-64983343D01*
X124249905Y-65091657D01*
X124338343Y-65180095D01*
X124446657Y-65242630D01*
X124521002Y-65262550D01*
X123904076Y-65879474D01*
X123948650Y-65911859D01*
X124130968Y-66004755D01*
X124325582Y-66067990D01*
X124527683Y-66100000D01*
X124732317Y-66100000D01*
X124934417Y-66067990D01*
X125129031Y-66004755D01*
X125311349Y-65911859D01*
X125355921Y-65879474D01*
X124738997Y-65262550D01*
X124813343Y-65242630D01*
X124921657Y-65180095D01*
X125010095Y-65091657D01*
X125072630Y-64983343D01*
X125092550Y-64908997D01*
X125709474Y-65525921D01*
X125741859Y-65481349D01*
X125769233Y-65427624D01*
X125817207Y-65376827D01*
X125885028Y-65360031D01*
X125951163Y-65382567D01*
X125990203Y-65427621D01*
X126017713Y-65481611D01*
X126138028Y-65647213D01*
X126282786Y-65791971D01*
X126403226Y-65879474D01*
X126448390Y-65912287D01*
X126564607Y-65971503D01*
X126630776Y-66005218D01*
X126630778Y-66005218D01*
X126630781Y-66005220D01*
X126735137Y-66039127D01*
X126825465Y-66068477D01*
X126898218Y-66080000D01*
X127027648Y-66100500D01*
X127027649Y-66100500D01*
X127232351Y-66100500D01*
X127232352Y-66100500D01*
X127434534Y-66068477D01*
X127629219Y-66005220D01*
X127811610Y-65912287D01*
X127904590Y-65844732D01*
X127977213Y-65791971D01*
X127977215Y-65791968D01*
X127977219Y-65791966D01*
X128042319Y-65726866D01*
X128103642Y-65693381D01*
X128173334Y-65698365D01*
X128217681Y-65726866D01*
X128282786Y-65791971D01*
X128403226Y-65879474D01*
X128448390Y-65912287D01*
X128564607Y-65971503D01*
X128630776Y-66005218D01*
X128630778Y-66005218D01*
X128630781Y-66005220D01*
X128735137Y-66039127D01*
X128825465Y-66068477D01*
X128898218Y-66080000D01*
X129027648Y-66100500D01*
X129027649Y-66100500D01*
X129232351Y-66100500D01*
X129232352Y-66100500D01*
X129434534Y-66068477D01*
X129629219Y-66005220D01*
X129811610Y-65912287D01*
X129904590Y-65844732D01*
X129977213Y-65791971D01*
X129977215Y-65791968D01*
X129977219Y-65791966D01*
X130121966Y-65647219D01*
X130125025Y-65643009D01*
X130180352Y-65600339D01*
X130249965Y-65594355D01*
X130311762Y-65626957D01*
X130341530Y-65672554D01*
X130386202Y-65792328D01*
X130386206Y-65792335D01*
X130451439Y-65879474D01*
X130472454Y-65907546D01*
X130579811Y-65987914D01*
X130621682Y-66043847D01*
X130629500Y-66087180D01*
X130629500Y-69098544D01*
X130667947Y-69291829D01*
X130667948Y-69291833D01*
X130667949Y-69291836D01*
X130683758Y-69330000D01*
X130683758Y-69330001D01*
X130743364Y-69473906D01*
X130743371Y-69473919D01*
X130852859Y-69637780D01*
X130852860Y-69637781D01*
X130852861Y-69637782D01*
X130987399Y-69772320D01*
X131020883Y-69833641D01*
X131015899Y-69903333D01*
X130987398Y-69947681D01*
X130651899Y-70283181D01*
X130590576Y-70316666D01*
X130564218Y-70319500D01*
X129204499Y-70319500D01*
X129137460Y-70299815D01*
X129091705Y-70247011D01*
X129080499Y-70195500D01*
X129080499Y-69769998D01*
X129080498Y-69769981D01*
X129069999Y-69667203D01*
X129069998Y-69667200D01*
X129063010Y-69646113D01*
X129014814Y-69500666D01*
X128922712Y-69351344D01*
X128798656Y-69227288D01*
X128656069Y-69139340D01*
X128649336Y-69135187D01*
X128649331Y-69135185D01*
X128647862Y-69134698D01*
X128482797Y-69080001D01*
X128482795Y-69080000D01*
X128380010Y-69069500D01*
X127179998Y-69069500D01*
X127179981Y-69069501D01*
X127077203Y-69080000D01*
X127077200Y-69080001D01*
X126910668Y-69135185D01*
X126910663Y-69135187D01*
X126761342Y-69227289D01*
X126637289Y-69351342D01*
X126545187Y-69500663D01*
X126545185Y-69500668D01*
X126525525Y-69559998D01*
X126490001Y-69667203D01*
X126490001Y-69667204D01*
X126490000Y-69667204D01*
X126479500Y-69769983D01*
X126479500Y-70195500D01*
X126459815Y-70262539D01*
X126407011Y-70308294D01*
X126355500Y-70319500D01*
X122666457Y-70319500D01*
X122593996Y-70333914D01*
X122593995Y-70333914D01*
X122473167Y-70357947D01*
X122473159Y-70357950D01*
X122419834Y-70380037D01*
X122419834Y-70380038D01*
X122374315Y-70398892D01*
X122291089Y-70433366D01*
X122291079Y-70433371D01*
X122127219Y-70542859D01*
X122057540Y-70612538D01*
X121987861Y-70682218D01*
X121987858Y-70682221D01*
X121196897Y-71473181D01*
X121135574Y-71506666D01*
X121109216Y-71509500D01*
X118175000Y-71509500D01*
X118174983Y-71509501D01*
X118072204Y-71520000D01*
X118072201Y-71520001D01*
X117905669Y-71575185D01*
X117905660Y-71575189D01*
X117818679Y-71628840D01*
X117751287Y-71647280D01*
X117684623Y-71626357D01*
X117665902Y-71610982D01*
X115128371Y-69073451D01*
X115094886Y-69012128D01*
X115099870Y-68942436D01*
X115141742Y-68886503D01*
X115177048Y-68868064D01*
X115339119Y-68814358D01*
X115339124Y-68814356D01*
X115488345Y-68722315D01*
X115612315Y-68598345D01*
X115704356Y-68449124D01*
X115704358Y-68449119D01*
X115759505Y-68282697D01*
X115759506Y-68282690D01*
X115769999Y-68179986D01*
X115770000Y-68179973D01*
X115770000Y-66330000D01*
X114844000Y-66330000D01*
X114776961Y-66310315D01*
X114731206Y-66257511D01*
X114720000Y-66206000D01*
X114720000Y-66080000D01*
X114594000Y-66080000D01*
X114526961Y-66060315D01*
X114481206Y-66007511D01*
X114470000Y-65956000D01*
X114470000Y-65830000D01*
X114970000Y-65830000D01*
X115769999Y-65830000D01*
X115769999Y-63980028D01*
X115769998Y-63980013D01*
X115759505Y-63877302D01*
X115704358Y-63710880D01*
X115704354Y-63710871D01*
X115689669Y-63687063D01*
X115689668Y-63687062D01*
X115612315Y-63561654D01*
X115488345Y-63437684D01*
X115339124Y-63345643D01*
X115339119Y-63345641D01*
X115172697Y-63290494D01*
X115172690Y-63290493D01*
X115069986Y-63280000D01*
X114970000Y-63280000D01*
X114970000Y-65830000D01*
X114470000Y-65830000D01*
X114470000Y-63279999D01*
X114370028Y-63280000D01*
X114370012Y-63280001D01*
X114267302Y-63290494D01*
X114100880Y-63345641D01*
X114100875Y-63345643D01*
X113951649Y-63437687D01*
X113947305Y-63441122D01*
X113882507Y-63467255D01*
X113813866Y-63454207D01*
X113793497Y-63441116D01*
X113788660Y-63437292D01*
X113788656Y-63437288D01*
X113639334Y-63345186D01*
X113472797Y-63290001D01*
X113472795Y-63290000D01*
X113370010Y-63279500D01*
X112669998Y-63279500D01*
X112669980Y-63279501D01*
X112567203Y-63290000D01*
X112567200Y-63290001D01*
X112400668Y-63345185D01*
X112400663Y-63345187D01*
X112311798Y-63400000D01*
X112251344Y-63437288D01*
X112251343Y-63437288D01*
X112251330Y-63437297D01*
X112246487Y-63441126D01*
X112181687Y-63467256D01*
X112113047Y-63454204D01*
X112092683Y-63441114D01*
X112088346Y-63437684D01*
X111939124Y-63345643D01*
X111939119Y-63345641D01*
X111772697Y-63290494D01*
X111772690Y-63290493D01*
X111669986Y-63280000D01*
X111570000Y-63280000D01*
X111070000Y-63280000D01*
X111070000Y-63279999D01*
X110970028Y-63280000D01*
X110970012Y-63280001D01*
X110867302Y-63290494D01*
X110700880Y-63345641D01*
X110700875Y-63345643D01*
X110551649Y-63437687D01*
X110547305Y-63441122D01*
X110482507Y-63467255D01*
X110413866Y-63454207D01*
X110393497Y-63441116D01*
X110388660Y-63437292D01*
X110388656Y-63437288D01*
X110239334Y-63345186D01*
X110072797Y-63290001D01*
X110072795Y-63290000D01*
X109970010Y-63279500D01*
X109269998Y-63279500D01*
X109269980Y-63279501D01*
X109167203Y-63290000D01*
X109167200Y-63290001D01*
X109000668Y-63345185D01*
X109000663Y-63345187D01*
X108851342Y-63437289D01*
X108846909Y-63440795D01*
X108782113Y-63466934D01*
X108713471Y-63453892D01*
X108693091Y-63440795D01*
X108688657Y-63437289D01*
X108688656Y-63437288D01*
X108539334Y-63345186D01*
X108372797Y-63290001D01*
X108372795Y-63290000D01*
X108270010Y-63279500D01*
X107569998Y-63279500D01*
X107569980Y-63279501D01*
X107467203Y-63290000D01*
X107467200Y-63290001D01*
X107300668Y-63345185D01*
X107300663Y-63345187D01*
X107151342Y-63437289D01*
X107027289Y-63561342D01*
X106935187Y-63710663D01*
X106935185Y-63710668D01*
X106931919Y-63720524D01*
X106880001Y-63877203D01*
X106880001Y-63877204D01*
X106880000Y-63877204D01*
X106869500Y-63979983D01*
X106869500Y-64955500D01*
X106849815Y-65022539D01*
X106797011Y-65068294D01*
X106745500Y-65079500D01*
X104379500Y-65079500D01*
X104312461Y-65059815D01*
X104266706Y-65007011D01*
X104255500Y-64955500D01*
X104255500Y-61316458D01*
X104255499Y-61316457D01*
X104249121Y-61284389D01*
X104217052Y-61123165D01*
X104141632Y-60941086D01*
X104141631Y-60941085D01*
X104141628Y-60941079D01*
X104032140Y-60777219D01*
X104032137Y-60777215D01*
X101410478Y-58155558D01*
X101376993Y-58094235D01*
X101375686Y-58048484D01*
X101380500Y-58018092D01*
X101380500Y-57781908D01*
X101380500Y-57781902D01*
X101343553Y-57548631D01*
X101270566Y-57324003D01*
X101163342Y-57113566D01*
X101024517Y-56922490D01*
X100857510Y-56755483D01*
X100666433Y-56616657D01*
X100455996Y-56509433D01*
X100231368Y-56436446D01*
X99998097Y-56399500D01*
X99998092Y-56399500D01*
X98461908Y-56399500D01*
X98461903Y-56399500D01*
X98228631Y-56436446D01*
X98004003Y-56509433D01*
X97793566Y-56616657D01*
X97706383Y-56680000D01*
X97602490Y-56755483D01*
X97602488Y-56755485D01*
X97602487Y-56755485D01*
X97435485Y-56922487D01*
X97435485Y-56922488D01*
X97435483Y-56922490D01*
X97375862Y-57004550D01*
X97296657Y-57113566D01*
X97189433Y-57324003D01*
X97116446Y-57548631D01*
X97079500Y-57781902D01*
X97079500Y-58018097D01*
X97116446Y-58251368D01*
X97189433Y-58475996D01*
X97266635Y-58627512D01*
X97296657Y-58686433D01*
X97435483Y-58877510D01*
X97602490Y-59044517D01*
X97793567Y-59183343D01*
X97892991Y-59234002D01*
X98004003Y-59290566D01*
X98004005Y-59290566D01*
X98004008Y-59290568D01*
X98124412Y-59329689D01*
X98228631Y-59363553D01*
X98461903Y-59400500D01*
X98461908Y-59400500D01*
X99774218Y-59400500D01*
X99841257Y-59420185D01*
X99861899Y-59436819D01*
X102218181Y-61793101D01*
X102251666Y-61854424D01*
X102254500Y-61880782D01*
X102254500Y-66769217D01*
X102234815Y-66836256D01*
X102218181Y-66856898D01*
X102033029Y-67042051D01*
X101941899Y-67133181D01*
X101880576Y-67166666D01*
X101854218Y-67169500D01*
X100194798Y-67169500D01*
X100127759Y-67149815D01*
X100089259Y-67110597D01*
X100077607Y-67091706D01*
X100052712Y-67051344D01*
X99928656Y-66927288D01*
X99779334Y-66835186D01*
X99612797Y-66780001D01*
X99612795Y-66780000D01*
X99510010Y-66769500D01*
X98759998Y-66769500D01*
X98759980Y-66769501D01*
X98657203Y-66780000D01*
X98657200Y-66780001D01*
X98490668Y-66835185D01*
X98490663Y-66835187D01*
X98341342Y-66927289D01*
X98217289Y-67051342D01*
X98125187Y-67200663D01*
X98125185Y-67200668D01*
X98097349Y-67284670D01*
X98070001Y-67367203D01*
X98070001Y-67367204D01*
X98070000Y-67367204D01*
X98059500Y-67469983D01*
X98059500Y-68870001D01*
X98059501Y-68870018D01*
X98070000Y-68972796D01*
X98070001Y-68972799D01*
X98125185Y-69139331D01*
X98125189Y-69139340D01*
X98215552Y-69285843D01*
X98233992Y-69353235D01*
X98213069Y-69419899D01*
X98159427Y-69464668D01*
X98090096Y-69473329D01*
X98044919Y-69456479D01*
X97929334Y-69385186D01*
X97762797Y-69330001D01*
X97762795Y-69330000D01*
X97660016Y-69319500D01*
X97660009Y-69319500D01*
X97305442Y-69319500D01*
X97238403Y-69299815D01*
X97192648Y-69247011D01*
X97182704Y-69177853D01*
X97193059Y-69143097D01*
X97194809Y-69139340D01*
X97194814Y-69139334D01*
X97249999Y-68972797D01*
X97260500Y-68870009D01*
X97260499Y-67469992D01*
X97249999Y-67367203D01*
X97194814Y-67200666D01*
X97102712Y-67051344D01*
X96978656Y-66927288D01*
X96829334Y-66835186D01*
X96662797Y-66780001D01*
X96662795Y-66780000D01*
X96560010Y-66769500D01*
X95809998Y-66769500D01*
X95809980Y-66769501D01*
X95707203Y-66780000D01*
X95707200Y-66780001D01*
X95540668Y-66835185D01*
X95540663Y-66835187D01*
X95391342Y-66927289D01*
X95267289Y-67051342D01*
X95175187Y-67200663D01*
X95175185Y-67200668D01*
X95147349Y-67284670D01*
X95120001Y-67367203D01*
X95120001Y-67367204D01*
X95120000Y-67367204D01*
X95109500Y-67469983D01*
X92860500Y-67469983D01*
X92860500Y-62852155D01*
X96730000Y-62852155D01*
X96730000Y-63650000D01*
X97796988Y-63650000D01*
X97764075Y-63707007D01*
X97730000Y-63834174D01*
X97730000Y-63965826D01*
X97764075Y-64092993D01*
X97796988Y-64150000D01*
X96730000Y-64150000D01*
X96730000Y-64947844D01*
X96736401Y-65007372D01*
X96736403Y-65007379D01*
X96786645Y-65142086D01*
X96786649Y-65142093D01*
X96872809Y-65257187D01*
X96872812Y-65257190D01*
X96987906Y-65343350D01*
X96987913Y-65343354D01*
X97122620Y-65393596D01*
X97122627Y-65393598D01*
X97182155Y-65399999D01*
X97182172Y-65400000D01*
X98980000Y-65400000D01*
X98980000Y-64400000D01*
X99480000Y-64400000D01*
X99480000Y-65400000D01*
X101277828Y-65400000D01*
X101277844Y-65399999D01*
X101337372Y-65393598D01*
X101337379Y-65393596D01*
X101472086Y-65343354D01*
X101472093Y-65343350D01*
X101587187Y-65257190D01*
X101587190Y-65257187D01*
X101673350Y-65142093D01*
X101673354Y-65142086D01*
X101723596Y-65007379D01*
X101723598Y-65007372D01*
X101729999Y-64947844D01*
X101730000Y-64947827D01*
X101730000Y-64150000D01*
X100663012Y-64150000D01*
X100695925Y-64092993D01*
X100730000Y-63965826D01*
X100730000Y-63834174D01*
X100695925Y-63707007D01*
X100663012Y-63650000D01*
X101730000Y-63650000D01*
X101730000Y-62852172D01*
X101729999Y-62852155D01*
X101723598Y-62792627D01*
X101723596Y-62792620D01*
X101673354Y-62657913D01*
X101673350Y-62657906D01*
X101587190Y-62542812D01*
X101587187Y-62542809D01*
X101472093Y-62456649D01*
X101472086Y-62456645D01*
X101337379Y-62406403D01*
X101337372Y-62406401D01*
X101277844Y-62400000D01*
X99480000Y-62400000D01*
X99480000Y-63400000D01*
X98980000Y-63400000D01*
X98980000Y-62400000D01*
X97182155Y-62400000D01*
X97122627Y-62406401D01*
X97122620Y-62406403D01*
X96987913Y-62456645D01*
X96987906Y-62456649D01*
X96872812Y-62542809D01*
X96872809Y-62542812D01*
X96786649Y-62657906D01*
X96786645Y-62657913D01*
X96736403Y-62792620D01*
X96736401Y-62792627D01*
X96730000Y-62852155D01*
X92860500Y-62852155D01*
X92860500Y-56031902D01*
X93229500Y-56031902D01*
X93229500Y-57768097D01*
X93266446Y-58001368D01*
X93339433Y-58225996D01*
X93446657Y-58436433D01*
X93585483Y-58627510D01*
X93752490Y-58794517D01*
X93943567Y-58933343D01*
X94042991Y-58984002D01*
X94154003Y-59040566D01*
X94154005Y-59040566D01*
X94154008Y-59040568D01*
X94274412Y-59079689D01*
X94378631Y-59113553D01*
X94611903Y-59150500D01*
X94611908Y-59150500D01*
X94848097Y-59150500D01*
X95081368Y-59113553D01*
X95305992Y-59040568D01*
X95516433Y-58933343D01*
X95707510Y-58794517D01*
X95874517Y-58627510D01*
X96013343Y-58436433D01*
X96120568Y-58225992D01*
X96193553Y-58001368D01*
X96199448Y-57964148D01*
X96230500Y-57768097D01*
X96230500Y-56031902D01*
X102229500Y-56031902D01*
X102229500Y-57768097D01*
X102266446Y-58001368D01*
X102339433Y-58225996D01*
X102446657Y-58436433D01*
X102585483Y-58627510D01*
X102752490Y-58794517D01*
X102943567Y-58933343D01*
X103042991Y-58984002D01*
X103154003Y-59040566D01*
X103154005Y-59040566D01*
X103154008Y-59040568D01*
X103274412Y-59079689D01*
X103378631Y-59113553D01*
X103611903Y-59150500D01*
X103611908Y-59150500D01*
X103848097Y-59150500D01*
X104081368Y-59113553D01*
X104305992Y-59040568D01*
X104516433Y-58933343D01*
X104707510Y-58794517D01*
X104874517Y-58627510D01*
X105013343Y-58436433D01*
X105120568Y-58225992D01*
X105178069Y-58049021D01*
X105217507Y-57991346D01*
X105281865Y-57964148D01*
X105350712Y-57976063D01*
X105402187Y-58023307D01*
X105420000Y-58087340D01*
X105420000Y-61429969D01*
X105420001Y-61429985D01*
X105430494Y-61532695D01*
X105485641Y-61699117D01*
X105485643Y-61699122D01*
X105577684Y-61848344D01*
X105701655Y-61972315D01*
X105850877Y-62064356D01*
X105850882Y-62064358D01*
X106017304Y-62119505D01*
X106017311Y-62119506D01*
X106120022Y-62129999D01*
X111070000Y-62129999D01*
X111570000Y-62129999D01*
X116519970Y-62129999D01*
X116519984Y-62129998D01*
X116622695Y-62119505D01*
X116789117Y-62064358D01*
X116789122Y-62064356D01*
X116938344Y-61972315D01*
X116951754Y-61958905D01*
X119560000Y-61958905D01*
X119560000Y-62221094D01*
X119594220Y-62481009D01*
X119594222Y-62481020D01*
X119662075Y-62734255D01*
X119762404Y-62976471D01*
X119762409Y-62976482D01*
X119893488Y-63203516D01*
X119893494Y-63203524D01*
X119980080Y-63316365D01*
X120587912Y-62708532D01*
X120682829Y-62839175D01*
X120810825Y-62967171D01*
X120941465Y-63062086D01*
X120333633Y-63669917D01*
X120333633Y-63669918D01*
X120446475Y-63756505D01*
X120446483Y-63756511D01*
X120673517Y-63887590D01*
X120673528Y-63887595D01*
X120915744Y-63987924D01*
X121168979Y-64055777D01*
X121168990Y-64055779D01*
X121428905Y-64089999D01*
X121428920Y-64090000D01*
X121691080Y-64090000D01*
X121691094Y-64089999D01*
X121951009Y-64055779D01*
X121951020Y-64055777D01*
X122204255Y-63987924D01*
X122446471Y-63887595D01*
X122446482Y-63887590D01*
X122673516Y-63756511D01*
X122673534Y-63756499D01*
X122786365Y-63669920D01*
X122786365Y-63669917D01*
X122178534Y-63062086D01*
X122309175Y-62967171D01*
X122437171Y-62839175D01*
X122532086Y-62708534D01*
X123139917Y-63316365D01*
X123139919Y-63316365D01*
X123226499Y-63203534D01*
X123226511Y-63203516D01*
X123357590Y-62976482D01*
X123357595Y-62976471D01*
X123457924Y-62734255D01*
X123525777Y-62481020D01*
X123525779Y-62481009D01*
X123559999Y-62221094D01*
X123560000Y-62221080D01*
X123560000Y-61958919D01*
X123559999Y-61958905D01*
X123525779Y-61698990D01*
X123525777Y-61698979D01*
X123457924Y-61445744D01*
X123357595Y-61203528D01*
X123357590Y-61203517D01*
X123226511Y-60976483D01*
X123226505Y-60976475D01*
X123139918Y-60863633D01*
X123139917Y-60863633D01*
X122532085Y-61471465D01*
X122437171Y-61340825D01*
X122309175Y-61212829D01*
X122178532Y-61117912D01*
X122786365Y-60510080D01*
X122673524Y-60423494D01*
X122673516Y-60423488D01*
X122446482Y-60292409D01*
X122446471Y-60292404D01*
X122204255Y-60192075D01*
X121951020Y-60124222D01*
X121951009Y-60124220D01*
X121691094Y-60090000D01*
X121428905Y-60090000D01*
X121168990Y-60124220D01*
X121168979Y-60124222D01*
X120915744Y-60192075D01*
X120673528Y-60292404D01*
X120673517Y-60292409D01*
X120446471Y-60423496D01*
X120333633Y-60510079D01*
X120333633Y-60510080D01*
X120941466Y-61117913D01*
X120810825Y-61212829D01*
X120682829Y-61340825D01*
X120587913Y-61471466D01*
X119980080Y-60863633D01*
X119980079Y-60863633D01*
X119893496Y-60976471D01*
X119762409Y-61203517D01*
X119762404Y-61203528D01*
X119662075Y-61445744D01*
X119594222Y-61698979D01*
X119594220Y-61698990D01*
X119560000Y-61958905D01*
X116951754Y-61958905D01*
X117043487Y-61867173D01*
X117062315Y-61848344D01*
X117154356Y-61699122D01*
X117154358Y-61699117D01*
X117209505Y-61532695D01*
X117209506Y-61532688D01*
X117219999Y-61429984D01*
X117220000Y-61429971D01*
X117220000Y-57180000D01*
X111570000Y-57180000D01*
X111570000Y-62129999D01*
X111070000Y-62129999D01*
X111070000Y-56680000D01*
X111570000Y-56680000D01*
X117219999Y-56680000D01*
X117219999Y-52430030D01*
X117219998Y-52430015D01*
X117209505Y-52327304D01*
X117154358Y-52160882D01*
X117154356Y-52160877D01*
X117062315Y-52011655D01*
X116938344Y-51887684D01*
X116789122Y-51795643D01*
X116789117Y-51795641D01*
X116622695Y-51740494D01*
X116622688Y-51740493D01*
X116519984Y-51730000D01*
X111570000Y-51730000D01*
X111570000Y-56680000D01*
X111070000Y-56680000D01*
X111070000Y-51730000D01*
X106120030Y-51730000D01*
X106120014Y-51730001D01*
X106017304Y-51740494D01*
X105850882Y-51795641D01*
X105850877Y-51795643D01*
X105701655Y-51887684D01*
X105577684Y-52011655D01*
X105485643Y-52160877D01*
X105485641Y-52160882D01*
X105430494Y-52327304D01*
X105430493Y-52327311D01*
X105420000Y-52430015D01*
X105420000Y-55712659D01*
X105400315Y-55779698D01*
X105347511Y-55825453D01*
X105278353Y-55835397D01*
X105214797Y-55806372D01*
X105178069Y-55750977D01*
X105166696Y-55715975D01*
X105120568Y-55574008D01*
X105013343Y-55363567D01*
X104874517Y-55172490D01*
X104707510Y-55005483D01*
X104516433Y-54866657D01*
X104305996Y-54759433D01*
X104081368Y-54686446D01*
X103848097Y-54649500D01*
X103848092Y-54649500D01*
X103611908Y-54649500D01*
X103611903Y-54649500D01*
X103378631Y-54686446D01*
X103154003Y-54759433D01*
X102943566Y-54866657D01*
X102834550Y-54945862D01*
X102752490Y-55005483D01*
X102752488Y-55005485D01*
X102752487Y-55005485D01*
X102585485Y-55172487D01*
X102585485Y-55172488D01*
X102585483Y-55172490D01*
X102525862Y-55254550D01*
X102446657Y-55363566D01*
X102339433Y-55574003D01*
X102266446Y-55798631D01*
X102229500Y-56031902D01*
X96230500Y-56031902D01*
X96193553Y-55798631D01*
X96120566Y-55574003D01*
X96064002Y-55462991D01*
X96013343Y-55363567D01*
X95874517Y-55172490D01*
X95707510Y-55005483D01*
X95516433Y-54866657D01*
X95378802Y-54796530D01*
X98179500Y-54796530D01*
X98179500Y-55003469D01*
X98219868Y-55206412D01*
X98219870Y-55206420D01*
X98299058Y-55397596D01*
X98414024Y-55569657D01*
X98560342Y-55715975D01*
X98560345Y-55715977D01*
X98732402Y-55830941D01*
X98923580Y-55910130D01*
X99126530Y-55950499D01*
X99126534Y-55950500D01*
X99126535Y-55950500D01*
X99333466Y-55950500D01*
X99333467Y-55950499D01*
X99536420Y-55910130D01*
X99727598Y-55830941D01*
X99899655Y-55715977D01*
X100045977Y-55569655D01*
X100160941Y-55397598D01*
X100240130Y-55206420D01*
X100280500Y-55003465D01*
X100280500Y-54796535D01*
X100240130Y-54593580D01*
X100160941Y-54402402D01*
X100045977Y-54230345D01*
X100045975Y-54230342D01*
X99899657Y-54084024D01*
X99813626Y-54026541D01*
X99727598Y-53969059D01*
X99536420Y-53889870D01*
X99536412Y-53889868D01*
X99333469Y-53849500D01*
X99333465Y-53849500D01*
X99126535Y-53849500D01*
X99126530Y-53849500D01*
X98923587Y-53889868D01*
X98923579Y-53889870D01*
X98732403Y-53969058D01*
X98560342Y-54084024D01*
X98414024Y-54230342D01*
X98299058Y-54402403D01*
X98219870Y-54593579D01*
X98219868Y-54593587D01*
X98179500Y-54796530D01*
X95378802Y-54796530D01*
X95305996Y-54759433D01*
X95081368Y-54686446D01*
X94848097Y-54649500D01*
X94848092Y-54649500D01*
X94611908Y-54649500D01*
X94611903Y-54649500D01*
X94378631Y-54686446D01*
X94154003Y-54759433D01*
X93943566Y-54866657D01*
X93834550Y-54945862D01*
X93752490Y-55005483D01*
X93752488Y-55005485D01*
X93752487Y-55005485D01*
X93585485Y-55172487D01*
X93585485Y-55172488D01*
X93585483Y-55172490D01*
X93525862Y-55254550D01*
X93446657Y-55363566D01*
X93339433Y-55574003D01*
X93266446Y-55798631D01*
X93229500Y-56031902D01*
X92860500Y-56031902D01*
X92860500Y-51224500D01*
X92880185Y-51157461D01*
X92932989Y-51111706D01*
X92984500Y-51100500D01*
X136495500Y-51100500D01*
X136562539Y-51120185D01*
G37*
%TD.AperFunction*%
%TD*%
M02*
