%TF.GenerationSoftware,KiCad,Pcbnew,9.0.3*%
%TF.CreationDate,2025-10-14T12:27:29+02:00*%
%TF.ProjectId,TEST_JLC_PCB,54455354-5f4a-44c4-935f-5043422e6b69,rev?*%
%TF.SameCoordinates,Original*%
%TF.FileFunction,Copper,L2,Bot*%
%TF.FilePolarity,Positive*%
%FSLAX46Y46*%
G04 Gerber Fmt 4.6, Leading zero omitted, Abs format (unit mm)*
G04 Created by KiCad (PCBNEW 9.0.3) date 2025-10-14 12:27:29*
%MOMM*%
%LPD*%
G01*
G04 APERTURE LIST*
%TA.AperFunction,ComponentPad*%
%ADD10R,1.600000X1.500000*%
%TD*%
%TA.AperFunction,ComponentPad*%
%ADD11C,1.600000*%
%TD*%
%TA.AperFunction,ComponentPad*%
%ADD12C,3.000000*%
%TD*%
%TA.AperFunction,ComponentPad*%
%ADD13R,4.000000X2.000000*%
%TD*%
%TA.AperFunction,ComponentPad*%
%ADD14O,3.300000X2.000000*%
%TD*%
%TA.AperFunction,ComponentPad*%
%ADD15O,2.000000X3.500000*%
%TD*%
G04 APERTURE END LIST*
D10*
%TO.P,J1,1,VBUS*%
%TO.N,VOUT*%
X131630000Y-64800000D03*
D11*
%TO.P,J1,2,D-*%
%TO.N,unconnected-(J1-D--Pad2)*%
X129130000Y-64800000D03*
%TO.P,J1,3,D+*%
%TO.N,unconnected-(J1-D+-Pad3)*%
X127130000Y-64800000D03*
%TO.P,J1,4,GND*%
%TO.N,GND*%
X124630000Y-64800000D03*
D12*
%TO.P,J1,5,Shield*%
X134700000Y-62090000D03*
X121560000Y-62090000D03*
%TD*%
D13*
%TO.P,J2,1*%
%TO.N,GND*%
X99230000Y-63900000D03*
D14*
%TO.P,J2,2*%
%TO.N,VIN*%
X99230000Y-57900000D03*
D15*
%TO.P,J2,MP*%
%TO.N,N/C*%
X103730000Y-56900000D03*
X94730000Y-56900000D03*
%TD*%
%TA.AperFunction,Conductor*%
%TO.N,GND*%
G36*
X136562539Y-51120185D02*
G01*
X136608294Y-51172989D01*
X136619500Y-51224500D01*
X136619500Y-60951898D01*
X136599815Y-61018937D01*
X136547011Y-61064692D01*
X136477853Y-61074636D01*
X136414297Y-61045611D01*
X136388113Y-61013899D01*
X136366506Y-60976476D01*
X136366505Y-60976475D01*
X136279918Y-60863633D01*
X136279917Y-60863633D01*
X135672085Y-61471465D01*
X135577171Y-61340825D01*
X135449175Y-61212829D01*
X135318532Y-61117912D01*
X135926365Y-60510080D01*
X135813524Y-60423494D01*
X135813516Y-60423488D01*
X135586482Y-60292409D01*
X135586471Y-60292404D01*
X135344255Y-60192075D01*
X135091020Y-60124222D01*
X135091009Y-60124220D01*
X134831094Y-60090000D01*
X134568905Y-60090000D01*
X134308990Y-60124220D01*
X134308979Y-60124222D01*
X134055744Y-60192075D01*
X133813528Y-60292404D01*
X133813517Y-60292409D01*
X133586471Y-60423496D01*
X133473633Y-60510079D01*
X133473633Y-60510080D01*
X134081466Y-61117913D01*
X133950825Y-61212829D01*
X133822829Y-61340825D01*
X133727913Y-61471466D01*
X133120080Y-60863633D01*
X133120079Y-60863633D01*
X133033496Y-60976471D01*
X132902409Y-61203517D01*
X132902404Y-61203528D01*
X132802075Y-61445744D01*
X132734222Y-61698979D01*
X132734220Y-61698990D01*
X132700000Y-61958905D01*
X132700000Y-62221094D01*
X132734220Y-62481009D01*
X132734222Y-62481020D01*
X132802075Y-62734255D01*
X132902404Y-62976471D01*
X132902409Y-62976482D01*
X133033488Y-63203516D01*
X133033494Y-63203524D01*
X133120080Y-63316365D01*
X133727912Y-62708532D01*
X133822829Y-62839175D01*
X133950825Y-62967171D01*
X134081465Y-63062086D01*
X133473633Y-63669917D01*
X133473633Y-63669918D01*
X133586475Y-63756505D01*
X133586483Y-63756511D01*
X133813517Y-63887590D01*
X133813528Y-63887595D01*
X134055744Y-63987924D01*
X134308979Y-64055777D01*
X134308990Y-64055779D01*
X134568905Y-64089999D01*
X134568920Y-64090000D01*
X134831080Y-64090000D01*
X134831094Y-64089999D01*
X135091009Y-64055779D01*
X135091020Y-64055777D01*
X135344255Y-63987924D01*
X135586471Y-63887595D01*
X135586482Y-63887590D01*
X135813516Y-63756511D01*
X135813534Y-63756499D01*
X135926365Y-63669919D01*
X135926365Y-63669917D01*
X135318534Y-63062086D01*
X135449175Y-62967171D01*
X135577171Y-62839175D01*
X135672086Y-62708534D01*
X136279917Y-63316365D01*
X136279919Y-63316365D01*
X136366499Y-63203534D01*
X136366510Y-63203517D01*
X136388113Y-63166101D01*
X136438680Y-63117886D01*
X136507287Y-63104662D01*
X136572151Y-63130630D01*
X136612680Y-63187544D01*
X136619500Y-63228101D01*
X136619500Y-79495500D01*
X136599815Y-79562539D01*
X136547011Y-79608294D01*
X136495500Y-79619500D01*
X92984500Y-79619500D01*
X92917461Y-79599815D01*
X92871706Y-79547011D01*
X92860500Y-79495500D01*
X92860500Y-62852155D01*
X96730000Y-62852155D01*
X96730000Y-63650000D01*
X97796988Y-63650000D01*
X97764075Y-63707007D01*
X97730000Y-63834174D01*
X97730000Y-63965826D01*
X97764075Y-64092993D01*
X97796988Y-64150000D01*
X96730000Y-64150000D01*
X96730000Y-64947844D01*
X96736401Y-65007372D01*
X96736403Y-65007379D01*
X96786645Y-65142086D01*
X96786649Y-65142093D01*
X96872809Y-65257187D01*
X96872812Y-65257190D01*
X96987906Y-65343350D01*
X96987913Y-65343354D01*
X97122620Y-65393596D01*
X97122627Y-65393598D01*
X97182155Y-65399999D01*
X97182172Y-65400000D01*
X98980000Y-65400000D01*
X98980000Y-64400000D01*
X99480000Y-64400000D01*
X99480000Y-65400000D01*
X101277828Y-65400000D01*
X101277844Y-65399999D01*
X101337372Y-65393598D01*
X101337379Y-65393596D01*
X101472086Y-65343354D01*
X101472093Y-65343350D01*
X101587187Y-65257190D01*
X101587190Y-65257187D01*
X101673350Y-65142093D01*
X101673354Y-65142086D01*
X101723596Y-65007379D01*
X101723598Y-65007372D01*
X101729999Y-64947844D01*
X101730000Y-64947827D01*
X101730000Y-64697682D01*
X123330000Y-64697682D01*
X123330000Y-64902317D01*
X123362009Y-65104417D01*
X123425244Y-65299031D01*
X123518141Y-65481350D01*
X123518147Y-65481359D01*
X123550523Y-65525921D01*
X123550524Y-65525922D01*
X124167449Y-64908997D01*
X124187370Y-64983343D01*
X124249905Y-65091657D01*
X124338343Y-65180095D01*
X124446657Y-65242630D01*
X124521002Y-65262550D01*
X123904076Y-65879474D01*
X123948650Y-65911859D01*
X124130968Y-66004755D01*
X124325582Y-66067990D01*
X124527683Y-66100000D01*
X124732317Y-66100000D01*
X124934417Y-66067990D01*
X125129031Y-66004755D01*
X125311349Y-65911859D01*
X125355921Y-65879474D01*
X124738997Y-65262550D01*
X124813343Y-65242630D01*
X124921657Y-65180095D01*
X125010095Y-65091657D01*
X125072630Y-64983343D01*
X125092550Y-64908997D01*
X125709474Y-65525921D01*
X125741859Y-65481349D01*
X125769233Y-65427624D01*
X125817207Y-65376827D01*
X125885028Y-65360031D01*
X125951163Y-65382567D01*
X125990203Y-65427621D01*
X126017713Y-65481611D01*
X126138028Y-65647213D01*
X126282786Y-65791971D01*
X126403226Y-65879474D01*
X126448390Y-65912287D01*
X126564607Y-65971503D01*
X126630776Y-66005218D01*
X126630778Y-66005218D01*
X126630781Y-66005220D01*
X126735137Y-66039127D01*
X126825465Y-66068477D01*
X126926557Y-66084488D01*
X127027648Y-66100500D01*
X127027649Y-66100500D01*
X127232351Y-66100500D01*
X127232352Y-66100500D01*
X127434534Y-66068477D01*
X127629219Y-66005220D01*
X127811610Y-65912287D01*
X127904590Y-65844732D01*
X127977213Y-65791971D01*
X127977215Y-65791968D01*
X127977219Y-65791966D01*
X128042319Y-65726866D01*
X128103642Y-65693381D01*
X128173334Y-65698365D01*
X128217681Y-65726866D01*
X128282786Y-65791971D01*
X128403226Y-65879474D01*
X128448390Y-65912287D01*
X128564607Y-65971503D01*
X128630776Y-66005218D01*
X128630778Y-66005218D01*
X128630781Y-66005220D01*
X128735137Y-66039127D01*
X128825465Y-66068477D01*
X128926557Y-66084488D01*
X129027648Y-66100500D01*
X129027649Y-66100500D01*
X129232351Y-66100500D01*
X129232352Y-66100500D01*
X129434534Y-66068477D01*
X129629219Y-66005220D01*
X129811610Y-65912287D01*
X129904590Y-65844732D01*
X129977213Y-65791971D01*
X129977215Y-65791968D01*
X129977219Y-65791966D01*
X130121966Y-65647219D01*
X130125025Y-65643009D01*
X130180352Y-65600339D01*
X130249965Y-65594355D01*
X130311762Y-65626957D01*
X130341530Y-65672554D01*
X130386202Y-65792328D01*
X130386206Y-65792335D01*
X130472452Y-65907544D01*
X130472455Y-65907547D01*
X130587664Y-65993793D01*
X130587671Y-65993797D01*
X130722517Y-66044091D01*
X130722516Y-66044091D01*
X130729444Y-66044835D01*
X130782127Y-66050500D01*
X132477872Y-66050499D01*
X132537483Y-66044091D01*
X132672331Y-65993796D01*
X132787546Y-65907546D01*
X132873796Y-65792331D01*
X132924091Y-65657483D01*
X132930500Y-65597873D01*
X132930499Y-64002128D01*
X132924091Y-63942517D01*
X132903606Y-63887595D01*
X132873797Y-63807671D01*
X132873796Y-63807669D01*
X132790407Y-63696276D01*
X132790406Y-63696273D01*
X132787547Y-63692455D01*
X132787544Y-63692452D01*
X132672335Y-63606206D01*
X132672328Y-63606202D01*
X132537482Y-63555908D01*
X132537483Y-63555908D01*
X132477883Y-63549501D01*
X132477881Y-63549500D01*
X132477873Y-63549500D01*
X132477864Y-63549500D01*
X130782129Y-63549500D01*
X130782123Y-63549501D01*
X130722516Y-63555908D01*
X130587671Y-63606202D01*
X130587664Y-63606206D01*
X130472455Y-63692452D01*
X130472452Y-63692455D01*
X130386206Y-63807664D01*
X130386202Y-63807671D01*
X130341530Y-63927445D01*
X130299659Y-63983379D01*
X130234195Y-64007796D01*
X130165922Y-63992944D01*
X130125029Y-63956996D01*
X130121969Y-63952784D01*
X129977213Y-63808028D01*
X129811613Y-63687715D01*
X129811612Y-63687714D01*
X129811610Y-63687713D01*
X129737594Y-63650000D01*
X129629223Y-63594781D01*
X129434534Y-63531522D01*
X129259995Y-63503878D01*
X129232352Y-63499500D01*
X129027648Y-63499500D01*
X129003329Y-63503351D01*
X128825465Y-63531522D01*
X128630776Y-63594781D01*
X128448386Y-63687715D01*
X128282786Y-63808028D01*
X128282782Y-63808032D01*
X128217681Y-63873134D01*
X128156358Y-63906619D01*
X128086666Y-63901635D01*
X128042319Y-63873134D01*
X127977213Y-63808028D01*
X127811613Y-63687715D01*
X127811612Y-63687714D01*
X127811610Y-63687713D01*
X127737594Y-63650000D01*
X127629223Y-63594781D01*
X127434534Y-63531522D01*
X127259995Y-63503878D01*
X127232352Y-63499500D01*
X127027648Y-63499500D01*
X127003329Y-63503351D01*
X126825465Y-63531522D01*
X126630776Y-63594781D01*
X126448386Y-63687715D01*
X126282786Y-63808028D01*
X126138028Y-63952786D01*
X126017714Y-64118386D01*
X125990203Y-64172379D01*
X125942227Y-64223174D01*
X125874406Y-64239968D01*
X125808272Y-64217429D01*
X125769234Y-64172376D01*
X125741861Y-64118652D01*
X125709474Y-64074077D01*
X125709474Y-64074076D01*
X125092550Y-64691001D01*
X125072630Y-64616657D01*
X125010095Y-64508343D01*
X124921657Y-64419905D01*
X124813343Y-64357370D01*
X124738996Y-64337449D01*
X125355922Y-63720524D01*
X125355921Y-63720523D01*
X125311359Y-63688147D01*
X125311350Y-63688141D01*
X125129031Y-63595244D01*
X124934417Y-63532009D01*
X124732317Y-63500000D01*
X124527683Y-63500000D01*
X124325582Y-63532009D01*
X124130968Y-63595244D01*
X123948644Y-63688143D01*
X123904077Y-63720523D01*
X123904077Y-63720524D01*
X124521003Y-64337449D01*
X124446657Y-64357370D01*
X124338343Y-64419905D01*
X124249905Y-64508343D01*
X124187370Y-64616657D01*
X124167449Y-64691002D01*
X123550524Y-64074077D01*
X123550523Y-64074077D01*
X123518143Y-64118644D01*
X123425244Y-64300968D01*
X123362009Y-64495582D01*
X123330000Y-64697682D01*
X101730000Y-64697682D01*
X101730000Y-64150000D01*
X100663012Y-64150000D01*
X100695925Y-64092993D01*
X100730000Y-63965826D01*
X100730000Y-63834174D01*
X100695925Y-63707007D01*
X100663012Y-63650000D01*
X101730000Y-63650000D01*
X101730000Y-62852172D01*
X101729999Y-62852155D01*
X101723598Y-62792627D01*
X101723596Y-62792620D01*
X101673354Y-62657913D01*
X101673350Y-62657906D01*
X101587190Y-62542812D01*
X101587187Y-62542809D01*
X101472093Y-62456649D01*
X101472086Y-62456645D01*
X101337379Y-62406403D01*
X101337372Y-62406401D01*
X101277844Y-62400000D01*
X99480000Y-62400000D01*
X99480000Y-63400000D01*
X98980000Y-63400000D01*
X98980000Y-62400000D01*
X97182155Y-62400000D01*
X97122627Y-62406401D01*
X97122620Y-62406403D01*
X96987913Y-62456645D01*
X96987906Y-62456649D01*
X96872812Y-62542809D01*
X96872809Y-62542812D01*
X96786649Y-62657906D01*
X96786645Y-62657913D01*
X96736403Y-62792620D01*
X96736401Y-62792627D01*
X96730000Y-62852155D01*
X92860500Y-62852155D01*
X92860500Y-61958905D01*
X119560000Y-61958905D01*
X119560000Y-62221094D01*
X119594220Y-62481009D01*
X119594222Y-62481020D01*
X119662075Y-62734255D01*
X119762404Y-62976471D01*
X119762409Y-62976482D01*
X119893488Y-63203516D01*
X119893494Y-63203524D01*
X119980080Y-63316365D01*
X120587912Y-62708532D01*
X120682829Y-62839175D01*
X120810825Y-62967171D01*
X120941465Y-63062086D01*
X120333633Y-63669917D01*
X120333633Y-63669918D01*
X120446475Y-63756505D01*
X120446483Y-63756511D01*
X120673517Y-63887590D01*
X120673528Y-63887595D01*
X120915744Y-63987924D01*
X121168979Y-64055777D01*
X121168990Y-64055779D01*
X121428905Y-64089999D01*
X121428920Y-64090000D01*
X121691080Y-64090000D01*
X121691094Y-64089999D01*
X121951009Y-64055779D01*
X121951020Y-64055777D01*
X122204255Y-63987924D01*
X122446471Y-63887595D01*
X122446482Y-63887590D01*
X122673516Y-63756511D01*
X122673534Y-63756499D01*
X122786365Y-63669920D01*
X122786365Y-63669917D01*
X122178534Y-63062086D01*
X122309175Y-62967171D01*
X122437171Y-62839175D01*
X122532086Y-62708534D01*
X123139917Y-63316365D01*
X123139919Y-63316365D01*
X123226499Y-63203534D01*
X123226511Y-63203516D01*
X123357590Y-62976482D01*
X123357595Y-62976471D01*
X123457924Y-62734255D01*
X123525777Y-62481020D01*
X123525779Y-62481009D01*
X123559999Y-62221094D01*
X123560000Y-62221080D01*
X123560000Y-61958919D01*
X123559999Y-61958905D01*
X123525779Y-61698990D01*
X123525777Y-61698979D01*
X123457924Y-61445744D01*
X123357595Y-61203528D01*
X123357590Y-61203517D01*
X123226511Y-60976483D01*
X123226505Y-60976475D01*
X123139918Y-60863633D01*
X123139917Y-60863633D01*
X122532085Y-61471465D01*
X122437171Y-61340825D01*
X122309175Y-61212829D01*
X122178532Y-61117912D01*
X122786365Y-60510080D01*
X122673524Y-60423494D01*
X122673516Y-60423488D01*
X122446482Y-60292409D01*
X122446471Y-60292404D01*
X122204255Y-60192075D01*
X121951020Y-60124222D01*
X121951009Y-60124220D01*
X121691094Y-60090000D01*
X121428905Y-60090000D01*
X121168990Y-60124220D01*
X121168979Y-60124222D01*
X120915744Y-60192075D01*
X120673528Y-60292404D01*
X120673517Y-60292409D01*
X120446471Y-60423496D01*
X120333633Y-60510079D01*
X120333633Y-60510080D01*
X120941466Y-61117913D01*
X120810825Y-61212829D01*
X120682829Y-61340825D01*
X120587913Y-61471466D01*
X119980080Y-60863633D01*
X119980079Y-60863633D01*
X119893496Y-60976471D01*
X119762409Y-61203517D01*
X119762404Y-61203528D01*
X119662075Y-61445744D01*
X119594222Y-61698979D01*
X119594220Y-61698990D01*
X119560000Y-61958905D01*
X92860500Y-61958905D01*
X92860500Y-56031902D01*
X93229500Y-56031902D01*
X93229500Y-57768097D01*
X93266446Y-58001368D01*
X93339433Y-58225996D01*
X93446657Y-58436433D01*
X93585483Y-58627510D01*
X93752490Y-58794517D01*
X93943567Y-58933343D01*
X94042991Y-58984002D01*
X94154003Y-59040566D01*
X94154005Y-59040566D01*
X94154008Y-59040568D01*
X94274412Y-59079689D01*
X94378631Y-59113553D01*
X94611903Y-59150500D01*
X94611908Y-59150500D01*
X94848097Y-59150500D01*
X95081368Y-59113553D01*
X95305992Y-59040568D01*
X95516433Y-58933343D01*
X95707510Y-58794517D01*
X95874517Y-58627510D01*
X96013343Y-58436433D01*
X96120568Y-58225992D01*
X96193553Y-58001368D01*
X96228313Y-57781902D01*
X97079500Y-57781902D01*
X97079500Y-58018097D01*
X97116446Y-58251368D01*
X97189433Y-58475996D01*
X97266635Y-58627512D01*
X97296657Y-58686433D01*
X97435483Y-58877510D01*
X97602490Y-59044517D01*
X97793567Y-59183343D01*
X97892991Y-59234002D01*
X98004003Y-59290566D01*
X98004005Y-59290566D01*
X98004008Y-59290568D01*
X98124412Y-59329689D01*
X98228631Y-59363553D01*
X98461903Y-59400500D01*
X98461908Y-59400500D01*
X99998097Y-59400500D01*
X100231368Y-59363553D01*
X100455992Y-59290568D01*
X100666433Y-59183343D01*
X100857510Y-59044517D01*
X101024517Y-58877510D01*
X101163343Y-58686433D01*
X101270568Y-58475992D01*
X101343553Y-58251368D01*
X101380500Y-58018097D01*
X101380500Y-57781902D01*
X101343553Y-57548631D01*
X101270566Y-57324003D01*
X101163342Y-57113566D01*
X101024517Y-56922490D01*
X100857510Y-56755483D01*
X100666433Y-56616657D01*
X100455996Y-56509433D01*
X100231368Y-56436446D01*
X99998097Y-56399500D01*
X99998092Y-56399500D01*
X98461908Y-56399500D01*
X98461903Y-56399500D01*
X98228631Y-56436446D01*
X98004003Y-56509433D01*
X97793566Y-56616657D01*
X97684550Y-56695862D01*
X97602490Y-56755483D01*
X97602488Y-56755485D01*
X97602487Y-56755485D01*
X97435485Y-56922487D01*
X97435485Y-56922488D01*
X97435483Y-56922490D01*
X97375862Y-57004550D01*
X97296657Y-57113566D01*
X97189433Y-57324003D01*
X97116446Y-57548631D01*
X97079500Y-57781902D01*
X96228313Y-57781902D01*
X96230500Y-57768092D01*
X96230500Y-56031908D01*
X96230500Y-56031902D01*
X102229500Y-56031902D01*
X102229500Y-57768097D01*
X102266446Y-58001368D01*
X102339433Y-58225996D01*
X102446657Y-58436433D01*
X102585483Y-58627510D01*
X102752490Y-58794517D01*
X102943567Y-58933343D01*
X103042991Y-58984002D01*
X103154003Y-59040566D01*
X103154005Y-59040566D01*
X103154008Y-59040568D01*
X103274412Y-59079689D01*
X103378631Y-59113553D01*
X103611903Y-59150500D01*
X103611908Y-59150500D01*
X103848097Y-59150500D01*
X104081368Y-59113553D01*
X104305992Y-59040568D01*
X104516433Y-58933343D01*
X104707510Y-58794517D01*
X104874517Y-58627510D01*
X105013343Y-58436433D01*
X105120568Y-58225992D01*
X105193553Y-58001368D01*
X105230500Y-57768097D01*
X105230500Y-56031902D01*
X105193553Y-55798631D01*
X105120566Y-55574003D01*
X105064002Y-55462991D01*
X105013343Y-55363567D01*
X104874517Y-55172490D01*
X104707510Y-55005483D01*
X104516433Y-54866657D01*
X104305996Y-54759433D01*
X104081368Y-54686446D01*
X103848097Y-54649500D01*
X103848092Y-54649500D01*
X103611908Y-54649500D01*
X103611903Y-54649500D01*
X103378631Y-54686446D01*
X103154003Y-54759433D01*
X102943566Y-54866657D01*
X102834550Y-54945862D01*
X102752490Y-55005483D01*
X102752488Y-55005485D01*
X102752487Y-55005485D01*
X102585485Y-55172487D01*
X102585485Y-55172488D01*
X102585483Y-55172490D01*
X102525862Y-55254550D01*
X102446657Y-55363566D01*
X102339433Y-55574003D01*
X102266446Y-55798631D01*
X102229500Y-56031902D01*
X96230500Y-56031902D01*
X96193553Y-55798631D01*
X96120566Y-55574003D01*
X96064002Y-55462991D01*
X96013343Y-55363567D01*
X95874517Y-55172490D01*
X95707510Y-55005483D01*
X95516433Y-54866657D01*
X95378802Y-54796530D01*
X98179500Y-54796530D01*
X98179500Y-55003469D01*
X98219868Y-55206412D01*
X98219870Y-55206420D01*
X98299058Y-55397596D01*
X98414024Y-55569657D01*
X98560342Y-55715975D01*
X98560345Y-55715977D01*
X98732402Y-55830941D01*
X98923580Y-55910130D01*
X99126530Y-55950499D01*
X99126534Y-55950500D01*
X99126535Y-55950500D01*
X99333466Y-55950500D01*
X99333467Y-55950499D01*
X99536420Y-55910130D01*
X99727598Y-55830941D01*
X99899655Y-55715977D01*
X100045977Y-55569655D01*
X100160941Y-55397598D01*
X100240130Y-55206420D01*
X100280500Y-55003465D01*
X100280500Y-54796535D01*
X100240130Y-54593580D01*
X100160941Y-54402402D01*
X100045977Y-54230345D01*
X100045975Y-54230342D01*
X99899657Y-54084024D01*
X99813626Y-54026541D01*
X99727598Y-53969059D01*
X99536420Y-53889870D01*
X99536412Y-53889868D01*
X99333469Y-53849500D01*
X99333465Y-53849500D01*
X99126535Y-53849500D01*
X99126530Y-53849500D01*
X98923587Y-53889868D01*
X98923579Y-53889870D01*
X98732403Y-53969058D01*
X98560342Y-54084024D01*
X98414024Y-54230342D01*
X98299058Y-54402403D01*
X98219870Y-54593579D01*
X98219868Y-54593587D01*
X98179500Y-54796530D01*
X95378802Y-54796530D01*
X95305996Y-54759433D01*
X95081368Y-54686446D01*
X94848097Y-54649500D01*
X94848092Y-54649500D01*
X94611908Y-54649500D01*
X94611903Y-54649500D01*
X94378631Y-54686446D01*
X94154003Y-54759433D01*
X93943566Y-54866657D01*
X93834550Y-54945862D01*
X93752490Y-55005483D01*
X93752488Y-55005485D01*
X93752487Y-55005485D01*
X93585485Y-55172487D01*
X93585485Y-55172488D01*
X93585483Y-55172490D01*
X93525862Y-55254550D01*
X93446657Y-55363566D01*
X93339433Y-55574003D01*
X93266446Y-55798631D01*
X93229500Y-56031902D01*
X92860500Y-56031902D01*
X92860500Y-51224500D01*
X92880185Y-51157461D01*
X92932989Y-51111706D01*
X92984500Y-51100500D01*
X136495500Y-51100500D01*
X136562539Y-51120185D01*
G37*
%TD.AperFunction*%
%TD*%
M02*
