%TF.GenerationSoftware,KiCad,Pcbnew,9.0.3*%
%TF.CreationDate,2025-10-14T12:27:29+02:00*%
%TF.ProjectId,TEST_JLC_PCB,54455354-5f4a-44c4-935f-5043422e6b69,rev?*%
%TF.SameCoordinates,Original*%
%TF.FileFunction,Legend,Top*%
%TF.FilePolarity,Positive*%
%FSLAX46Y46*%
G04 Gerber Fmt 4.6, Leading zero omitted, Abs format (unit mm)*
G04 Created by KiCad (PCBNEW 9.0.3) date 2025-10-14 12:27:29*
%MOMM*%
%LPD*%
G01*
G04 APERTURE LIST*
%ADD10C,0.150000*%
%ADD11C,0.120000*%
G04 APERTURE END LIST*
D10*
X97823333Y-66599580D02*
X97775714Y-66647200D01*
X97775714Y-66647200D02*
X97632857Y-66694819D01*
X97632857Y-66694819D02*
X97537619Y-66694819D01*
X97537619Y-66694819D02*
X97394762Y-66647200D01*
X97394762Y-66647200D02*
X97299524Y-66551961D01*
X97299524Y-66551961D02*
X97251905Y-66456723D01*
X97251905Y-66456723D02*
X97204286Y-66266247D01*
X97204286Y-66266247D02*
X97204286Y-66123390D01*
X97204286Y-66123390D02*
X97251905Y-65932914D01*
X97251905Y-65932914D02*
X97299524Y-65837676D01*
X97299524Y-65837676D02*
X97394762Y-65742438D01*
X97394762Y-65742438D02*
X97537619Y-65694819D01*
X97537619Y-65694819D02*
X97632857Y-65694819D01*
X97632857Y-65694819D02*
X97775714Y-65742438D01*
X97775714Y-65742438D02*
X97823333Y-65790057D01*
X98728095Y-65694819D02*
X98251905Y-65694819D01*
X98251905Y-65694819D02*
X98204286Y-66171009D01*
X98204286Y-66171009D02*
X98251905Y-66123390D01*
X98251905Y-66123390D02*
X98347143Y-66075771D01*
X98347143Y-66075771D02*
X98585238Y-66075771D01*
X98585238Y-66075771D02*
X98680476Y-66123390D01*
X98680476Y-66123390D02*
X98728095Y-66171009D01*
X98728095Y-66171009D02*
X98775714Y-66266247D01*
X98775714Y-66266247D02*
X98775714Y-66504342D01*
X98775714Y-66504342D02*
X98728095Y-66599580D01*
X98728095Y-66599580D02*
X98680476Y-66647200D01*
X98680476Y-66647200D02*
X98585238Y-66694819D01*
X98585238Y-66694819D02*
X98347143Y-66694819D01*
X98347143Y-66694819D02*
X98251905Y-66647200D01*
X98251905Y-66647200D02*
X98204286Y-66599580D01*
X119856666Y-64564819D02*
X119856666Y-65279104D01*
X119856666Y-65279104D02*
X119809047Y-65421961D01*
X119809047Y-65421961D02*
X119713809Y-65517200D01*
X119713809Y-65517200D02*
X119570952Y-65564819D01*
X119570952Y-65564819D02*
X119475714Y-65564819D01*
X120856666Y-65564819D02*
X120285238Y-65564819D01*
X120570952Y-65564819D02*
X120570952Y-64564819D01*
X120570952Y-64564819D02*
X120475714Y-64707676D01*
X120475714Y-64707676D02*
X120380476Y-64802914D01*
X120380476Y-64802914D02*
X120285238Y-64850533D01*
X101713333Y-78119580D02*
X101665714Y-78167200D01*
X101665714Y-78167200D02*
X101522857Y-78214819D01*
X101522857Y-78214819D02*
X101427619Y-78214819D01*
X101427619Y-78214819D02*
X101284762Y-78167200D01*
X101284762Y-78167200D02*
X101189524Y-78071961D01*
X101189524Y-78071961D02*
X101141905Y-77976723D01*
X101141905Y-77976723D02*
X101094286Y-77786247D01*
X101094286Y-77786247D02*
X101094286Y-77643390D01*
X101094286Y-77643390D02*
X101141905Y-77452914D01*
X101141905Y-77452914D02*
X101189524Y-77357676D01*
X101189524Y-77357676D02*
X101284762Y-77262438D01*
X101284762Y-77262438D02*
X101427619Y-77214819D01*
X101427619Y-77214819D02*
X101522857Y-77214819D01*
X101522857Y-77214819D02*
X101665714Y-77262438D01*
X101665714Y-77262438D02*
X101713333Y-77310057D01*
X102665714Y-78214819D02*
X102094286Y-78214819D01*
X102380000Y-78214819D02*
X102380000Y-77214819D01*
X102380000Y-77214819D02*
X102284762Y-77357676D01*
X102284762Y-77357676D02*
X102189524Y-77452914D01*
X102189524Y-77452914D02*
X102094286Y-77500533D01*
X93526666Y-66034819D02*
X93526666Y-66749104D01*
X93526666Y-66749104D02*
X93479047Y-66891961D01*
X93479047Y-66891961D02*
X93383809Y-66987200D01*
X93383809Y-66987200D02*
X93240952Y-67034819D01*
X93240952Y-67034819D02*
X93145714Y-67034819D01*
X93955238Y-66130057D02*
X94002857Y-66082438D01*
X94002857Y-66082438D02*
X94098095Y-66034819D01*
X94098095Y-66034819D02*
X94336190Y-66034819D01*
X94336190Y-66034819D02*
X94431428Y-66082438D01*
X94431428Y-66082438D02*
X94479047Y-66130057D01*
X94479047Y-66130057D02*
X94526666Y-66225295D01*
X94526666Y-66225295D02*
X94526666Y-66320533D01*
X94526666Y-66320533D02*
X94479047Y-66463390D01*
X94479047Y-66463390D02*
X93907619Y-67034819D01*
X93907619Y-67034819D02*
X94526666Y-67034819D01*
X131723333Y-79019580D02*
X131675714Y-79067200D01*
X131675714Y-79067200D02*
X131532857Y-79114819D01*
X131532857Y-79114819D02*
X131437619Y-79114819D01*
X131437619Y-79114819D02*
X131294762Y-79067200D01*
X131294762Y-79067200D02*
X131199524Y-78971961D01*
X131199524Y-78971961D02*
X131151905Y-78876723D01*
X131151905Y-78876723D02*
X131104286Y-78686247D01*
X131104286Y-78686247D02*
X131104286Y-78543390D01*
X131104286Y-78543390D02*
X131151905Y-78352914D01*
X131151905Y-78352914D02*
X131199524Y-78257676D01*
X131199524Y-78257676D02*
X131294762Y-78162438D01*
X131294762Y-78162438D02*
X131437619Y-78114819D01*
X131437619Y-78114819D02*
X131532857Y-78114819D01*
X131532857Y-78114819D02*
X131675714Y-78162438D01*
X131675714Y-78162438D02*
X131723333Y-78210057D01*
X132056667Y-78114819D02*
X132675714Y-78114819D01*
X132675714Y-78114819D02*
X132342381Y-78495771D01*
X132342381Y-78495771D02*
X132485238Y-78495771D01*
X132485238Y-78495771D02*
X132580476Y-78543390D01*
X132580476Y-78543390D02*
X132628095Y-78591009D01*
X132628095Y-78591009D02*
X132675714Y-78686247D01*
X132675714Y-78686247D02*
X132675714Y-78924342D01*
X132675714Y-78924342D02*
X132628095Y-79019580D01*
X132628095Y-79019580D02*
X132580476Y-79067200D01*
X132580476Y-79067200D02*
X132485238Y-79114819D01*
X132485238Y-79114819D02*
X132199524Y-79114819D01*
X132199524Y-79114819D02*
X132104286Y-79067200D01*
X132104286Y-79067200D02*
X132056667Y-79019580D01*
X118593333Y-68484819D02*
X118117143Y-68484819D01*
X118117143Y-68484819D02*
X118117143Y-67484819D01*
X119450476Y-68484819D02*
X118879048Y-68484819D01*
X119164762Y-68484819D02*
X119164762Y-67484819D01*
X119164762Y-67484819D02*
X119069524Y-67627676D01*
X119069524Y-67627676D02*
X118974286Y-67722914D01*
X118974286Y-67722914D02*
X118879048Y-67770533D01*
X117458095Y-53824819D02*
X117458095Y-54634342D01*
X117458095Y-54634342D02*
X117505714Y-54729580D01*
X117505714Y-54729580D02*
X117553333Y-54777200D01*
X117553333Y-54777200D02*
X117648571Y-54824819D01*
X117648571Y-54824819D02*
X117839047Y-54824819D01*
X117839047Y-54824819D02*
X117934285Y-54777200D01*
X117934285Y-54777200D02*
X117981904Y-54729580D01*
X117981904Y-54729580D02*
X118029523Y-54634342D01*
X118029523Y-54634342D02*
X118029523Y-53824819D01*
X118458095Y-53920057D02*
X118505714Y-53872438D01*
X118505714Y-53872438D02*
X118600952Y-53824819D01*
X118600952Y-53824819D02*
X118839047Y-53824819D01*
X118839047Y-53824819D02*
X118934285Y-53872438D01*
X118934285Y-53872438D02*
X118981904Y-53920057D01*
X118981904Y-53920057D02*
X119029523Y-54015295D01*
X119029523Y-54015295D02*
X119029523Y-54110533D01*
X119029523Y-54110533D02*
X118981904Y-54253390D01*
X118981904Y-54253390D02*
X118410476Y-54824819D01*
X118410476Y-54824819D02*
X119029523Y-54824819D01*
X124593333Y-68979580D02*
X124545714Y-69027200D01*
X124545714Y-69027200D02*
X124402857Y-69074819D01*
X124402857Y-69074819D02*
X124307619Y-69074819D01*
X124307619Y-69074819D02*
X124164762Y-69027200D01*
X124164762Y-69027200D02*
X124069524Y-68931961D01*
X124069524Y-68931961D02*
X124021905Y-68836723D01*
X124021905Y-68836723D02*
X123974286Y-68646247D01*
X123974286Y-68646247D02*
X123974286Y-68503390D01*
X123974286Y-68503390D02*
X124021905Y-68312914D01*
X124021905Y-68312914D02*
X124069524Y-68217676D01*
X124069524Y-68217676D02*
X124164762Y-68122438D01*
X124164762Y-68122438D02*
X124307619Y-68074819D01*
X124307619Y-68074819D02*
X124402857Y-68074819D01*
X124402857Y-68074819D02*
X124545714Y-68122438D01*
X124545714Y-68122438D02*
X124593333Y-68170057D01*
X124974286Y-68170057D02*
X125021905Y-68122438D01*
X125021905Y-68122438D02*
X125117143Y-68074819D01*
X125117143Y-68074819D02*
X125355238Y-68074819D01*
X125355238Y-68074819D02*
X125450476Y-68122438D01*
X125450476Y-68122438D02*
X125498095Y-68170057D01*
X125498095Y-68170057D02*
X125545714Y-68265295D01*
X125545714Y-68265295D02*
X125545714Y-68360533D01*
X125545714Y-68360533D02*
X125498095Y-68503390D01*
X125498095Y-68503390D02*
X124926667Y-69074819D01*
X124926667Y-69074819D02*
X125545714Y-69074819D01*
X104181905Y-70024819D02*
X104181905Y-69024819D01*
X104181905Y-69024819D02*
X104420000Y-69024819D01*
X104420000Y-69024819D02*
X104562857Y-69072438D01*
X104562857Y-69072438D02*
X104658095Y-69167676D01*
X104658095Y-69167676D02*
X104705714Y-69262914D01*
X104705714Y-69262914D02*
X104753333Y-69453390D01*
X104753333Y-69453390D02*
X104753333Y-69596247D01*
X104753333Y-69596247D02*
X104705714Y-69786723D01*
X104705714Y-69786723D02*
X104658095Y-69881961D01*
X104658095Y-69881961D02*
X104562857Y-69977200D01*
X104562857Y-69977200D02*
X104420000Y-70024819D01*
X104420000Y-70024819D02*
X104181905Y-70024819D01*
X105705714Y-70024819D02*
X105134286Y-70024819D01*
X105420000Y-70024819D02*
X105420000Y-69024819D01*
X105420000Y-69024819D02*
X105324762Y-69167676D01*
X105324762Y-69167676D02*
X105229524Y-69262914D01*
X105229524Y-69262914D02*
X105134286Y-69310533D01*
X134193333Y-72089580D02*
X134145714Y-72137200D01*
X134145714Y-72137200D02*
X134002857Y-72184819D01*
X134002857Y-72184819D02*
X133907619Y-72184819D01*
X133907619Y-72184819D02*
X133764762Y-72137200D01*
X133764762Y-72137200D02*
X133669524Y-72041961D01*
X133669524Y-72041961D02*
X133621905Y-71946723D01*
X133621905Y-71946723D02*
X133574286Y-71756247D01*
X133574286Y-71756247D02*
X133574286Y-71613390D01*
X133574286Y-71613390D02*
X133621905Y-71422914D01*
X133621905Y-71422914D02*
X133669524Y-71327676D01*
X133669524Y-71327676D02*
X133764762Y-71232438D01*
X133764762Y-71232438D02*
X133907619Y-71184819D01*
X133907619Y-71184819D02*
X134002857Y-71184819D01*
X134002857Y-71184819D02*
X134145714Y-71232438D01*
X134145714Y-71232438D02*
X134193333Y-71280057D01*
X135050476Y-71518152D02*
X135050476Y-72184819D01*
X134812381Y-71137200D02*
X134574286Y-71851485D01*
X134574286Y-71851485D02*
X135193333Y-71851485D01*
D11*
%TO.C,C5*%
X98371252Y-67260000D02*
X96948748Y-67260000D01*
X98371252Y-69080000D02*
X96948748Y-69080000D01*
%TO.C,J1*%
X120820000Y-51700000D02*
X120820000Y-52220000D01*
X120820000Y-52220000D02*
X121470000Y-52220000D01*
X121470000Y-60330000D02*
X121470000Y-52220000D01*
X121470000Y-67180000D02*
X121470000Y-63850000D01*
X132530000Y-67400000D02*
X130730000Y-67400000D01*
X134790000Y-52220000D02*
X134790000Y-60330000D01*
X134790000Y-52220000D02*
X135440000Y-52220000D01*
X134790000Y-67180000D02*
X121470000Y-67180000D01*
X134790000Y-67180000D02*
X134790000Y-63850000D01*
X135440000Y-51700000D02*
X120820000Y-51700000D01*
X135440000Y-52220000D02*
X135440000Y-51700000D01*
%TO.C,C1*%
X93650000Y-71924437D02*
X93650000Y-77680000D01*
X93650000Y-77680000D02*
X96000000Y-77680000D01*
X94714437Y-70860000D02*
X93650000Y-71924437D01*
X94714437Y-70860000D02*
X96000000Y-70860000D01*
X98907500Y-69832500D02*
X98907500Y-70620000D01*
X99301250Y-70226250D02*
X98513750Y-70226250D01*
X99405563Y-70860000D02*
X98120000Y-70860000D01*
X99405563Y-70860000D02*
X100470000Y-71924437D01*
X100470000Y-71924437D02*
X100470000Y-77680000D01*
X100470000Y-77680000D02*
X98120000Y-77680000D01*
%TO.C,J2*%
X94120000Y-51790000D02*
X104340000Y-51790000D01*
X94120000Y-54850000D02*
X94120000Y-51790000D01*
X94120000Y-65010000D02*
X94120000Y-58950000D01*
X96930000Y-65010000D02*
X94120000Y-65010000D01*
X100230000Y-65200000D02*
X98230000Y-65200000D01*
X104340000Y-51790000D02*
X104340000Y-54850000D01*
X104340000Y-58950000D02*
X104340000Y-65010000D01*
X104340000Y-65010000D02*
X101530000Y-65010000D01*
%TO.C,C3*%
X133450000Y-74783748D02*
X133450000Y-76206252D01*
X135270000Y-74783748D02*
X135270000Y-76206252D01*
%TO.C,L1*%
X109765000Y-68950000D02*
X120785000Y-68950000D01*
X109765000Y-71750000D02*
X109765000Y-68950000D01*
X109765000Y-79170000D02*
X109765000Y-76370000D01*
X120785000Y-68950000D02*
X120785000Y-71750000D01*
X120785000Y-76370000D02*
X120785000Y-79170000D01*
X120785000Y-79170000D02*
X109765000Y-79170000D01*
%TO.C,U2*%
X106120000Y-61890000D02*
X106120000Y-63255000D01*
X106120000Y-63255000D02*
X107070000Y-63255000D01*
X116520000Y-61890000D02*
X116520000Y-63255000D01*
X116520000Y-63255000D02*
X115570000Y-63255000D01*
X107110000Y-66080000D02*
X106640000Y-66420000D01*
X106640000Y-65740000D01*
X107110000Y-66080000D01*
G36*
X107110000Y-66080000D02*
G01*
X106640000Y-66420000D01*
X106640000Y-65740000D01*
X107110000Y-66080000D01*
G37*
%TO.C,C2*%
X124370000Y-71674437D02*
X124370000Y-77430000D01*
X124370000Y-77430000D02*
X126720000Y-77430000D01*
X125434437Y-70610000D02*
X124370000Y-71674437D01*
X125434437Y-70610000D02*
X126720000Y-70610000D01*
X129627500Y-69582500D02*
X129627500Y-70370000D01*
X130021250Y-69976250D02*
X129233750Y-69976250D01*
X130125563Y-70610000D02*
X128840000Y-70610000D01*
X130125563Y-70610000D02*
X131190000Y-71674437D01*
X131190000Y-71674437D02*
X131190000Y-77430000D01*
X131190000Y-77430000D02*
X128840000Y-77430000D01*
%TO.C,D1*%
X102932500Y-71050000D02*
X102932500Y-76560000D01*
X106232500Y-71050000D02*
X102932500Y-71050000D01*
X106232500Y-71050000D02*
X106232500Y-76560000D01*
%TO.C,C4*%
X133253748Y-68950000D02*
X134676252Y-68950000D01*
X133253748Y-70770000D02*
X134676252Y-70770000D01*
%TD*%
M02*
