G04 #@! TF.GenerationSoftware,KiCad,Pcbnew,9.0.3*
G04 #@! TF.CreationDate,2025-10-08T14:24:11+02:00*
G04 #@! TF.ProjectId,LLC_DCDC_V4,4c4c435f-4443-4444-935f-56342e6b6963,rev?*
G04 #@! TF.SameCoordinates,Original*
G04 #@! TF.FileFunction,Profile,NP*
%FSLAX46Y46*%
G04 Gerber Fmt 4.6, Leading zero omitted, Abs format (unit mm)*
G04 Created by KiCad (PCBNEW 9.0.3) date 2025-10-08 14:24:11*
%MOMM*%
%LPD*%
G01*
G04 APERTURE LIST*
G04 #@! TA.AperFunction,Profile*
%ADD10C,0.100000*%
G04 #@! TD*
G04 #@! TA.AperFunction,Profile*
%ADD11C,0.050000*%
G04 #@! TD*
G04 #@! TA.AperFunction,Profile*
%ADD12C,0.250000*%
G04 #@! TD*
G04 APERTURE END LIST*
D10*
X194010013Y-131315000D02*
G75*
G02*
X186049987Y-131315000I-3980013J0D01*
G01*
X186049987Y-131315000D02*
G75*
G02*
X194010013Y-131315000I3980013J0D01*
G01*
X186335012Y-322820000D02*
G75*
G02*
X178314988Y-322820000I-4010012J0D01*
G01*
X178314988Y-322820000D02*
G75*
G02*
X186335012Y-322820000I4010012J0D01*
G01*
D11*
X119069929Y-201270000D02*
X147330000Y-201270000D01*
X147330000Y-214170000D01*
X119069929Y-214170000D01*
X119069929Y-201270000D01*
D12*
X160970000Y-177920000D02*
X167360000Y-177920000D01*
X167360000Y-181120000D01*
X160970000Y-181120000D01*
X160970000Y-177920000D01*
D10*
X139860000Y-130615000D02*
G75*
G02*
X131860000Y-130615000I-4000000J0D01*
G01*
X131860000Y-130615000D02*
G75*
G02*
X139860000Y-130615000I4000000J0D01*
G01*
D11*
X77330000Y-52115000D02*
X217330000Y-52115000D01*
X217330000Y-352115000D01*
X77330000Y-352115000D01*
X77330000Y-52115000D01*
D10*
X92990000Y-326770000D02*
G75*
G02*
X84990000Y-326770000I-4000000J0D01*
G01*
X84990000Y-326770000D02*
G75*
G02*
X92990000Y-326770000I4000000J0D01*
G01*
D11*
X120020000Y-198279928D02*
G75*
G02*
X119329928Y-198970000I-690100J28D01*
G01*
X119760000Y-180479928D02*
G75*
G02*
X119069928Y-181170000I-690100J28D01*
G01*
X119760000Y-180479928D02*
G75*
G02*
X119069928Y-181170000I-690100J28D01*
G01*
X119760000Y-180479928D02*
G75*
G02*
X119069928Y-181170000I-690100J28D01*
G01*
X119760000Y-180479928D02*
G75*
G02*
X119069928Y-181170000I-690100J28D01*
G01*
X119760000Y-158579928D02*
G75*
G02*
X119069928Y-159270000I-690069J-3D01*
G01*
X119760000Y-158579928D02*
G75*
G02*
X119069928Y-159270000I-690071J-1D01*
G01*
X119760000Y-158579928D02*
G75*
G02*
X119069928Y-159270000I-690071J-1D01*
G01*
X119329928Y-193970000D02*
G75*
G02*
X120020000Y-194660072I22J-690050D01*
G01*
X119069928Y-172070000D02*
G75*
G02*
X119760000Y-172760072I18J-690054D01*
G01*
X119069928Y-172070000D02*
G75*
G02*
X119760000Y-172760072I1J-690071D01*
G01*
X119069928Y-172070000D02*
G75*
G02*
X119760000Y-172760072I1J-690071D01*
G01*
X119069928Y-172070000D02*
G75*
G02*
X119760000Y-172760072I1J-690071D01*
G01*
X119069928Y-154270000D02*
G75*
G02*
X119760000Y-154960072I1J-690071D01*
G01*
X119069928Y-154270000D02*
G75*
G02*
X119760000Y-154960072I1J-690071D01*
G01*
X119069928Y-154270000D02*
G75*
G02*
X119760000Y-154960072I1J-690071D01*
G01*
X91710072Y-198970000D02*
G75*
G02*
X91020000Y-198279928I-72J690000D01*
G01*
X91450072Y-181170000D02*
G75*
G02*
X90760000Y-180479928I-2J690070D01*
G01*
X91450072Y-181170000D02*
G75*
G02*
X90760000Y-180479928I-2J690070D01*
G01*
X91450072Y-181170000D02*
G75*
G02*
X90760000Y-180479928I-2J690070D01*
G01*
X91450072Y-181170000D02*
G75*
G02*
X90760000Y-180479928I-92J689980D01*
G01*
X91450072Y-159270000D02*
G75*
G02*
X90760000Y-158579928I-1J690071D01*
G01*
X91450072Y-159270000D02*
G75*
G02*
X90760000Y-158579928I-1J690071D01*
G01*
X91450072Y-159270000D02*
G75*
G02*
X90760000Y-158579928I-5J690067D01*
G01*
X91020000Y-194660072D02*
G75*
G02*
X91710072Y-193970000I690200J-128D01*
G01*
X90760000Y-172760072D02*
G75*
G02*
X91450072Y-172070000I690151J-79D01*
G01*
X90760000Y-172760072D02*
G75*
G02*
X91450072Y-172070000I690069J3D01*
G01*
X90760000Y-172760072D02*
G75*
G02*
X91450072Y-172070000I690069J3D01*
G01*
X90760000Y-172760072D02*
G75*
G02*
X91450072Y-172070000I690069J3D01*
G01*
X90760000Y-154960072D02*
G75*
G02*
X91450072Y-154270000I690072J0D01*
G01*
X90760000Y-154960072D02*
G75*
G02*
X91450072Y-154270000I690071J1D01*
G01*
X90760000Y-154960072D02*
G75*
G02*
X91450072Y-154270000I690071J1D01*
G01*
X120020000Y-194660072D02*
X120020000Y-198279928D01*
X119760000Y-172760072D02*
X119760000Y-180479899D01*
X119760000Y-172760072D02*
X119760000Y-180479899D01*
X119760000Y-172760072D02*
X119760000Y-180479899D01*
X119760000Y-172760072D02*
X119760000Y-180479899D01*
X119760000Y-154960072D02*
X119760000Y-158579928D01*
X119760000Y-154960072D02*
X119760000Y-158579928D01*
X119760000Y-154960072D02*
X119760000Y-158579928D01*
X119329928Y-198969999D02*
X91710100Y-198969999D01*
X119069928Y-181169999D02*
X91450100Y-181169999D01*
X119069928Y-181169999D02*
X91450100Y-181169999D01*
X119069928Y-181169999D02*
X91450100Y-181169999D01*
X119069928Y-181169999D02*
X91450100Y-181169999D01*
X119069928Y-159269999D02*
X91450100Y-159269999D01*
X119069928Y-159269999D02*
X91450100Y-159269999D01*
X119069928Y-159269999D02*
X91450100Y-159269999D01*
X91710072Y-193970000D02*
X119329928Y-193970000D01*
X91450072Y-172070000D02*
X119069928Y-172070000D01*
X91450072Y-172070000D02*
X119069928Y-172070000D01*
X91450072Y-172070000D02*
X119069928Y-172070000D01*
X91450072Y-172070000D02*
X119069928Y-172070000D01*
X91450072Y-154270000D02*
X119069928Y-154270000D01*
X91450072Y-154270000D02*
X119069928Y-154270000D01*
X91450072Y-154270000D02*
X119069928Y-154270000D01*
X91020000Y-198279900D02*
X91020000Y-194660072D01*
X90760000Y-180479928D02*
X90760000Y-172760072D01*
X90760000Y-180479928D02*
X90760000Y-172760072D01*
X90760000Y-180479928D02*
X90760000Y-172760072D01*
X90760000Y-180479928D02*
X90760000Y-172760072D01*
X90760000Y-158579900D02*
X90760000Y-154960072D01*
X90760000Y-158579900D02*
X90760000Y-154960072D01*
X90760000Y-158579900D02*
X90760000Y-154960072D01*
X141657500Y-85905000D02*
X157457500Y-85905000D01*
X157457500Y-83315000D01*
X141657500Y-83315000D01*
X141657500Y-85905000D01*
X141657500Y-77515000D02*
X157457500Y-77515000D01*
X157457500Y-72505000D01*
X141657500Y-72505000D01*
X141657500Y-77515000D01*
X141657500Y-66715000D02*
X157447500Y-66715000D01*
X157447500Y-64115000D01*
X141657500Y-64115000D01*
X141657500Y-66715000D01*
M02*
