G04 #@! TF.GenerationSoftware,KiCad,Pcbnew,9.0.3*
G04 #@! TF.CreationDate,2025-10-08T14:24:11+02:00*
G04 #@! TF.ProjectId,LLC_DCDC_V4,4c4c435f-4443-4444-935f-56342e6b6963,rev?*
G04 #@! TF.SameCoordinates,Original*
G04 #@! TF.FileFunction,Soldermask,Top*
G04 #@! TF.FilePolarity,Negative*
%FSLAX46Y46*%
G04 Gerber Fmt 4.6, Leading zero omitted, Abs format (unit mm)*
G04 Created by KiCad (PCBNEW 9.0.3) date 2025-10-08 14:24:11*
%MOMM*%
%LPD*%
G01*
G04 APERTURE LIST*
G04 Aperture macros list*
%AMRoundRect*
0 Rectangle with rounded corners*
0 $1 Rounding radius*
0 $2 $3 $4 $5 $6 $7 $8 $9 X,Y pos of 4 corners*
0 Add a 4 corners polygon primitive as box body*
4,1,4,$2,$3,$4,$5,$6,$7,$8,$9,$2,$3,0*
0 Add four circle primitives for the rounded corners*
1,1,$1+$1,$2,$3*
1,1,$1+$1,$4,$5*
1,1,$1+$1,$6,$7*
1,1,$1+$1,$8,$9*
0 Add four rect primitives between the rounded corners*
20,1,$1+$1,$2,$3,$4,$5,0*
20,1,$1+$1,$4,$5,$6,$7,0*
20,1,$1+$1,$6,$7,$8,$9,0*
20,1,$1+$1,$8,$9,$2,$3,0*%
G04 Aperture macros list end*
%ADD10RoundRect,0.250000X-0.312500X-0.625000X0.312500X-0.625000X0.312500X0.625000X-0.312500X0.625000X0*%
%ADD11C,0.800000*%
%ADD12C,5.400000*%
%ADD13C,1.300000*%
%ADD14R,1.300000X1.300000*%
%ADD15C,1.500000*%
%ADD16R,3.150000X2.250000*%
%ADD17R,4.100000X2.000000*%
%ADD18C,1.712000*%
%ADD19R,1.600000X1.050000*%
%ADD20RoundRect,0.250000X0.625000X-0.312500X0.625000X0.312500X-0.625000X0.312500X-0.625000X-0.312500X0*%
%ADD21C,1.700000*%
%ADD22R,1.700000X1.700000*%
%ADD23R,2.050000X4.000000*%
%ADD24RoundRect,0.250000X-0.250000X-0.475000X0.250000X-0.475000X0.250000X0.475000X-0.250000X0.475000X0*%
%ADD25C,1.604000*%
%ADD26RoundRect,0.250000X-0.262500X-0.450000X0.262500X-0.450000X0.262500X0.450000X-0.262500X0.450000X0*%
%ADD27R,1.500000X0.650000*%
%ADD28R,1.150000X1.450000*%
%ADD29O,2.500000X4.500000*%
%ADD30R,2.500000X4.500000*%
%ADD31C,1.000000*%
%ADD32R,1.050000X1.600000*%
%ADD33RoundRect,0.250000X-0.625000X0.312500X-0.625000X-0.312500X0.625000X-0.312500X0.625000X0.312500X0*%
%ADD34RoundRect,0.250000X-0.450000X0.262500X-0.450000X-0.262500X0.450000X-0.262500X0.450000X0.262500X0*%
%ADD35R,5.700000X2.000000*%
%ADD36R,3.000000X2.900000*%
%ADD37R,3.150000X1.000000*%
%ADD38R,1.000000X3.150000*%
%ADD39RoundRect,0.150000X0.825000X0.150000X-0.825000X0.150000X-0.825000X-0.150000X0.825000X-0.150000X0*%
%ADD40RoundRect,0.250000X0.250000X0.475000X-0.250000X0.475000X-0.250000X-0.475000X0.250000X-0.475000X0*%
%ADD41R,0.650000X1.528000*%
%ADD42R,2.250000X3.150000*%
%ADD43R,1.600000X1.500000*%
%ADD44RoundRect,0.250000X0.650000X-1.000000X0.650000X1.000000X-0.650000X1.000000X-0.650000X-1.000000X0*%
%ADD45R,1.050000X1.800000*%
%ADD46RoundRect,0.250000X0.312500X0.625000X-0.312500X0.625000X-0.312500X-0.625000X0.312500X-0.625000X0*%
%ADD47R,1.800000X1.050000*%
%ADD48RoundRect,0.250000X0.475000X-0.250000X0.475000X0.250000X-0.475000X0.250000X-0.475000X-0.250000X0*%
%ADD49R,2.000000X5.700000*%
%ADD50R,1.450000X1.150000*%
%ADD51R,1.950000X0.650000*%
%ADD52C,0.900000*%
%ADD53C,9.000000*%
%ADD54R,11.180000X9.910000*%
%ADD55R,1.020000X4.320000*%
%ADD56RoundRect,0.250000X0.650000X-0.325000X0.650000X0.325000X-0.650000X0.325000X-0.650000X-0.325000X0*%
%ADD57R,1.168000X2.032000*%
%ADD58R,1.524000X2.032000*%
%ADD59RoundRect,0.250000X-0.475000X0.250000X-0.475000X-0.250000X0.475000X-0.250000X0.475000X0.250000X0*%
%ADD60RoundRect,0.250000X0.262500X0.450000X-0.262500X0.450000X-0.262500X-0.450000X0.262500X-0.450000X0*%
%ADD61C,2.400000*%
%ADD62RoundRect,0.150000X0.150000X-0.825000X0.150000X0.825000X-0.150000X0.825000X-0.150000X-0.825000X0*%
%ADD63RoundRect,0.150000X-0.825000X-0.150000X0.825000X-0.150000X0.825000X0.150000X-0.825000X0.150000X0*%
%ADD64R,1.850000X3.550000*%
%ADD65C,2.000000*%
%ADD66R,1.200000X0.750000*%
%ADD67R,4.450000X1.520000*%
%ADD68R,3.250000X3.400000*%
%ADD69R,0.650000X1.850000*%
%ADD70R,2.900000X3.000000*%
%ADD71R,1.500000X3.200000*%
%ADD72R,1.500000X0.900000*%
%ADD73R,1.050000X1.820000*%
%ADD74R,1.250000X0.600000*%
%ADD75R,2.000000X4.100000*%
%ADD76R,8.330000X5.080000*%
%ADD77R,10.800000X1.910000*%
%ADD78R,1.070000X2.160000*%
%ADD79RoundRect,0.250000X1.425000X-0.362500X1.425000X0.362500X-1.425000X0.362500X-1.425000X-0.362500X0*%
%ADD80R,1.750000X6.600000*%
%ADD81R,1.525000X0.650000*%
%ADD82R,1.850000X3.200000*%
%ADD83R,1.850000X0.900000*%
G04 APERTURE END LIST*
D10*
X116102500Y-311680000D03*
X113177500Y-311680000D03*
D11*
X83526891Y-256395000D03*
X82933782Y-257826891D03*
X82933782Y-254963109D03*
X81501891Y-258420000D03*
D12*
X81501891Y-256395000D03*
D11*
X81501891Y-254370000D03*
X80070000Y-257826891D03*
X80070000Y-254963109D03*
X79476891Y-256395000D03*
D13*
X108890000Y-103785000D03*
D14*
X93890000Y-103785000D03*
D15*
X86474000Y-100727000D03*
X86474000Y-85727000D03*
D16*
X205630000Y-100675000D03*
X205630000Y-107575000D03*
D17*
X124210000Y-311845000D03*
X132910000Y-311845000D03*
D18*
X182470000Y-117495000D03*
X182470000Y-114955000D03*
X182470000Y-112415000D03*
X182470000Y-109875000D03*
X182470000Y-107335000D03*
X182470000Y-104795000D03*
X182470000Y-102255000D03*
X182470000Y-99715000D03*
X182470000Y-97175000D03*
X182470000Y-94635000D03*
X179930000Y-117495000D03*
X179930000Y-114955000D03*
X179930000Y-112415000D03*
X179930000Y-109875000D03*
X179930000Y-107335000D03*
X179930000Y-104795000D03*
X179930000Y-102255000D03*
X179930000Y-99715000D03*
X179930000Y-97175000D03*
X179930000Y-94635000D03*
X164690000Y-117495000D03*
X164690000Y-114955000D03*
X164690000Y-112415000D03*
X164690000Y-109875000D03*
X164690000Y-107335000D03*
X164690000Y-104795000D03*
X164690000Y-102255000D03*
X164690000Y-99715000D03*
X164690000Y-97175000D03*
X164690000Y-94635000D03*
X162150000Y-117495000D03*
X162150000Y-114955000D03*
X162150000Y-112415000D03*
X162150000Y-109875000D03*
X162150000Y-107335000D03*
X162150000Y-104795000D03*
X162150000Y-102255000D03*
X162150000Y-99715000D03*
X162150000Y-97175000D03*
X162150000Y-94635000D03*
D19*
X181710000Y-91125000D03*
X181710000Y-88175000D03*
D20*
X158190000Y-122915000D03*
X158190000Y-125840000D03*
D10*
X203235000Y-305665000D03*
X200310000Y-305665000D03*
X116072500Y-307970000D03*
X113147500Y-307970000D03*
D21*
X139190000Y-100792500D03*
X139190000Y-98252500D03*
D22*
X139190000Y-95712500D03*
D23*
X206290000Y-88825000D03*
X206290000Y-82125000D03*
D24*
X206190000Y-331430000D03*
X204290000Y-331430000D03*
D17*
X124210000Y-324380000D03*
X132910000Y-324380000D03*
D25*
X211670000Y-210655000D03*
X196670000Y-210655000D03*
D26*
X211262500Y-291351674D03*
X209437500Y-291351674D03*
D27*
X200520000Y-332475000D03*
X200520000Y-333745000D03*
X200520000Y-335015000D03*
X200520000Y-336285000D03*
X195120000Y-336285000D03*
X195120000Y-335015000D03*
X195120000Y-333745000D03*
X195120000Y-332475000D03*
D28*
X168710000Y-99355000D03*
X170510000Y-99355000D03*
D29*
X195440000Y-151165000D03*
X189990000Y-151165000D03*
D30*
X184540000Y-151165000D03*
D31*
X139530000Y-63315000D03*
D32*
X117405000Y-315460000D03*
X114455000Y-315460000D03*
D11*
X84055000Y-57875000D03*
X83461891Y-59306891D03*
X83461891Y-56443109D03*
X82030000Y-59900000D03*
D12*
X82030000Y-57875000D03*
X82030000Y-57875000D03*
D11*
X82030000Y-55850000D03*
X80598109Y-59306891D03*
X80598109Y-56443109D03*
D33*
X175650000Y-85240000D03*
X175650000Y-82315000D03*
D20*
X101390000Y-314677500D03*
X101390000Y-317602500D03*
D11*
X121475000Y-56465000D03*
X120881891Y-57896891D03*
X120881891Y-55033109D03*
X119450000Y-58490000D03*
D12*
X119450000Y-56465000D03*
D11*
X119450000Y-54440000D03*
X118018109Y-57896891D03*
X118018109Y-55033109D03*
X117425000Y-56465000D03*
D17*
X148850000Y-323815000D03*
X140150000Y-323815000D03*
D33*
X186250000Y-336672500D03*
X186250000Y-333747500D03*
D15*
X116170000Y-86075000D03*
X116170000Y-101075000D03*
D31*
X185920000Y-200245000D03*
D34*
X153810000Y-61687500D03*
X153810000Y-59862500D03*
D35*
X136740000Y-116275000D03*
X146440000Y-116275000D03*
D33*
X106880000Y-123792500D03*
X106880000Y-120867500D03*
D11*
X214535000Y-57645000D03*
X213941891Y-59076891D03*
X213941891Y-56213109D03*
X212510000Y-59670000D03*
D12*
X212510000Y-57645000D03*
D11*
X212510000Y-55620000D03*
X211078109Y-59076891D03*
X211078109Y-56213109D03*
X210485000Y-57645000D03*
D31*
X193130000Y-321070000D03*
D36*
X97600000Y-343290000D03*
X113300000Y-343290000D03*
D10*
X203235000Y-297525000D03*
X200310000Y-297525000D03*
D37*
X207892500Y-299495000D03*
X212942500Y-299495000D03*
X207892500Y-302035000D03*
X212942500Y-302035000D03*
X207892500Y-304575000D03*
X212942500Y-304575000D03*
D20*
X103570000Y-120867500D03*
X103570000Y-123792500D03*
D38*
X105170000Y-320780000D03*
X105170000Y-315730000D03*
X107710000Y-320780000D03*
X107710000Y-315730000D03*
X110250000Y-320780000D03*
X110250000Y-315730000D03*
D17*
X148850000Y-311105000D03*
X140150000Y-311105000D03*
D25*
X211670000Y-190555000D03*
X196670000Y-190555000D03*
D33*
X174150000Y-142845000D03*
X174150000Y-139920000D03*
D28*
X168710000Y-106025000D03*
X170510000Y-106025000D03*
D33*
X210530000Y-320012500D03*
X210530000Y-317087500D03*
D25*
X211670000Y-170845000D03*
X196670000Y-170845000D03*
D39*
X105285000Y-311270000D03*
X105285000Y-310000000D03*
X105285000Y-308730000D03*
X105285000Y-307460000D03*
X110235000Y-307460000D03*
X110235000Y-308730000D03*
X110235000Y-310000000D03*
X110235000Y-311270000D03*
D31*
X177460000Y-145225000D03*
D20*
X153150000Y-146507500D03*
X153150000Y-149432500D03*
D33*
X106880000Y-118942500D03*
X106880000Y-116017500D03*
D31*
X124400000Y-113200000D03*
D20*
X148340000Y-146507500D03*
X148340000Y-149432500D03*
D31*
X97820000Y-299690000D03*
D40*
X164739000Y-143874000D03*
X166639000Y-143874000D03*
D41*
X156495000Y-336919000D03*
X157765000Y-336919000D03*
X159035000Y-336919000D03*
X160305000Y-336919000D03*
X160305000Y-342341000D03*
X159035000Y-342341000D03*
X157765000Y-342341000D03*
X156495000Y-342341000D03*
D42*
X209310000Y-75985000D03*
X202410000Y-75985000D03*
D43*
X140920000Y-60245000D03*
X140920000Y-57705000D03*
X150140000Y-57705000D03*
X150140000Y-60245000D03*
D44*
X129170000Y-68032500D03*
X129170000Y-72032500D03*
D33*
X113610000Y-129220000D03*
X113610000Y-126295000D03*
X178910000Y-85090000D03*
X178910000Y-82165000D03*
D40*
X179290000Y-121025000D03*
X181190000Y-121025000D03*
D32*
X162435000Y-124885000D03*
X165385000Y-124885000D03*
D31*
X160360000Y-63255000D03*
D40*
X158260000Y-143815000D03*
X160160000Y-143815000D03*
D28*
X156660000Y-110270000D03*
X158460000Y-110270000D03*
D31*
X133060000Y-70515000D03*
D10*
X147260000Y-90052500D03*
X144335000Y-90052500D03*
D13*
X108800000Y-75785000D03*
D14*
X93800000Y-75785000D03*
D20*
X179850000Y-139920000D03*
X179850000Y-142845000D03*
D45*
X176930000Y-122855000D03*
X173830000Y-122855000D03*
D33*
X91990000Y-317762500D03*
X91990000Y-314837500D03*
D46*
X200310000Y-300065000D03*
X203235000Y-300065000D03*
D47*
X209820000Y-285690000D03*
X209820000Y-282590000D03*
D28*
X156760000Y-90982500D03*
X158560000Y-90982500D03*
D19*
X196710000Y-313835000D03*
X196710000Y-316785000D03*
D24*
X116350000Y-319230000D03*
X114450000Y-319230000D03*
D27*
X104950000Y-108670000D03*
X104950000Y-109940000D03*
X104950000Y-111210000D03*
X104950000Y-112480000D03*
X99550000Y-112480000D03*
X99550000Y-111210000D03*
X99550000Y-109940000D03*
X99550000Y-108670000D03*
D48*
X202780000Y-122705000D03*
X202780000Y-124605000D03*
D42*
X173710000Y-77625000D03*
X180610000Y-77625000D03*
D49*
X87220000Y-337080000D03*
X87220000Y-346780000D03*
D29*
X176860000Y-302950000D03*
X182310000Y-302950000D03*
D30*
X187760000Y-302950000D03*
D25*
X211670000Y-200605000D03*
X196670000Y-200605000D03*
D28*
X156660000Y-115780000D03*
X158460000Y-115780000D03*
D37*
X196240000Y-108025000D03*
X191190000Y-108025000D03*
X196240000Y-105485000D03*
X191190000Y-105485000D03*
X196240000Y-102945000D03*
X191190000Y-102945000D03*
D50*
X189660000Y-335650000D03*
X189660000Y-333850000D03*
D31*
X90830000Y-117855000D03*
X135880000Y-303495000D03*
D37*
X208810000Y-119895000D03*
X203760000Y-119895000D03*
X208810000Y-117355000D03*
X203760000Y-117355000D03*
X208810000Y-114815000D03*
X203760000Y-114815000D03*
D28*
X170470000Y-112540000D03*
X168670000Y-112540000D03*
D40*
X168310000Y-92615000D03*
X170210000Y-92615000D03*
D20*
X150740000Y-146507500D03*
X150740000Y-149432500D03*
X110190000Y-120867500D03*
X110190000Y-123792500D03*
D31*
X170120000Y-80525000D03*
D11*
X214535000Y-136775000D03*
X213941891Y-138206891D03*
X213941891Y-135343109D03*
X212510000Y-138800000D03*
D12*
X212510000Y-136775000D03*
D11*
X212510000Y-134750000D03*
X211078109Y-138206891D03*
X211078109Y-135343109D03*
X210485000Y-136775000D03*
D46*
X156537500Y-60445000D03*
X159462500Y-60445000D03*
D38*
X213470000Y-102510000D03*
X213470000Y-107560000D03*
X210930000Y-102510000D03*
X210930000Y-107560000D03*
D20*
X110190000Y-116017500D03*
X110190000Y-118942500D03*
D48*
X126290000Y-99665000D03*
X126290000Y-101565000D03*
D31*
X153300000Y-122705000D03*
D51*
X188966000Y-121481000D03*
X188966000Y-120211000D03*
X188966000Y-118941000D03*
X188966000Y-117671000D03*
X188966000Y-116401000D03*
X188966000Y-115131000D03*
X188966000Y-113861000D03*
X188966000Y-112591000D03*
X198416000Y-112591000D03*
X198416000Y-113861000D03*
X198416000Y-115131000D03*
X198416000Y-116401000D03*
X198416000Y-117671000D03*
X198416000Y-118941000D03*
X198416000Y-120211000D03*
X198416000Y-121481000D03*
D29*
X83540000Y-306910000D03*
X88990000Y-306910000D03*
D30*
X94440000Y-306910000D03*
D33*
X113610000Y-118942500D03*
X113610000Y-116017500D03*
D32*
X164090000Y-140955000D03*
X167040000Y-140955000D03*
D52*
X188595000Y-344200000D03*
X187606485Y-346586485D03*
X187606485Y-341813515D03*
X185220000Y-347575000D03*
D53*
X185220000Y-344200000D03*
D52*
X185220000Y-340825000D03*
X182833515Y-346586485D03*
X182833515Y-341813515D03*
X181845000Y-344200000D03*
D54*
X199650000Y-59580000D03*
D55*
X203050000Y-68725000D03*
X201350000Y-68725000D03*
X199650000Y-68725000D03*
X197950000Y-68725000D03*
X196250000Y-68725000D03*
D31*
X138990000Y-65765000D03*
D25*
X211670000Y-227505000D03*
X196670000Y-227505000D03*
D31*
X201150000Y-311925000D03*
D19*
X192780000Y-327415000D03*
X192780000Y-324465000D03*
D52*
X96653000Y-57660000D03*
X95664485Y-60046485D03*
X95664485Y-55273515D03*
X93278000Y-61035000D03*
D53*
X93278000Y-57660000D03*
D52*
X93278000Y-54285000D03*
X90891515Y-60046485D03*
X90891515Y-55273515D03*
X89903000Y-57660000D03*
D21*
X154710000Y-99572500D03*
X154710000Y-97032500D03*
D22*
X154710000Y-94492500D03*
D56*
X133950000Y-72750000D03*
X133950000Y-75700000D03*
D48*
X213350000Y-80975000D03*
X213350000Y-82875000D03*
D10*
X176340000Y-333970000D03*
X173415000Y-333970000D03*
D11*
X193130000Y-256670000D03*
X192536891Y-258101891D03*
X192536891Y-255238109D03*
X191105000Y-258695000D03*
D12*
X191105000Y-256670000D03*
D11*
X191105000Y-254645000D03*
X189673109Y-258101891D03*
X189673109Y-255238109D03*
X189080000Y-256670000D03*
D15*
X108670000Y-67345000D03*
X93670000Y-67345000D03*
D57*
X128428000Y-55355000D03*
D58*
X130790000Y-55355000D03*
X133330000Y-55355000D03*
D57*
X135692000Y-55355000D03*
X135692000Y-63991000D03*
D58*
X130790000Y-63991000D03*
D57*
X128428000Y-63991000D03*
D32*
X157735000Y-140725000D03*
X160685000Y-140725000D03*
D59*
X109040000Y-110735000D03*
X109040000Y-108835000D03*
D28*
X168710000Y-102695000D03*
X170510000Y-102695000D03*
D19*
X213570000Y-88075000D03*
X213570000Y-85125000D03*
D31*
X169540000Y-64960000D03*
X158470000Y-149135000D03*
D19*
X166490000Y-56400000D03*
X166490000Y-59350000D03*
D60*
X179260000Y-123005000D03*
X181085000Y-123005000D03*
X201649500Y-92830000D03*
X203474500Y-92830000D03*
D28*
X137460000Y-90875000D03*
X139260000Y-90875000D03*
D24*
X204860000Y-317060000D03*
X202960000Y-317060000D03*
D32*
X209660000Y-123755000D03*
X212610000Y-123755000D03*
D25*
X211670000Y-162385000D03*
X196670000Y-162385000D03*
D61*
X176030000Y-158795000D03*
X148530000Y-158795000D03*
D62*
X204197500Y-308507500D03*
X205467500Y-308507500D03*
X206737500Y-308507500D03*
X208007500Y-308507500D03*
X208007500Y-313457500D03*
X206737500Y-313457500D03*
X205467500Y-313457500D03*
X204197500Y-313457500D03*
D20*
X103570000Y-116017500D03*
X103570000Y-118942500D03*
D63*
X151305000Y-93242500D03*
X151305000Y-94512500D03*
X151305000Y-95782500D03*
X151305000Y-97052500D03*
X151305000Y-98322500D03*
X151305000Y-99592500D03*
X151305000Y-100862500D03*
X146355000Y-100862500D03*
X146355000Y-99592500D03*
X146355000Y-98322500D03*
X146355000Y-97052500D03*
X146355000Y-95782500D03*
X146355000Y-94512500D03*
X146355000Y-93242500D03*
D64*
X173310000Y-56285000D03*
X173310000Y-61685000D03*
D28*
X176560000Y-97960000D03*
X174760000Y-97960000D03*
D19*
X162500000Y-56400000D03*
X162500000Y-59350000D03*
D65*
X212210000Y-152455000D03*
X212210000Y-142455000D03*
D11*
X106535000Y-328540000D03*
X105941891Y-329971891D03*
X105941891Y-327108109D03*
X104510000Y-330565000D03*
D12*
X104510000Y-328540000D03*
D11*
X104510000Y-326515000D03*
X103078109Y-329971891D03*
X103078109Y-327108109D03*
X102485000Y-328540000D03*
D66*
X156350000Y-56671000D03*
X159750000Y-56671000D03*
D32*
X151615000Y-133225000D03*
X154565000Y-133225000D03*
D31*
X142210000Y-157460000D03*
D28*
X170470000Y-119360000D03*
X168670000Y-119360000D03*
D31*
X153750000Y-56825000D03*
D11*
X83145000Y-139310000D03*
X82551891Y-140741891D03*
X82551891Y-137878109D03*
X81120000Y-141335000D03*
D12*
X81120000Y-139310000D03*
D11*
X81120000Y-137285000D03*
X79688109Y-140741891D03*
X79688109Y-137878109D03*
X79095000Y-139310000D03*
D33*
X98500000Y-317832500D03*
X98500000Y-314907500D03*
X207720000Y-319962500D03*
X207720000Y-317037500D03*
D38*
X146550000Y-143522500D03*
X146550000Y-138472500D03*
X149090000Y-143522500D03*
X149090000Y-138472500D03*
X151630000Y-143522500D03*
X151630000Y-138472500D03*
D28*
X176560000Y-103120000D03*
X174760000Y-103120000D03*
D29*
X141310000Y-150475000D03*
X135860000Y-150475000D03*
D30*
X130410000Y-150475000D03*
D65*
X213770000Y-72495000D03*
X213770000Y-62495000D03*
D67*
X105780000Y-98045000D03*
X105780000Y-82555000D03*
X96380000Y-98045000D03*
X96380000Y-82555000D03*
D28*
X170480000Y-109335000D03*
X168680000Y-109335000D03*
D68*
X161760000Y-169815000D03*
X157660000Y-169815000D03*
D15*
X121200000Y-80515000D03*
X121200000Y-65515000D03*
D69*
X166905000Y-137550000D03*
X165635000Y-137550000D03*
X164365000Y-137550000D03*
X163095000Y-137550000D03*
X161825000Y-137550000D03*
X160555000Y-137550000D03*
X159285000Y-137550000D03*
X158015000Y-137550000D03*
X158015000Y-128200000D03*
X159285000Y-128200000D03*
X160555000Y-128200000D03*
X161825000Y-128200000D03*
X163095000Y-128200000D03*
X164365000Y-128200000D03*
X165635000Y-128200000D03*
X166905000Y-128200000D03*
D19*
X118670000Y-326145000D03*
X118670000Y-329095000D03*
D17*
X164180000Y-318480000D03*
X155480000Y-318480000D03*
D31*
X141840000Y-129160000D03*
X191770000Y-73215000D03*
D28*
X156660000Y-119200000D03*
X158460000Y-119200000D03*
D40*
X157185000Y-113020000D03*
X159085000Y-113020000D03*
D70*
X192500000Y-93595000D03*
X192500000Y-77895000D03*
D25*
X211670000Y-180505000D03*
X196670000Y-180505000D03*
D28*
X158460000Y-106970000D03*
X156660000Y-106970000D03*
X174760000Y-110570000D03*
X176560000Y-110570000D03*
D19*
X171900000Y-88435000D03*
X171900000Y-85485000D03*
D71*
X211840000Y-95475000D03*
D72*
X205340000Y-97775000D03*
X205340000Y-95475000D03*
X205340000Y-93175000D03*
D52*
X108899000Y-57660000D03*
X107910485Y-60046485D03*
X107910485Y-55273515D03*
X105524000Y-61035000D03*
D53*
X105524000Y-57660000D03*
D52*
X105524000Y-54285000D03*
X103137515Y-60046485D03*
X103137515Y-55273515D03*
X102149000Y-57660000D03*
D16*
X112370000Y-326550000D03*
X112370000Y-333450000D03*
D24*
X211320000Y-288571674D03*
X209420000Y-288571674D03*
D33*
X145910000Y-149432500D03*
X145910000Y-146507500D03*
D17*
X148000000Y-336470000D03*
X139300000Y-336470000D03*
D11*
X103385000Y-203560000D03*
X102791891Y-204991891D03*
X102791891Y-202128109D03*
X101360000Y-205585000D03*
D12*
X101360000Y-203560000D03*
D11*
X101360000Y-201535000D03*
X99928109Y-204991891D03*
X99928109Y-202128109D03*
X99335000Y-203560000D03*
D19*
X192570000Y-313885000D03*
X192570000Y-316835000D03*
D40*
X162630000Y-121935000D03*
X164530000Y-121935000D03*
D48*
X186601000Y-120426000D03*
X186601000Y-122326000D03*
X192350000Y-330550000D03*
X192350000Y-332450000D03*
D73*
X142550000Y-54505000D03*
X139770000Y-54505000D03*
D24*
X160220000Y-333380000D03*
X158320000Y-333380000D03*
D20*
X177040000Y-139920000D03*
X177040000Y-142845000D03*
D74*
X178070000Y-89045000D03*
X175970000Y-89995000D03*
X175970000Y-88095000D03*
D75*
X158390000Y-308780000D03*
X158390000Y-300080000D03*
D38*
X174060000Y-135645000D03*
X174060000Y-130595000D03*
X176600000Y-135645000D03*
X176600000Y-130595000D03*
X179140000Y-135645000D03*
X179140000Y-130595000D03*
D15*
X86474000Y-65400000D03*
X86474000Y-80400000D03*
D20*
X171280000Y-139920000D03*
X171280000Y-142845000D03*
D76*
X122390000Y-346054000D03*
D77*
X122390000Y-349550000D03*
D78*
X118990000Y-336335000D03*
X120690000Y-336335000D03*
X122390000Y-336335000D03*
X124090000Y-336335000D03*
X125790000Y-336335000D03*
D49*
X185180000Y-57305000D03*
X185180000Y-67005000D03*
D79*
X128990000Y-75090000D03*
X128990000Y-81015000D03*
D11*
X215286891Y-346411891D03*
X214693782Y-347843782D03*
X214693782Y-344980000D03*
X213261891Y-348436891D03*
D12*
X213261891Y-346411891D03*
D11*
X213261891Y-344386891D03*
X211830000Y-347843782D03*
X211830000Y-344980000D03*
X211236891Y-346411891D03*
D42*
X145640000Y-127765000D03*
X152540000Y-127765000D03*
D80*
X115070000Y-67455000D03*
X112770000Y-67455000D03*
D28*
X170510000Y-115980000D03*
X168710000Y-115980000D03*
D19*
X199570000Y-98005000D03*
X199570000Y-100955000D03*
D32*
X167980000Y-95565000D03*
X170930000Y-95565000D03*
D52*
X172161485Y-344586485D03*
X171172970Y-346972970D03*
X171172970Y-342200000D03*
X168786485Y-347961485D03*
D53*
X168786485Y-344586485D03*
D52*
X168786485Y-341211485D03*
X166400000Y-346972970D03*
X166400000Y-342200000D03*
X165411485Y-344586485D03*
D24*
X151310000Y-89942500D03*
X149410000Y-89942500D03*
D21*
X158460000Y-99572500D03*
X158460000Y-97032500D03*
D22*
X158460000Y-94492500D03*
D25*
X211670000Y-218305000D03*
X196670000Y-218305000D03*
D65*
X208030000Y-258600000D03*
X198030000Y-258600000D03*
D81*
X128420000Y-101615000D03*
X128420000Y-100345000D03*
X128420000Y-99075000D03*
X128420000Y-97805000D03*
X128420000Y-96535000D03*
X128420000Y-95265000D03*
X128420000Y-93995000D03*
X133844000Y-93995000D03*
X133844000Y-95265000D03*
X133844000Y-96535000D03*
X133844000Y-97805000D03*
X133844000Y-99075000D03*
X133844000Y-100345000D03*
X133844000Y-101615000D03*
D21*
X142830000Y-100792500D03*
X142830000Y-98252500D03*
D22*
X142830000Y-95712500D03*
D31*
X192610000Y-97535000D03*
D33*
X95520000Y-317902500D03*
X95520000Y-314977500D03*
D82*
X203440000Y-322050000D03*
D83*
X197240000Y-324350000D03*
X197240000Y-322050000D03*
X197240000Y-319750000D03*
D10*
X203235000Y-302935000D03*
X200310000Y-302935000D03*
M02*
