M48
; DRILL file {KiCad 9.0.3} date 2025-10-08T14:24:07+0200
; FORMAT={-:-/ absolute / metric / decimal}
; #@! TF.CreationDate,2025-10-08T14:24:07+02:00
; #@! TF.GenerationSoftware,Kicad,Pcbnew,9.0.3
; #@! TF.FileFunction,Plated,1,4,PTH
FMAT,2
METRIC
; #@! TA.AperFunction,Plated,PTH,ViaDrill
T1C0.300
; #@! TA.AperFunction,Plated,PTH,ComponentDrill
T2C0.500
; #@! TA.AperFunction,Plated,PTH,ComponentDrill
T3C0.600
; #@! TA.AperFunction,Plated,PTH,ComponentDrill
T4C0.800
; #@! TA.AperFunction,Plated,PTH,ComponentDrill
T5C1.000
; #@! TA.AperFunction,Plated,PTH,ComponentDrill
T6C1.050
; #@! TA.AperFunction,Plated,PTH,ComponentDrill
T7C1.200
; #@! TA.AperFunction,Plated,PTH,ComponentDrill
T8C1.500
; #@! TA.AperFunction,Plated,PTH,ComponentDrill
T9C2.700
; #@! TA.AperFunction,Plated,PTH,ComponentDrill
T10C4.500
%
G90
G05
T1
X78.53Y-62.565
X78.53Y-64.065
X78.53Y-65.565
X78.53Y-67.065
X78.53Y-68.565
X78.53Y-70.065
X78.53Y-71.565
X78.53Y-73.065
X78.53Y-74.565
X78.53Y-76.065
X78.53Y-77.565
X78.53Y-79.065
X78.53Y-80.565
X78.53Y-82.065
X78.53Y-83.565
X78.53Y-85.065
X78.53Y-86.565
X78.53Y-88.065
X78.53Y-89.565
X78.53Y-91.065
X78.53Y-92.565
X78.53Y-94.065
X80.03Y-62.565
X80.03Y-64.065
X80.03Y-65.565
X80.03Y-67.065
X80.03Y-68.565
X80.03Y-70.065
X80.03Y-71.565
X80.03Y-73.065
X80.03Y-74.565
X80.03Y-76.065
X80.03Y-77.565
X80.03Y-79.065
X80.03Y-80.565
X80.03Y-82.065
X80.03Y-83.565
X80.03Y-85.065
X80.03Y-86.565
X80.03Y-88.065
X80.03Y-89.565
X80.03Y-91.065
X80.03Y-92.565
X80.03Y-94.065
X81.53Y-70.065
X81.53Y-71.565
X81.53Y-73.065
X81.53Y-74.565
X81.53Y-76.065
X81.53Y-77.565
X81.53Y-79.065
X81.53Y-80.565
X81.53Y-82.065
X81.53Y-83.565
X81.53Y-85.065
X81.53Y-86.565
X81.53Y-88.065
X81.53Y-89.565
X81.53Y-91.065
X81.53Y-92.565
X81.53Y-94.065
X83.03Y-71.565
X83.03Y-73.065
X83.03Y-74.565
X83.03Y-76.065
X83.03Y-77.565
X83.03Y-79.065
X83.03Y-80.565
X83.03Y-82.065
X83.03Y-83.565
X83.03Y-85.065
X83.03Y-86.565
X83.03Y-88.065
X83.03Y-88.065
X83.03Y-89.565
X83.03Y-91.065
X83.03Y-92.565
X83.03Y-94.065
X84.53Y-73.065
X84.53Y-74.565
X84.53Y-76.065
X84.53Y-77.565
X84.53Y-79.065
X84.53Y-80.565
X84.53Y-82.065
X84.53Y-83.565
X84.53Y-85.065
X84.53Y-86.565
X85.01Y-88.535
X85.01Y-90.035
X85.01Y-91.535
X86.03Y-74.565
X86.03Y-76.065
X86.03Y-77.565
X86.03Y-83.565
X86.51Y-88.535
X86.51Y-90.035
X86.51Y-91.535
X87.41Y-103.325
X87.53Y-77.565
X87.53Y-82.065
X87.53Y-83.565
X88.01Y-88.535
X88.01Y-90.035
X88.01Y-91.535
X88.91Y-101.825
X88.91Y-103.325
X88.91Y-104.825
X89.51Y-88.535
X89.51Y-90.035
X89.51Y-91.535
X90.41Y-101.825
X90.41Y-103.325
X90.41Y-104.825
X90.41Y-106.325
X90.66Y-63.035
X90.91Y-64.535
X91.01Y-88.535
X91.01Y-90.035
X91.01Y-91.535
X91.16Y-66.035
X91.41Y-67.535
X91.66Y-69.035
X91.91Y-70.535
X91.91Y-101.825
X91.91Y-103.325
X91.91Y-104.825
X91.91Y-106.325
X91.91Y-107.825
X92.16Y-72.035
X92.41Y-64.535
X92.41Y-73.535
X92.51Y-88.535
X92.51Y-90.035
X92.51Y-91.535
X93.16Y-78.035
X93.41Y-70.535
X93.41Y-79.535
X93.41Y-101.825
X93.41Y-106.325
X93.41Y-107.825
X93.41Y-109.325
X93.66Y-72.035
X93.91Y-64.535
X93.91Y-73.535
X94.01Y-88.535
X94.01Y-90.035
X94.01Y-91.535
X94.66Y-78.035
X94.91Y-70.535
X94.91Y-79.535
X94.91Y-101.825
X94.91Y-106.325
X94.91Y-107.825
X94.91Y-109.325
X94.91Y-112.325
X94.91Y-113.825
X94.91Y-115.325
X94.91Y-116.825
X94.91Y-118.325
X94.91Y-119.825
X94.91Y-121.325
X94.91Y-122.825
X94.91Y-124.325
X94.91Y-125.825
X95.16Y-72.035
X95.41Y-64.535
X95.41Y-73.535
X95.51Y-88.535
X95.51Y-90.035
X95.51Y-91.535
X95.66Y-66.035
X95.66Y-75.035
X95.91Y-67.535
X95.91Y-76.535
X96.16Y-69.035
X96.16Y-78.035
X96.41Y-70.535
X96.41Y-79.535
X96.41Y-101.825
X96.41Y-103.325
X96.41Y-104.825
X96.41Y-106.325
X96.41Y-107.825
X96.41Y-109.325
X96.41Y-112.325
X96.41Y-113.825
X96.41Y-115.325
X96.41Y-116.825
X96.41Y-118.325
X96.41Y-119.825
X96.41Y-121.325
X96.41Y-122.825
X96.41Y-124.325
X96.41Y-125.825
X96.41Y-127.325
X96.66Y-63.035
X96.66Y-72.035
X96.91Y-64.535
X96.91Y-73.535
X97.01Y-88.535
X97.01Y-90.035
X97.01Y-91.535
X97.16Y-66.035
X97.16Y-75.035
X97.41Y-67.535
X97.41Y-76.535
X97.66Y-69.035
X97.66Y-78.035
X97.91Y-70.535
X97.91Y-79.535
X97.91Y-101.825
X97.91Y-103.325
X97.91Y-104.825
X97.91Y-106.325
X97.91Y-107.825
X97.91Y-109.325
X97.91Y-112.325
X97.91Y-113.825
X97.91Y-115.325
X97.91Y-116.825
X97.91Y-118.325
X97.91Y-119.825
X97.91Y-121.325
X97.91Y-122.825
X97.91Y-124.325
X97.91Y-125.825
X97.91Y-127.325
X98.51Y-88.535
X98.51Y-90.035
X98.51Y-91.535
X99.41Y-113.825
X99.41Y-115.325
X99.41Y-116.825
X99.41Y-118.325
X99.41Y-119.825
X99.41Y-121.325
X99.41Y-122.825
X99.41Y-124.325
X99.41Y-125.825
X99.41Y-127.325
X100.01Y-88.535
X100.01Y-90.035
X100.01Y-91.535
X101.51Y-88.535
X101.51Y-90.035
X101.51Y-91.535
X102.12Y-63.035
X102.27Y-64.535
X102.42Y-66.035
X102.57Y-67.535
X102.72Y-69.035
X102.87Y-70.535
X103.01Y-88.535
X103.01Y-90.035
X103.01Y-91.535
X103.02Y-72.035
X103.17Y-73.535
X103.32Y-75.035
X103.47Y-76.535
X103.62Y-78.035
X103.77Y-64.535
X103.77Y-79.535
X103.8Y-102.43
X103.8Y-103.93
X103.8Y-105.43
X103.8Y-106.93
X103.92Y-66.035
X104.07Y-67.535
X104.22Y-69.035
X104.37Y-70.535
X104.51Y-88.535
X104.51Y-90.035
X104.51Y-91.535
X104.52Y-72.035
X104.67Y-73.535
X104.82Y-75.035
X104.97Y-76.535
X105.12Y-78.035
X105.27Y-64.535
X105.27Y-79.535
X105.3Y-102.43
X105.3Y-103.93
X105.3Y-105.43
X105.3Y-106.93
X105.42Y-66.035
X105.57Y-67.535
X105.72Y-69.035
X105.87Y-70.535
X106.01Y-88.535
X106.01Y-90.035
X106.01Y-91.535
X106.02Y-72.035
X106.17Y-73.535
X106.32Y-75.035
X106.47Y-76.535
X106.62Y-78.035
X106.69Y-109.955
X106.75Y-108.67
X106.77Y-64.535
X106.77Y-79.535
X106.8Y-102.43
X106.8Y-103.93
X106.8Y-105.43
X106.8Y-106.93
X107.51Y-88.535
X107.51Y-90.035
X107.51Y-91.535
X108.12Y-78.035
X108.27Y-79.535
X108.3Y-105.43
X108.3Y-106.93
X109.01Y-88.535
X109.01Y-90.035
X109.01Y-91.535
X109.8Y-102.43
X109.8Y-105.43
X109.8Y-106.93
X110.06Y-128.295
X110.51Y-88.535
X110.51Y-90.035
X110.51Y-91.535
X111.3Y-102.43
X111.3Y-103.93
X111.3Y-105.43
X111.3Y-106.93
X112.01Y-88.535
X112.01Y-90.035
X112.01Y-91.535
X112.05Y-143.67
X112.05Y-145.17
X112.05Y-146.67
X112.8Y-102.43
X112.8Y-103.93
X113.51Y-88.535
X113.51Y-90.035
X113.55Y-143.67
X113.55Y-145.17
X113.55Y-146.67
X113.97Y-83.375
X113.97Y-84.875
X113.97Y-86.375
X114.3Y-102.43
X115.01Y-88.535
X115.05Y-143.67
X115.05Y-145.17
X115.05Y-146.67
X115.47Y-78.875
X115.47Y-80.375
X115.47Y-81.875
X115.47Y-83.375
X115.52Y-132.295
X116.55Y-143.67
X116.55Y-145.17
X116.55Y-146.67
X116.71Y-334.91
X116.97Y-77.375
X116.97Y-78.875
X116.97Y-80.375
X116.97Y-81.875
X116.97Y-83.375
X117.02Y-132.295
X118.05Y-143.67
X118.05Y-145.17
X118.05Y-146.67
X118.28Y-332.84
X118.47Y-77.375
X118.47Y-78.875
X118.47Y-80.375
X118.47Y-81.875
X118.47Y-83.375
X118.47Y-84.875
X118.52Y-132.295
X118.52Y-133.795
X119.32Y-332.84
X119.55Y-143.67
X119.55Y-145.17
X119.55Y-146.67
X119.71Y-74.355
X119.71Y-75.855
X119.71Y-77.355
X119.71Y-78.855
X119.71Y-81.855
X119.71Y-83.355
X120.02Y-132.295
X120.02Y-133.795
X120.02Y-135.295
X121.05Y-143.67
X121.05Y-145.17
X121.05Y-146.67
X121.08Y-174.39
X121.08Y-175.39
X121.08Y-176.39
X121.08Y-177.39
X121.08Y-178.39
X121.21Y-72.855
X121.21Y-74.355
X121.21Y-75.855
X121.21Y-77.355
X121.52Y-132.295
X121.52Y-133.795
X121.52Y-135.295
X121.52Y-136.795
X122.08Y-173.39
X122.08Y-174.39
X122.08Y-175.39
X122.08Y-176.39
X122.08Y-177.39
X122.08Y-178.39
X122.08Y-179.39
X122.55Y-143.67
X122.55Y-145.17
X122.55Y-146.67
X122.71Y-72.855
X122.71Y-74.355
X122.71Y-75.855
X122.71Y-77.355
X122.71Y-78.855
X123.02Y-132.295
X123.02Y-133.795
X123.02Y-135.295
X123.02Y-136.795
X123.08Y-173.39
X123.08Y-174.39
X123.08Y-175.39
X123.08Y-176.39
X123.08Y-177.39
X123.08Y-178.39
X123.08Y-179.39
X123.3Y-105.43
X123.3Y-109.93
X123.3Y-111.43
X123.3Y-117.43
X123.3Y-118.93
X123.3Y-120.43
X123.58Y-90.25
X124.05Y-143.67
X124.05Y-145.17
X124.05Y-146.67
X124.08Y-173.39
X124.08Y-174.39
X124.08Y-175.39
X124.08Y-176.39
X124.08Y-177.39
X124.08Y-178.39
X124.08Y-179.39
X124.52Y-132.295
X124.52Y-133.795
X124.52Y-135.295
X124.52Y-136.795
X124.73Y-89.45
X124.8Y-105.43
X124.8Y-109.93
X124.8Y-115.93
X124.8Y-117.43
X124.8Y-118.93
X124.8Y-120.43
X125.08Y-174.39
X125.08Y-175.39
X125.08Y-176.39
X125.08Y-177.39
X125.08Y-178.39
X125.55Y-143.67
X125.55Y-145.17
X125.62Y-88.76
X126.02Y-133.795
X126.02Y-135.295
X126.02Y-136.795
X126.3Y-108.43
X126.3Y-114.43
X126.3Y-115.93
X126.3Y-117.43
X126.3Y-118.93
X126.3Y-120.43
X126.32Y-88.16
X126.73Y-103.805
X127.05Y-143.67
X127.16Y-87.41
X127.52Y-135.295
X127.52Y-136.795
X127.8Y-112.93
X127.8Y-114.43
X127.8Y-115.93
X127.8Y-117.43
X127.8Y-118.93
X127.8Y-120.43
X128.21Y-86.67
X128.79Y-174.34
X128.79Y-175.34
X128.79Y-176.34
X128.79Y-177.34
X128.79Y-178.34
X129.3Y-111.43
X129.3Y-112.93
X129.3Y-114.43
X129.3Y-115.93
X129.3Y-117.43
X129.3Y-118.93
X129.3Y-120.43
X129.64Y-103.115
X129.79Y-173.34
X129.79Y-174.34
X129.79Y-175.34
X129.79Y-176.34
X129.79Y-177.34
X129.79Y-178.34
X129.79Y-179.34
X130.15Y-331.185
X130.15Y-332.685
X130.25Y-319.005
X130.25Y-320.505
X130.79Y-173.34
X130.79Y-174.34
X130.79Y-175.34
X130.79Y-176.34
X130.79Y-177.34
X130.79Y-178.34
X130.79Y-179.34
X130.8Y-109.93
X130.8Y-111.43
X130.8Y-112.93
X130.8Y-120.43
X130.89Y-62.055
X131.65Y-331.185
X131.65Y-332.685
X131.75Y-319.005
X131.75Y-320.505
X131.79Y-173.34
X131.79Y-174.34
X131.79Y-175.34
X131.79Y-176.34
X131.79Y-177.34
X131.79Y-178.34
X131.79Y-179.34
X132.12Y-96.535
X132.3Y-108.43
X132.3Y-109.93
X132.3Y-111.43
X132.3Y-120.43
X132.79Y-174.34
X132.79Y-175.34
X132.79Y-176.34
X132.79Y-177.34
X132.79Y-178.34
X133.15Y-331.185
X133.15Y-332.685
X133.25Y-319.005
X133.25Y-320.505
X133.9Y-229.95
X133.9Y-231.45
X133.95Y-86.765
X133.95Y-87.835
X134.65Y-331.185
X134.65Y-332.685
X134.75Y-319.005
X134.75Y-320.505
X135.32Y-95.265
X135.4Y-228.45
X135.4Y-229.95
X135.4Y-231.45
X135.4Y-232.95
X136.06Y-97.805
X136.15Y-331.185
X136.15Y-332.685
X136.25Y-319.005
X136.25Y-320.505
X136.74Y-96.465
X136.74Y-113.26
X136.74Y-113.96
X136.9Y-228.45
X136.9Y-229.95
X136.9Y-231.45
X136.9Y-232.95
X137.65Y-331.185
X137.65Y-332.685
X137.75Y-319.005
X137.75Y-320.505
X138.37Y-54.525
X138.4Y-228.45
X138.4Y-229.95
X138.4Y-231.45
X138.4Y-232.95
X139.15Y-331.185
X139.15Y-332.685
X139.25Y-319.005
X139.25Y-320.505
X139.29Y-103.555
X139.87Y-74.595
X139.87Y-75.535
X139.9Y-228.45
X139.9Y-229.95
X139.9Y-231.45
X139.9Y-232.95
X140.65Y-331.185
X140.65Y-332.685
X140.75Y-319.005
X140.75Y-320.505
X141.13Y-172.65
X141.13Y-173.65
X141.13Y-174.65
X141.13Y-175.65
X141.13Y-176.65
X141.13Y-177.65
X141.13Y-178.65
X141.13Y-179.65
X141.13Y-180.65
X141.13Y-181.65
X141.13Y-182.65
X141.13Y-183.65
X141.13Y-184.65
X141.4Y-228.45
X141.4Y-229.95
X141.4Y-231.45
X141.4Y-232.95
X142.13Y-171.65
X142.13Y-172.65
X142.13Y-173.65
X142.13Y-174.65
X142.13Y-175.65
X142.13Y-176.65
X142.13Y-177.65
X142.13Y-178.65
X142.13Y-179.65
X142.13Y-180.65
X142.13Y-181.65
X142.13Y-182.65
X142.13Y-183.65
X142.13Y-184.65
X142.13Y-185.65
X142.15Y-331.185
X142.15Y-332.685
X142.25Y-319.005
X142.25Y-320.505
X142.9Y-228.45
X142.9Y-229.95
X142.9Y-231.45
X142.9Y-232.95
X143.13Y-171.65
X143.13Y-172.65
X143.13Y-173.65
X143.13Y-174.65
X143.13Y-175.65
X143.13Y-176.65
X143.13Y-177.65
X143.13Y-178.65
X143.13Y-179.65
X143.13Y-180.65
X143.13Y-181.65
X143.13Y-182.65
X143.13Y-183.65
X143.13Y-184.65
X143.13Y-185.65
X144.13Y-171.65
X144.13Y-172.65
X144.13Y-173.65
X144.13Y-174.65
X144.13Y-175.65
X144.13Y-176.65
X144.13Y-177.65
X144.13Y-178.65
X144.13Y-179.65
X144.13Y-180.65
X144.13Y-181.65
X144.13Y-182.65
X144.13Y-183.65
X144.13Y-184.65
X144.13Y-185.65
X144.4Y-228.45
X144.4Y-229.95
X144.4Y-231.45
X144.4Y-232.95
X144.65Y-98.322
X145.13Y-172.65
X145.13Y-173.65
X145.13Y-174.65
X145.13Y-175.65
X145.13Y-176.65
X145.13Y-177.65
X145.13Y-178.65
X145.13Y-179.65
X145.13Y-180.65
X145.13Y-181.65
X145.13Y-182.65
X145.13Y-183.65
X145.13Y-184.65
X145.6Y-123.445
X145.64Y-122.085
X145.9Y-229.95
X145.9Y-231.45
X148.36Y-136.155
X150.22Y-164.77
X150.22Y-166.27
X150.22Y-167.77
X150.22Y-169.27
X150.22Y-170.77
X150.22Y-172.27
X151.72Y-164.77
X151.72Y-166.27
X151.72Y-167.77
X151.72Y-169.27
X151.72Y-170.77
X151.72Y-172.27
X152.586Y-103.699
X153.22Y-164.77
X153.22Y-166.27
X153.22Y-167.77
X153.22Y-169.27
X153.22Y-170.77
X153.22Y-172.27
X153.41Y-105.545
X154.72Y-164.77
X154.72Y-166.27
X154.72Y-167.77
X154.72Y-169.27
X154.72Y-170.77
X154.72Y-172.27
X155.5Y-149.495
X155.87Y-136.155
X156.56Y-335.33
X156.57Y-103.845
X157.75Y-335.32
X158.18Y-53.51
X159.68Y-53.51
X160.15Y-125.945
X160.29Y-124.995
X160.31Y-335.33
X161.18Y-53.51
X162.68Y-53.51
X163.11Y-187.84
X163.11Y-189.34
X163.11Y-190.84
X163.11Y-192.34
X164.05Y-147.69
X164.05Y-149.19
X164.05Y-150.69
X164.18Y-53.51
X164.61Y-187.84
X164.61Y-189.34
X164.61Y-190.84
X164.61Y-192.34
X164.61Y-193.84
X165.55Y-147.69
X165.55Y-149.19
X165.55Y-150.69
X165.65Y-166.27
X165.65Y-167.77
X165.65Y-169.27
X165.65Y-170.77
X165.65Y-172.27
X165.68Y-53.51
X166.11Y-186.34
X166.11Y-187.84
X166.11Y-189.34
X166.11Y-190.84
X166.11Y-192.34
X166.11Y-193.84
X167.05Y-147.69
X167.05Y-149.19
X167.05Y-150.69
X167.05Y-152.19
X167.15Y-166.27
X167.15Y-167.77
X167.15Y-169.27
X167.15Y-170.77
X167.15Y-172.27
X167.18Y-53.51
X167.39Y-125.695
X167.61Y-186.34
X167.61Y-187.84
X167.61Y-189.34
X167.61Y-190.84
X167.61Y-192.34
X167.61Y-193.84
X167.61Y-195.34
X167.757Y-77.625
X168.36Y-69.12
X168.36Y-70.62
X168.36Y-72.12
X168.36Y-73.62
X168.36Y-75.12
X168.55Y-147.69
X168.55Y-149.19
X168.55Y-150.69
X168.55Y-152.19
X168.55Y-153.69
X168.643Y-77.625
X168.65Y-166.27
X168.65Y-167.77
X168.65Y-169.27
X168.65Y-170.77
X168.65Y-172.27
X168.68Y-53.51
X169.11Y-186.34
X169.11Y-187.84
X169.11Y-189.34
X169.11Y-190.84
X169.11Y-192.34
X169.11Y-193.84
X169.11Y-195.34
X169.11Y-196.84
X169.265Y-137.55
X169.4Y-126.535
X169.53Y-77.625
X169.86Y-69.12
X169.86Y-70.62
X169.86Y-72.12
X169.86Y-73.62
X169.86Y-75.12
X170.05Y-147.69
X170.05Y-149.19
X170.05Y-150.69
X170.05Y-152.19
X170.05Y-153.69
X170.05Y-155.19
X170.15Y-166.27
X170.15Y-167.77
X170.15Y-169.27
X170.15Y-170.77
X170.15Y-172.27
X170.18Y-53.51
X170.417Y-77.625
X170.49Y-137.55
X170.61Y-186.34
X170.61Y-187.84
X170.61Y-189.34
X170.61Y-190.84
X170.61Y-192.34
X170.61Y-193.84
X170.61Y-195.34
X170.61Y-196.84
X170.61Y-198.34
X171.36Y-69.12
X171.36Y-70.62
X171.36Y-72.12
X171.36Y-73.62
X171.36Y-75.12
X171.55Y-147.69
X171.55Y-149.19
X171.55Y-150.69
X171.55Y-152.19
X171.55Y-153.69
X171.55Y-155.19
X171.55Y-156.69
X171.65Y-166.27
X171.65Y-167.77
X171.65Y-169.27
X171.65Y-170.77
X171.65Y-172.27
X171.68Y-53.51
X172.11Y-184.84
X172.11Y-186.34
X172.11Y-187.84
X172.11Y-189.34
X172.11Y-190.84
X172.11Y-192.34
X172.11Y-193.84
X172.11Y-195.34
X172.11Y-196.84
X172.11Y-198.34
X172.11Y-199.84
X172.86Y-69.12
X172.86Y-70.62
X172.86Y-72.12
X172.86Y-73.62
X173.05Y-147.69
X173.05Y-149.19
X173.05Y-150.69
X173.05Y-152.19
X173.05Y-153.69
X173.05Y-155.19
X173.05Y-156.69
X173.06Y-114.365
X173.15Y-166.27
X173.15Y-167.77
X173.15Y-169.27
X173.15Y-170.77
X173.15Y-172.27
X173.18Y-53.51
X173.61Y-184.84
X173.61Y-186.34
X173.61Y-187.84
X173.61Y-189.34
X173.61Y-190.84
X173.61Y-192.34
X173.61Y-193.84
X173.61Y-195.34
X173.61Y-196.84
X173.61Y-198.34
X173.61Y-199.84
X173.61Y-201.34
X173.87Y-124.865
X174.36Y-69.12
X174.36Y-70.62
X174.36Y-72.12
X174.36Y-73.62
X174.42Y-93.055
X174.48Y-95.26
X174.55Y-147.69
X174.55Y-149.19
X174.55Y-150.69
X174.55Y-152.19
X174.55Y-153.69
X174.55Y-155.19
X174.65Y-166.27
X174.65Y-167.77
X174.65Y-169.27
X174.65Y-170.77
X174.65Y-172.27
X174.68Y-53.51
X175.11Y-184.84
X175.11Y-186.34
X175.11Y-187.84
X175.11Y-189.34
X175.11Y-190.84
X175.11Y-192.34
X175.11Y-193.84
X175.11Y-195.34
X175.11Y-196.84
X175.11Y-198.34
X175.11Y-199.84
X175.11Y-201.34
X175.11Y-202.84
X176.05Y-147.69
X176.05Y-149.19
X176.05Y-150.69
X176.05Y-152.19
X176.05Y-153.69
X176.05Y-155.19
X176.15Y-166.27
X176.15Y-167.77
X176.15Y-169.27
X176.15Y-170.77
X176.15Y-172.27
X176.18Y-53.51
X176.29Y-95.28
X176.61Y-184.84
X176.61Y-186.34
X176.61Y-187.84
X176.61Y-189.34
X176.61Y-190.84
X176.61Y-192.34
X176.61Y-193.84
X176.61Y-195.34
X176.61Y-196.84
X176.61Y-198.34
X176.61Y-199.84
X176.61Y-201.34
X176.61Y-202.84
X176.61Y-204.34
X176.61Y-205.84
X177.55Y-147.69
X177.55Y-149.19
X177.55Y-150.69
X177.55Y-152.19
X177.55Y-153.69
X177.55Y-155.19
X177.65Y-166.27
X177.65Y-167.77
X177.65Y-169.27
X177.65Y-170.77
X177.65Y-172.27
X177.68Y-53.51
X178.11Y-183.34
X178.11Y-184.84
X178.11Y-186.34
X178.11Y-187.84
X178.11Y-189.34
X178.11Y-190.84
X178.11Y-192.34
X178.11Y-193.84
X178.11Y-195.34
X178.11Y-196.84
X178.11Y-198.34
X178.11Y-199.84
X178.11Y-201.34
X178.11Y-202.84
X178.11Y-204.34
X178.11Y-205.84
X178.11Y-207.34
X178.11Y-208.84
X179.15Y-166.27
X179.15Y-167.77
X179.15Y-169.27
X179.15Y-170.77
X179.15Y-172.27
X179.18Y-53.51
X179.61Y-183.34
X179.61Y-184.84
X179.61Y-186.34
X179.61Y-187.84
X179.61Y-189.34
X179.61Y-190.84
X179.61Y-192.34
X179.61Y-193.84
X179.61Y-195.34
X179.61Y-196.84
X179.61Y-198.34
X179.61Y-199.84
X179.61Y-201.34
X179.61Y-202.84
X179.61Y-204.34
X179.61Y-205.84
X179.61Y-207.34
X179.61Y-208.84
X180.61Y-72.03
X180.61Y-73.1
X180.65Y-166.27
X180.65Y-167.77
X180.65Y-169.27
X180.65Y-170.77
X180.65Y-172.27
X180.68Y-53.51
X181.11Y-183.34
X181.11Y-184.84
X181.11Y-186.34
X181.11Y-187.84
X181.11Y-189.34
X181.11Y-190.84
X181.11Y-192.34
X181.11Y-193.84
X181.11Y-195.34
X181.11Y-196.84
X181.11Y-198.34
X181.11Y-199.84
X181.11Y-201.34
X181.11Y-202.84
X181.11Y-204.34
X181.11Y-205.84
X181.11Y-207.34
X181.11Y-208.84
X182.15Y-166.27
X182.15Y-167.77
X182.15Y-169.27
X182.15Y-170.77
X182.15Y-172.27
X182.18Y-53.51
X182.61Y-183.34
X182.61Y-184.84
X182.61Y-186.34
X182.61Y-187.84
X182.61Y-189.34
X182.61Y-190.84
X182.61Y-192.34
X182.61Y-193.84
X182.61Y-195.34
X182.61Y-196.84
X182.61Y-198.34
X182.61Y-199.84
X182.61Y-201.34
X182.61Y-202.84
X182.61Y-204.34
X182.61Y-205.84
X182.61Y-207.34
X182.61Y-208.84
X183.65Y-166.27
X183.65Y-167.77
X183.65Y-169.27
X183.65Y-170.77
X183.65Y-172.27
X183.68Y-53.51
X183.915Y-345.64
X184.11Y-181.84
X184.11Y-183.34
X184.11Y-184.84
X184.11Y-186.34
X184.11Y-187.84
X184.11Y-189.34
X184.11Y-190.84
X184.11Y-192.34
X184.11Y-193.84
X184.11Y-195.34
X184.11Y-196.84
X184.11Y-198.34
X184.11Y-199.84
X184.11Y-201.34
X184.11Y-202.84
X184.11Y-204.34
X184.11Y-205.84
X184.11Y-207.34
X184.11Y-208.84
X184.77Y-135.94
X184.77Y-137.44
X184.77Y-138.94
X184.77Y-140.44
X184.77Y-141.94
X184.77Y-143.44
X184.77Y-144.94
X185.07Y-344.105
X185.15Y-166.27
X185.15Y-167.77
X185.15Y-169.27
X185.15Y-170.77
X185.15Y-172.27
X185.18Y-53.51
X185.61Y-181.84
X185.61Y-183.34
X185.61Y-184.84
X185.61Y-186.34
X185.61Y-187.84
X185.61Y-189.34
X185.61Y-190.84
X185.61Y-192.34
X185.61Y-193.84
X185.61Y-195.34
X185.61Y-196.84
X185.61Y-198.34
X185.61Y-199.84
X185.61Y-201.34
X185.61Y-202.84
X185.61Y-204.34
X185.61Y-205.84
X185.61Y-207.34
X185.61Y-208.84
X186.27Y-135.94
X186.27Y-137.44
X186.27Y-138.94
X186.27Y-140.44
X186.27Y-141.94
X186.27Y-143.44
X186.27Y-144.94
X186.65Y-166.27
X186.65Y-167.77
X186.65Y-169.27
X186.65Y-170.77
X186.65Y-172.27
X186.68Y-53.51
X186.75Y-107.365
X186.75Y-117.671
X187.11Y-181.84
X187.11Y-183.34
X187.11Y-184.84
X187.11Y-186.34
X187.11Y-187.84
X187.11Y-189.34
X187.11Y-190.84
X187.11Y-192.34
X187.11Y-193.84
X187.11Y-195.34
X187.11Y-196.84
X187.11Y-198.34
X187.11Y-199.84
X187.11Y-201.34
X187.11Y-202.84
X187.11Y-204.34
X187.11Y-205.84
X187.11Y-207.34
X187.11Y-208.84
X187.32Y-118.941
X187.58Y-104.845
X187.77Y-135.94
X187.77Y-137.44
X187.77Y-138.94
X187.77Y-140.44
X187.77Y-141.94
X187.77Y-143.44
X187.77Y-144.94
X188.15Y-166.27
X188.15Y-167.77
X188.15Y-169.27
X188.18Y-53.51
X188.61Y-180.34
X188.61Y-181.84
X188.61Y-183.34
X188.61Y-184.84
X188.61Y-186.34
X188.61Y-187.84
X188.61Y-189.34
X188.61Y-190.84
X188.61Y-192.34
X188.61Y-193.84
X188.61Y-195.34
X188.61Y-196.84
X188.61Y-198.34
X188.61Y-199.84
X188.61Y-201.34
X188.61Y-202.84
X188.61Y-204.34
X188.61Y-205.84
X188.61Y-207.34
X188.61Y-208.84
X188.91Y-102.955
X189.27Y-137.44
X189.27Y-138.94
X189.27Y-140.44
X189.27Y-141.94
X189.27Y-143.44
X189.27Y-144.94
X189.65Y-166.27
X189.68Y-53.51
X189.9Y-106.575
X190.11Y-180.34
X190.11Y-181.84
X190.11Y-183.34
X190.11Y-184.84
X190.11Y-186.34
X190.11Y-187.84
X190.11Y-189.34
X190.11Y-190.84
X190.11Y-192.34
X190.11Y-193.84
X190.11Y-195.34
X190.11Y-196.84
X190.11Y-198.34
X190.11Y-199.84
X190.11Y-201.34
X190.11Y-202.84
X190.11Y-204.34
X190.11Y-205.84
X190.11Y-207.34
X190.11Y-208.84
X190.77Y-137.44
X190.77Y-138.94
X190.77Y-140.44
X190.77Y-141.94
X190.77Y-143.44
X190.77Y-144.94
X191.18Y-53.51
X191.61Y-180.34
X191.61Y-181.84
X191.61Y-183.34
X191.61Y-184.84
X191.61Y-186.34
X191.61Y-187.84
X191.61Y-189.34
X191.61Y-190.84
X191.61Y-192.34
X191.61Y-193.84
X191.61Y-195.34
X191.61Y-196.84
X191.61Y-198.34
X191.61Y-199.84
X191.61Y-201.34
X191.61Y-202.84
X191.61Y-204.34
X191.61Y-205.84
X191.61Y-207.34
X191.61Y-208.84
X192.27Y-135.94
X192.27Y-137.44
X192.27Y-138.94
X192.27Y-140.44
X192.27Y-141.94
X192.27Y-143.44
X192.27Y-144.94
X192.32Y-121.485
X192.62Y-95.945
X192.68Y-53.51
X193.77Y-135.94
X193.77Y-137.44
X193.77Y-138.94
X193.77Y-140.44
X193.77Y-141.94
X193.77Y-143.44
X193.77Y-144.94
X194.18Y-53.51
X195.27Y-135.94
X195.27Y-137.44
X195.27Y-138.94
X195.27Y-140.44
X195.27Y-141.94
X195.27Y-143.44
X195.27Y-144.94
X195.68Y-53.51
X197.18Y-53.51
X198.68Y-53.51
X199.825Y-108.64
X200.18Y-53.51
X200.685Y-107.78
X200.88Y-315.81
X201.53Y-315.2
X201.68Y-53.51
X202.36Y-332.395
X203.18Y-53.51
X203.61Y-333.24
X203.61Y-333.24
X203.61Y-333.24
X203.61Y-333.24
X203.61Y-333.24
X203.61Y-333.24
X204.68Y-53.51
X206.12Y-334.925
X207.9Y-148.49
X207.9Y-149.99
X207.9Y-151.49
X207.9Y-152.99
X207.9Y-154.49
X207.9Y-155.99
X207.9Y-157.49
X207.9Y-158.99
X207.9Y-160.49
X207.9Y-161.99
X207.9Y-163.49
X207.9Y-164.99
X207.9Y-166.49
X207.9Y-167.99
X207.9Y-169.49
X207.9Y-170.99
X207.9Y-172.49
X207.9Y-173.99
X207.9Y-175.49
X207.9Y-176.99
X207.9Y-178.49
X207.9Y-179.99
X207.9Y-181.49
X207.9Y-182.99
X207.9Y-184.49
X207.9Y-185.99
X207.9Y-187.49
X207.9Y-188.99
X207.9Y-190.49
X207.9Y-191.99
X207.9Y-193.49
X207.9Y-194.99
X207.9Y-196.49
X207.9Y-197.99
X207.9Y-199.49
X207.9Y-200.99
X207.9Y-202.49
X207.9Y-203.99
X207.9Y-205.49
X207.9Y-206.99
X207.9Y-208.49
X207.9Y-209.99
X207.9Y-211.49
X207.9Y-212.99
X207.9Y-214.49
X207.9Y-215.99
X207.9Y-217.49
X207.9Y-218.99
X207.9Y-220.49
X207.9Y-221.99
X207.9Y-223.49
X207.9Y-224.99
X207.9Y-226.49
X207.9Y-227.99
X207.9Y-229.49
X207.9Y-230.99
X207.9Y-232.49
X207.9Y-233.99
X207.9Y-241.49
X207.9Y-242.99
X207.9Y-244.49
X207.9Y-245.99
X207.9Y-247.49
X207.9Y-248.99
X207.9Y-250.49
X207.9Y-251.99
X207.9Y-253.49
X207.9Y-254.99
X207.9Y-256.49
X207.9Y-260.99
X207.9Y-262.49
X209.4Y-148.49
X209.4Y-149.99
X209.4Y-151.49
X209.4Y-152.99
X209.4Y-154.49
X209.4Y-155.99
X209.4Y-157.49
X209.4Y-158.99
X209.4Y-160.49
X209.4Y-161.99
X209.4Y-163.49
X209.4Y-164.99
X209.4Y-166.49
X209.4Y-167.99
X209.4Y-169.49
X209.4Y-170.99
X209.4Y-172.49
X209.4Y-173.99
X209.4Y-175.49
X209.4Y-176.99
X209.4Y-178.49
X209.4Y-179.99
X209.4Y-181.49
X209.4Y-182.99
X209.4Y-184.49
X209.4Y-185.99
X209.4Y-187.49
X209.4Y-188.99
X209.4Y-190.49
X209.4Y-191.99
X209.4Y-193.49
X209.4Y-194.99
X209.4Y-196.49
X209.4Y-197.99
X209.4Y-199.49
X209.4Y-200.99
X209.4Y-202.49
X209.4Y-203.99
X209.4Y-205.49
X209.4Y-206.99
X209.4Y-208.49
X209.4Y-209.99
X209.4Y-211.49
X209.4Y-212.99
X209.4Y-214.49
X209.4Y-215.99
X209.4Y-217.49
X209.4Y-218.99
X209.4Y-220.49
X209.4Y-221.99
X209.4Y-223.49
X209.4Y-224.99
X209.4Y-226.49
X209.4Y-227.99
X209.4Y-229.49
X209.4Y-230.99
X209.4Y-232.49
X209.4Y-233.99
X209.4Y-235.49
X209.4Y-242.99
X209.4Y-244.49
X209.4Y-245.99
X209.4Y-247.49
X209.4Y-248.99
X209.4Y-250.49
X209.4Y-251.99
X209.4Y-253.49
X209.4Y-254.99
X209.4Y-256.49
X209.4Y-260.99
X209.4Y-262.49
X210.9Y-148.49
X210.9Y-149.99
X210.9Y-154.49
X210.9Y-155.99
X210.9Y-157.49
X210.9Y-158.99
X210.9Y-160.49
X210.9Y-164.99
X210.9Y-166.49
X210.9Y-167.99
X210.9Y-172.49
X210.9Y-173.99
X210.9Y-175.49
X210.9Y-176.99
X210.9Y-178.49
X210.9Y-182.99
X210.9Y-184.49
X210.9Y-185.99
X210.9Y-187.49
X210.9Y-188.99
X210.9Y-190.49
X210.9Y-191.99
X210.9Y-193.49
X210.9Y-194.99
X210.9Y-196.49
X210.9Y-197.99
X210.9Y-202.49
X210.9Y-203.99
X210.9Y-205.49
X210.9Y-206.99
X210.9Y-208.49
X210.9Y-212.99
X210.9Y-214.49
X210.9Y-215.99
X210.9Y-220.49
X210.9Y-221.99
X210.9Y-223.49
X210.9Y-224.99
X210.9Y-229.49
X210.9Y-230.99
X210.9Y-232.49
X210.9Y-233.99
X210.9Y-235.49
X210.9Y-236.99
X210.9Y-244.49
X210.9Y-245.99
X210.9Y-247.49
X210.9Y-248.99
X210.9Y-250.49
X210.9Y-251.99
X210.9Y-253.49
X210.9Y-254.99
X210.9Y-256.49
X210.9Y-257.99
X210.9Y-259.49
X210.9Y-260.99
X210.9Y-262.49
X212.4Y-148.49
X212.4Y-149.99
X212.4Y-154.49
X212.4Y-155.99
X212.4Y-157.49
X212.4Y-158.99
X212.4Y-160.49
X212.4Y-164.99
X212.4Y-166.49
X212.4Y-167.99
X212.4Y-172.49
X212.4Y-173.99
X212.4Y-175.49
X212.4Y-176.99
X212.4Y-178.49
X212.4Y-182.99
X212.4Y-184.49
X212.4Y-185.99
X212.4Y-187.49
X212.4Y-188.99
X212.4Y-190.49
X212.4Y-191.99
X212.4Y-193.49
X212.4Y-194.99
X212.4Y-196.49
X212.4Y-197.99
X212.4Y-202.49
X212.4Y-203.99
X212.4Y-205.49
X212.4Y-206.99
X212.4Y-208.49
X212.4Y-212.99
X212.4Y-214.49
X212.4Y-215.99
X212.4Y-220.49
X212.4Y-221.99
X212.4Y-223.49
X212.4Y-224.99
X212.4Y-229.49
X212.4Y-230.99
X212.4Y-232.49
X212.4Y-233.99
X212.4Y-235.49
X212.4Y-236.99
X212.4Y-238.49
X212.4Y-245.99
X212.4Y-247.49
X212.4Y-248.99
X212.4Y-250.49
X212.4Y-251.99
X212.4Y-253.49
X212.4Y-254.99
X212.4Y-256.49
X212.4Y-257.99
X212.4Y-259.49
X212.4Y-260.99
X212.4Y-262.49
X213.029Y-282.635
X213.9Y-148.49
X213.9Y-149.99
X213.9Y-151.49
X213.9Y-152.99
X213.9Y-154.49
X213.9Y-155.99
X213.9Y-157.49
X213.9Y-158.99
X213.9Y-160.49
X213.9Y-161.99
X213.9Y-163.49
X213.9Y-164.99
X213.9Y-166.49
X213.9Y-167.99
X213.9Y-169.49
X213.9Y-170.99
X213.9Y-172.49
X213.9Y-173.99
X213.9Y-175.49
X213.9Y-176.99
X213.9Y-178.49
X213.9Y-179.99
X213.9Y-181.49
X213.9Y-182.99
X213.9Y-184.49
X213.9Y-185.99
X213.9Y-187.49
X213.9Y-188.99
X213.9Y-190.49
X213.9Y-191.99
X213.9Y-193.49
X213.9Y-194.99
X213.9Y-196.49
X213.9Y-197.99
X213.9Y-199.49
X213.9Y-200.99
X213.9Y-202.49
X213.9Y-203.99
X213.9Y-205.49
X213.9Y-206.99
X213.9Y-208.49
X213.9Y-209.99
X213.9Y-211.49
X213.9Y-212.99
X213.9Y-214.49
X213.9Y-215.99
X213.9Y-217.49
X213.9Y-218.99
X213.9Y-220.49
X213.9Y-221.99
X213.9Y-223.49
X213.9Y-224.99
X213.9Y-226.49
X213.9Y-227.99
X213.9Y-229.49
X213.9Y-230.99
X213.9Y-232.49
X213.9Y-233.99
X213.9Y-235.49
X213.9Y-236.99
X213.9Y-238.49
X213.9Y-239.99
X215.4Y-148.49
X215.4Y-149.99
X215.4Y-151.49
X215.4Y-152.99
X215.4Y-154.49
X215.4Y-155.99
X215.4Y-157.49
X215.4Y-158.99
X215.4Y-160.49
X215.4Y-161.99
X215.4Y-163.49
X215.4Y-164.99
X215.4Y-166.49
X215.4Y-167.99
X215.4Y-169.49
X215.4Y-170.99
X215.4Y-172.49
X215.4Y-173.99
X215.4Y-175.49
X215.4Y-176.99
X215.4Y-178.49
X215.4Y-179.99
X215.4Y-181.49
X215.4Y-182.99
X215.4Y-184.49
X215.4Y-185.99
X215.4Y-187.49
X215.4Y-188.99
X215.4Y-190.49
X215.4Y-191.99
X215.4Y-193.49
X215.4Y-194.99
X215.4Y-196.49
X215.4Y-197.99
X215.4Y-199.49
X215.4Y-200.99
X215.4Y-202.49
X215.4Y-203.99
X215.4Y-205.49
X215.4Y-206.99
X215.4Y-208.49
X215.4Y-209.99
X215.4Y-211.49
X215.4Y-212.99
X215.4Y-214.49
X215.4Y-215.99
X215.4Y-217.49
X215.4Y-218.99
X215.4Y-220.49
X215.4Y-221.99
X215.4Y-223.49
X215.4Y-224.99
X215.4Y-226.49
X215.4Y-227.99
X215.4Y-229.49
X215.4Y-230.99
X215.4Y-232.49
X215.4Y-233.99
X215.4Y-235.49
X215.4Y-236.99
X215.4Y-238.49
X215.4Y-239.99
X215.4Y-241.49
X215.559Y-285.805
X215.7Y-74.65
X215.7Y-76.15
X215.7Y-77.65
X215.7Y-79.15
X215.7Y-80.65
X215.7Y-82.15
X215.7Y-83.65
X215.7Y-85.15
X215.7Y-86.65
X215.7Y-88.15
X215.7Y-89.65
X215.7Y-91.15
X215.7Y-92.65
X215.7Y-94.15
X215.7Y-95.65
X215.7Y-97.15
X215.7Y-98.65
X215.7Y-100.15
X215.7Y-101.65
X215.7Y-103.15
X215.7Y-104.65
X215.7Y-106.15
X215.7Y-107.65
X215.7Y-109.15
X215.7Y-110.65
X215.7Y-112.15
X215.7Y-113.65
X215.7Y-115.15
X215.7Y-116.65
X215.7Y-118.15
X215.7Y-119.65
X215.7Y-121.15
X215.7Y-122.65
X215.7Y-124.15
X215.7Y-125.65
X215.7Y-127.15
X215.7Y-128.65
X216.46Y-288.695
T2
X79.095Y-139.31
X79.477Y-256.395
X79.688Y-137.878
X79.688Y-140.742
X80.07Y-254.963
X80.07Y-257.827
X80.598Y-56.443
X80.598Y-59.307
X81.12Y-137.285
X81.12Y-141.335
X81.502Y-254.37
X81.502Y-258.42
X82.03Y-55.85
X82.03Y-59.9
X82.552Y-137.878
X82.552Y-140.742
X82.934Y-254.963
X82.934Y-257.827
X83.145Y-139.31
X83.462Y-56.443
X83.462Y-59.307
X83.527Y-256.395
X84.055Y-57.875
X99.335Y-203.56
X99.928Y-202.128
X99.928Y-204.992
X101.36Y-201.535
X101.36Y-205.585
X102.485Y-328.54
X102.792Y-202.128
X102.792Y-204.992
X103.078Y-327.108
X103.078Y-329.972
X103.385Y-203.56
X104.51Y-326.515
X104.51Y-330.565
X105.942Y-327.108
X105.942Y-329.972
X106.535Y-328.54
X117.425Y-56.465
X118.018Y-55.033
X118.018Y-57.897
X119.45Y-54.44
X119.45Y-58.49
X120.882Y-55.033
X120.882Y-57.897
X121.475Y-56.465
X189.08Y-256.67
X189.673Y-255.238
X189.673Y-258.102
X191.105Y-254.645
X191.105Y-258.695
X192.537Y-255.238
X192.537Y-258.102
X193.13Y-256.67
X210.485Y-57.645
X210.485Y-136.775
X211.078Y-56.213
X211.078Y-59.077
X211.078Y-135.343
X211.078Y-138.207
X211.237Y-346.412
X211.83Y-344.98
X211.83Y-347.844
X212.51Y-55.62
X212.51Y-59.67
X212.51Y-134.75
X212.51Y-138.8
X213.262Y-344.387
X213.262Y-348.437
X213.942Y-56.213
X213.942Y-59.077
X213.942Y-135.343
X213.942Y-138.207
X214.535Y-57.645
X214.535Y-136.775
X214.694Y-344.98
X214.694Y-347.844
X215.287Y-346.412
T3
X89.903Y-57.66
X90.892Y-55.274
X90.892Y-60.046
X93.278Y-54.285
X93.278Y-61.035
X95.664Y-55.274
X95.664Y-60.046
X96.653Y-57.66
X102.149Y-57.66
X103.138Y-55.274
X103.138Y-60.046
X105.524Y-54.285
X105.524Y-61.035
X107.91Y-55.274
X107.91Y-60.046
X108.899Y-57.66
X165.411Y-344.586
X166.4Y-342.2
X166.4Y-346.973
X168.786Y-341.211
X168.786Y-347.961
X171.173Y-342.2
X171.173Y-346.973
X172.161Y-344.586
X181.845Y-344.2
X182.834Y-341.814
X182.834Y-346.586
X185.22Y-340.825
X185.22Y-347.575
X187.606Y-341.814
X187.606Y-346.586
X188.595Y-344.2
T4
X93.8Y-75.785
X93.89Y-103.785
X108.8Y-75.785
X108.89Y-103.785
T5
X86.474Y-65.4
X86.474Y-80.4
X86.474Y-85.727
X86.474Y-100.727
X93.67Y-67.345
X108.67Y-67.345
X116.17Y-86.075
X116.17Y-101.075
X121.2Y-65.515
X121.2Y-80.515
X139.19Y-95.712
X139.19Y-98.252
X139.19Y-100.792
X142.83Y-95.712
X142.83Y-98.252
X142.83Y-100.792
X154.71Y-94.492
X154.71Y-97.032
X154.71Y-99.572
X158.46Y-94.492
X158.46Y-97.032
X158.46Y-99.572
X162.15Y-94.635
X162.15Y-97.175
X162.15Y-99.715
X162.15Y-102.255
X162.15Y-104.795
X162.15Y-107.335
X162.15Y-109.875
X162.15Y-112.415
X162.15Y-114.955
X162.15Y-117.495
X164.69Y-94.635
X164.69Y-97.175
X164.69Y-99.715
X164.69Y-102.255
X164.69Y-104.795
X164.69Y-107.335
X164.69Y-109.875
X164.69Y-112.415
X164.69Y-114.955
X164.69Y-117.495
X179.93Y-94.635
X179.93Y-97.175
X179.93Y-99.715
X179.93Y-102.255
X179.93Y-104.795
X179.93Y-107.335
X179.93Y-109.875
X179.93Y-112.415
X179.93Y-114.955
X179.93Y-117.495
X182.47Y-94.635
X182.47Y-97.175
X182.47Y-99.715
X182.47Y-102.255
X182.47Y-104.795
X182.47Y-107.335
X182.47Y-109.875
X182.47Y-112.415
X182.47Y-114.955
X182.47Y-117.495
X198.03Y-258.6
X208.03Y-258.6
X212.21Y-142.455
X212.21Y-152.455
X213.77Y-62.495
X213.77Y-72.495
T6
X196.67Y-162.385
X196.67Y-170.845
X196.67Y-180.505
X196.67Y-190.555
X196.67Y-200.605
X196.67Y-210.655
X196.67Y-218.305
X196.67Y-227.505
X211.67Y-162.385
X211.67Y-170.845
X211.67Y-180.505
X211.67Y-190.555
X211.67Y-200.605
X211.67Y-210.655
X211.67Y-218.305
X211.67Y-227.505
T7
X148.53Y-158.795
X176.03Y-158.795
T8
X83.54Y-306.91
X88.99Y-306.91
X94.44Y-306.91
X130.41Y-150.475
X135.86Y-150.475
X141.31Y-150.475
X176.86Y-302.95
X182.31Y-302.95
X184.54Y-151.165
X187.76Y-302.95
X189.99Y-151.165
X195.44Y-151.165
T9
X81.12Y-139.31
X81.502Y-256.395
X82.03Y-57.875
X82.03Y-57.875
X101.36Y-203.56
X104.51Y-328.54
X119.45Y-56.465
X191.105Y-256.67
X212.51Y-57.645
X212.51Y-136.775
X213.262Y-346.412
T10
X93.278Y-57.66
X105.524Y-57.66
X168.786Y-344.586
X185.22Y-344.2
M30
